M48
; DRILL file {KiCad 9.0.6} date 2026-07-30T20:00:33+0800
; FORMAT={-:-/ absolute / metric / decimal}
; #@! TF.CreationDate,2026-07-30T20:00:33+08:00
; #@! TF.GenerationSoftware,Kicad,Pcbnew,9.0.6
; #@! TF.FileFunction,Plated,1,2,PTH
FMAT,2
METRIC
; #@! TA.AperFunction,Plated,PTH,ViaDrill
T1C0.300
; #@! TA.AperFunction,Plated,PTH,ComponentDrill
T2C0.800
; #@! TA.AperFunction,Plated,PTH,ComponentDrill
T3C1.000
; #@! TA.AperFunction,Plated,PTH,ComponentDrill
T4C1.300
%
G90
G05
T1
X50.546Y-92.964
X52.578Y-50.546
X52.578Y-74.676
X52.578Y-108.712
X77.47Y-50.546
X84.582Y-121.92
X85.598Y-119.888
X87.884Y-118.618
X113.284Y-50.546
T2
X77.05Y-114.909
X77.05Y-117.449
X77.05Y-119.989
X77.054Y-66.652
X77.054Y-69.192
X77.054Y-71.732
X77.054Y-74.272
X77.054Y-76.812
X77.054Y-79.352
X77.054Y-81.892
X77.054Y-84.432
X77.054Y-86.972
X77.054Y-89.512
X77.054Y-92.052
X77.054Y-94.592
X77.054Y-97.132
X77.054Y-99.672
X77.054Y-102.212
X77.054Y-104.752
X77.054Y-107.292
X77.054Y-109.832
X77.054Y-112.372
X102.654Y-66.652
X102.654Y-69.192
X102.654Y-71.732
X102.654Y-74.272
X102.654Y-76.812
X102.654Y-79.352
X102.654Y-81.892
X102.654Y-84.432
X102.654Y-86.972
X102.654Y-89.512
X102.654Y-92.052
X102.654Y-94.592
X102.654Y-97.132
X102.654Y-99.672
X102.654Y-102.212
X102.654Y-104.752
X102.654Y-107.292
X102.654Y-109.832
X102.654Y-112.372
X102.654Y-114.912
X102.654Y-117.452
X102.654Y-119.992
T3
X55.372Y-56.134
X57.912Y-56.134
X58.42Y-133.604
X59.695Y-123.232
X60.452Y-56.134
X60.96Y-133.604
X62.23Y-85.344
X62.23Y-87.884
X62.23Y-90.424
X62.23Y-92.964
X62.23Y-95.504
X62.23Y-98.044
X62.23Y-106.172
X62.23Y-108.712
X62.23Y-111.252
X62.235Y-123.232
X62.484Y-64.516
X62.484Y-67.056
X62.484Y-69.596
X62.484Y-72.136
X62.484Y-74.676
X62.484Y-77.216
X62.992Y-56.134
X63.5Y-133.604
X65.532Y-56.134
X66.04Y-133.604
X68.072Y-56.134
X68.58Y-133.604
X71.12Y-133.604
X74.93Y-56.134
X77.47Y-56.134
X80.01Y-56.134
X85.09Y-53.599
X85.09Y-56.139
X93.98Y-53.599
X93.98Y-56.139
X103.632Y-53.599
X103.632Y-56.139
X107.442Y-133.604
X109.982Y-133.604
X112.522Y-133.604
X113.284Y-56.134
X115.824Y-56.134
X117.856Y-85.598
X118.11Y-67.056
X118.11Y-76.708
X118.11Y-133.604
X118.11Y-136.144
X118.364Y-56.134
X118.618Y-90.678
X118.618Y-93.218
X118.618Y-95.758
X118.618Y-100.838
X118.618Y-103.378
X118.618Y-105.918
X118.618Y-108.458
X118.618Y-110.998
X118.618Y-113.538
X120.396Y-85.598
X120.65Y-67.056
X120.65Y-76.708
X120.904Y-56.134
X123.444Y-56.134
X125.984Y-56.134
T4
X118.536Y-120.147
X118.536Y-125.227
M30
