%TF.GenerationSoftware,KiCad,Pcbnew,9.0.6*%
%TF.CreationDate,2026-07-30T20:00:26+08:00*%
%TF.ProjectId,Arm Subsystem PCB,41726d20-5375-4627-9379-7374656d2050,rev?*%
%TF.SameCoordinates,Original*%
%TF.FileFunction,Soldermask,Top*%
%TF.FilePolarity,Negative*%
%FSLAX46Y46*%
G04 Gerber Fmt 4.6, Leading zero omitted, Abs format (unit mm)*
G04 Created by KiCad (PCBNEW 9.0.6) date 2026-07-30 20:00:26*
%MOMM*%
%LPD*%
G01*
G04 APERTURE LIST*
G04 Aperture macros list*
%AMRoundRect*
0 Rectangle with rounded corners*
0 $1 Rounding radius*
0 $2 $3 $4 $5 $6 $7 $8 $9 X,Y pos of 4 corners*
0 Add a 4 corners polygon primitive as box body*
4,1,4,$2,$3,$4,$5,$6,$7,$8,$9,$2,$3,0*
0 Add four circle primitives for the rounded corners*
1,1,$1+$1,$2,$3*
1,1,$1+$1,$4,$5*
1,1,$1+$1,$6,$7*
1,1,$1+$1,$8,$9*
0 Add four rect primitives between the rounded corners*
20,1,$1+$1,$2,$3,$4,$5,0*
20,1,$1+$1,$4,$5,$6,$7,0*
20,1,$1+$1,$6,$7,$8,$9,0*
20,1,$1+$1,$8,$9,$2,$3,0*%
G04 Aperture macros list end*
%ADD10C,3.200000*%
%ADD11R,1.700000X1.700000*%
%ADD12C,1.700000*%
%ADD13RoundRect,0.250000X1.050000X-1.050000X1.050000X1.050000X-1.050000X1.050000X-1.050000X-1.050000X0*%
%ADD14C,2.600000*%
%ADD15R,2.000000X1.200000*%
%ADD16O,2.000000X1.200000*%
G04 APERTURE END LIST*
D10*
%TO.C,H4*%
X136854000Y-141544080D03*
%TD*%
%TO.C,H3*%
X42854000Y-141544080D03*
%TD*%
%TO.C,H2*%
X136854000Y-47544080D03*
%TD*%
%TO.C,H1*%
X42854000Y-47544080D03*
%TD*%
D11*
%TO.C,S1*%
X62230000Y-106172000D03*
D12*
X62230000Y-108712000D03*
X62230000Y-111252000D03*
%TD*%
D11*
%TO.C,S2*%
X118618000Y-90678000D03*
D12*
X118618000Y-93218000D03*
X118618000Y-95758000D03*
%TD*%
D11*
%TO.C,TOF2*%
X68072000Y-56134000D03*
D12*
X65532000Y-56134000D03*
X62992000Y-56134000D03*
X60452000Y-56134000D03*
X57912000Y-56134000D03*
X55372000Y-56134000D03*
%TD*%
D11*
%TO.C,TOF3*%
X118618000Y-100838000D03*
D12*
X118618000Y-103378000D03*
X118618000Y-105918000D03*
X118618000Y-108458000D03*
X118618000Y-110998000D03*
X118618000Y-113538000D03*
%TD*%
D11*
%TO.C,J1*%
X62484000Y-64516000D03*
D12*
X62484000Y-67056000D03*
X62484000Y-69596000D03*
X62484000Y-72136000D03*
X62484000Y-74676000D03*
X62484000Y-77216000D03*
%TD*%
D11*
%TO.C,S3*%
X80010000Y-56134000D03*
D12*
X77470000Y-56134000D03*
X74930000Y-56134000D03*
%TD*%
D13*
%TO.C,J3*%
X118536500Y-125227000D03*
D14*
X118536500Y-120147000D03*
%TD*%
D15*
%TO.C,U1*%
X77053944Y-66652000D03*
D16*
X77053944Y-69192000D03*
X77053944Y-71732000D03*
X77053944Y-74272000D03*
X77053944Y-76812000D03*
X77053944Y-79352000D03*
X77053944Y-81892000D03*
X77053944Y-84432000D03*
X77053944Y-86972000D03*
X77053944Y-89512000D03*
X77053944Y-92052000D03*
X77053944Y-94592000D03*
X77053944Y-97132000D03*
X77053944Y-99672000D03*
X77053944Y-102212000D03*
X77053944Y-104752000D03*
X77053944Y-107292000D03*
X77053944Y-109832000D03*
X77053944Y-112372000D03*
X77050264Y-114909280D03*
X77050264Y-117449280D03*
X77050264Y-119989280D03*
X102653944Y-119992000D03*
X102653944Y-117452000D03*
X102653944Y-114912000D03*
X102653944Y-112372000D03*
X102653944Y-109832000D03*
X102653944Y-107292000D03*
X102653944Y-104752000D03*
X102653944Y-102212000D03*
X102653944Y-99672000D03*
X102653944Y-97132000D03*
X102653944Y-94592000D03*
X102653944Y-92052000D03*
X102653944Y-89512000D03*
X102653944Y-86972000D03*
X102653944Y-84432000D03*
X102653944Y-81892000D03*
X102653944Y-79352000D03*
X102653944Y-76812000D03*
X102653944Y-74272000D03*
X102653944Y-71732000D03*
X102653944Y-69192000D03*
X102653944Y-66652000D03*
%TD*%
D11*
%TO.C,SW6*%
X93980000Y-56139000D03*
D12*
X93980000Y-53599000D03*
%TD*%
D11*
%TO.C,SW5*%
X118110000Y-133604000D03*
D12*
X118110000Y-136144000D03*
%TD*%
D11*
%TO.C,SW4*%
X117856000Y-85598000D03*
D12*
X120396000Y-85598000D03*
%TD*%
D11*
%TO.C,SW3*%
X118110000Y-76708000D03*
D12*
X120650000Y-76708000D03*
%TD*%
D11*
%TO.C,TOF4*%
X58420000Y-133604000D03*
D12*
X60960000Y-133604000D03*
X63500000Y-133604000D03*
X66040000Y-133604000D03*
X68580000Y-133604000D03*
X71120000Y-133604000D03*
%TD*%
D11*
%TO.C,J2*%
X113284000Y-56134000D03*
D12*
X115824000Y-56134000D03*
X118364000Y-56134000D03*
X120904000Y-56134000D03*
X123444000Y-56134000D03*
X125984000Y-56134000D03*
%TD*%
D11*
%TO.C,SW1*%
X62235000Y-123232000D03*
D12*
X59695000Y-123232000D03*
%TD*%
D11*
%TO.C,S4*%
X107442000Y-133604000D03*
D12*
X109982000Y-133604000D03*
X112522000Y-133604000D03*
%TD*%
D11*
%TO.C,SW7*%
X118110000Y-67056000D03*
D12*
X120650000Y-67056000D03*
%TD*%
D11*
%TO.C,SW8*%
X103632000Y-56139000D03*
D12*
X103632000Y-53599000D03*
%TD*%
D11*
%TO.C,SW2*%
X85090000Y-56139000D03*
D12*
X85090000Y-53599000D03*
%TD*%
D11*
%TO.C,TOF1*%
X62230000Y-98044000D03*
D12*
X62230000Y-95504000D03*
X62230000Y-92964000D03*
X62230000Y-90424000D03*
X62230000Y-87884000D03*
X62230000Y-85344000D03*
%TD*%
M02*
