%TF.GenerationSoftware,KiCad,Pcbnew,9.0.6*%
%TF.CreationDate,2026-07-30T20:00:26+08:00*%
%TF.ProjectId,Arm Subsystem PCB,41726d20-5375-4627-9379-7374656d2050,rev?*%
%TF.SameCoordinates,Original*%
%TF.FileFunction,Copper,L1,Top*%
%TF.FilePolarity,Positive*%
%FSLAX46Y46*%
G04 Gerber Fmt 4.6, Leading zero omitted, Abs format (unit mm)*
G04 Created by KiCad (PCBNEW 9.0.6) date 2026-07-30 20:00:26*
%MOMM*%
%LPD*%
G01*
G04 APERTURE LIST*
G04 Aperture macros list*
%AMRoundRect*
0 Rectangle with rounded corners*
0 $1 Rounding radius*
0 $2 $3 $4 $5 $6 $7 $8 $9 X,Y pos of 4 corners*
0 Add a 4 corners polygon primitive as box body*
4,1,4,$2,$3,$4,$5,$6,$7,$8,$9,$2,$3,0*
0 Add four circle primitives for the rounded corners*
1,1,$1+$1,$2,$3*
1,1,$1+$1,$4,$5*
1,1,$1+$1,$6,$7*
1,1,$1+$1,$8,$9*
0 Add four rect primitives between the rounded corners*
20,1,$1+$1,$2,$3,$4,$5,0*
20,1,$1+$1,$4,$5,$6,$7,0*
20,1,$1+$1,$6,$7,$8,$9,0*
20,1,$1+$1,$8,$9,$2,$3,0*%
G04 Aperture macros list end*
%TA.AperFunction,ComponentPad*%
%ADD10R,1.700000X1.700000*%
%TD*%
%TA.AperFunction,ComponentPad*%
%ADD11C,1.700000*%
%TD*%
%TA.AperFunction,ComponentPad*%
%ADD12RoundRect,0.250000X1.050000X-1.050000X1.050000X1.050000X-1.050000X1.050000X-1.050000X-1.050000X0*%
%TD*%
%TA.AperFunction,ComponentPad*%
%ADD13C,2.600000*%
%TD*%
%TA.AperFunction,ComponentPad*%
%ADD14R,2.000000X1.200000*%
%TD*%
%TA.AperFunction,ComponentPad*%
%ADD15O,2.000000X1.200000*%
%TD*%
%TA.AperFunction,ViaPad*%
%ADD16C,0.600000*%
%TD*%
%TA.AperFunction,Conductor*%
%ADD17C,0.500000*%
%TD*%
%TA.AperFunction,Conductor*%
%ADD18C,0.200000*%
%TD*%
G04 APERTURE END LIST*
D10*
%TO.P,S1,1,Pin_1*%
%TO.N,/Servo X1*%
X62230000Y-106172000D03*
D11*
%TO.P,S1,2,Pin_2*%
%TO.N,+5V*%
X62230000Y-108712000D03*
%TO.P,S1,3,Pin_3*%
%TO.N,+5V GND*%
X62230000Y-111252000D03*
%TD*%
D10*
%TO.P,S2,1,Pin_1*%
%TO.N,/Servo X2*%
X118618000Y-90678000D03*
D11*
%TO.P,S2,2,Pin_2*%
%TO.N,+5V*%
X118618000Y-93218000D03*
%TO.P,S2,3,Pin_3*%
%TO.N,+5V GND*%
X118618000Y-95758000D03*
%TD*%
D10*
%TO.P,TOF2,1,VIN*%
%TO.N,/3V Arm*%
X68072000Y-56134000D03*
D11*
%TO.P,TOF2,2,GND*%
%TO.N,+5V GND*%
X65532000Y-56134000D03*
%TO.P,TOF2,3,SCL*%
%TO.N,/SCL Arm*%
X62992000Y-56134000D03*
%TO.P,TOF2,4,SDA*%
%TO.N,/SDA Arm*%
X60452000Y-56134000D03*
%TO.P,TOF2,5,GPIO*%
%TO.N,unconnected-(TOF2-GPIO-Pad5)*%
X57912000Y-56134000D03*
%TO.P,TOF2,6,XSHUT*%
%TO.N,/XSHUT Y1*%
X55372000Y-56134000D03*
%TD*%
D10*
%TO.P,TOF3,1,VIN*%
%TO.N,/3V Arm*%
X118618000Y-100838000D03*
D11*
%TO.P,TOF3,2,GND*%
%TO.N,+5V GND*%
X118618000Y-103378000D03*
%TO.P,TOF3,3,SCL*%
%TO.N,/SCL Arm*%
X118618000Y-105918000D03*
%TO.P,TOF3,4,SDA*%
%TO.N,/SDA Arm*%
X118618000Y-108458000D03*
%TO.P,TOF3,5,GPIO*%
%TO.N,unconnected-(TOF3-GPIO-Pad5)*%
X118618000Y-110998000D03*
%TO.P,TOF3,6,XSHUT*%
%TO.N,/XSHUT X2*%
X118618000Y-113538000D03*
%TD*%
D10*
%TO.P,J1,1,Pin_1*%
%TO.N,+5V*%
X62484000Y-64516000D03*
D11*
%TO.P,J1,2,Pin_2*%
%TO.N,+5V GND*%
X62484000Y-67056000D03*
%TO.P,J1,3,Pin_3*%
%TO.N,/L_EN_X*%
X62484000Y-69596000D03*
%TO.P,J1,4,Pin_4*%
%TO.N,/R_EN_X*%
X62484000Y-72136000D03*
%TO.P,J1,5,Pin_5*%
%TO.N,/LPWM_X*%
X62484000Y-74676000D03*
%TO.P,J1,6,Pin_6*%
%TO.N,/RPWM_X*%
X62484000Y-77216000D03*
%TD*%
D10*
%TO.P,S3,1,Pin_1*%
%TO.N,/Servo Y1*%
X80010000Y-56134000D03*
D11*
%TO.P,S3,2,Pin_2*%
%TO.N,+5V*%
X77470000Y-56134000D03*
%TO.P,S3,3,Pin_3*%
%TO.N,+5V GND*%
X74930000Y-56134000D03*
%TD*%
D12*
%TO.P,J3,1,Pin_1*%
%TO.N,+5V*%
X118536500Y-125227000D03*
D13*
%TO.P,J3,2,Pin_2*%
%TO.N,+5V GND*%
X118536500Y-120147000D03*
%TD*%
D14*
%TO.P,U1,1,3V3*%
%TO.N,/3V Arm*%
X77053944Y-66652000D03*
D15*
%TO.P,U1,2,3V3*%
X77053944Y-69192000D03*
%TO.P,U1,3,CHIP_PU*%
%TO.N,unconnected-(U1-CHIP_PU-Pad3)*%
X77053944Y-71732000D03*
%TO.P,U1,4,GPIO4/ADC1_CH3*%
%TO.N,/Servo Y1*%
X77053944Y-74272000D03*
%TO.P,U1,5,GPIO5/ADC1_CH4*%
%TO.N,/Limit Y1*%
X77053944Y-76812000D03*
%TO.P,U1,6,GPIO6/ADC1_CH5*%
%TO.N,/XSHUT Y1*%
X77053944Y-79352000D03*
%TO.P,U1,7,GPIO7/ADC1_CH6*%
%TO.N,/L_EN_X*%
X77053944Y-81892000D03*
%TO.P,U1,8,GPIO15/ADC2_CH4/32K_P*%
%TO.N,/R_EN_X*%
X77053944Y-84432000D03*
%TO.P,U1,9,GPIO16/ADC2_CH5/32K_N*%
%TO.N,/LPWM_X*%
X77053944Y-86972000D03*
%TO.P,U1,10,GPIO17/ADC2_CH6*%
%TO.N,/RPWM_X*%
X77053944Y-89512000D03*
%TO.P,U1,11,GPIO18/ADC2_CH7*%
%TO.N,/XSHUT X1*%
X77053944Y-92052000D03*
%TO.P,U1,12,GPIO8/ADC1_CH7*%
%TO.N,/SDA Arm*%
X77053944Y-94592000D03*
%TO.P,U1,13,GPIO3/ADC1_CH2*%
%TO.N,/Y Arm Min*%
X77053944Y-97132000D03*
%TO.P,U1,14,GPIO46*%
%TO.N,unconnected-(U1-GPIO46-Pad14)*%
X77053944Y-99672000D03*
%TO.P,U1,15,GPIO9/ADC1_CH8*%
%TO.N,/SCL Arm*%
X77053944Y-102212000D03*
%TO.P,U1,16,GPIO10/ADC1_CH9*%
%TO.N,/Servo X1*%
X77053944Y-104752000D03*
%TO.P,U1,17,GPIO11/ADC2_CH0*%
%TO.N,/Limit X1*%
X77053944Y-107292000D03*
%TO.P,U1,18,GPIO12/ADC2_CH1*%
%TO.N,/XSHUT Y2*%
X77053944Y-109832000D03*
%TO.P,U1,19,GPIO13/ADC2_CH2*%
%TO.N,/Limit Y2*%
X77053944Y-112372000D03*
%TO.P,U1,20,GPIO14/ADC2_CH3*%
%TO.N,/Servo Y2*%
X77050264Y-114909280D03*
%TO.P,U1,21,5V*%
%TO.N,unconnected-(U1-5V-Pad21)*%
X77050264Y-117449280D03*
%TO.P,U1,22,GND*%
%TO.N,+5V GND*%
X77050264Y-119989280D03*
%TO.P,U1,23,GND*%
X102653944Y-119992000D03*
%TO.P,U1,24,GND*%
X102653944Y-117452000D03*
%TO.P,U1,25,GPIO19/USB_D-*%
%TO.N,unconnected-(U1-GPIO19{slash}USB_D--Pad25)*%
X102653944Y-114912000D03*
%TO.P,U1,26,GPIO20/USB_D+*%
%TO.N,unconnected-(U1-GPIO20{slash}USB_D+-Pad26)*%
X102653944Y-112372000D03*
%TO.P,U1,27,GPIO21*%
%TO.N,/XSHUT X2*%
X102653944Y-109832000D03*
%TO.P,U1,28,GPIO47*%
%TO.N,/Servo X2*%
X102653944Y-107292000D03*
%TO.P,U1,29,GPIO48*%
%TO.N,/Limit X2*%
X102653944Y-104752000D03*
%TO.P,U1,30,GPIO45*%
%TO.N,unconnected-(U1-GPIO45-Pad30)*%
X102653944Y-102212000D03*
%TO.P,U1,31,GPIO0*%
%TO.N,unconnected-(U1-GPIO0-Pad31)*%
X102653944Y-99672000D03*
%TO.P,U1,32,GPIO35*%
%TO.N,unconnected-(U1-GPIO35-Pad32)*%
X102653944Y-97132000D03*
%TO.P,U1,33,GPIO36*%
%TO.N,unconnected-(U1-GPIO36-Pad33)*%
X102653944Y-94592000D03*
%TO.P,U1,34,GPIO37*%
%TO.N,unconnected-(U1-GPIO37-Pad34)*%
X102653944Y-92052000D03*
%TO.P,U1,35,GPIO38*%
%TO.N,/RPWM_Y*%
X102653944Y-89512000D03*
%TO.P,U1,36,GPIO39/MTCK*%
%TO.N,/LPWM_Y*%
X102653944Y-86972000D03*
%TO.P,U1,37,GPIO40/MTDO*%
%TO.N,/R_EN_Y*%
X102653944Y-84432000D03*
%TO.P,U1,38,GPIO41/MTDI*%
%TO.N,/L_EN_Y*%
X102653944Y-81892000D03*
%TO.P,U1,39,GPIO42/MTMS*%
%TO.N,/X Arm Max*%
X102653944Y-79352000D03*
%TO.P,U1,40,GPIO2/ADC1_CH1*%
%TO.N,/X Arm Min*%
X102653944Y-76812000D03*
%TO.P,U1,41,GPIO1/ADC1_CH0*%
%TO.N,/Y Arm Max*%
X102653944Y-74272000D03*
%TO.P,U1,42,GPIO44/U0RXD*%
%TO.N,unconnected-(U1-GPIO44{slash}U0RXD-Pad42)*%
X102653944Y-71732000D03*
%TO.P,U1,43,GPIO43/U0TXD*%
%TO.N,unconnected-(U1-GPIO43{slash}U0TXD-Pad43)*%
X102653944Y-69192000D03*
%TO.P,U1,44,GND*%
%TO.N,+5V GND*%
X102653944Y-66652000D03*
%TD*%
D10*
%TO.P,SW6,1,1*%
%TO.N,/Y Arm Min*%
X93980000Y-56139000D03*
D11*
%TO.P,SW6,2,2*%
%TO.N,+5V GND*%
X93980000Y-53599000D03*
%TD*%
D10*
%TO.P,SW5,1,1*%
%TO.N,/Limit Y2*%
X118110000Y-133604000D03*
D11*
%TO.P,SW5,2,2*%
%TO.N,+5V GND*%
X118110000Y-136144000D03*
%TD*%
D10*
%TO.P,SW4,1,1*%
%TO.N,/Limit X2*%
X117856000Y-85598000D03*
D11*
%TO.P,SW4,2,2*%
%TO.N,+5V GND*%
X120396000Y-85598000D03*
%TD*%
D10*
%TO.P,SW3,1,1*%
%TO.N,/X Arm Max*%
X118110000Y-76708000D03*
D11*
%TO.P,SW3,2,2*%
%TO.N,+5V GND*%
X120650000Y-76708000D03*
%TD*%
D10*
%TO.P,TOF4,1,VIN*%
%TO.N,/3V Arm*%
X58420000Y-133604000D03*
D11*
%TO.P,TOF4,2,GND*%
%TO.N,+5V GND*%
X60960000Y-133604000D03*
%TO.P,TOF4,3,SCL*%
%TO.N,/SCL Arm*%
X63500000Y-133604000D03*
%TO.P,TOF4,4,SDA*%
%TO.N,/SDA Arm*%
X66040000Y-133604000D03*
%TO.P,TOF4,5,GPIO*%
%TO.N,unconnected-(TOF4-GPIO-Pad5)*%
X68580000Y-133604000D03*
%TO.P,TOF4,6,XSHUT*%
%TO.N,/XSHUT Y2*%
X71120000Y-133604000D03*
%TD*%
D10*
%TO.P,J2,1,Pin_1*%
%TO.N,+5V*%
X113284000Y-56134000D03*
D11*
%TO.P,J2,2,Pin_2*%
%TO.N,+5V GND*%
X115824000Y-56134000D03*
%TO.P,J2,3,Pin_3*%
%TO.N,/L_EN_Y*%
X118364000Y-56134000D03*
%TO.P,J2,4,Pin_4*%
%TO.N,/R_EN_Y*%
X120904000Y-56134000D03*
%TO.P,J2,5,Pin_5*%
%TO.N,/LPWM_Y*%
X123444000Y-56134000D03*
%TO.P,J2,6,Pin_6*%
%TO.N,/RPWM_Y*%
X125984000Y-56134000D03*
%TD*%
D10*
%TO.P,SW1,1,1*%
%TO.N,/Limit X1*%
X62235000Y-123232000D03*
D11*
%TO.P,SW1,2,2*%
%TO.N,+5V GND*%
X59695000Y-123232000D03*
%TD*%
D10*
%TO.P,S4,1,Pin_1*%
%TO.N,/Servo Y2*%
X107442000Y-133604000D03*
D11*
%TO.P,S4,2,Pin_2*%
%TO.N,+5V*%
X109982000Y-133604000D03*
%TO.P,S4,3,Pin_3*%
%TO.N,+5V GND*%
X112522000Y-133604000D03*
%TD*%
D10*
%TO.P,SW7,1,1*%
%TO.N,/X Arm Min*%
X118110000Y-67056000D03*
D11*
%TO.P,SW7,2,2*%
%TO.N,+5V GND*%
X120650000Y-67056000D03*
%TD*%
D10*
%TO.P,SW8,1,1*%
%TO.N,/Y Arm Max*%
X103632000Y-56139000D03*
D11*
%TO.P,SW8,2,2*%
%TO.N,+5V GND*%
X103632000Y-53599000D03*
%TD*%
D10*
%TO.P,SW2,1,1*%
%TO.N,/Limit Y1*%
X85090000Y-56139000D03*
D11*
%TO.P,SW2,2,2*%
%TO.N,+5V GND*%
X85090000Y-53599000D03*
%TD*%
D10*
%TO.P,TOF1,1,VIN*%
%TO.N,/3V Arm*%
X62230000Y-98044000D03*
D11*
%TO.P,TOF1,2,GND*%
%TO.N,+5V GND*%
X62230000Y-95504000D03*
%TO.P,TOF1,3,SCL*%
%TO.N,/SCL Arm*%
X62230000Y-92964000D03*
%TO.P,TOF1,4,SDA*%
%TO.N,/SDA Arm*%
X62230000Y-90424000D03*
%TO.P,TOF1,5,GPIO*%
%TO.N,unconnected-(TOF1-GPIO-Pad5)*%
X62230000Y-87884000D03*
%TO.P,TOF1,6,XSHUT*%
%TO.N,/XSHUT X1*%
X62230000Y-85344000D03*
%TD*%
D16*
%TO.N,+5V GND*%
X85598000Y-119888000D03*
%TO.N,+5V*%
X52578000Y-108712000D03*
X52578000Y-50546000D03*
X113284000Y-50546000D03*
X52578000Y-74676000D03*
X77470000Y-50546000D03*
%TO.N,/SDA Arm*%
X87884000Y-118618000D03*
X84582000Y-121920000D03*
%TO.N,/SCL Arm*%
X50546000Y-92964000D03*
%TD*%
D17*
%TO.N,+5V GND*%
X120650000Y-76708000D02*
X120650000Y-85344000D01*
X70967280Y-119989280D02*
X77050264Y-119989280D01*
X120650000Y-85344000D02*
X120396000Y-85598000D01*
X85598000Y-119888000D02*
X85496720Y-119989280D01*
X120396000Y-93980000D02*
X120396000Y-85598000D01*
X62230000Y-111252000D02*
X70967280Y-119989280D01*
X118618000Y-95758000D02*
X120396000Y-93980000D01*
X62484000Y-67056000D02*
X65532000Y-64008000D01*
X85496720Y-119989280D02*
X77050264Y-119989280D01*
X65532000Y-64008000D02*
X65532000Y-56134000D01*
%TO.N,+5V*%
X77470000Y-50546000D02*
X77470000Y-56134000D01*
X52578000Y-72136000D02*
X52578000Y-74676000D01*
X52578000Y-50546000D02*
X52578000Y-72136000D01*
X62230000Y-108712000D02*
X52578000Y-108712000D01*
X113284000Y-50546000D02*
X113284000Y-56134000D01*
D18*
%TO.N,/SDA Arm*%
X87884000Y-118618000D02*
X84582000Y-121920000D01*
%TO.N,/3V Arm*%
X62230000Y-98044000D02*
X68519056Y-91754944D01*
X68519056Y-91754944D02*
X68519056Y-77726888D01*
X68519056Y-77726888D02*
X77053944Y-69192000D01*
X118618000Y-100838000D02*
X65024000Y-100838000D01*
X65024000Y-100838000D02*
X62230000Y-98044000D01*
%TO.N,/SCL Arm*%
X62230000Y-92964000D02*
X50546000Y-92964000D01*
%TD*%
%TA.AperFunction,Conductor*%
%TO.N,+5V GND*%
G36*
X144296539Y-40064265D02*
G01*
X144342294Y-40117069D01*
X144353500Y-40168580D01*
X144353500Y-148919580D01*
X144333815Y-148986619D01*
X144281011Y-149032374D01*
X144229500Y-149043580D01*
X35478500Y-149043580D01*
X35411461Y-149023895D01*
X35365706Y-148971091D01*
X35354500Y-148919580D01*
X35354500Y-141422791D01*
X41003500Y-141422791D01*
X41003500Y-141665368D01*
X41035161Y-141905865D01*
X41097947Y-142140184D01*
X41190773Y-142364285D01*
X41190776Y-142364292D01*
X41312064Y-142574369D01*
X41312066Y-142574372D01*
X41312067Y-142574373D01*
X41459733Y-142766816D01*
X41459739Y-142766823D01*
X41631256Y-142938340D01*
X41631262Y-142938345D01*
X41823711Y-143086016D01*
X42033788Y-143207304D01*
X42257900Y-143300134D01*
X42492211Y-143362918D01*
X42672586Y-143386664D01*
X42732711Y-143394580D01*
X42732712Y-143394580D01*
X42975289Y-143394580D01*
X43023388Y-143388247D01*
X43215789Y-143362918D01*
X43450100Y-143300134D01*
X43674212Y-143207304D01*
X43884289Y-143086016D01*
X44076738Y-142938345D01*
X44248265Y-142766818D01*
X44395936Y-142574369D01*
X44517224Y-142364292D01*
X44610054Y-142140180D01*
X44672838Y-141905869D01*
X44704500Y-141665368D01*
X44704500Y-141422792D01*
X44704500Y-141422791D01*
X135003500Y-141422791D01*
X135003500Y-141665368D01*
X135035161Y-141905865D01*
X135097947Y-142140184D01*
X135190773Y-142364285D01*
X135190776Y-142364292D01*
X135312064Y-142574369D01*
X135312066Y-142574372D01*
X135312067Y-142574373D01*
X135459733Y-142766816D01*
X135459739Y-142766823D01*
X135631256Y-142938340D01*
X135631262Y-142938345D01*
X135823711Y-143086016D01*
X136033788Y-143207304D01*
X136257900Y-143300134D01*
X136492211Y-143362918D01*
X136672586Y-143386664D01*
X136732711Y-143394580D01*
X136732712Y-143394580D01*
X136975289Y-143394580D01*
X137023388Y-143388247D01*
X137215789Y-143362918D01*
X137450100Y-143300134D01*
X137674212Y-143207304D01*
X137884289Y-143086016D01*
X138076738Y-142938345D01*
X138248265Y-142766818D01*
X138395936Y-142574369D01*
X138517224Y-142364292D01*
X138610054Y-142140180D01*
X138672838Y-141905869D01*
X138704500Y-141665368D01*
X138704500Y-141422792D01*
X138672838Y-141182291D01*
X138610054Y-140947980D01*
X138517224Y-140723868D01*
X138395936Y-140513791D01*
X138248265Y-140321342D01*
X138248260Y-140321336D01*
X138076743Y-140149819D01*
X138076736Y-140149813D01*
X137884293Y-140002147D01*
X137884292Y-140002146D01*
X137884289Y-140002144D01*
X137674212Y-139880856D01*
X137674205Y-139880853D01*
X137450104Y-139788027D01*
X137215785Y-139725241D01*
X136975289Y-139693580D01*
X136975288Y-139693580D01*
X136732712Y-139693580D01*
X136732711Y-139693580D01*
X136492214Y-139725241D01*
X136257895Y-139788027D01*
X136033794Y-139880853D01*
X136033785Y-139880857D01*
X135823706Y-140002147D01*
X135631263Y-140149813D01*
X135631256Y-140149819D01*
X135459739Y-140321336D01*
X135459733Y-140321343D01*
X135312067Y-140513786D01*
X135190777Y-140723865D01*
X135190773Y-140723874D01*
X135097947Y-140947975D01*
X135035161Y-141182294D01*
X135003500Y-141422791D01*
X44704500Y-141422791D01*
X44672838Y-141182291D01*
X44610054Y-140947980D01*
X44517224Y-140723868D01*
X44395936Y-140513791D01*
X44248265Y-140321342D01*
X44248260Y-140321336D01*
X44076743Y-140149819D01*
X44076736Y-140149813D01*
X43884293Y-140002147D01*
X43884292Y-140002146D01*
X43884289Y-140002144D01*
X43674212Y-139880856D01*
X43674205Y-139880853D01*
X43450104Y-139788027D01*
X43215785Y-139725241D01*
X42975289Y-139693580D01*
X42975288Y-139693580D01*
X42732712Y-139693580D01*
X42732711Y-139693580D01*
X42492214Y-139725241D01*
X42257895Y-139788027D01*
X42033794Y-139880853D01*
X42033785Y-139880857D01*
X41823706Y-140002147D01*
X41631263Y-140149813D01*
X41631256Y-140149819D01*
X41459739Y-140321336D01*
X41459733Y-140321343D01*
X41312067Y-140513786D01*
X41190777Y-140723865D01*
X41190773Y-140723874D01*
X41097947Y-140947975D01*
X41035161Y-141182294D01*
X41003500Y-141422791D01*
X35354500Y-141422791D01*
X35354500Y-132706135D01*
X57069500Y-132706135D01*
X57069500Y-134501870D01*
X57069501Y-134501876D01*
X57075908Y-134561483D01*
X57126202Y-134696328D01*
X57126206Y-134696335D01*
X57212452Y-134811544D01*
X57212455Y-134811547D01*
X57327664Y-134897793D01*
X57327671Y-134897797D01*
X57462517Y-134948091D01*
X57462516Y-134948091D01*
X57469444Y-134948835D01*
X57522127Y-134954500D01*
X59317872Y-134954499D01*
X59377483Y-134948091D01*
X59512331Y-134897796D01*
X59627546Y-134811546D01*
X59713796Y-134696331D01*
X59764091Y-134561483D01*
X59770500Y-134501873D01*
X59770499Y-134477979D01*
X59773330Y-134464963D01*
X59783940Y-134445525D01*
X59790179Y-134424275D01*
X59806803Y-134403643D01*
X59806808Y-134403636D01*
X59806811Y-134403634D01*
X59806818Y-134403626D01*
X60477037Y-133733408D01*
X60494075Y-133796993D01*
X60559901Y-133911007D01*
X60652993Y-134004099D01*
X60767007Y-134069925D01*
X60830590Y-134086962D01*
X60198282Y-134719269D01*
X60198282Y-134719270D01*
X60252449Y-134758624D01*
X60441782Y-134855095D01*
X60643870Y-134920757D01*
X60853754Y-134954000D01*
X61066246Y-134954000D01*
X61276127Y-134920757D01*
X61276130Y-134920757D01*
X61478217Y-134855095D01*
X61667554Y-134758622D01*
X61721716Y-134719270D01*
X61721717Y-134719270D01*
X61089408Y-134086962D01*
X61152993Y-134069925D01*
X61267007Y-134004099D01*
X61360099Y-133911007D01*
X61425925Y-133796993D01*
X61442962Y-133733408D01*
X62075270Y-134365717D01*
X62075270Y-134365716D01*
X62114622Y-134311555D01*
X62119232Y-134302507D01*
X62167205Y-134251709D01*
X62235025Y-134234912D01*
X62301161Y-134257447D01*
X62340204Y-134302504D01*
X62344949Y-134311817D01*
X62469890Y-134483786D01*
X62620213Y-134634109D01*
X62792179Y-134759048D01*
X62792181Y-134759049D01*
X62792184Y-134759051D01*
X62981588Y-134855557D01*
X63183757Y-134921246D01*
X63393713Y-134954500D01*
X63393714Y-134954500D01*
X63606286Y-134954500D01*
X63606287Y-134954500D01*
X63816243Y-134921246D01*
X64018412Y-134855557D01*
X64207816Y-134759051D01*
X64294138Y-134696335D01*
X64379786Y-134634109D01*
X64379788Y-134634106D01*
X64379792Y-134634104D01*
X64530104Y-134483792D01*
X64530106Y-134483788D01*
X64530109Y-134483786D01*
X64655048Y-134311820D01*
X64655047Y-134311820D01*
X64655051Y-134311816D01*
X64659514Y-134303054D01*
X64707488Y-134252259D01*
X64775308Y-134235463D01*
X64841444Y-134257999D01*
X64880486Y-134303056D01*
X64884951Y-134311820D01*
X65009890Y-134483786D01*
X65160213Y-134634109D01*
X65332179Y-134759048D01*
X65332181Y-134759049D01*
X65332184Y-134759051D01*
X65521588Y-134855557D01*
X65723757Y-134921246D01*
X65933713Y-134954500D01*
X65933714Y-134954500D01*
X66146286Y-134954500D01*
X66146287Y-134954500D01*
X66356243Y-134921246D01*
X66558412Y-134855557D01*
X66747816Y-134759051D01*
X66834138Y-134696335D01*
X66919786Y-134634109D01*
X66919788Y-134634106D01*
X66919792Y-134634104D01*
X67070104Y-134483792D01*
X67070106Y-134483788D01*
X67070109Y-134483786D01*
X67195048Y-134311820D01*
X67195047Y-134311820D01*
X67195051Y-134311816D01*
X67199514Y-134303054D01*
X67247488Y-134252259D01*
X67315308Y-134235463D01*
X67381444Y-134257999D01*
X67420486Y-134303056D01*
X67424951Y-134311820D01*
X67549890Y-134483786D01*
X67700213Y-134634109D01*
X67872179Y-134759048D01*
X67872181Y-134759049D01*
X67872184Y-134759051D01*
X68061588Y-134855557D01*
X68263757Y-134921246D01*
X68473713Y-134954500D01*
X68473714Y-134954500D01*
X68686286Y-134954500D01*
X68686287Y-134954500D01*
X68896243Y-134921246D01*
X69098412Y-134855557D01*
X69287816Y-134759051D01*
X69374138Y-134696335D01*
X69459786Y-134634109D01*
X69459788Y-134634106D01*
X69459792Y-134634104D01*
X69610104Y-134483792D01*
X69610106Y-134483788D01*
X69610109Y-134483786D01*
X69735048Y-134311820D01*
X69735047Y-134311820D01*
X69735051Y-134311816D01*
X69739514Y-134303054D01*
X69787488Y-134252259D01*
X69855308Y-134235463D01*
X69921444Y-134257999D01*
X69960486Y-134303056D01*
X69964951Y-134311820D01*
X70089890Y-134483786D01*
X70240213Y-134634109D01*
X70412179Y-134759048D01*
X70412181Y-134759049D01*
X70412184Y-134759051D01*
X70601588Y-134855557D01*
X70803757Y-134921246D01*
X71013713Y-134954500D01*
X71013714Y-134954500D01*
X71226286Y-134954500D01*
X71226287Y-134954500D01*
X71436243Y-134921246D01*
X71638412Y-134855557D01*
X71827816Y-134759051D01*
X71914138Y-134696335D01*
X71999786Y-134634109D01*
X71999788Y-134634106D01*
X71999792Y-134634104D01*
X72150104Y-134483792D01*
X72150106Y-134483788D01*
X72150109Y-134483786D01*
X72275048Y-134311820D01*
X72275047Y-134311820D01*
X72275051Y-134311816D01*
X72371557Y-134122412D01*
X72437246Y-133920243D01*
X72470500Y-133710287D01*
X72470500Y-133497713D01*
X72437246Y-133287757D01*
X72371557Y-133085588D01*
X72275051Y-132896184D01*
X72235889Y-132842282D01*
X72187511Y-132775694D01*
X72187508Y-132775691D01*
X72163792Y-132743049D01*
X72150104Y-132724208D01*
X72132031Y-132706135D01*
X106091500Y-132706135D01*
X106091500Y-134501870D01*
X106091501Y-134501876D01*
X106097908Y-134561483D01*
X106148202Y-134696328D01*
X106148206Y-134696335D01*
X106234452Y-134811544D01*
X106234455Y-134811547D01*
X106349664Y-134897793D01*
X106349671Y-134897797D01*
X106484517Y-134948091D01*
X106484516Y-134948091D01*
X106491444Y-134948835D01*
X106544127Y-134954500D01*
X108339872Y-134954499D01*
X108399483Y-134948091D01*
X108534331Y-134897796D01*
X108649546Y-134811546D01*
X108735796Y-134696331D01*
X108784810Y-134564916D01*
X108826681Y-134508984D01*
X108892145Y-134484566D01*
X108960418Y-134499417D01*
X108988673Y-134520569D01*
X109102213Y-134634109D01*
X109274179Y-134759048D01*
X109274181Y-134759049D01*
X109274184Y-134759051D01*
X109463588Y-134855557D01*
X109665757Y-134921246D01*
X109875713Y-134954500D01*
X109875714Y-134954500D01*
X110088286Y-134954500D01*
X110088287Y-134954500D01*
X110298243Y-134921246D01*
X110500412Y-134855557D01*
X110689816Y-134759051D01*
X110776138Y-134696335D01*
X110861786Y-134634109D01*
X110861788Y-134634106D01*
X110861792Y-134634104D01*
X111012104Y-134483792D01*
X111012106Y-134483788D01*
X111012109Y-134483786D01*
X111097890Y-134365717D01*
X111137051Y-134311816D01*
X111141793Y-134302508D01*
X111189763Y-134251711D01*
X111257583Y-134234911D01*
X111323719Y-134257445D01*
X111362763Y-134302500D01*
X111367373Y-134311547D01*
X111406728Y-134365716D01*
X112039037Y-133733408D01*
X112056075Y-133796993D01*
X112121901Y-133911007D01*
X112214993Y-134004099D01*
X112329007Y-134069925D01*
X112392590Y-134086962D01*
X111760282Y-134719269D01*
X111760282Y-134719270D01*
X111814449Y-134758624D01*
X112003782Y-134855095D01*
X112205870Y-134920757D01*
X112415754Y-134954000D01*
X112628246Y-134954000D01*
X112838127Y-134920757D01*
X112838130Y-134920757D01*
X113040217Y-134855095D01*
X113229554Y-134758622D01*
X113283716Y-134719270D01*
X113283717Y-134719270D01*
X112651408Y-134086962D01*
X112714993Y-134069925D01*
X112829007Y-134004099D01*
X112922099Y-133911007D01*
X112987925Y-133796993D01*
X113004962Y-133733409D01*
X113637270Y-134365717D01*
X113637270Y-134365716D01*
X113676622Y-134311554D01*
X113773095Y-134122217D01*
X113838757Y-133920130D01*
X113838757Y-133920127D01*
X113872000Y-133710246D01*
X113872000Y-133497753D01*
X113838757Y-133287872D01*
X113838757Y-133287869D01*
X113773095Y-133085782D01*
X113676624Y-132896449D01*
X113637270Y-132842282D01*
X113637269Y-132842282D01*
X113004962Y-133474590D01*
X112987925Y-133411007D01*
X112922099Y-133296993D01*
X112829007Y-133203901D01*
X112714993Y-133138075D01*
X112651409Y-133121037D01*
X113066310Y-132706135D01*
X116759500Y-132706135D01*
X116759500Y-134501870D01*
X116759501Y-134501876D01*
X116765908Y-134561483D01*
X116816202Y-134696328D01*
X116816206Y-134696335D01*
X116902452Y-134811544D01*
X116902455Y-134811547D01*
X117017664Y-134897793D01*
X117017671Y-134897797D01*
X117062618Y-134914561D01*
X117152517Y-134948091D01*
X117212127Y-134954500D01*
X117222685Y-134954499D01*
X117289723Y-134974179D01*
X117310372Y-134990818D01*
X117980591Y-135661037D01*
X117917007Y-135678075D01*
X117802993Y-135743901D01*
X117709901Y-135836993D01*
X117644075Y-135951007D01*
X117627037Y-136014591D01*
X116994728Y-135382282D01*
X116994727Y-135382282D01*
X116955380Y-135436439D01*
X116858904Y-135625782D01*
X116793242Y-135827869D01*
X116793242Y-135827872D01*
X116760000Y-136037753D01*
X116760000Y-136250246D01*
X116793242Y-136460127D01*
X116793242Y-136460130D01*
X116858904Y-136662217D01*
X116955375Y-136851550D01*
X116994728Y-136905716D01*
X117627037Y-136273408D01*
X117644075Y-136336993D01*
X117709901Y-136451007D01*
X117802993Y-136544099D01*
X117917007Y-136609925D01*
X117980590Y-136626962D01*
X117348282Y-137259269D01*
X117348282Y-137259270D01*
X117402449Y-137298624D01*
X117591782Y-137395095D01*
X117793870Y-137460757D01*
X118003754Y-137494000D01*
X118216246Y-137494000D01*
X118426127Y-137460757D01*
X118426130Y-137460757D01*
X118628217Y-137395095D01*
X118817554Y-137298622D01*
X118871716Y-137259270D01*
X118871717Y-137259270D01*
X118239408Y-136626962D01*
X118302993Y-136609925D01*
X118417007Y-136544099D01*
X118510099Y-136451007D01*
X118575925Y-136336993D01*
X118592962Y-136273408D01*
X119225270Y-136905717D01*
X119225270Y-136905716D01*
X119264622Y-136851554D01*
X119361095Y-136662217D01*
X119426757Y-136460130D01*
X119426757Y-136460127D01*
X119460000Y-136250246D01*
X119460000Y-136037753D01*
X119426757Y-135827872D01*
X119426757Y-135827869D01*
X119361095Y-135625782D01*
X119264624Y-135436449D01*
X119225270Y-135382282D01*
X119225269Y-135382282D01*
X118592962Y-136014590D01*
X118575925Y-135951007D01*
X118510099Y-135836993D01*
X118417007Y-135743901D01*
X118302993Y-135678075D01*
X118239409Y-135661037D01*
X118909627Y-134990818D01*
X118970950Y-134957333D01*
X118997307Y-134954499D01*
X119007872Y-134954499D01*
X119067483Y-134948091D01*
X119202331Y-134897796D01*
X119317546Y-134811546D01*
X119403796Y-134696331D01*
X119454091Y-134561483D01*
X119460500Y-134501873D01*
X119460499Y-132706128D01*
X119454091Y-132646517D01*
X119403797Y-132511673D01*
X119403797Y-132511671D01*
X119403793Y-132511664D01*
X119317547Y-132396455D01*
X119317544Y-132396452D01*
X119202335Y-132310206D01*
X119202328Y-132310202D01*
X119067482Y-132259908D01*
X119067483Y-132259908D01*
X119007883Y-132253501D01*
X119007881Y-132253500D01*
X119007873Y-132253500D01*
X119007864Y-132253500D01*
X117212129Y-132253500D01*
X117212123Y-132253501D01*
X117152516Y-132259908D01*
X117017671Y-132310202D01*
X117017664Y-132310206D01*
X116902455Y-132396452D01*
X116902452Y-132396455D01*
X116816206Y-132511664D01*
X116816202Y-132511671D01*
X116765908Y-132646517D01*
X116761510Y-132687431D01*
X116759501Y-132706123D01*
X116759500Y-132706135D01*
X113066310Y-132706135D01*
X113157320Y-132615125D01*
X113283716Y-132488728D01*
X113229550Y-132449375D01*
X113040217Y-132352904D01*
X112838129Y-132287242D01*
X112628246Y-132254000D01*
X112415754Y-132254000D01*
X112205872Y-132287242D01*
X112205869Y-132287242D01*
X112003782Y-132352904D01*
X111814439Y-132449380D01*
X111760282Y-132488727D01*
X111760282Y-132488728D01*
X112392591Y-133121037D01*
X112329007Y-133138075D01*
X112214993Y-133203901D01*
X112121901Y-133296993D01*
X112056075Y-133411007D01*
X112039037Y-133474591D01*
X111406728Y-132842282D01*
X111406727Y-132842282D01*
X111367380Y-132896440D01*
X111367376Y-132896446D01*
X111362760Y-132905505D01*
X111314781Y-132956297D01*
X111246959Y-132973087D01*
X111180826Y-132950543D01*
X111141794Y-132905493D01*
X111137051Y-132896184D01*
X111137049Y-132896181D01*
X111137048Y-132896179D01*
X111012109Y-132724213D01*
X110861786Y-132573890D01*
X110689820Y-132448951D01*
X110500414Y-132352444D01*
X110500413Y-132352443D01*
X110500412Y-132352443D01*
X110298243Y-132286754D01*
X110298241Y-132286753D01*
X110298240Y-132286753D01*
X110136957Y-132261208D01*
X110088287Y-132253500D01*
X109875713Y-132253500D01*
X109827042Y-132261208D01*
X109665760Y-132286753D01*
X109463585Y-132352444D01*
X109274179Y-132448951D01*
X109102215Y-132573889D01*
X108988673Y-132687431D01*
X108927350Y-132720915D01*
X108857658Y-132715931D01*
X108801725Y-132674059D01*
X108784810Y-132643082D01*
X108735797Y-132511671D01*
X108735793Y-132511664D01*
X108649547Y-132396455D01*
X108649544Y-132396452D01*
X108534335Y-132310206D01*
X108534328Y-132310202D01*
X108399482Y-132259908D01*
X108399483Y-132259908D01*
X108339883Y-132253501D01*
X108339881Y-132253500D01*
X108339873Y-132253500D01*
X108339864Y-132253500D01*
X106544129Y-132253500D01*
X106544123Y-132253501D01*
X106484516Y-132259908D01*
X106349671Y-132310202D01*
X106349664Y-132310206D01*
X106234455Y-132396452D01*
X106234452Y-132396455D01*
X106148206Y-132511664D01*
X106148202Y-132511671D01*
X106097908Y-132646517D01*
X106093510Y-132687431D01*
X106091501Y-132706123D01*
X106091500Y-132706135D01*
X72132031Y-132706135D01*
X71999792Y-132573896D01*
X71999786Y-132573890D01*
X71827820Y-132448951D01*
X71638414Y-132352444D01*
X71638413Y-132352443D01*
X71638412Y-132352443D01*
X71436243Y-132286754D01*
X71436241Y-132286753D01*
X71436240Y-132286753D01*
X71274957Y-132261208D01*
X71226287Y-132253500D01*
X71013713Y-132253500D01*
X70965042Y-132261208D01*
X70803760Y-132286753D01*
X70601585Y-132352444D01*
X70412179Y-132448951D01*
X70240213Y-132573890D01*
X70089890Y-132724213D01*
X69964949Y-132896182D01*
X69960484Y-132904946D01*
X69912509Y-132955742D01*
X69844688Y-132972536D01*
X69778553Y-132949998D01*
X69739516Y-132904946D01*
X69735050Y-132896182D01*
X69610109Y-132724213D01*
X69459786Y-132573890D01*
X69287820Y-132448951D01*
X69098414Y-132352444D01*
X69098413Y-132352443D01*
X69098412Y-132352443D01*
X68896243Y-132286754D01*
X68896241Y-132286753D01*
X68896240Y-132286753D01*
X68734957Y-132261208D01*
X68686287Y-132253500D01*
X68473713Y-132253500D01*
X68425042Y-132261208D01*
X68263760Y-132286753D01*
X68061585Y-132352444D01*
X67872179Y-132448951D01*
X67700213Y-132573890D01*
X67549890Y-132724213D01*
X67424949Y-132896182D01*
X67420484Y-132904946D01*
X67372509Y-132955742D01*
X67304688Y-132972536D01*
X67238553Y-132949998D01*
X67199516Y-132904946D01*
X67195050Y-132896182D01*
X67070109Y-132724213D01*
X66919786Y-132573890D01*
X66747820Y-132448951D01*
X66558414Y-132352444D01*
X66558413Y-132352443D01*
X66558412Y-132352443D01*
X66356243Y-132286754D01*
X66356241Y-132286753D01*
X66356240Y-132286753D01*
X66194957Y-132261208D01*
X66146287Y-132253500D01*
X65933713Y-132253500D01*
X65885042Y-132261208D01*
X65723760Y-132286753D01*
X65521585Y-132352444D01*
X65332179Y-132448951D01*
X65160213Y-132573890D01*
X65009890Y-132724213D01*
X64884949Y-132896182D01*
X64880484Y-132904946D01*
X64832509Y-132955742D01*
X64764688Y-132972536D01*
X64698553Y-132949998D01*
X64659516Y-132904946D01*
X64655050Y-132896182D01*
X64530109Y-132724213D01*
X64379786Y-132573890D01*
X64207820Y-132448951D01*
X64018414Y-132352444D01*
X64018413Y-132352443D01*
X64018412Y-132352443D01*
X63816243Y-132286754D01*
X63816241Y-132286753D01*
X63816240Y-132286753D01*
X63654957Y-132261208D01*
X63606287Y-132253500D01*
X63393713Y-132253500D01*
X63345042Y-132261208D01*
X63183760Y-132286753D01*
X62981585Y-132352444D01*
X62792179Y-132448951D01*
X62620213Y-132573890D01*
X62469890Y-132724213D01*
X62344949Y-132896182D01*
X62340202Y-132905499D01*
X62292227Y-132956293D01*
X62224405Y-132973087D01*
X62158271Y-132950548D01*
X62119234Y-132905495D01*
X62114626Y-132896452D01*
X62075270Y-132842282D01*
X62075269Y-132842282D01*
X61442962Y-133474590D01*
X61425925Y-133411007D01*
X61360099Y-133296993D01*
X61267007Y-133203901D01*
X61152993Y-133138075D01*
X61089409Y-133121037D01*
X61721716Y-132488728D01*
X61667550Y-132449375D01*
X61478217Y-132352904D01*
X61276129Y-132287242D01*
X61066246Y-132254000D01*
X60853754Y-132254000D01*
X60643872Y-132287242D01*
X60643869Y-132287242D01*
X60441782Y-132352904D01*
X60252439Y-132449380D01*
X60198282Y-132488727D01*
X60198282Y-132488728D01*
X60830591Y-133121037D01*
X60767007Y-133138075D01*
X60652993Y-133203901D01*
X60559901Y-133296993D01*
X60494075Y-133411007D01*
X60477037Y-133474591D01*
X59806818Y-132804372D01*
X59773333Y-132743049D01*
X59773330Y-132743036D01*
X59770499Y-132730015D01*
X59770499Y-132706128D01*
X59764091Y-132646517D01*
X59735926Y-132571002D01*
X59713798Y-132511673D01*
X59713793Y-132511664D01*
X59627547Y-132396455D01*
X59627544Y-132396452D01*
X59512335Y-132310206D01*
X59512328Y-132310202D01*
X59377482Y-132259908D01*
X59377483Y-132259908D01*
X59317883Y-132253501D01*
X59317881Y-132253500D01*
X59317873Y-132253500D01*
X59317864Y-132253500D01*
X57522129Y-132253500D01*
X57522123Y-132253501D01*
X57462516Y-132259908D01*
X57327671Y-132310202D01*
X57327664Y-132310206D01*
X57212455Y-132396452D01*
X57212452Y-132396455D01*
X57126206Y-132511664D01*
X57126202Y-132511671D01*
X57075908Y-132646517D01*
X57071510Y-132687431D01*
X57069501Y-132706123D01*
X57069500Y-132706135D01*
X35354500Y-132706135D01*
X35354500Y-123125753D01*
X58345000Y-123125753D01*
X58345000Y-123338246D01*
X58378242Y-123548127D01*
X58378242Y-123548130D01*
X58443904Y-123750217D01*
X58540375Y-123939550D01*
X58579728Y-123993716D01*
X59212037Y-123361408D01*
X59229075Y-123424993D01*
X59294901Y-123539007D01*
X59387993Y-123632099D01*
X59502007Y-123697925D01*
X59565590Y-123714962D01*
X58933282Y-124347269D01*
X58933282Y-124347270D01*
X58987449Y-124386624D01*
X59176782Y-124483095D01*
X59378870Y-124548757D01*
X59588754Y-124582000D01*
X59801246Y-124582000D01*
X60011127Y-124548757D01*
X60011130Y-124548757D01*
X60213217Y-124483095D01*
X60402554Y-124386622D01*
X60456716Y-124347270D01*
X60456717Y-124347270D01*
X59824408Y-123714962D01*
X59887993Y-123697925D01*
X60002007Y-123632099D01*
X60095099Y-123539007D01*
X60160925Y-123424993D01*
X60177962Y-123361408D01*
X60848181Y-124031628D01*
X60881666Y-124092951D01*
X60884500Y-124119300D01*
X60884500Y-124129865D01*
X60884501Y-124129876D01*
X60890908Y-124189483D01*
X60941202Y-124324328D01*
X60941206Y-124324335D01*
X61027452Y-124439544D01*
X61027455Y-124439547D01*
X61142664Y-124525793D01*
X61142671Y-124525797D01*
X61277517Y-124576091D01*
X61277516Y-124576091D01*
X61284444Y-124576835D01*
X61337127Y-124582500D01*
X63132872Y-124582499D01*
X63192483Y-124576091D01*
X63327331Y-124525796D01*
X63442546Y-124439546D01*
X63528796Y-124324331D01*
X63579091Y-124189483D01*
X63585500Y-124129873D01*
X63585500Y-124126983D01*
X116736000Y-124126983D01*
X116736000Y-126327001D01*
X116736001Y-126327018D01*
X116746500Y-126429796D01*
X116746501Y-126429799D01*
X116801685Y-126596331D01*
X116801686Y-126596334D01*
X116893788Y-126745656D01*
X117017844Y-126869712D01*
X117167166Y-126961814D01*
X117333703Y-127016999D01*
X117436491Y-127027500D01*
X119636508Y-127027499D01*
X119739297Y-127016999D01*
X119905834Y-126961814D01*
X120055156Y-126869712D01*
X120179212Y-126745656D01*
X120271314Y-126596334D01*
X120326499Y-126429797D01*
X120337000Y-126327009D01*
X120336999Y-124126992D01*
X120336676Y-124123834D01*
X120326499Y-124024203D01*
X120326498Y-124024200D01*
X120271314Y-123857666D01*
X120179212Y-123708344D01*
X120055156Y-123584288D01*
X119905834Y-123492186D01*
X119739297Y-123437001D01*
X119739295Y-123437000D01*
X119636510Y-123426500D01*
X117436498Y-123426500D01*
X117436481Y-123426501D01*
X117333703Y-123437000D01*
X117333700Y-123437001D01*
X117167168Y-123492185D01*
X117167163Y-123492187D01*
X117017842Y-123584289D01*
X116893789Y-123708342D01*
X116801687Y-123857663D01*
X116801686Y-123857666D01*
X116746501Y-124024203D01*
X116746501Y-124024204D01*
X116746500Y-124024204D01*
X116736000Y-124126983D01*
X63585500Y-124126983D01*
X63585499Y-123232000D01*
X63585499Y-122334129D01*
X63585498Y-122334123D01*
X63585497Y-122334116D01*
X63579091Y-122274517D01*
X63528796Y-122139669D01*
X63528795Y-122139668D01*
X63528793Y-122139664D01*
X63442547Y-122024455D01*
X63442544Y-122024452D01*
X63327335Y-121938206D01*
X63327328Y-121938202D01*
X63192482Y-121887908D01*
X63192483Y-121887908D01*
X63132883Y-121881501D01*
X63132881Y-121881500D01*
X63132873Y-121881500D01*
X63132864Y-121881500D01*
X61337129Y-121881500D01*
X61337123Y-121881501D01*
X61277516Y-121887908D01*
X61142671Y-121938202D01*
X61142664Y-121938206D01*
X61027455Y-122024452D01*
X61027452Y-122024455D01*
X60941206Y-122139664D01*
X60941202Y-122139671D01*
X60890908Y-122274517D01*
X60884501Y-122334116D01*
X60884501Y-122334123D01*
X60884500Y-122334135D01*
X60884500Y-122344690D01*
X60864815Y-122411729D01*
X60848181Y-122432371D01*
X60177962Y-123102590D01*
X60160925Y-123039007D01*
X60095099Y-122924993D01*
X60002007Y-122831901D01*
X59887993Y-122766075D01*
X59824409Y-122749037D01*
X60456716Y-122116728D01*
X60402550Y-122077375D01*
X60213217Y-121980904D01*
X60011129Y-121915242D01*
X59801246Y-121882000D01*
X59588754Y-121882000D01*
X59378872Y-121915242D01*
X59378869Y-121915242D01*
X59176782Y-121980904D01*
X58987439Y-122077380D01*
X58933282Y-122116727D01*
X58933282Y-122116728D01*
X59565591Y-122749037D01*
X59502007Y-122766075D01*
X59387993Y-122831901D01*
X59294901Y-122924993D01*
X59229075Y-123039007D01*
X59212037Y-123102591D01*
X58579728Y-122470282D01*
X58579727Y-122470282D01*
X58540380Y-122524439D01*
X58443904Y-122713782D01*
X58378242Y-122915869D01*
X58378242Y-122915872D01*
X58345000Y-123125753D01*
X35354500Y-123125753D01*
X35354500Y-121841153D01*
X83781500Y-121841153D01*
X83781500Y-121998846D01*
X83812261Y-122153489D01*
X83812264Y-122153501D01*
X83872602Y-122299172D01*
X83872609Y-122299185D01*
X83960210Y-122430288D01*
X83960213Y-122430292D01*
X84071707Y-122541786D01*
X84071711Y-122541789D01*
X84202814Y-122629390D01*
X84202827Y-122629397D01*
X84348498Y-122689735D01*
X84348503Y-122689737D01*
X84469385Y-122713782D01*
X84503153Y-122720499D01*
X84503156Y-122720500D01*
X84503158Y-122720500D01*
X84660844Y-122720500D01*
X84660845Y-122720499D01*
X84815497Y-122689737D01*
X84961179Y-122629394D01*
X85092289Y-122541789D01*
X85203789Y-122430289D01*
X85291394Y-122299179D01*
X85351737Y-122153497D01*
X85377405Y-122024455D01*
X85382638Y-121998150D01*
X85415023Y-121936239D01*
X85416518Y-121934716D01*
X87609235Y-119741999D01*
X101179828Y-119741999D01*
X101179829Y-119742000D01*
X102338258Y-119742000D01*
X102333864Y-119746394D01*
X102281203Y-119837606D01*
X102253944Y-119939339D01*
X102253944Y-120044661D01*
X102281203Y-120146394D01*
X102333864Y-120237606D01*
X102338258Y-120242000D01*
X101179829Y-120242000D01*
X101181029Y-120249584D01*
X101234535Y-120414255D01*
X101313139Y-120568524D01*
X101414911Y-120708602D01*
X101537341Y-120831032D01*
X101677419Y-120932804D01*
X101831686Y-121011408D01*
X101996359Y-121064914D01*
X102167373Y-121092000D01*
X102403944Y-121092000D01*
X102403944Y-120307686D01*
X102408338Y-120312080D01*
X102499550Y-120364741D01*
X102601283Y-120392000D01*
X102706605Y-120392000D01*
X102808338Y-120364741D01*
X102899550Y-120312080D01*
X102903944Y-120307686D01*
X102903944Y-121092000D01*
X103140515Y-121092000D01*
X103311528Y-121064914D01*
X103476201Y-121011408D01*
X103630468Y-120932804D01*
X103770546Y-120831032D01*
X103892976Y-120708602D01*
X103994748Y-120568524D01*
X104073352Y-120414255D01*
X104126858Y-120249584D01*
X104128059Y-120242000D01*
X102969630Y-120242000D01*
X102974024Y-120237606D01*
X103026685Y-120146394D01*
X103053944Y-120044661D01*
X103053944Y-120029014D01*
X116736500Y-120029014D01*
X116736500Y-120264985D01*
X116767299Y-120498914D01*
X116828370Y-120726837D01*
X116918660Y-120944819D01*
X116918665Y-120944828D01*
X117036644Y-121149171D01*
X117036645Y-121149172D01*
X117099221Y-121230723D01*
X117935458Y-120394487D01*
X117960478Y-120454890D01*
X118031612Y-120561351D01*
X118122149Y-120651888D01*
X118228610Y-120723022D01*
X118289011Y-120748041D01*
X117452775Y-121584277D01*
X117534327Y-121646854D01*
X117534328Y-121646855D01*
X117738671Y-121764834D01*
X117738680Y-121764839D01*
X117956663Y-121855129D01*
X117956661Y-121855129D01*
X118184585Y-121916200D01*
X118418514Y-121946999D01*
X118418529Y-121947000D01*
X118654471Y-121947000D01*
X118654485Y-121946999D01*
X118888414Y-121916200D01*
X119116337Y-121855129D01*
X119334319Y-121764839D01*
X119334328Y-121764834D01*
X119538681Y-121646850D01*
X119620223Y-121584279D01*
X119620223Y-121584276D01*
X118783987Y-120748041D01*
X118844390Y-120723022D01*
X118950851Y-120651888D01*
X119041388Y-120561351D01*
X119112522Y-120454890D01*
X119137541Y-120394488D01*
X119973776Y-121230723D01*
X119973779Y-121230723D01*
X120036350Y-121149181D01*
X120154334Y-120944828D01*
X120154339Y-120944819D01*
X120244629Y-120726837D01*
X120305700Y-120498914D01*
X120336499Y-120264985D01*
X120336500Y-120264971D01*
X120336500Y-120029028D01*
X120336499Y-120029014D01*
X120305700Y-119795085D01*
X120244629Y-119567162D01*
X120154339Y-119349180D01*
X120154334Y-119349171D01*
X120036355Y-119144828D01*
X120036354Y-119144827D01*
X119973777Y-119063275D01*
X119137541Y-119899511D01*
X119112522Y-119839110D01*
X119041388Y-119732649D01*
X118950851Y-119642112D01*
X118844390Y-119570978D01*
X118783988Y-119545958D01*
X119620223Y-118709721D01*
X119538672Y-118647145D01*
X119538671Y-118647144D01*
X119334328Y-118529165D01*
X119334319Y-118529160D01*
X119116336Y-118438870D01*
X119116338Y-118438870D01*
X118888414Y-118377799D01*
X118654485Y-118347000D01*
X118418514Y-118347000D01*
X118184585Y-118377799D01*
X117956662Y-118438870D01*
X117738680Y-118529160D01*
X117738671Y-118529165D01*
X117534328Y-118647144D01*
X117534318Y-118647150D01*
X117452775Y-118709720D01*
X117452775Y-118709721D01*
X118289012Y-119545958D01*
X118228610Y-119570978D01*
X118122149Y-119642112D01*
X118031612Y-119732649D01*
X117960478Y-119839110D01*
X117935458Y-119899511D01*
X117099221Y-119063275D01*
X117099220Y-119063275D01*
X117036650Y-119144818D01*
X117036644Y-119144828D01*
X116918665Y-119349171D01*
X116918660Y-119349180D01*
X116828370Y-119567162D01*
X116767299Y-119795085D01*
X116736500Y-120029014D01*
X103053944Y-120029014D01*
X103053944Y-119939339D01*
X103026685Y-119837606D01*
X102974024Y-119746394D01*
X102969630Y-119742000D01*
X104128059Y-119742000D01*
X104128059Y-119741999D01*
X104126858Y-119734415D01*
X104073352Y-119569744D01*
X103994748Y-119415475D01*
X103892976Y-119275397D01*
X103770546Y-119152967D01*
X103630468Y-119051195D01*
X103476201Y-118972591D01*
X103311528Y-118919085D01*
X103140515Y-118892000D01*
X102903944Y-118892000D01*
X102903944Y-119676314D01*
X102899550Y-119671920D01*
X102808338Y-119619259D01*
X102706605Y-119592000D01*
X102601283Y-119592000D01*
X102499550Y-119619259D01*
X102408338Y-119671920D01*
X102403944Y-119676314D01*
X102403944Y-118892000D01*
X102167373Y-118892000D01*
X101996359Y-118919085D01*
X101831686Y-118972591D01*
X101677419Y-119051195D01*
X101537341Y-119152967D01*
X101414911Y-119275397D01*
X101313139Y-119415475D01*
X101234535Y-119569744D01*
X101181029Y-119734415D01*
X101179828Y-119741999D01*
X87609235Y-119741999D01*
X87898662Y-119452572D01*
X87959983Y-119419089D01*
X87962150Y-119418638D01*
X88020085Y-119407113D01*
X88117497Y-119387737D01*
X88263179Y-119327394D01*
X88394289Y-119239789D01*
X88505789Y-119128289D01*
X88593394Y-118997179D01*
X88653737Y-118851497D01*
X88677212Y-118733482D01*
X88684500Y-118696844D01*
X88684500Y-118539155D01*
X88684499Y-118539153D01*
X88681223Y-118522682D01*
X88653737Y-118384503D01*
X88638203Y-118347000D01*
X88593397Y-118238827D01*
X88593390Y-118238814D01*
X88505789Y-118107711D01*
X88505786Y-118107707D01*
X88394292Y-117996213D01*
X88394288Y-117996210D01*
X88263185Y-117908609D01*
X88263172Y-117908602D01*
X88117501Y-117848264D01*
X88117489Y-117848261D01*
X87962845Y-117817500D01*
X87962842Y-117817500D01*
X87805158Y-117817500D01*
X87805155Y-117817500D01*
X87650510Y-117848261D01*
X87650498Y-117848264D01*
X87504827Y-117908602D01*
X87504814Y-117908609D01*
X87373711Y-117996210D01*
X87373707Y-117996213D01*
X87262213Y-118107707D01*
X87262210Y-118107711D01*
X87174609Y-118238814D01*
X87174602Y-118238827D01*
X87114264Y-118384498D01*
X87114261Y-118384508D01*
X87083361Y-118539850D01*
X87050976Y-118601761D01*
X87049425Y-118603339D01*
X84567339Y-121085425D01*
X84506016Y-121118910D01*
X84503850Y-121119361D01*
X84348508Y-121150261D01*
X84348498Y-121150264D01*
X84202827Y-121210602D01*
X84202814Y-121210609D01*
X84071711Y-121298210D01*
X84071707Y-121298213D01*
X83960213Y-121409707D01*
X83960210Y-121409711D01*
X83872609Y-121540814D01*
X83872602Y-121540827D01*
X83812264Y-121686498D01*
X83812261Y-121686510D01*
X83781500Y-121841153D01*
X35354500Y-121841153D01*
X35354500Y-119739279D01*
X75576148Y-119739279D01*
X75576149Y-119739280D01*
X76734578Y-119739280D01*
X76730184Y-119743674D01*
X76677523Y-119834886D01*
X76650264Y-119936619D01*
X76650264Y-120041941D01*
X76677523Y-120143674D01*
X76730184Y-120234886D01*
X76734578Y-120239280D01*
X75576149Y-120239280D01*
X75577349Y-120246864D01*
X75630855Y-120411535D01*
X75709459Y-120565804D01*
X75811231Y-120705882D01*
X75933661Y-120828312D01*
X76073739Y-120930084D01*
X76228006Y-121008688D01*
X76392679Y-121062194D01*
X76563693Y-121089280D01*
X76800264Y-121089280D01*
X76800264Y-120304966D01*
X76804658Y-120309360D01*
X76895870Y-120362021D01*
X76997603Y-120389280D01*
X77102925Y-120389280D01*
X77204658Y-120362021D01*
X77295870Y-120309360D01*
X77300264Y-120304966D01*
X77300264Y-121089280D01*
X77536835Y-121089280D01*
X77707848Y-121062194D01*
X77872521Y-121008688D01*
X78026788Y-120930084D01*
X78166866Y-120828312D01*
X78289296Y-120705882D01*
X78391068Y-120565804D01*
X78469672Y-120411535D01*
X78523178Y-120246864D01*
X78524379Y-120239280D01*
X77365950Y-120239280D01*
X77370344Y-120234886D01*
X77423005Y-120143674D01*
X77450264Y-120041941D01*
X77450264Y-119936619D01*
X77423005Y-119834886D01*
X77370344Y-119743674D01*
X77365950Y-119739280D01*
X78524379Y-119739280D01*
X78524379Y-119739279D01*
X78523178Y-119731695D01*
X78469672Y-119567024D01*
X78391068Y-119412755D01*
X78289296Y-119272677D01*
X78166866Y-119150247D01*
X78026788Y-119048475D01*
X77872521Y-118969871D01*
X77707848Y-118916365D01*
X77536835Y-118889280D01*
X77300264Y-118889280D01*
X77300264Y-119673594D01*
X77295870Y-119669200D01*
X77204658Y-119616539D01*
X77102925Y-119589280D01*
X76997603Y-119589280D01*
X76895870Y-119616539D01*
X76804658Y-119669200D01*
X76800264Y-119673594D01*
X76800264Y-118889280D01*
X76563693Y-118889280D01*
X76392679Y-118916365D01*
X76228006Y-118969871D01*
X76073739Y-119048475D01*
X75933661Y-119150247D01*
X75811231Y-119272677D01*
X75709459Y-119412755D01*
X75630855Y-119567024D01*
X75577349Y-119731695D01*
X75576148Y-119739279D01*
X35354500Y-119739279D01*
X35354500Y-117362669D01*
X75549764Y-117362669D01*
X75549764Y-117535891D01*
X75576862Y-117706981D01*
X75630391Y-117871725D01*
X75709032Y-118026068D01*
X75810850Y-118166208D01*
X75933336Y-118288694D01*
X76073476Y-118390512D01*
X76227819Y-118469153D01*
X76392563Y-118522682D01*
X76563653Y-118549780D01*
X76563654Y-118549780D01*
X77536874Y-118549780D01*
X77536875Y-118549780D01*
X77707965Y-118522682D01*
X77872709Y-118469153D01*
X78027052Y-118390512D01*
X78167192Y-118288694D01*
X78289678Y-118166208D01*
X78391496Y-118026068D01*
X78470137Y-117871725D01*
X78523666Y-117706981D01*
X78550764Y-117535891D01*
X78550764Y-117362669D01*
X78525316Y-117201999D01*
X101179828Y-117201999D01*
X101179829Y-117202000D01*
X102338258Y-117202000D01*
X102333864Y-117206394D01*
X102281203Y-117297606D01*
X102253944Y-117399339D01*
X102253944Y-117504661D01*
X102281203Y-117606394D01*
X102333864Y-117697606D01*
X102338258Y-117702000D01*
X101179829Y-117702000D01*
X101181029Y-117709584D01*
X101234535Y-117874255D01*
X101313139Y-118028524D01*
X101414911Y-118168602D01*
X101537341Y-118291032D01*
X101677419Y-118392804D01*
X101831686Y-118471408D01*
X101996359Y-118524914D01*
X102167373Y-118552000D01*
X102403944Y-118552000D01*
X102403944Y-117767686D01*
X102408338Y-117772080D01*
X102499550Y-117824741D01*
X102601283Y-117852000D01*
X102706605Y-117852000D01*
X102808338Y-117824741D01*
X102899550Y-117772080D01*
X102903944Y-117767686D01*
X102903944Y-118552000D01*
X103140515Y-118552000D01*
X103311528Y-118524914D01*
X103476201Y-118471408D01*
X103630468Y-118392804D01*
X103770546Y-118291032D01*
X103892976Y-118168602D01*
X103994748Y-118028524D01*
X104073352Y-117874255D01*
X104126858Y-117709584D01*
X104128059Y-117702000D01*
X102969630Y-117702000D01*
X102974024Y-117697606D01*
X103026685Y-117606394D01*
X103053944Y-117504661D01*
X103053944Y-117399339D01*
X103026685Y-117297606D01*
X102974024Y-117206394D01*
X102969630Y-117202000D01*
X104128059Y-117202000D01*
X104128059Y-117201999D01*
X104126858Y-117194415D01*
X104073352Y-117029744D01*
X103994748Y-116875475D01*
X103892976Y-116735397D01*
X103770546Y-116612967D01*
X103630468Y-116511195D01*
X103476201Y-116432591D01*
X103311528Y-116379085D01*
X103140515Y-116352000D01*
X102903944Y-116352000D01*
X102903944Y-117136314D01*
X102899550Y-117131920D01*
X102808338Y-117079259D01*
X102706605Y-117052000D01*
X102601283Y-117052000D01*
X102499550Y-117079259D01*
X102408338Y-117131920D01*
X102403944Y-117136314D01*
X102403944Y-116352000D01*
X102167373Y-116352000D01*
X101996359Y-116379085D01*
X101831686Y-116432591D01*
X101677419Y-116511195D01*
X101537341Y-116612967D01*
X101414911Y-116735397D01*
X101313139Y-116875475D01*
X101234535Y-117029744D01*
X101181029Y-117194415D01*
X101179828Y-117201999D01*
X78525316Y-117201999D01*
X78523666Y-117191579D01*
X78470137Y-117026835D01*
X78391496Y-116872492D01*
X78289678Y-116732352D01*
X78167192Y-116609866D01*
X78027052Y-116508048D01*
X77872709Y-116429407D01*
X77707965Y-116375878D01*
X77707963Y-116375877D01*
X77707962Y-116375877D01*
X77557205Y-116352000D01*
X77536875Y-116348780D01*
X76563653Y-116348780D01*
X76543323Y-116352000D01*
X76392566Y-116375877D01*
X76227816Y-116429408D01*
X76073475Y-116508048D01*
X75993520Y-116566139D01*
X75933336Y-116609866D01*
X75933334Y-116609868D01*
X75933333Y-116609868D01*
X75810852Y-116732349D01*
X75810852Y-116732350D01*
X75810850Y-116732352D01*
X75808638Y-116735397D01*
X75709032Y-116872491D01*
X75630392Y-117026832D01*
X75576861Y-117191582D01*
X75560069Y-117297606D01*
X75549764Y-117362669D01*
X35354500Y-117362669D01*
X35354500Y-114822669D01*
X75549764Y-114822669D01*
X75549764Y-114995891D01*
X75576862Y-115166981D01*
X75630391Y-115331725D01*
X75709032Y-115486068D01*
X75810850Y-115626208D01*
X75933336Y-115748694D01*
X76073476Y-115850512D01*
X76227819Y-115929153D01*
X76392563Y-115982682D01*
X76563653Y-116009780D01*
X76563654Y-116009780D01*
X77536874Y-116009780D01*
X77536875Y-116009780D01*
X77707965Y-115982682D01*
X77872709Y-115929153D01*
X78027052Y-115850512D01*
X78167192Y-115748694D01*
X78289678Y-115626208D01*
X78391496Y-115486068D01*
X78470137Y-115331725D01*
X78523666Y-115166981D01*
X78550764Y-114995891D01*
X78550764Y-114825389D01*
X101153444Y-114825389D01*
X101153444Y-114998610D01*
X101180110Y-115166977D01*
X101180542Y-115169701D01*
X101234071Y-115334445D01*
X101312712Y-115488788D01*
X101414530Y-115628928D01*
X101537016Y-115751414D01*
X101677156Y-115853232D01*
X101831499Y-115931873D01*
X101996243Y-115985402D01*
X102167333Y-116012500D01*
X102167334Y-116012500D01*
X103140554Y-116012500D01*
X103140555Y-116012500D01*
X103311645Y-115985402D01*
X103476389Y-115931873D01*
X103630732Y-115853232D01*
X103770872Y-115751414D01*
X103893358Y-115628928D01*
X103995176Y-115488788D01*
X104073817Y-115334445D01*
X104127346Y-115169701D01*
X104154444Y-114998611D01*
X104154444Y-114825389D01*
X104127346Y-114654299D01*
X104073817Y-114489555D01*
X103995176Y-114335212D01*
X103893358Y-114195072D01*
X103770872Y-114072586D01*
X103630732Y-113970768D01*
X103476389Y-113892127D01*
X103311645Y-113838598D01*
X103311643Y-113838597D01*
X103311642Y-113838597D01*
X103180215Y-113817781D01*
X103140555Y-113811500D01*
X102167333Y-113811500D01*
X102127672Y-113817781D01*
X101996246Y-113838597D01*
X101831496Y-113892128D01*
X101677155Y-113970768D01*
X101597200Y-114028859D01*
X101537016Y-114072586D01*
X101537014Y-114072588D01*
X101537013Y-114072588D01*
X101414532Y-114195069D01*
X101414532Y-114195070D01*
X101414530Y-114195072D01*
X101377662Y-114245816D01*
X101312712Y-114335211D01*
X101234072Y-114489552D01*
X101180541Y-114654302D01*
X101153444Y-114825389D01*
X78550764Y-114825389D01*
X78550764Y-114822669D01*
X78523666Y-114651579D01*
X78470137Y-114486835D01*
X78391496Y-114332492D01*
X78289678Y-114192352D01*
X78167192Y-114069866D01*
X78027052Y-113968048D01*
X77872709Y-113889407D01*
X77707965Y-113835878D01*
X77707963Y-113835877D01*
X77707962Y-113835877D01*
X77554048Y-113811500D01*
X77536875Y-113808780D01*
X76563653Y-113808780D01*
X76546480Y-113811500D01*
X76392566Y-113835877D01*
X76227816Y-113889408D01*
X76073475Y-113968048D01*
X75993520Y-114026139D01*
X75933336Y-114069866D01*
X75933334Y-114069868D01*
X75933333Y-114069868D01*
X75810852Y-114192349D01*
X75810852Y-114192350D01*
X75810850Y-114192352D01*
X75808874Y-114195072D01*
X75709032Y-114332491D01*
X75630392Y-114486832D01*
X75576861Y-114651582D01*
X75570294Y-114693048D01*
X75549764Y-114822669D01*
X35354500Y-114822669D01*
X35354500Y-108633153D01*
X51777500Y-108633153D01*
X51777500Y-108790846D01*
X51808261Y-108945489D01*
X51808264Y-108945501D01*
X51868602Y-109091172D01*
X51868609Y-109091185D01*
X51956210Y-109222288D01*
X51956213Y-109222292D01*
X52067707Y-109333786D01*
X52067711Y-109333789D01*
X52198814Y-109421390D01*
X52198827Y-109421397D01*
X52298060Y-109462500D01*
X52344503Y-109481737D01*
X52499153Y-109512499D01*
X52499156Y-109512500D01*
X52499158Y-109512500D01*
X52656844Y-109512500D01*
X52656845Y-109512499D01*
X52733152Y-109497320D01*
X52811488Y-109481739D01*
X52811489Y-109481738D01*
X52811497Y-109481737D01*
X52835155Y-109471937D01*
X52882604Y-109462500D01*
X61042779Y-109462500D01*
X61109818Y-109482185D01*
X61143097Y-109513615D01*
X61199892Y-109591788D01*
X61350213Y-109742109D01*
X61522179Y-109867048D01*
X61522181Y-109867049D01*
X61522184Y-109867051D01*
X61531493Y-109871794D01*
X61582290Y-109919766D01*
X61599087Y-109987587D01*
X61576552Y-110053722D01*
X61531505Y-110092760D01*
X61522446Y-110097376D01*
X61522440Y-110097380D01*
X61468282Y-110136727D01*
X61468282Y-110136728D01*
X62100591Y-110769037D01*
X62037007Y-110786075D01*
X61922993Y-110851901D01*
X61829901Y-110944993D01*
X61764075Y-111059007D01*
X61747037Y-111122591D01*
X61114728Y-110490282D01*
X61114727Y-110490282D01*
X61075380Y-110544439D01*
X60978904Y-110733782D01*
X60913242Y-110935869D01*
X60913242Y-110935872D01*
X60880000Y-111145753D01*
X60880000Y-111358246D01*
X60913242Y-111568127D01*
X60913242Y-111568130D01*
X60978904Y-111770217D01*
X61075375Y-111959550D01*
X61114728Y-112013716D01*
X61747037Y-111381408D01*
X61764075Y-111444993D01*
X61829901Y-111559007D01*
X61922993Y-111652099D01*
X62037007Y-111717925D01*
X62100590Y-111734962D01*
X61468282Y-112367269D01*
X61468282Y-112367270D01*
X61522449Y-112406624D01*
X61711782Y-112503095D01*
X61913870Y-112568757D01*
X62123754Y-112602000D01*
X62336246Y-112602000D01*
X62546127Y-112568757D01*
X62546130Y-112568757D01*
X62748217Y-112503095D01*
X62937554Y-112406622D01*
X62991716Y-112367270D01*
X62991717Y-112367270D01*
X62909836Y-112285389D01*
X75553444Y-112285389D01*
X75553444Y-112458610D01*
X75576154Y-112602000D01*
X75580542Y-112629701D01*
X75634071Y-112794445D01*
X75712712Y-112948788D01*
X75814530Y-113088928D01*
X75937016Y-113211414D01*
X76077156Y-113313232D01*
X76231499Y-113391873D01*
X76396243Y-113445402D01*
X76567333Y-113472500D01*
X76567334Y-113472500D01*
X77540554Y-113472500D01*
X77540555Y-113472500D01*
X77711645Y-113445402D01*
X77876389Y-113391873D01*
X78030732Y-113313232D01*
X78170872Y-113211414D01*
X78293358Y-113088928D01*
X78395176Y-112948788D01*
X78473817Y-112794445D01*
X78527346Y-112629701D01*
X78554444Y-112458611D01*
X78554444Y-112285389D01*
X101153444Y-112285389D01*
X101153444Y-112458610D01*
X101176154Y-112602000D01*
X101180542Y-112629701D01*
X101234071Y-112794445D01*
X101312712Y-112948788D01*
X101414530Y-113088928D01*
X101537016Y-113211414D01*
X101677156Y-113313232D01*
X101831499Y-113391873D01*
X101996243Y-113445402D01*
X102167333Y-113472500D01*
X102167334Y-113472500D01*
X103140554Y-113472500D01*
X103140555Y-113472500D01*
X103311645Y-113445402D01*
X103476389Y-113391873D01*
X103630732Y-113313232D01*
X103770872Y-113211414D01*
X103893358Y-113088928D01*
X103995176Y-112948788D01*
X104073817Y-112794445D01*
X104127346Y-112629701D01*
X104154444Y-112458611D01*
X104154444Y-112285389D01*
X104127346Y-112114299D01*
X104073817Y-111949555D01*
X103995176Y-111795212D01*
X103893358Y-111655072D01*
X103770872Y-111532586D01*
X103630732Y-111430768D01*
X103476389Y-111352127D01*
X103311645Y-111298598D01*
X103311643Y-111298597D01*
X103311642Y-111298597D01*
X103180215Y-111277781D01*
X103140555Y-111271500D01*
X102167333Y-111271500D01*
X102127672Y-111277781D01*
X101996246Y-111298597D01*
X101831496Y-111352128D01*
X101677155Y-111430768D01*
X101597200Y-111488859D01*
X101537016Y-111532586D01*
X101537014Y-111532588D01*
X101537013Y-111532588D01*
X101414532Y-111655069D01*
X101414532Y-111655070D01*
X101414530Y-111655072D01*
X101377662Y-111705816D01*
X101312712Y-111795211D01*
X101234072Y-111949552D01*
X101180541Y-112114302D01*
X101153444Y-112285389D01*
X78554444Y-112285389D01*
X78527346Y-112114299D01*
X78473817Y-111949555D01*
X78395176Y-111795212D01*
X78293358Y-111655072D01*
X78170872Y-111532586D01*
X78030732Y-111430768D01*
X77876389Y-111352127D01*
X77711645Y-111298598D01*
X77711643Y-111298597D01*
X77711642Y-111298597D01*
X77580215Y-111277781D01*
X77540555Y-111271500D01*
X76567333Y-111271500D01*
X76527672Y-111277781D01*
X76396246Y-111298597D01*
X76231496Y-111352128D01*
X76077155Y-111430768D01*
X75997200Y-111488859D01*
X75937016Y-111532586D01*
X75937014Y-111532588D01*
X75937013Y-111532588D01*
X75814532Y-111655069D01*
X75814532Y-111655070D01*
X75814530Y-111655072D01*
X75777662Y-111705816D01*
X75712712Y-111795211D01*
X75634072Y-111949552D01*
X75580541Y-112114302D01*
X75553444Y-112285389D01*
X62909836Y-112285389D01*
X62359408Y-111734962D01*
X62422993Y-111717925D01*
X62537007Y-111652099D01*
X62630099Y-111559007D01*
X62695925Y-111444993D01*
X62712962Y-111381408D01*
X63345270Y-112013717D01*
X63345270Y-112013716D01*
X63384622Y-111959554D01*
X63481095Y-111770217D01*
X63546757Y-111568130D01*
X63546757Y-111568127D01*
X63580000Y-111358246D01*
X63580000Y-111145753D01*
X63546757Y-110935872D01*
X63546757Y-110935869D01*
X63481095Y-110733782D01*
X63384624Y-110544449D01*
X63345270Y-110490282D01*
X63345269Y-110490282D01*
X62712962Y-111122590D01*
X62695925Y-111059007D01*
X62630099Y-110944993D01*
X62537007Y-110851901D01*
X62422993Y-110786075D01*
X62359409Y-110769037D01*
X62991716Y-110136728D01*
X62937547Y-110097373D01*
X62937547Y-110097372D01*
X62928500Y-110092763D01*
X62877706Y-110044788D01*
X62860912Y-109976966D01*
X62883451Y-109910832D01*
X62928508Y-109871793D01*
X62937816Y-109867051D01*
X63043164Y-109790512D01*
X63105271Y-109745389D01*
X75553444Y-109745389D01*
X75553444Y-109918611D01*
X75580542Y-110089701D01*
X75634071Y-110254445D01*
X75712712Y-110408788D01*
X75814530Y-110548928D01*
X75937016Y-110671414D01*
X76077156Y-110773232D01*
X76231499Y-110851873D01*
X76396243Y-110905402D01*
X76567333Y-110932500D01*
X76567334Y-110932500D01*
X77540554Y-110932500D01*
X77540555Y-110932500D01*
X77711645Y-110905402D01*
X77876389Y-110851873D01*
X78030732Y-110773232D01*
X78170872Y-110671414D01*
X78293358Y-110548928D01*
X78395176Y-110408788D01*
X78473817Y-110254445D01*
X78527346Y-110089701D01*
X78554444Y-109918611D01*
X78554444Y-109745389D01*
X101153444Y-109745389D01*
X101153444Y-109918611D01*
X101180542Y-110089701D01*
X101234071Y-110254445D01*
X101312712Y-110408788D01*
X101414530Y-110548928D01*
X101537016Y-110671414D01*
X101677156Y-110773232D01*
X101831499Y-110851873D01*
X101996243Y-110905402D01*
X102167333Y-110932500D01*
X102167334Y-110932500D01*
X103140554Y-110932500D01*
X103140555Y-110932500D01*
X103311645Y-110905402D01*
X103476389Y-110851873D01*
X103630732Y-110773232D01*
X103770872Y-110671414D01*
X103893358Y-110548928D01*
X103995176Y-110408788D01*
X104073817Y-110254445D01*
X104127346Y-110089701D01*
X104154444Y-109918611D01*
X104154444Y-109745389D01*
X104127346Y-109574299D01*
X104073817Y-109409555D01*
X103995176Y-109255212D01*
X103893358Y-109115072D01*
X103770872Y-108992586D01*
X103630732Y-108890768D01*
X103476389Y-108812127D01*
X103311645Y-108758598D01*
X103311643Y-108758597D01*
X103311642Y-108758597D01*
X103180215Y-108737781D01*
X103140555Y-108731500D01*
X102167333Y-108731500D01*
X102127672Y-108737781D01*
X101996246Y-108758597D01*
X101831496Y-108812128D01*
X101677155Y-108890768D01*
X101601839Y-108945489D01*
X101537016Y-108992586D01*
X101537014Y-108992588D01*
X101537013Y-108992588D01*
X101414532Y-109115069D01*
X101414532Y-109115070D01*
X101414530Y-109115072D01*
X101377662Y-109165816D01*
X101312712Y-109255211D01*
X101234072Y-109409552D01*
X101180541Y-109574302D01*
X101153444Y-109745389D01*
X78554444Y-109745389D01*
X78527346Y-109574299D01*
X78473817Y-109409555D01*
X78395176Y-109255212D01*
X78293358Y-109115072D01*
X78170872Y-108992586D01*
X78030732Y-108890768D01*
X77876389Y-108812127D01*
X77711645Y-108758598D01*
X77711643Y-108758597D01*
X77711642Y-108758597D01*
X77580215Y-108737781D01*
X77540555Y-108731500D01*
X76567333Y-108731500D01*
X76527672Y-108737781D01*
X76396246Y-108758597D01*
X76231496Y-108812128D01*
X76077155Y-108890768D01*
X76001839Y-108945489D01*
X75937016Y-108992586D01*
X75937014Y-108992588D01*
X75937013Y-108992588D01*
X75814532Y-109115069D01*
X75814532Y-109115070D01*
X75814530Y-109115072D01*
X75777662Y-109165816D01*
X75712712Y-109255211D01*
X75634072Y-109409552D01*
X75580541Y-109574302D01*
X75553444Y-109745389D01*
X63105271Y-109745389D01*
X63109786Y-109742109D01*
X63109788Y-109742106D01*
X63109792Y-109742104D01*
X63260104Y-109591792D01*
X63260106Y-109591788D01*
X63260109Y-109591786D01*
X63383902Y-109421397D01*
X63385051Y-109419816D01*
X63481557Y-109230412D01*
X63547246Y-109028243D01*
X63580500Y-108818287D01*
X63580500Y-108605713D01*
X63547246Y-108395757D01*
X63481557Y-108193588D01*
X63385051Y-108004184D01*
X63385049Y-108004181D01*
X63385048Y-108004179D01*
X63260109Y-107832213D01*
X63146569Y-107718673D01*
X63113084Y-107657350D01*
X63118068Y-107587658D01*
X63159940Y-107531725D01*
X63190915Y-107514810D01*
X63322331Y-107465796D01*
X63437546Y-107379546D01*
X63523796Y-107264331D01*
X63545780Y-107205389D01*
X75553444Y-107205389D01*
X75553444Y-107378610D01*
X75576233Y-107522499D01*
X75580542Y-107549701D01*
X75634071Y-107714445D01*
X75712712Y-107868788D01*
X75814530Y-108008928D01*
X75937016Y-108131414D01*
X76077156Y-108233232D01*
X76231499Y-108311873D01*
X76396243Y-108365402D01*
X76567333Y-108392500D01*
X76567334Y-108392500D01*
X77540554Y-108392500D01*
X77540555Y-108392500D01*
X77711645Y-108365402D01*
X77876389Y-108311873D01*
X78030732Y-108233232D01*
X78170872Y-108131414D01*
X78293358Y-108008928D01*
X78395176Y-107868788D01*
X78473817Y-107714445D01*
X78527346Y-107549701D01*
X78554444Y-107378611D01*
X78554444Y-107205389D01*
X101153444Y-107205389D01*
X101153444Y-107378610D01*
X101176233Y-107522499D01*
X101180542Y-107549701D01*
X101234071Y-107714445D01*
X101312712Y-107868788D01*
X101414530Y-108008928D01*
X101537016Y-108131414D01*
X101677156Y-108233232D01*
X101831499Y-108311873D01*
X101996243Y-108365402D01*
X102167333Y-108392500D01*
X102167334Y-108392500D01*
X103140554Y-108392500D01*
X103140555Y-108392500D01*
X103311645Y-108365402D01*
X103476389Y-108311873D01*
X103630732Y-108233232D01*
X103770872Y-108131414D01*
X103893358Y-108008928D01*
X103995176Y-107868788D01*
X104073817Y-107714445D01*
X104127346Y-107549701D01*
X104154444Y-107378611D01*
X104154444Y-107205389D01*
X104127346Y-107034299D01*
X104073817Y-106869555D01*
X103995176Y-106715212D01*
X103893358Y-106575072D01*
X103770872Y-106452586D01*
X103630732Y-106350768D01*
X103476389Y-106272127D01*
X103311645Y-106218598D01*
X103311643Y-106218597D01*
X103311642Y-106218597D01*
X103180215Y-106197781D01*
X103140555Y-106191500D01*
X102167333Y-106191500D01*
X102127672Y-106197781D01*
X101996246Y-106218597D01*
X101831496Y-106272128D01*
X101677155Y-106350768D01*
X101597200Y-106408859D01*
X101537016Y-106452586D01*
X101537014Y-106452588D01*
X101537013Y-106452588D01*
X101414532Y-106575069D01*
X101414532Y-106575070D01*
X101414530Y-106575072D01*
X101377662Y-106625816D01*
X101312712Y-106715211D01*
X101234072Y-106869552D01*
X101180541Y-107034302D01*
X101153444Y-107205389D01*
X78554444Y-107205389D01*
X78527346Y-107034299D01*
X78473817Y-106869555D01*
X78395176Y-106715212D01*
X78293358Y-106575072D01*
X78170872Y-106452586D01*
X78030732Y-106350768D01*
X77876389Y-106272127D01*
X77711645Y-106218598D01*
X77711643Y-106218597D01*
X77711642Y-106218597D01*
X77580215Y-106197781D01*
X77540555Y-106191500D01*
X76567333Y-106191500D01*
X76527672Y-106197781D01*
X76396246Y-106218597D01*
X76231496Y-106272128D01*
X76077155Y-106350768D01*
X75997200Y-106408859D01*
X75937016Y-106452586D01*
X75937014Y-106452588D01*
X75937013Y-106452588D01*
X75814532Y-106575069D01*
X75814532Y-106575070D01*
X75814530Y-106575072D01*
X75777662Y-106625816D01*
X75712712Y-106715211D01*
X75634072Y-106869552D01*
X75580541Y-107034302D01*
X75553444Y-107205389D01*
X63545780Y-107205389D01*
X63574091Y-107129483D01*
X63580500Y-107069873D01*
X63580499Y-105274128D01*
X63574091Y-105214517D01*
X63523796Y-105079669D01*
X63523795Y-105079668D01*
X63523793Y-105079664D01*
X63437547Y-104964455D01*
X63437544Y-104964452D01*
X63322335Y-104878206D01*
X63322328Y-104878202D01*
X63187482Y-104827908D01*
X63187483Y-104827908D01*
X63127883Y-104821501D01*
X63127881Y-104821500D01*
X63127873Y-104821500D01*
X63127864Y-104821500D01*
X61332129Y-104821500D01*
X61332123Y-104821501D01*
X61272516Y-104827908D01*
X61137671Y-104878202D01*
X61137664Y-104878206D01*
X61022455Y-104964452D01*
X61022452Y-104964455D01*
X60936206Y-105079664D01*
X60936202Y-105079671D01*
X60885908Y-105214517D01*
X60879501Y-105274116D01*
X60879501Y-105274123D01*
X60879500Y-105274135D01*
X60879500Y-107069870D01*
X60879501Y-107069876D01*
X60885908Y-107129483D01*
X60936202Y-107264328D01*
X60936206Y-107264335D01*
X61022452Y-107379544D01*
X61022455Y-107379547D01*
X61137664Y-107465793D01*
X61137671Y-107465797D01*
X61269082Y-107514810D01*
X61325016Y-107556681D01*
X61349433Y-107622145D01*
X61334582Y-107690418D01*
X61313431Y-107718673D01*
X61199892Y-107832212D01*
X61143097Y-107910385D01*
X61087767Y-107953051D01*
X61042779Y-107961500D01*
X52882604Y-107961500D01*
X52835155Y-107952062D01*
X52811497Y-107942263D01*
X52811493Y-107942262D01*
X52811488Y-107942260D01*
X52656845Y-107911500D01*
X52656842Y-107911500D01*
X52499158Y-107911500D01*
X52499155Y-107911500D01*
X52344510Y-107942261D01*
X52344498Y-107942264D01*
X52198827Y-108002602D01*
X52198814Y-108002609D01*
X52067711Y-108090210D01*
X52067707Y-108090213D01*
X51956213Y-108201707D01*
X51956210Y-108201711D01*
X51868609Y-108332814D01*
X51868602Y-108332827D01*
X51808264Y-108478498D01*
X51808261Y-108478510D01*
X51777500Y-108633153D01*
X35354500Y-108633153D01*
X35354500Y-104665389D01*
X75553444Y-104665389D01*
X75553444Y-104838610D01*
X75573375Y-104964454D01*
X75580542Y-105009701D01*
X75634071Y-105174445D01*
X75712712Y-105328788D01*
X75814530Y-105468928D01*
X75937016Y-105591414D01*
X76077156Y-105693232D01*
X76231499Y-105771873D01*
X76396243Y-105825402D01*
X76567333Y-105852500D01*
X76567334Y-105852500D01*
X77540554Y-105852500D01*
X77540555Y-105852500D01*
X77711645Y-105825402D01*
X77876389Y-105771873D01*
X78030732Y-105693232D01*
X78170872Y-105591414D01*
X78293358Y-105468928D01*
X78395176Y-105328788D01*
X78473817Y-105174445D01*
X78527346Y-105009701D01*
X78554444Y-104838611D01*
X78554444Y-104665389D01*
X101153444Y-104665389D01*
X101153444Y-104838610D01*
X101173375Y-104964454D01*
X101180542Y-105009701D01*
X101234071Y-105174445D01*
X101312712Y-105328788D01*
X101414530Y-105468928D01*
X101537016Y-105591414D01*
X101677156Y-105693232D01*
X101831499Y-105771873D01*
X101996243Y-105825402D01*
X102167333Y-105852500D01*
X102167334Y-105852500D01*
X103140554Y-105852500D01*
X103140555Y-105852500D01*
X103311645Y-105825402D01*
X103476389Y-105771873D01*
X103630732Y-105693232D01*
X103770872Y-105591414D01*
X103893358Y-105468928D01*
X103995176Y-105328788D01*
X104073817Y-105174445D01*
X104127346Y-105009701D01*
X104154444Y-104838611D01*
X104154444Y-104665389D01*
X104127346Y-104494299D01*
X104073817Y-104329555D01*
X103995176Y-104175212D01*
X103893358Y-104035072D01*
X103770872Y-103912586D01*
X103630732Y-103810768D01*
X103476389Y-103732127D01*
X103311645Y-103678598D01*
X103311643Y-103678597D01*
X103311642Y-103678597D01*
X103180215Y-103657781D01*
X103140555Y-103651500D01*
X102167333Y-103651500D01*
X102127672Y-103657781D01*
X101996246Y-103678597D01*
X101996243Y-103678598D01*
X101833263Y-103731554D01*
X101831496Y-103732128D01*
X101677155Y-103810768D01*
X101631519Y-103843925D01*
X101537016Y-103912586D01*
X101537014Y-103912588D01*
X101537013Y-103912588D01*
X101414532Y-104035069D01*
X101414532Y-104035070D01*
X101414530Y-104035072D01*
X101377853Y-104085554D01*
X101312712Y-104175211D01*
X101234072Y-104329552D01*
X101180541Y-104494302D01*
X101153444Y-104665389D01*
X78554444Y-104665389D01*
X78527346Y-104494299D01*
X78473817Y-104329555D01*
X78395176Y-104175212D01*
X78293358Y-104035072D01*
X78170872Y-103912586D01*
X78030732Y-103810768D01*
X77876389Y-103732127D01*
X77711645Y-103678598D01*
X77711643Y-103678597D01*
X77711642Y-103678597D01*
X77580215Y-103657781D01*
X77540555Y-103651500D01*
X76567333Y-103651500D01*
X76527672Y-103657781D01*
X76396246Y-103678597D01*
X76396243Y-103678598D01*
X76233263Y-103731554D01*
X76231496Y-103732128D01*
X76077155Y-103810768D01*
X76031519Y-103843925D01*
X75937016Y-103912586D01*
X75937014Y-103912588D01*
X75937013Y-103912588D01*
X75814532Y-104035069D01*
X75814532Y-104035070D01*
X75814530Y-104035072D01*
X75777853Y-104085554D01*
X75712712Y-104175211D01*
X75634072Y-104329552D01*
X75580541Y-104494302D01*
X75553444Y-104665389D01*
X35354500Y-104665389D01*
X35354500Y-92885153D01*
X49745500Y-92885153D01*
X49745500Y-93042846D01*
X49776261Y-93197489D01*
X49776264Y-93197501D01*
X49836602Y-93343172D01*
X49836609Y-93343185D01*
X49924210Y-93474288D01*
X49924213Y-93474292D01*
X50035707Y-93585786D01*
X50035711Y-93585789D01*
X50166814Y-93673390D01*
X50166827Y-93673397D01*
X50312498Y-93733735D01*
X50312503Y-93733737D01*
X50467153Y-93764499D01*
X50467156Y-93764500D01*
X50467158Y-93764500D01*
X50624844Y-93764500D01*
X50624845Y-93764499D01*
X50779497Y-93733737D01*
X50925179Y-93673394D01*
X50986823Y-93632205D01*
X51056875Y-93585398D01*
X51123553Y-93564520D01*
X51125766Y-93564500D01*
X60944281Y-93564500D01*
X61011320Y-93584185D01*
X61054765Y-93632205D01*
X61074947Y-93671814D01*
X61074948Y-93671815D01*
X61199890Y-93843786D01*
X61350213Y-93994109D01*
X61522179Y-94119048D01*
X61522181Y-94119049D01*
X61522184Y-94119051D01*
X61531493Y-94123794D01*
X61582290Y-94171766D01*
X61599087Y-94239587D01*
X61576552Y-94305722D01*
X61531505Y-94344760D01*
X61522446Y-94349376D01*
X61522440Y-94349380D01*
X61468282Y-94388727D01*
X61468282Y-94388728D01*
X62100591Y-95021037D01*
X62037007Y-95038075D01*
X61922993Y-95103901D01*
X61829901Y-95196993D01*
X61764075Y-95311007D01*
X61747037Y-95374591D01*
X61114728Y-94742282D01*
X61114727Y-94742282D01*
X61075380Y-94796439D01*
X60978904Y-94985782D01*
X60913242Y-95187869D01*
X60913242Y-95187872D01*
X60880000Y-95397753D01*
X60880000Y-95610246D01*
X60913242Y-95820127D01*
X60913242Y-95820130D01*
X60978904Y-96022217D01*
X61075375Y-96211550D01*
X61114728Y-96265716D01*
X61747037Y-95633408D01*
X61764075Y-95696993D01*
X61829901Y-95811007D01*
X61922993Y-95904099D01*
X62037007Y-95969925D01*
X62100590Y-95986962D01*
X61430370Y-96657181D01*
X61369047Y-96690666D01*
X61342698Y-96693500D01*
X61332134Y-96693500D01*
X61332123Y-96693501D01*
X61272516Y-96699908D01*
X61137671Y-96750202D01*
X61137664Y-96750206D01*
X61022455Y-96836452D01*
X61022452Y-96836455D01*
X60936206Y-96951664D01*
X60936202Y-96951671D01*
X60885908Y-97086517D01*
X60879501Y-97146116D01*
X60879500Y-97146135D01*
X60879500Y-98941870D01*
X60879501Y-98941876D01*
X60885908Y-99001483D01*
X60936202Y-99136328D01*
X60936206Y-99136335D01*
X61022452Y-99251544D01*
X61022455Y-99251547D01*
X61137664Y-99337793D01*
X61137671Y-99337797D01*
X61272517Y-99388091D01*
X61272516Y-99388091D01*
X61279444Y-99388835D01*
X61332127Y-99394500D01*
X62679901Y-99394499D01*
X62746940Y-99414184D01*
X62767582Y-99430818D01*
X64655284Y-101318520D01*
X64655286Y-101318521D01*
X64655290Y-101318524D01*
X64792209Y-101397573D01*
X64792216Y-101397577D01*
X64944943Y-101438501D01*
X64944945Y-101438501D01*
X65110654Y-101438501D01*
X65110670Y-101438500D01*
X75612268Y-101438500D01*
X75679307Y-101458185D01*
X75725062Y-101510989D01*
X75735006Y-101580147D01*
X75714523Y-101630606D01*
X75715258Y-101631056D01*
X75712716Y-101635203D01*
X75634072Y-101789552D01*
X75580541Y-101954302D01*
X75553444Y-102125389D01*
X75553444Y-102298611D01*
X75580542Y-102469701D01*
X75634071Y-102634445D01*
X75712712Y-102788788D01*
X75814530Y-102928928D01*
X75937016Y-103051414D01*
X76077156Y-103153232D01*
X76231499Y-103231873D01*
X76396243Y-103285402D01*
X76567333Y-103312500D01*
X76567334Y-103312500D01*
X77540554Y-103312500D01*
X77540555Y-103312500D01*
X77711645Y-103285402D01*
X77876389Y-103231873D01*
X78030732Y-103153232D01*
X78170872Y-103051414D01*
X78293358Y-102928928D01*
X78395176Y-102788788D01*
X78473817Y-102634445D01*
X78527346Y-102469701D01*
X78554444Y-102298611D01*
X78554444Y-102125389D01*
X78527346Y-101954299D01*
X78473817Y-101789555D01*
X78395176Y-101635212D01*
X78395174Y-101635210D01*
X78395171Y-101635203D01*
X78392630Y-101631056D01*
X78393556Y-101630488D01*
X78371823Y-101569587D01*
X78387643Y-101501532D01*
X78437746Y-101452834D01*
X78495620Y-101438500D01*
X101212268Y-101438500D01*
X101279307Y-101458185D01*
X101325062Y-101510989D01*
X101335006Y-101580147D01*
X101314523Y-101630606D01*
X101315258Y-101631056D01*
X101312716Y-101635203D01*
X101234072Y-101789552D01*
X101180541Y-101954302D01*
X101153444Y-102125389D01*
X101153444Y-102298611D01*
X101180542Y-102469701D01*
X101234071Y-102634445D01*
X101312712Y-102788788D01*
X101414530Y-102928928D01*
X101537016Y-103051414D01*
X101677156Y-103153232D01*
X101831499Y-103231873D01*
X101996243Y-103285402D01*
X102167333Y-103312500D01*
X102167334Y-103312500D01*
X103140554Y-103312500D01*
X103140555Y-103312500D01*
X103311645Y-103285402D01*
X103476389Y-103231873D01*
X103630732Y-103153232D01*
X103770872Y-103051414D01*
X103893358Y-102928928D01*
X103995176Y-102788788D01*
X104073817Y-102634445D01*
X104127346Y-102469701D01*
X104154444Y-102298611D01*
X104154444Y-102125389D01*
X104127346Y-101954299D01*
X104073817Y-101789555D01*
X103995176Y-101635212D01*
X103995174Y-101635210D01*
X103995171Y-101635203D01*
X103992630Y-101631056D01*
X103993556Y-101630488D01*
X103971823Y-101569587D01*
X103987643Y-101501532D01*
X104037746Y-101452834D01*
X104095620Y-101438500D01*
X117143501Y-101438500D01*
X117210540Y-101458185D01*
X117256295Y-101510989D01*
X117267501Y-101562500D01*
X117267501Y-101735876D01*
X117273908Y-101795483D01*
X117324202Y-101930328D01*
X117324206Y-101930335D01*
X117410452Y-102045544D01*
X117410455Y-102045547D01*
X117525664Y-102131793D01*
X117525671Y-102131797D01*
X117570618Y-102148561D01*
X117660517Y-102182091D01*
X117720127Y-102188500D01*
X117730685Y-102188499D01*
X117797723Y-102208179D01*
X117818372Y-102224818D01*
X118488591Y-102895037D01*
X118425007Y-102912075D01*
X118310993Y-102977901D01*
X118217901Y-103070993D01*
X118152075Y-103185007D01*
X118135037Y-103248591D01*
X117502728Y-102616282D01*
X117502727Y-102616282D01*
X117463380Y-102670439D01*
X117366904Y-102859782D01*
X117301242Y-103061869D01*
X117301242Y-103061872D01*
X117268000Y-103271753D01*
X117268000Y-103484246D01*
X117301242Y-103694127D01*
X117301242Y-103694130D01*
X117366904Y-103896217D01*
X117463375Y-104085550D01*
X117502728Y-104139716D01*
X118135037Y-103507408D01*
X118152075Y-103570993D01*
X118217901Y-103685007D01*
X118310993Y-103778099D01*
X118425007Y-103843925D01*
X118488590Y-103860962D01*
X117856282Y-104493269D01*
X117856282Y-104493270D01*
X117910452Y-104532626D01*
X117910451Y-104532626D01*
X117919495Y-104537234D01*
X117970292Y-104585208D01*
X117987087Y-104653029D01*
X117964550Y-104719164D01*
X117919499Y-104758202D01*
X117910182Y-104762949D01*
X117738213Y-104887890D01*
X117587890Y-105038213D01*
X117462951Y-105210179D01*
X117366444Y-105399585D01*
X117300753Y-105601760D01*
X117285771Y-105696355D01*
X117267500Y-105811713D01*
X117267500Y-106024287D01*
X117300754Y-106234243D01*
X117338615Y-106350768D01*
X117366444Y-106436414D01*
X117462951Y-106625820D01*
X117587890Y-106797786D01*
X117738213Y-106948109D01*
X117910182Y-107073050D01*
X117918946Y-107077516D01*
X117969742Y-107125491D01*
X117986536Y-107193312D01*
X117963998Y-107259447D01*
X117918946Y-107298484D01*
X117910182Y-107302949D01*
X117738213Y-107427890D01*
X117587890Y-107578213D01*
X117462951Y-107750179D01*
X117366444Y-107939585D01*
X117366443Y-107939587D01*
X117366443Y-107939588D01*
X117365574Y-107942262D01*
X117300753Y-108141760D01*
X117273810Y-108311871D01*
X117267500Y-108351713D01*
X117267500Y-108564287D01*
X117300754Y-108774243D01*
X117356399Y-108945501D01*
X117366444Y-108976414D01*
X117462951Y-109165820D01*
X117587890Y-109337786D01*
X117738213Y-109488109D01*
X117910182Y-109613050D01*
X117918946Y-109617516D01*
X117969742Y-109665491D01*
X117986536Y-109733312D01*
X117963998Y-109799447D01*
X117918946Y-109838484D01*
X117910182Y-109842949D01*
X117738213Y-109967890D01*
X117587890Y-110118213D01*
X117462951Y-110290179D01*
X117366444Y-110479585D01*
X117300753Y-110681760D01*
X117267500Y-110891713D01*
X117267500Y-111104286D01*
X117290895Y-111252000D01*
X117300754Y-111314243D01*
X117343237Y-111444993D01*
X117366444Y-111516414D01*
X117462951Y-111705820D01*
X117587890Y-111877786D01*
X117738213Y-112028109D01*
X117910182Y-112153050D01*
X117918946Y-112157516D01*
X117969742Y-112205491D01*
X117986536Y-112273312D01*
X117963998Y-112339447D01*
X117918946Y-112378484D01*
X117910182Y-112382949D01*
X117738213Y-112507890D01*
X117587890Y-112658213D01*
X117462951Y-112830179D01*
X117366444Y-113019585D01*
X117300753Y-113221760D01*
X117273810Y-113391871D01*
X117267500Y-113431713D01*
X117267500Y-113644287D01*
X117300754Y-113854243D01*
X117338615Y-113970768D01*
X117366444Y-114056414D01*
X117462951Y-114245820D01*
X117587890Y-114417786D01*
X117738213Y-114568109D01*
X117910179Y-114693048D01*
X117910181Y-114693049D01*
X117910184Y-114693051D01*
X118099588Y-114789557D01*
X118301757Y-114855246D01*
X118511713Y-114888500D01*
X118511714Y-114888500D01*
X118724286Y-114888500D01*
X118724287Y-114888500D01*
X118934243Y-114855246D01*
X119136412Y-114789557D01*
X119325816Y-114693051D01*
X119382898Y-114651579D01*
X119497786Y-114568109D01*
X119497788Y-114568106D01*
X119497792Y-114568104D01*
X119648104Y-114417792D01*
X119648106Y-114417788D01*
X119648109Y-114417786D01*
X119773048Y-114245820D01*
X119773047Y-114245820D01*
X119773051Y-114245816D01*
X119869557Y-114056412D01*
X119935246Y-113854243D01*
X119968500Y-113644287D01*
X119968500Y-113431713D01*
X119935246Y-113221757D01*
X119869557Y-113019588D01*
X119773051Y-112830184D01*
X119773049Y-112830181D01*
X119773048Y-112830179D01*
X119648109Y-112658213D01*
X119497786Y-112507890D01*
X119325820Y-112382951D01*
X119325115Y-112382591D01*
X119317054Y-112378485D01*
X119266259Y-112330512D01*
X119249463Y-112262692D01*
X119271999Y-112196556D01*
X119317054Y-112157515D01*
X119325816Y-112153051D01*
X119379154Y-112114299D01*
X119497786Y-112028109D01*
X119497788Y-112028106D01*
X119497792Y-112028104D01*
X119648104Y-111877792D01*
X119648106Y-111877788D01*
X119648109Y-111877786D01*
X119773048Y-111705820D01*
X119773047Y-111705820D01*
X119773051Y-111705816D01*
X119869557Y-111516412D01*
X119935246Y-111314243D01*
X119968500Y-111104287D01*
X119968500Y-110891713D01*
X119935246Y-110681757D01*
X119869557Y-110479588D01*
X119773051Y-110290184D01*
X119773049Y-110290181D01*
X119773048Y-110290179D01*
X119648109Y-110118213D01*
X119497786Y-109967890D01*
X119325820Y-109842951D01*
X119325115Y-109842591D01*
X119317054Y-109838485D01*
X119266259Y-109790512D01*
X119249463Y-109722692D01*
X119271999Y-109656556D01*
X119317054Y-109617515D01*
X119325816Y-109613051D01*
X119355077Y-109591792D01*
X119497786Y-109488109D01*
X119497788Y-109488106D01*
X119497792Y-109488104D01*
X119648104Y-109337792D01*
X119648106Y-109337788D01*
X119648109Y-109337786D01*
X119773048Y-109165820D01*
X119773047Y-109165820D01*
X119773051Y-109165816D01*
X119869557Y-108976412D01*
X119935246Y-108774243D01*
X119968500Y-108564287D01*
X119968500Y-108351713D01*
X119935246Y-108141757D01*
X119869557Y-107939588D01*
X119773051Y-107750184D01*
X119773049Y-107750181D01*
X119773048Y-107750179D01*
X119648109Y-107578213D01*
X119497786Y-107427890D01*
X119325820Y-107302951D01*
X119325115Y-107302591D01*
X119317054Y-107298485D01*
X119266259Y-107250512D01*
X119249463Y-107182692D01*
X119271999Y-107116556D01*
X119317054Y-107077515D01*
X119325816Y-107073051D01*
X119379154Y-107034299D01*
X119497786Y-106948109D01*
X119497788Y-106948106D01*
X119497792Y-106948104D01*
X119648104Y-106797792D01*
X119648106Y-106797788D01*
X119648109Y-106797786D01*
X119773048Y-106625820D01*
X119773047Y-106625820D01*
X119773051Y-106625816D01*
X119869557Y-106436412D01*
X119935246Y-106234243D01*
X119968500Y-106024287D01*
X119968500Y-105811713D01*
X119935246Y-105601757D01*
X119869557Y-105399588D01*
X119773051Y-105210184D01*
X119773049Y-105210181D01*
X119773048Y-105210179D01*
X119648109Y-105038213D01*
X119497786Y-104887890D01*
X119325817Y-104762949D01*
X119316504Y-104758204D01*
X119265707Y-104710230D01*
X119248912Y-104642409D01*
X119271449Y-104576274D01*
X119316507Y-104537232D01*
X119325555Y-104532622D01*
X119379716Y-104493270D01*
X119379717Y-104493270D01*
X118747408Y-103860962D01*
X118810993Y-103843925D01*
X118925007Y-103778099D01*
X119018099Y-103685007D01*
X119083925Y-103570993D01*
X119100962Y-103507409D01*
X119733270Y-104139717D01*
X119733270Y-104139716D01*
X119772622Y-104085554D01*
X119869095Y-103896217D01*
X119934757Y-103694130D01*
X119934757Y-103694127D01*
X119968000Y-103484246D01*
X119968000Y-103271753D01*
X119934757Y-103061872D01*
X119934757Y-103061869D01*
X119869095Y-102859782D01*
X119772624Y-102670449D01*
X119733270Y-102616282D01*
X119733269Y-102616282D01*
X119100962Y-103248590D01*
X119083925Y-103185007D01*
X119018099Y-103070993D01*
X118925007Y-102977901D01*
X118810993Y-102912075D01*
X118747409Y-102895037D01*
X119417627Y-102224818D01*
X119478950Y-102191333D01*
X119505307Y-102188499D01*
X119515872Y-102188499D01*
X119575483Y-102182091D01*
X119710331Y-102131796D01*
X119825546Y-102045546D01*
X119911796Y-101930331D01*
X119962091Y-101795483D01*
X119968500Y-101735873D01*
X119968499Y-99940128D01*
X119962091Y-99880517D01*
X119911796Y-99745669D01*
X119911795Y-99745668D01*
X119911793Y-99745664D01*
X119825547Y-99630455D01*
X119825544Y-99630452D01*
X119710335Y-99544206D01*
X119710328Y-99544202D01*
X119575482Y-99493908D01*
X119575483Y-99493908D01*
X119515883Y-99487501D01*
X119515881Y-99487500D01*
X119515873Y-99487500D01*
X119515864Y-99487500D01*
X117720129Y-99487500D01*
X117720123Y-99487501D01*
X117660516Y-99493908D01*
X117525671Y-99544202D01*
X117525664Y-99544206D01*
X117410455Y-99630452D01*
X117410452Y-99630455D01*
X117324206Y-99745664D01*
X117324202Y-99745671D01*
X117273908Y-99880517D01*
X117268621Y-99929698D01*
X117267501Y-99940123D01*
X117267500Y-99940135D01*
X117267500Y-100113500D01*
X117247815Y-100180539D01*
X117195011Y-100226294D01*
X117143500Y-100237500D01*
X104198007Y-100237500D01*
X104130968Y-100217815D01*
X104085213Y-100165011D01*
X104075269Y-100095853D01*
X104080076Y-100075182D01*
X104081103Y-100072018D01*
X104127346Y-99929701D01*
X104154444Y-99758611D01*
X104154444Y-99585389D01*
X104127346Y-99414299D01*
X104073817Y-99249555D01*
X103995176Y-99095212D01*
X103893358Y-98955072D01*
X103770872Y-98832586D01*
X103630732Y-98730768D01*
X103476389Y-98652127D01*
X103311645Y-98598598D01*
X103311643Y-98598597D01*
X103311642Y-98598597D01*
X103180215Y-98577781D01*
X103140555Y-98571500D01*
X102167333Y-98571500D01*
X102127672Y-98577781D01*
X101996246Y-98598597D01*
X101831496Y-98652128D01*
X101677155Y-98730768D01*
X101597200Y-98788859D01*
X101537016Y-98832586D01*
X101537014Y-98832588D01*
X101537013Y-98832588D01*
X101414532Y-98955069D01*
X101414532Y-98955070D01*
X101414530Y-98955072D01*
X101380810Y-99001483D01*
X101312712Y-99095211D01*
X101234072Y-99249552D01*
X101180541Y-99414302D01*
X101153444Y-99585389D01*
X101153444Y-99758610D01*
X101180541Y-99929698D01*
X101227812Y-100075182D01*
X101229807Y-100145023D01*
X101193727Y-100204856D01*
X101131026Y-100235684D01*
X101109881Y-100237500D01*
X78598007Y-100237500D01*
X78530968Y-100217815D01*
X78485213Y-100165011D01*
X78475269Y-100095853D01*
X78480076Y-100075182D01*
X78481103Y-100072018D01*
X78527346Y-99929701D01*
X78554444Y-99758611D01*
X78554444Y-99585389D01*
X78527346Y-99414299D01*
X78473817Y-99249555D01*
X78395176Y-99095212D01*
X78293358Y-98955072D01*
X78170872Y-98832586D01*
X78030732Y-98730768D01*
X77876389Y-98652127D01*
X77711645Y-98598598D01*
X77711643Y-98598597D01*
X77711642Y-98598597D01*
X77580215Y-98577781D01*
X77540555Y-98571500D01*
X76567333Y-98571500D01*
X76527672Y-98577781D01*
X76396246Y-98598597D01*
X76231496Y-98652128D01*
X76077155Y-98730768D01*
X75997200Y-98788859D01*
X75937016Y-98832586D01*
X75937014Y-98832588D01*
X75937013Y-98832588D01*
X75814532Y-98955069D01*
X75814532Y-98955070D01*
X75814530Y-98955072D01*
X75780810Y-99001483D01*
X75712712Y-99095211D01*
X75634072Y-99249552D01*
X75580541Y-99414302D01*
X75553444Y-99585389D01*
X75553444Y-99758610D01*
X75580541Y-99929698D01*
X75627812Y-100075182D01*
X75629807Y-100145023D01*
X75593727Y-100204856D01*
X75531026Y-100235684D01*
X75509881Y-100237500D01*
X65324098Y-100237500D01*
X65257059Y-100217815D01*
X65236417Y-100201181D01*
X63616818Y-98581582D01*
X63583333Y-98520259D01*
X63580499Y-98493901D01*
X63580499Y-97594097D01*
X63600184Y-97527058D01*
X63616818Y-97506416D01*
X64077845Y-97045389D01*
X75553444Y-97045389D01*
X75553444Y-97218611D01*
X75580542Y-97389701D01*
X75634071Y-97554445D01*
X75712712Y-97708788D01*
X75814530Y-97848928D01*
X75937016Y-97971414D01*
X76077156Y-98073232D01*
X76231499Y-98151873D01*
X76396243Y-98205402D01*
X76567333Y-98232500D01*
X76567334Y-98232500D01*
X77540554Y-98232500D01*
X77540555Y-98232500D01*
X77711645Y-98205402D01*
X77876389Y-98151873D01*
X78030732Y-98073232D01*
X78170872Y-97971414D01*
X78293358Y-97848928D01*
X78395176Y-97708788D01*
X78473817Y-97554445D01*
X78527346Y-97389701D01*
X78554444Y-97218611D01*
X78554444Y-97045389D01*
X101153444Y-97045389D01*
X101153444Y-97218611D01*
X101180542Y-97389701D01*
X101234071Y-97554445D01*
X101312712Y-97708788D01*
X101414530Y-97848928D01*
X101537016Y-97971414D01*
X101677156Y-98073232D01*
X101831499Y-98151873D01*
X101996243Y-98205402D01*
X102167333Y-98232500D01*
X102167334Y-98232500D01*
X103140554Y-98232500D01*
X103140555Y-98232500D01*
X103311645Y-98205402D01*
X103476389Y-98151873D01*
X103630732Y-98073232D01*
X103770872Y-97971414D01*
X103893358Y-97848928D01*
X103995176Y-97708788D01*
X104073817Y-97554445D01*
X104127346Y-97389701D01*
X104154444Y-97218611D01*
X104154444Y-97045389D01*
X104127346Y-96874299D01*
X104073817Y-96709555D01*
X103995176Y-96555212D01*
X103893358Y-96415072D01*
X103770872Y-96292586D01*
X103630732Y-96190768D01*
X103476389Y-96112127D01*
X103311645Y-96058598D01*
X103311643Y-96058597D01*
X103311642Y-96058597D01*
X103180215Y-96037781D01*
X103140555Y-96031500D01*
X102167333Y-96031500D01*
X102127672Y-96037781D01*
X101996246Y-96058597D01*
X101996243Y-96058598D01*
X101833263Y-96111554D01*
X101831496Y-96112128D01*
X101677155Y-96190768D01*
X101631519Y-96223925D01*
X101537016Y-96292586D01*
X101537014Y-96292588D01*
X101537013Y-96292588D01*
X101414532Y-96415069D01*
X101414532Y-96415070D01*
X101414530Y-96415072D01*
X101377853Y-96465554D01*
X101312712Y-96555211D01*
X101234072Y-96709552D01*
X101180541Y-96874302D01*
X101168288Y-96951669D01*
X101153444Y-97045389D01*
X78554444Y-97045389D01*
X78527346Y-96874299D01*
X78473817Y-96709555D01*
X78395176Y-96555212D01*
X78293358Y-96415072D01*
X78170872Y-96292586D01*
X78030732Y-96190768D01*
X77876389Y-96112127D01*
X77711645Y-96058598D01*
X77711643Y-96058597D01*
X77711642Y-96058597D01*
X77580215Y-96037781D01*
X77540555Y-96031500D01*
X76567333Y-96031500D01*
X76527672Y-96037781D01*
X76396246Y-96058597D01*
X76396243Y-96058598D01*
X76233263Y-96111554D01*
X76231496Y-96112128D01*
X76077155Y-96190768D01*
X76031519Y-96223925D01*
X75937016Y-96292586D01*
X75937014Y-96292588D01*
X75937013Y-96292588D01*
X75814532Y-96415069D01*
X75814532Y-96415070D01*
X75814530Y-96415072D01*
X75777853Y-96465554D01*
X75712712Y-96555211D01*
X75634072Y-96709552D01*
X75580541Y-96874302D01*
X75568288Y-96951669D01*
X75553444Y-97045389D01*
X64077845Y-97045389D01*
X64170398Y-96952836D01*
X65431060Y-95692174D01*
X66617845Y-94505389D01*
X75553444Y-94505389D01*
X75553444Y-94678611D01*
X75580542Y-94849701D01*
X75634071Y-95014445D01*
X75712712Y-95168788D01*
X75814530Y-95308928D01*
X75937016Y-95431414D01*
X76077156Y-95533232D01*
X76231499Y-95611873D01*
X76396243Y-95665402D01*
X76567333Y-95692500D01*
X76567334Y-95692500D01*
X77540554Y-95692500D01*
X77540555Y-95692500D01*
X77711645Y-95665402D01*
X77876389Y-95611873D01*
X78030732Y-95533232D01*
X78170872Y-95431414D01*
X78293358Y-95308928D01*
X78395176Y-95168788D01*
X78473817Y-95014445D01*
X78527346Y-94849701D01*
X78554444Y-94678611D01*
X78554444Y-94505389D01*
X101153444Y-94505389D01*
X101153444Y-94678611D01*
X101180542Y-94849701D01*
X101234071Y-95014445D01*
X101312712Y-95168788D01*
X101414530Y-95308928D01*
X101537016Y-95431414D01*
X101677156Y-95533232D01*
X101831499Y-95611873D01*
X101996243Y-95665402D01*
X102167333Y-95692500D01*
X102167334Y-95692500D01*
X103140554Y-95692500D01*
X103140555Y-95692500D01*
X103311645Y-95665402D01*
X103476389Y-95611873D01*
X103630732Y-95533232D01*
X103770872Y-95431414D01*
X103893358Y-95308928D01*
X103995176Y-95168788D01*
X104073817Y-95014445D01*
X104127346Y-94849701D01*
X104154444Y-94678611D01*
X104154444Y-94505389D01*
X104127346Y-94334299D01*
X104073817Y-94169555D01*
X103995176Y-94015212D01*
X103893358Y-93875072D01*
X103770872Y-93752586D01*
X103630732Y-93650768D01*
X103476389Y-93572127D01*
X103311645Y-93518598D01*
X103311643Y-93518597D01*
X103311642Y-93518597D01*
X103180215Y-93497781D01*
X103140555Y-93491500D01*
X102167333Y-93491500D01*
X102127672Y-93497781D01*
X101996246Y-93518597D01*
X101831496Y-93572128D01*
X101677155Y-93650768D01*
X101597200Y-93708859D01*
X101537016Y-93752586D01*
X101537014Y-93752588D01*
X101537013Y-93752588D01*
X101414532Y-93875069D01*
X101414532Y-93875070D01*
X101414530Y-93875072D01*
X101377662Y-93925816D01*
X101312712Y-94015211D01*
X101234072Y-94169552D01*
X101180541Y-94334302D01*
X101174404Y-94373051D01*
X101153444Y-94505389D01*
X78554444Y-94505389D01*
X78527346Y-94334299D01*
X78473817Y-94169555D01*
X78395176Y-94015212D01*
X78293358Y-93875072D01*
X78170872Y-93752586D01*
X78030732Y-93650768D01*
X77876389Y-93572127D01*
X77711645Y-93518598D01*
X77711643Y-93518597D01*
X77711642Y-93518597D01*
X77580215Y-93497781D01*
X77540555Y-93491500D01*
X76567333Y-93491500D01*
X76527672Y-93497781D01*
X76396246Y-93518597D01*
X76231496Y-93572128D01*
X76077155Y-93650768D01*
X75997200Y-93708859D01*
X75937016Y-93752586D01*
X75937014Y-93752588D01*
X75937013Y-93752588D01*
X75814532Y-93875069D01*
X75814532Y-93875070D01*
X75814530Y-93875072D01*
X75777662Y-93925816D01*
X75712712Y-94015211D01*
X75634072Y-94169552D01*
X75580541Y-94334302D01*
X75574404Y-94373051D01*
X75553444Y-94505389D01*
X66617845Y-94505389D01*
X68877562Y-92245672D01*
X68877567Y-92245668D01*
X68887770Y-92235464D01*
X68887772Y-92235464D01*
X68999576Y-92123660D01*
X69054517Y-92028499D01*
X69078633Y-91986729D01*
X69084351Y-91965389D01*
X75553444Y-91965389D01*
X75553444Y-92138610D01*
X75578339Y-92295795D01*
X75580542Y-92309701D01*
X75634071Y-92474445D01*
X75712712Y-92628788D01*
X75814530Y-92768928D01*
X75937016Y-92891414D01*
X76077156Y-92993232D01*
X76231499Y-93071873D01*
X76396243Y-93125402D01*
X76567333Y-93152500D01*
X76567334Y-93152500D01*
X77540554Y-93152500D01*
X77540555Y-93152500D01*
X77711645Y-93125402D01*
X77876389Y-93071873D01*
X78030732Y-92993232D01*
X78170872Y-92891414D01*
X78293358Y-92768928D01*
X78395176Y-92628788D01*
X78473817Y-92474445D01*
X78527346Y-92309701D01*
X78554444Y-92138611D01*
X78554444Y-91965389D01*
X101153444Y-91965389D01*
X101153444Y-92138610D01*
X101178339Y-92295795D01*
X101180542Y-92309701D01*
X101234071Y-92474445D01*
X101312712Y-92628788D01*
X101414530Y-92768928D01*
X101537016Y-92891414D01*
X101677156Y-92993232D01*
X101831499Y-93071873D01*
X101996243Y-93125402D01*
X102167333Y-93152500D01*
X102167334Y-93152500D01*
X103140554Y-93152500D01*
X103140555Y-93152500D01*
X103311645Y-93125402D01*
X103476389Y-93071873D01*
X103630732Y-92993232D01*
X103770872Y-92891414D01*
X103893358Y-92768928D01*
X103995176Y-92628788D01*
X104073817Y-92474445D01*
X104127346Y-92309701D01*
X104154444Y-92138611D01*
X104154444Y-91965389D01*
X104127346Y-91794299D01*
X104073817Y-91629555D01*
X103995176Y-91475212D01*
X103893358Y-91335072D01*
X103770872Y-91212586D01*
X103630732Y-91110768D01*
X103476389Y-91032127D01*
X103311645Y-90978598D01*
X103311643Y-90978597D01*
X103311642Y-90978597D01*
X103180215Y-90957781D01*
X103140555Y-90951500D01*
X102167333Y-90951500D01*
X102127672Y-90957781D01*
X101996246Y-90978597D01*
X101831496Y-91032128D01*
X101677155Y-91110768D01*
X101597200Y-91168859D01*
X101537016Y-91212586D01*
X101537014Y-91212588D01*
X101537013Y-91212588D01*
X101414532Y-91335069D01*
X101414532Y-91335070D01*
X101414530Y-91335072D01*
X101370803Y-91395256D01*
X101312712Y-91475211D01*
X101234072Y-91629552D01*
X101180541Y-91794302D01*
X101153444Y-91965389D01*
X78554444Y-91965389D01*
X78527346Y-91794299D01*
X78473817Y-91629555D01*
X78395176Y-91475212D01*
X78293358Y-91335072D01*
X78170872Y-91212586D01*
X78030732Y-91110768D01*
X77876389Y-91032127D01*
X77711645Y-90978598D01*
X77711643Y-90978597D01*
X77711642Y-90978597D01*
X77580215Y-90957781D01*
X77540555Y-90951500D01*
X76567333Y-90951500D01*
X76527672Y-90957781D01*
X76396246Y-90978597D01*
X76231496Y-91032128D01*
X76077155Y-91110768D01*
X75997200Y-91168859D01*
X75937016Y-91212586D01*
X75937014Y-91212588D01*
X75937013Y-91212588D01*
X75814532Y-91335069D01*
X75814532Y-91335070D01*
X75814530Y-91335072D01*
X75770803Y-91395256D01*
X75712712Y-91475211D01*
X75634072Y-91629552D01*
X75580541Y-91794302D01*
X75553444Y-91965389D01*
X69084351Y-91965389D01*
X69119556Y-91834002D01*
X69119556Y-91675887D01*
X69119556Y-89425389D01*
X75553444Y-89425389D01*
X75553444Y-89598610D01*
X75578594Y-89757406D01*
X75580542Y-89769701D01*
X75634071Y-89934445D01*
X75712712Y-90088788D01*
X75814530Y-90228928D01*
X75937016Y-90351414D01*
X76077156Y-90453232D01*
X76231499Y-90531873D01*
X76396243Y-90585402D01*
X76567333Y-90612500D01*
X76567334Y-90612500D01*
X77540554Y-90612500D01*
X77540555Y-90612500D01*
X77711645Y-90585402D01*
X77876389Y-90531873D01*
X78030732Y-90453232D01*
X78170872Y-90351414D01*
X78293358Y-90228928D01*
X78395176Y-90088788D01*
X78473817Y-89934445D01*
X78527346Y-89769701D01*
X78554444Y-89598611D01*
X78554444Y-89425389D01*
X101153444Y-89425389D01*
X101153444Y-89598610D01*
X101178594Y-89757406D01*
X101180542Y-89769701D01*
X101234071Y-89934445D01*
X101312712Y-90088788D01*
X101414530Y-90228928D01*
X101537016Y-90351414D01*
X101677156Y-90453232D01*
X101831499Y-90531873D01*
X101996243Y-90585402D01*
X102167333Y-90612500D01*
X102167334Y-90612500D01*
X103140554Y-90612500D01*
X103140555Y-90612500D01*
X103311645Y-90585402D01*
X103476389Y-90531873D01*
X103630732Y-90453232D01*
X103770872Y-90351414D01*
X103893358Y-90228928D01*
X103995176Y-90088788D01*
X104073817Y-89934445D01*
X104123956Y-89780135D01*
X117267500Y-89780135D01*
X117267500Y-91575870D01*
X117267501Y-91575876D01*
X117273908Y-91635483D01*
X117324202Y-91770328D01*
X117324206Y-91770335D01*
X117410452Y-91885544D01*
X117410455Y-91885547D01*
X117525664Y-91971793D01*
X117525671Y-91971797D01*
X117657082Y-92020810D01*
X117713016Y-92062681D01*
X117737433Y-92128145D01*
X117722582Y-92196418D01*
X117701431Y-92224673D01*
X117587889Y-92338215D01*
X117462951Y-92510179D01*
X117366444Y-92699585D01*
X117300753Y-92901760D01*
X117267500Y-93111713D01*
X117267500Y-93324286D01*
X117292544Y-93482412D01*
X117300754Y-93534243D01*
X117365574Y-93733738D01*
X117366444Y-93736414D01*
X117462951Y-93925820D01*
X117587890Y-94097786D01*
X117738213Y-94248109D01*
X117910179Y-94373048D01*
X117910181Y-94373049D01*
X117910184Y-94373051D01*
X117919493Y-94377794D01*
X117970290Y-94425766D01*
X117987087Y-94493587D01*
X117964552Y-94559722D01*
X117919505Y-94598760D01*
X117910446Y-94603376D01*
X117910440Y-94603380D01*
X117856282Y-94642727D01*
X117856282Y-94642728D01*
X118488591Y-95275037D01*
X118425007Y-95292075D01*
X118310993Y-95357901D01*
X118217901Y-95450993D01*
X118152075Y-95565007D01*
X118135037Y-95628591D01*
X117502728Y-94996282D01*
X117502727Y-94996282D01*
X117463380Y-95050439D01*
X117366904Y-95239782D01*
X117301242Y-95441869D01*
X117301242Y-95441872D01*
X117268000Y-95651753D01*
X117268000Y-95864246D01*
X117301242Y-96074127D01*
X117301242Y-96074130D01*
X117366904Y-96276217D01*
X117463375Y-96465550D01*
X117502728Y-96519716D01*
X118135037Y-95887408D01*
X118152075Y-95950993D01*
X118217901Y-96065007D01*
X118310993Y-96158099D01*
X118425007Y-96223925D01*
X118488590Y-96240962D01*
X117856282Y-96873269D01*
X117856282Y-96873270D01*
X117910449Y-96912624D01*
X118099782Y-97009095D01*
X118301870Y-97074757D01*
X118511754Y-97108000D01*
X118724246Y-97108000D01*
X118934127Y-97074757D01*
X118934130Y-97074757D01*
X119136217Y-97009095D01*
X119325554Y-96912622D01*
X119379716Y-96873270D01*
X119379717Y-96873270D01*
X118747408Y-96240962D01*
X118810993Y-96223925D01*
X118925007Y-96158099D01*
X119018099Y-96065007D01*
X119083925Y-95950993D01*
X119100962Y-95887409D01*
X119733270Y-96519717D01*
X119733270Y-96519716D01*
X119772622Y-96465554D01*
X119869095Y-96276217D01*
X119934757Y-96074130D01*
X119934757Y-96074127D01*
X119968000Y-95864246D01*
X119968000Y-95651753D01*
X119934757Y-95441872D01*
X119934757Y-95441869D01*
X119869095Y-95239782D01*
X119772624Y-95050449D01*
X119733270Y-94996282D01*
X119733269Y-94996282D01*
X119100962Y-95628590D01*
X119083925Y-95565007D01*
X119018099Y-95450993D01*
X118925007Y-95357901D01*
X118810993Y-95292075D01*
X118747409Y-95275037D01*
X119379716Y-94642728D01*
X119325547Y-94603373D01*
X119325547Y-94603372D01*
X119316500Y-94598763D01*
X119265706Y-94550788D01*
X119248912Y-94482966D01*
X119271451Y-94416832D01*
X119316508Y-94377793D01*
X119325816Y-94373051D01*
X119452176Y-94281246D01*
X119497786Y-94248109D01*
X119497788Y-94248106D01*
X119497792Y-94248104D01*
X119648104Y-94097792D01*
X119648106Y-94097788D01*
X119648109Y-94097786D01*
X119773048Y-93925820D01*
X119773047Y-93925820D01*
X119773051Y-93925816D01*
X119869557Y-93736412D01*
X119935246Y-93534243D01*
X119968500Y-93324287D01*
X119968500Y-93111713D01*
X119935246Y-92901757D01*
X119869557Y-92699588D01*
X119773051Y-92510184D01*
X119773049Y-92510181D01*
X119773048Y-92510179D01*
X119648109Y-92338213D01*
X119534569Y-92224673D01*
X119501084Y-92163350D01*
X119506068Y-92093658D01*
X119547940Y-92037725D01*
X119578915Y-92020810D01*
X119710331Y-91971796D01*
X119825546Y-91885546D01*
X119911796Y-91770331D01*
X119962091Y-91635483D01*
X119968500Y-91575873D01*
X119968499Y-89780128D01*
X119962091Y-89720517D01*
X119911796Y-89585669D01*
X119911795Y-89585668D01*
X119911793Y-89585664D01*
X119825547Y-89470455D01*
X119825544Y-89470452D01*
X119710335Y-89384206D01*
X119710328Y-89384202D01*
X119575482Y-89333908D01*
X119575483Y-89333908D01*
X119515883Y-89327501D01*
X119515881Y-89327500D01*
X119515873Y-89327500D01*
X119515864Y-89327500D01*
X117720129Y-89327500D01*
X117720123Y-89327501D01*
X117660516Y-89333908D01*
X117525671Y-89384202D01*
X117525664Y-89384206D01*
X117410455Y-89470452D01*
X117410452Y-89470455D01*
X117324206Y-89585664D01*
X117324202Y-89585671D01*
X117273908Y-89720517D01*
X117267501Y-89780116D01*
X117267501Y-89780123D01*
X117267500Y-89780135D01*
X104123956Y-89780135D01*
X104127346Y-89769701D01*
X104154444Y-89598611D01*
X104154444Y-89425389D01*
X104127346Y-89254299D01*
X104073817Y-89089555D01*
X103995176Y-88935212D01*
X103893358Y-88795072D01*
X103770872Y-88672586D01*
X103630732Y-88570768D01*
X103476389Y-88492127D01*
X103311645Y-88438598D01*
X103311643Y-88438597D01*
X103311642Y-88438597D01*
X103180215Y-88417781D01*
X103140555Y-88411500D01*
X102167333Y-88411500D01*
X102127672Y-88417781D01*
X101996246Y-88438597D01*
X101831496Y-88492128D01*
X101677155Y-88570768D01*
X101597200Y-88628859D01*
X101537016Y-88672586D01*
X101537014Y-88672588D01*
X101537013Y-88672588D01*
X101414532Y-88795069D01*
X101414532Y-88795070D01*
X101414530Y-88795072D01*
X101370803Y-88855256D01*
X101312712Y-88935211D01*
X101234072Y-89089552D01*
X101180541Y-89254302D01*
X101153444Y-89425389D01*
X78554444Y-89425389D01*
X78527346Y-89254299D01*
X78473817Y-89089555D01*
X78395176Y-88935212D01*
X78293358Y-88795072D01*
X78170872Y-88672586D01*
X78030732Y-88570768D01*
X77876389Y-88492127D01*
X77711645Y-88438598D01*
X77711643Y-88438597D01*
X77711642Y-88438597D01*
X77580215Y-88417781D01*
X77540555Y-88411500D01*
X76567333Y-88411500D01*
X76527672Y-88417781D01*
X76396246Y-88438597D01*
X76231496Y-88492128D01*
X76077155Y-88570768D01*
X75997200Y-88628859D01*
X75937016Y-88672586D01*
X75937014Y-88672588D01*
X75937013Y-88672588D01*
X75814532Y-88795069D01*
X75814532Y-88795070D01*
X75814530Y-88795072D01*
X75770803Y-88855256D01*
X75712712Y-88935211D01*
X75634072Y-89089552D01*
X75580541Y-89254302D01*
X75553444Y-89425389D01*
X69119556Y-89425389D01*
X69119556Y-86885389D01*
X75553444Y-86885389D01*
X75553444Y-87058611D01*
X75580542Y-87229701D01*
X75634071Y-87394445D01*
X75712712Y-87548788D01*
X75814530Y-87688928D01*
X75937016Y-87811414D01*
X76077156Y-87913232D01*
X76231499Y-87991873D01*
X76396243Y-88045402D01*
X76567333Y-88072500D01*
X76567334Y-88072500D01*
X77540554Y-88072500D01*
X77540555Y-88072500D01*
X77711645Y-88045402D01*
X77876389Y-87991873D01*
X78030732Y-87913232D01*
X78170872Y-87811414D01*
X78293358Y-87688928D01*
X78395176Y-87548788D01*
X78473817Y-87394445D01*
X78527346Y-87229701D01*
X78554444Y-87058611D01*
X78554444Y-86885389D01*
X101153444Y-86885389D01*
X101153444Y-87058611D01*
X101180542Y-87229701D01*
X101234071Y-87394445D01*
X101312712Y-87548788D01*
X101414530Y-87688928D01*
X101537016Y-87811414D01*
X101677156Y-87913232D01*
X101831499Y-87991873D01*
X101996243Y-88045402D01*
X102167333Y-88072500D01*
X102167334Y-88072500D01*
X103140554Y-88072500D01*
X103140555Y-88072500D01*
X103311645Y-88045402D01*
X103476389Y-87991873D01*
X103630732Y-87913232D01*
X103770872Y-87811414D01*
X103893358Y-87688928D01*
X103995176Y-87548788D01*
X104073817Y-87394445D01*
X104127346Y-87229701D01*
X104154444Y-87058611D01*
X104154444Y-86885389D01*
X104127346Y-86714299D01*
X104073817Y-86549555D01*
X103995176Y-86395212D01*
X103893358Y-86255072D01*
X103770872Y-86132586D01*
X103630732Y-86030768D01*
X103476389Y-85952127D01*
X103311645Y-85898598D01*
X103311643Y-85898597D01*
X103311642Y-85898597D01*
X103180215Y-85877781D01*
X103140555Y-85871500D01*
X102167333Y-85871500D01*
X102127672Y-85877781D01*
X101996246Y-85898597D01*
X101996243Y-85898598D01*
X101833263Y-85951554D01*
X101831496Y-85952128D01*
X101677155Y-86030768D01*
X101631519Y-86063925D01*
X101537016Y-86132586D01*
X101537014Y-86132588D01*
X101537013Y-86132588D01*
X101414532Y-86255069D01*
X101414532Y-86255070D01*
X101414530Y-86255072D01*
X101377853Y-86305554D01*
X101312712Y-86395211D01*
X101234072Y-86549552D01*
X101180541Y-86714302D01*
X101159192Y-86849095D01*
X101153444Y-86885389D01*
X78554444Y-86885389D01*
X78527346Y-86714299D01*
X78473817Y-86549555D01*
X78395176Y-86395212D01*
X78293358Y-86255072D01*
X78170872Y-86132586D01*
X78030732Y-86030768D01*
X77876389Y-85952127D01*
X77711645Y-85898598D01*
X77711643Y-85898597D01*
X77711642Y-85898597D01*
X77580215Y-85877781D01*
X77540555Y-85871500D01*
X76567333Y-85871500D01*
X76527672Y-85877781D01*
X76396246Y-85898597D01*
X76396243Y-85898598D01*
X76233263Y-85951554D01*
X76231496Y-85952128D01*
X76077155Y-86030768D01*
X76031519Y-86063925D01*
X75937016Y-86132586D01*
X75937014Y-86132588D01*
X75937013Y-86132588D01*
X75814532Y-86255069D01*
X75814532Y-86255070D01*
X75814530Y-86255072D01*
X75777853Y-86305554D01*
X75712712Y-86395211D01*
X75634072Y-86549552D01*
X75580541Y-86714302D01*
X75559192Y-86849095D01*
X75553444Y-86885389D01*
X69119556Y-86885389D01*
X69119556Y-84345389D01*
X75553444Y-84345389D01*
X75553444Y-84518610D01*
X75578594Y-84677406D01*
X75580542Y-84689701D01*
X75634071Y-84854445D01*
X75712712Y-85008788D01*
X75814530Y-85148928D01*
X75937016Y-85271414D01*
X76077156Y-85373232D01*
X76231499Y-85451873D01*
X76396243Y-85505402D01*
X76567333Y-85532500D01*
X76567334Y-85532500D01*
X77540554Y-85532500D01*
X77540555Y-85532500D01*
X77711645Y-85505402D01*
X77876389Y-85451873D01*
X78030732Y-85373232D01*
X78170872Y-85271414D01*
X78293358Y-85148928D01*
X78395176Y-85008788D01*
X78473817Y-84854445D01*
X78527346Y-84689701D01*
X78554444Y-84518611D01*
X78554444Y-84345389D01*
X101153444Y-84345389D01*
X101153444Y-84518610D01*
X101178594Y-84677406D01*
X101180542Y-84689701D01*
X101234071Y-84854445D01*
X101312712Y-85008788D01*
X101414530Y-85148928D01*
X101537016Y-85271414D01*
X101677156Y-85373232D01*
X101831499Y-85451873D01*
X101996243Y-85505402D01*
X102167333Y-85532500D01*
X102167334Y-85532500D01*
X103140554Y-85532500D01*
X103140555Y-85532500D01*
X103311645Y-85505402D01*
X103476389Y-85451873D01*
X103630732Y-85373232D01*
X103770872Y-85271414D01*
X103893358Y-85148928D01*
X103995176Y-85008788D01*
X104073817Y-84854445D01*
X104123956Y-84700135D01*
X116505500Y-84700135D01*
X116505500Y-86495870D01*
X116505501Y-86495876D01*
X116511908Y-86555483D01*
X116562202Y-86690328D01*
X116562206Y-86690335D01*
X116648452Y-86805544D01*
X116648455Y-86805547D01*
X116763664Y-86891793D01*
X116763671Y-86891797D01*
X116898517Y-86942091D01*
X116898516Y-86942091D01*
X116905444Y-86942835D01*
X116958127Y-86948500D01*
X118753872Y-86948499D01*
X118813483Y-86942091D01*
X118948331Y-86891796D01*
X119063546Y-86805546D01*
X119149796Y-86690331D01*
X119200091Y-86555483D01*
X119206500Y-86495873D01*
X119206499Y-86471979D01*
X119209330Y-86458963D01*
X119219940Y-86439525D01*
X119226179Y-86418275D01*
X119242803Y-86397643D01*
X119242808Y-86397636D01*
X119242811Y-86397634D01*
X119242818Y-86397626D01*
X119913037Y-85727408D01*
X119930075Y-85790993D01*
X119995901Y-85905007D01*
X120088993Y-85998099D01*
X120203007Y-86063925D01*
X120266590Y-86080962D01*
X119634282Y-86713269D01*
X119634282Y-86713270D01*
X119688449Y-86752624D01*
X119877782Y-86849095D01*
X120079870Y-86914757D01*
X120289754Y-86948000D01*
X120502246Y-86948000D01*
X120712127Y-86914757D01*
X120712130Y-86914757D01*
X120914217Y-86849095D01*
X121103554Y-86752622D01*
X121157716Y-86713270D01*
X121157717Y-86713270D01*
X120525408Y-86080962D01*
X120588993Y-86063925D01*
X120703007Y-85998099D01*
X120796099Y-85905007D01*
X120861925Y-85790993D01*
X120878962Y-85727408D01*
X121511270Y-86359717D01*
X121511270Y-86359716D01*
X121550622Y-86305554D01*
X121647095Y-86116217D01*
X121712757Y-85914130D01*
X121712757Y-85914127D01*
X121746000Y-85704246D01*
X121746000Y-85491753D01*
X121712757Y-85281872D01*
X121712757Y-85281869D01*
X121647095Y-85079782D01*
X121550624Y-84890449D01*
X121511270Y-84836282D01*
X121511269Y-84836282D01*
X120878962Y-85468590D01*
X120861925Y-85405007D01*
X120796099Y-85290993D01*
X120703007Y-85197901D01*
X120588993Y-85132075D01*
X120525409Y-85115037D01*
X121157716Y-84482728D01*
X121103550Y-84443375D01*
X120914217Y-84346904D01*
X120712129Y-84281242D01*
X120502246Y-84248000D01*
X120289754Y-84248000D01*
X120079872Y-84281242D01*
X120079869Y-84281242D01*
X119877782Y-84346904D01*
X119688439Y-84443380D01*
X119634282Y-84482727D01*
X119634282Y-84482728D01*
X120266591Y-85115037D01*
X120203007Y-85132075D01*
X120088993Y-85197901D01*
X119995901Y-85290993D01*
X119930075Y-85405007D01*
X119913037Y-85468591D01*
X119242818Y-84798372D01*
X119209333Y-84737049D01*
X119209330Y-84737036D01*
X119206499Y-84724015D01*
X119206499Y-84700128D01*
X119200091Y-84640517D01*
X119154623Y-84518610D01*
X119149798Y-84505673D01*
X119149793Y-84505664D01*
X119063547Y-84390455D01*
X119063544Y-84390452D01*
X118948335Y-84304206D01*
X118948328Y-84304202D01*
X118813482Y-84253908D01*
X118813483Y-84253908D01*
X118753883Y-84247501D01*
X118753881Y-84247500D01*
X118753873Y-84247500D01*
X118753864Y-84247500D01*
X116958129Y-84247500D01*
X116958123Y-84247501D01*
X116898516Y-84253908D01*
X116763671Y-84304202D01*
X116763664Y-84304206D01*
X116648455Y-84390452D01*
X116648452Y-84390455D01*
X116562206Y-84505664D01*
X116562202Y-84505671D01*
X116511908Y-84640517D01*
X116505501Y-84700116D01*
X116505500Y-84700135D01*
X104123956Y-84700135D01*
X104127346Y-84689701D01*
X104154444Y-84518611D01*
X104154444Y-84345389D01*
X104127346Y-84174299D01*
X104073817Y-84009555D01*
X103995176Y-83855212D01*
X103893358Y-83715072D01*
X103770872Y-83592586D01*
X103630732Y-83490768D01*
X103476389Y-83412127D01*
X103311645Y-83358598D01*
X103311643Y-83358597D01*
X103311642Y-83358597D01*
X103180215Y-83337781D01*
X103140555Y-83331500D01*
X102167333Y-83331500D01*
X102127672Y-83337781D01*
X101996246Y-83358597D01*
X101831496Y-83412128D01*
X101677155Y-83490768D01*
X101597200Y-83548859D01*
X101537016Y-83592586D01*
X101537014Y-83592588D01*
X101537013Y-83592588D01*
X101414532Y-83715069D01*
X101414532Y-83715070D01*
X101414530Y-83715072D01*
X101370803Y-83775256D01*
X101312712Y-83855211D01*
X101234072Y-84009552D01*
X101180541Y-84174302D01*
X101153444Y-84345389D01*
X78554444Y-84345389D01*
X78527346Y-84174299D01*
X78473817Y-84009555D01*
X78395176Y-83855212D01*
X78293358Y-83715072D01*
X78170872Y-83592586D01*
X78030732Y-83490768D01*
X77876389Y-83412127D01*
X77711645Y-83358598D01*
X77711643Y-83358597D01*
X77711642Y-83358597D01*
X77580215Y-83337781D01*
X77540555Y-83331500D01*
X76567333Y-83331500D01*
X76527672Y-83337781D01*
X76396246Y-83358597D01*
X76231496Y-83412128D01*
X76077155Y-83490768D01*
X75997200Y-83548859D01*
X75937016Y-83592586D01*
X75937014Y-83592588D01*
X75937013Y-83592588D01*
X75814532Y-83715069D01*
X75814532Y-83715070D01*
X75814530Y-83715072D01*
X75770803Y-83775256D01*
X75712712Y-83855211D01*
X75634072Y-84009552D01*
X75580541Y-84174302D01*
X75553444Y-84345389D01*
X69119556Y-84345389D01*
X69119556Y-81805389D01*
X75553444Y-81805389D01*
X75553444Y-81978611D01*
X75580542Y-82149701D01*
X75634071Y-82314445D01*
X75712712Y-82468788D01*
X75814530Y-82608928D01*
X75937016Y-82731414D01*
X76077156Y-82833232D01*
X76231499Y-82911873D01*
X76396243Y-82965402D01*
X76567333Y-82992500D01*
X76567334Y-82992500D01*
X77540554Y-82992500D01*
X77540555Y-82992500D01*
X77711645Y-82965402D01*
X77876389Y-82911873D01*
X78030732Y-82833232D01*
X78170872Y-82731414D01*
X78293358Y-82608928D01*
X78395176Y-82468788D01*
X78473817Y-82314445D01*
X78527346Y-82149701D01*
X78554444Y-81978611D01*
X78554444Y-81805389D01*
X101153444Y-81805389D01*
X101153444Y-81978611D01*
X101180542Y-82149701D01*
X101234071Y-82314445D01*
X101312712Y-82468788D01*
X101414530Y-82608928D01*
X101537016Y-82731414D01*
X101677156Y-82833232D01*
X101831499Y-82911873D01*
X101996243Y-82965402D01*
X102167333Y-82992500D01*
X102167334Y-82992500D01*
X103140554Y-82992500D01*
X103140555Y-82992500D01*
X103311645Y-82965402D01*
X103476389Y-82911873D01*
X103630732Y-82833232D01*
X103770872Y-82731414D01*
X103893358Y-82608928D01*
X103995176Y-82468788D01*
X104073817Y-82314445D01*
X104127346Y-82149701D01*
X104154444Y-81978611D01*
X104154444Y-81805389D01*
X104127346Y-81634299D01*
X104073817Y-81469555D01*
X103995176Y-81315212D01*
X103893358Y-81175072D01*
X103770872Y-81052586D01*
X103630732Y-80950768D01*
X103476389Y-80872127D01*
X103311645Y-80818598D01*
X103311643Y-80818597D01*
X103311642Y-80818597D01*
X103180215Y-80797781D01*
X103140555Y-80791500D01*
X102167333Y-80791500D01*
X102127672Y-80797781D01*
X101996246Y-80818597D01*
X101831496Y-80872128D01*
X101677155Y-80950768D01*
X101597200Y-81008859D01*
X101537016Y-81052586D01*
X101537014Y-81052588D01*
X101537013Y-81052588D01*
X101414532Y-81175069D01*
X101414532Y-81175070D01*
X101414530Y-81175072D01*
X101370803Y-81235256D01*
X101312712Y-81315211D01*
X101234072Y-81469552D01*
X101180541Y-81634302D01*
X101153444Y-81805389D01*
X78554444Y-81805389D01*
X78527346Y-81634299D01*
X78473817Y-81469555D01*
X78395176Y-81315212D01*
X78293358Y-81175072D01*
X78170872Y-81052586D01*
X78030732Y-80950768D01*
X77876389Y-80872127D01*
X77711645Y-80818598D01*
X77711643Y-80818597D01*
X77711642Y-80818597D01*
X77580215Y-80797781D01*
X77540555Y-80791500D01*
X76567333Y-80791500D01*
X76527672Y-80797781D01*
X76396246Y-80818597D01*
X76231496Y-80872128D01*
X76077155Y-80950768D01*
X75997200Y-81008859D01*
X75937016Y-81052586D01*
X75937014Y-81052588D01*
X75937013Y-81052588D01*
X75814532Y-81175069D01*
X75814532Y-81175070D01*
X75814530Y-81175072D01*
X75770803Y-81235256D01*
X75712712Y-81315211D01*
X75634072Y-81469552D01*
X75580541Y-81634302D01*
X75553444Y-81805389D01*
X69119556Y-81805389D01*
X69119556Y-79265389D01*
X75553444Y-79265389D01*
X75553444Y-79438611D01*
X75580542Y-79609701D01*
X75634071Y-79774445D01*
X75712712Y-79928788D01*
X75814530Y-80068928D01*
X75937016Y-80191414D01*
X76077156Y-80293232D01*
X76231499Y-80371873D01*
X76396243Y-80425402D01*
X76567333Y-80452500D01*
X76567334Y-80452500D01*
X77540554Y-80452500D01*
X77540555Y-80452500D01*
X77711645Y-80425402D01*
X77876389Y-80371873D01*
X78030732Y-80293232D01*
X78170872Y-80191414D01*
X78293358Y-80068928D01*
X78395176Y-79928788D01*
X78473817Y-79774445D01*
X78527346Y-79609701D01*
X78554444Y-79438611D01*
X78554444Y-79265389D01*
X101153444Y-79265389D01*
X101153444Y-79438611D01*
X101180542Y-79609701D01*
X101234071Y-79774445D01*
X101312712Y-79928788D01*
X101414530Y-80068928D01*
X101537016Y-80191414D01*
X101677156Y-80293232D01*
X101831499Y-80371873D01*
X101996243Y-80425402D01*
X102167333Y-80452500D01*
X102167334Y-80452500D01*
X103140554Y-80452500D01*
X103140555Y-80452500D01*
X103311645Y-80425402D01*
X103476389Y-80371873D01*
X103630732Y-80293232D01*
X103770872Y-80191414D01*
X103893358Y-80068928D01*
X103995176Y-79928788D01*
X104073817Y-79774445D01*
X104127346Y-79609701D01*
X104154444Y-79438611D01*
X104154444Y-79265389D01*
X104127346Y-79094299D01*
X104073817Y-78929555D01*
X103995176Y-78775212D01*
X103893358Y-78635072D01*
X103770872Y-78512586D01*
X103630732Y-78410768D01*
X103476389Y-78332127D01*
X103311645Y-78278598D01*
X103311643Y-78278597D01*
X103311642Y-78278597D01*
X103180215Y-78257781D01*
X103140555Y-78251500D01*
X102167333Y-78251500D01*
X102127672Y-78257781D01*
X101996246Y-78278597D01*
X101831496Y-78332128D01*
X101677155Y-78410768D01*
X101598996Y-78467555D01*
X101537016Y-78512586D01*
X101537014Y-78512588D01*
X101537013Y-78512588D01*
X101414532Y-78635069D01*
X101414532Y-78635070D01*
X101414530Y-78635072D01*
X101370803Y-78695256D01*
X101312712Y-78775211D01*
X101234072Y-78929552D01*
X101180541Y-79094302D01*
X101153444Y-79265389D01*
X78554444Y-79265389D01*
X78527346Y-79094299D01*
X78473817Y-78929555D01*
X78395176Y-78775212D01*
X78293358Y-78635072D01*
X78170872Y-78512586D01*
X78030732Y-78410768D01*
X77876389Y-78332127D01*
X77711645Y-78278598D01*
X77711643Y-78278597D01*
X77711642Y-78278597D01*
X77580215Y-78257781D01*
X77540555Y-78251500D01*
X76567333Y-78251500D01*
X76527672Y-78257781D01*
X76396246Y-78278597D01*
X76231496Y-78332128D01*
X76077155Y-78410768D01*
X75998996Y-78467555D01*
X75937016Y-78512586D01*
X75937014Y-78512588D01*
X75937013Y-78512588D01*
X75814532Y-78635069D01*
X75814532Y-78635070D01*
X75814530Y-78635072D01*
X75770803Y-78695256D01*
X75712712Y-78775211D01*
X75634072Y-78929552D01*
X75580541Y-79094302D01*
X75553444Y-79265389D01*
X69119556Y-79265389D01*
X69119556Y-78026984D01*
X69139241Y-77959945D01*
X69155870Y-77939308D01*
X70369789Y-76725389D01*
X75553444Y-76725389D01*
X75553444Y-76898610D01*
X75579251Y-77061554D01*
X75580542Y-77069701D01*
X75634071Y-77234445D01*
X75712712Y-77388788D01*
X75814530Y-77528928D01*
X75937016Y-77651414D01*
X76077156Y-77753232D01*
X76231499Y-77831873D01*
X76396243Y-77885402D01*
X76567333Y-77912500D01*
X76567334Y-77912500D01*
X77540554Y-77912500D01*
X77540555Y-77912500D01*
X77711645Y-77885402D01*
X77876389Y-77831873D01*
X78030732Y-77753232D01*
X78170872Y-77651414D01*
X78293358Y-77528928D01*
X78395176Y-77388788D01*
X78473817Y-77234445D01*
X78527346Y-77069701D01*
X78554444Y-76898611D01*
X78554444Y-76725389D01*
X101153444Y-76725389D01*
X101153444Y-76898610D01*
X101179251Y-77061554D01*
X101180542Y-77069701D01*
X101234071Y-77234445D01*
X101312712Y-77388788D01*
X101414530Y-77528928D01*
X101537016Y-77651414D01*
X101677156Y-77753232D01*
X101831499Y-77831873D01*
X101996243Y-77885402D01*
X102167333Y-77912500D01*
X102167334Y-77912500D01*
X103140554Y-77912500D01*
X103140555Y-77912500D01*
X103311645Y-77885402D01*
X103476389Y-77831873D01*
X103630732Y-77753232D01*
X103770872Y-77651414D01*
X103893358Y-77528928D01*
X103995176Y-77388788D01*
X104073817Y-77234445D01*
X104127346Y-77069701D01*
X104154444Y-76898611D01*
X104154444Y-76725389D01*
X104127346Y-76554299D01*
X104073817Y-76389555D01*
X103995176Y-76235212D01*
X103893358Y-76095072D01*
X103770872Y-75972586D01*
X103630732Y-75870768D01*
X103511732Y-75810135D01*
X116759500Y-75810135D01*
X116759500Y-77605870D01*
X116759501Y-77605876D01*
X116765908Y-77665483D01*
X116816202Y-77800328D01*
X116816206Y-77800335D01*
X116902452Y-77915544D01*
X116902455Y-77915547D01*
X117017664Y-78001793D01*
X117017671Y-78001797D01*
X117152517Y-78052091D01*
X117152516Y-78052091D01*
X117159444Y-78052835D01*
X117212127Y-78058500D01*
X119007872Y-78058499D01*
X119067483Y-78052091D01*
X119202331Y-78001796D01*
X119317546Y-77915546D01*
X119403796Y-77800331D01*
X119454091Y-77665483D01*
X119460500Y-77605873D01*
X119460499Y-77581979D01*
X119463330Y-77568963D01*
X119473940Y-77549525D01*
X119480179Y-77528275D01*
X119496803Y-77507643D01*
X119496808Y-77507636D01*
X119496811Y-77507634D01*
X119496818Y-77507626D01*
X120167037Y-76837408D01*
X120184075Y-76900993D01*
X120249901Y-77015007D01*
X120342993Y-77108099D01*
X120457007Y-77173925D01*
X120520590Y-77190962D01*
X119888282Y-77823269D01*
X119888282Y-77823270D01*
X119942449Y-77862624D01*
X120131782Y-77959095D01*
X120333870Y-78024757D01*
X120543754Y-78058000D01*
X120756246Y-78058000D01*
X120966127Y-78024757D01*
X120966130Y-78024757D01*
X121168217Y-77959095D01*
X121357554Y-77862622D01*
X121411716Y-77823270D01*
X121411717Y-77823270D01*
X120779408Y-77190962D01*
X120842993Y-77173925D01*
X120957007Y-77108099D01*
X121050099Y-77015007D01*
X121115925Y-76900993D01*
X121132962Y-76837409D01*
X121765270Y-77469717D01*
X121765270Y-77469716D01*
X121804622Y-77415554D01*
X121901095Y-77226217D01*
X121966757Y-77024130D01*
X121966757Y-77024127D01*
X122000000Y-76814246D01*
X122000000Y-76601753D01*
X121966757Y-76391872D01*
X121966757Y-76391869D01*
X121901095Y-76189782D01*
X121804624Y-76000449D01*
X121765270Y-75946282D01*
X121765269Y-75946282D01*
X121132962Y-76578590D01*
X121115925Y-76515007D01*
X121050099Y-76400993D01*
X120957007Y-76307901D01*
X120842993Y-76242075D01*
X120779409Y-76225037D01*
X121411716Y-75592728D01*
X121357550Y-75553375D01*
X121168217Y-75456904D01*
X120966129Y-75391242D01*
X120756246Y-75358000D01*
X120543754Y-75358000D01*
X120333872Y-75391242D01*
X120333869Y-75391242D01*
X120131782Y-75456904D01*
X119942439Y-75553380D01*
X119888282Y-75592727D01*
X119888282Y-75592728D01*
X120520591Y-76225037D01*
X120457007Y-76242075D01*
X120342993Y-76307901D01*
X120249901Y-76400993D01*
X120184075Y-76515007D01*
X120167037Y-76578591D01*
X119496818Y-75908372D01*
X119463333Y-75847049D01*
X119463330Y-75847036D01*
X119460499Y-75834015D01*
X119460499Y-75810128D01*
X119454091Y-75750517D01*
X119425926Y-75675002D01*
X119403798Y-75615673D01*
X119403793Y-75615664D01*
X119317547Y-75500455D01*
X119317544Y-75500452D01*
X119202335Y-75414206D01*
X119202328Y-75414202D01*
X119067482Y-75363908D01*
X119067483Y-75363908D01*
X119007883Y-75357501D01*
X119007881Y-75357500D01*
X119007873Y-75357500D01*
X119007864Y-75357500D01*
X117212129Y-75357500D01*
X117212123Y-75357501D01*
X117152516Y-75363908D01*
X117017671Y-75414202D01*
X117017664Y-75414206D01*
X116902455Y-75500452D01*
X116902452Y-75500455D01*
X116816206Y-75615664D01*
X116816202Y-75615671D01*
X116765908Y-75750517D01*
X116759501Y-75810116D01*
X116759500Y-75810135D01*
X103511732Y-75810135D01*
X103476389Y-75792127D01*
X103311645Y-75738598D01*
X103311643Y-75738597D01*
X103311642Y-75738597D01*
X103180215Y-75717781D01*
X103140555Y-75711500D01*
X102167333Y-75711500D01*
X102127672Y-75717781D01*
X101996246Y-75738597D01*
X101831496Y-75792128D01*
X101677155Y-75870768D01*
X101598993Y-75927557D01*
X101537016Y-75972586D01*
X101537014Y-75972588D01*
X101537013Y-75972588D01*
X101414532Y-76095069D01*
X101414532Y-76095070D01*
X101414530Y-76095072D01*
X101370803Y-76155256D01*
X101312712Y-76235211D01*
X101234072Y-76389552D01*
X101180541Y-76554302D01*
X101153444Y-76725389D01*
X78554444Y-76725389D01*
X78527346Y-76554299D01*
X78473817Y-76389555D01*
X78395176Y-76235212D01*
X78293358Y-76095072D01*
X78170872Y-75972586D01*
X78030732Y-75870768D01*
X77876389Y-75792127D01*
X77711645Y-75738598D01*
X77711643Y-75738597D01*
X77711642Y-75738597D01*
X77580215Y-75717781D01*
X77540555Y-75711500D01*
X76567333Y-75711500D01*
X76527672Y-75717781D01*
X76396246Y-75738597D01*
X76231496Y-75792128D01*
X76077155Y-75870768D01*
X75998993Y-75927557D01*
X75937016Y-75972586D01*
X75937014Y-75972588D01*
X75937013Y-75972588D01*
X75814532Y-76095069D01*
X75814532Y-76095070D01*
X75814530Y-76095072D01*
X75770803Y-76155256D01*
X75712712Y-76235211D01*
X75634072Y-76389552D01*
X75580541Y-76554302D01*
X75553444Y-76725389D01*
X70369789Y-76725389D01*
X72909788Y-74185389D01*
X75553444Y-74185389D01*
X75553444Y-74358611D01*
X75580542Y-74529701D01*
X75634071Y-74694445D01*
X75712712Y-74848788D01*
X75814530Y-74988928D01*
X75937016Y-75111414D01*
X76077156Y-75213232D01*
X76231499Y-75291873D01*
X76396243Y-75345402D01*
X76567333Y-75372500D01*
X76567334Y-75372500D01*
X77540554Y-75372500D01*
X77540555Y-75372500D01*
X77711645Y-75345402D01*
X77876389Y-75291873D01*
X78030732Y-75213232D01*
X78170872Y-75111414D01*
X78293358Y-74988928D01*
X78395176Y-74848788D01*
X78473817Y-74694445D01*
X78527346Y-74529701D01*
X78554444Y-74358611D01*
X78554444Y-74185389D01*
X101153444Y-74185389D01*
X101153444Y-74358611D01*
X101180542Y-74529701D01*
X101234071Y-74694445D01*
X101312712Y-74848788D01*
X101414530Y-74988928D01*
X101537016Y-75111414D01*
X101677156Y-75213232D01*
X101831499Y-75291873D01*
X101996243Y-75345402D01*
X102167333Y-75372500D01*
X102167334Y-75372500D01*
X103140554Y-75372500D01*
X103140555Y-75372500D01*
X103311645Y-75345402D01*
X103476389Y-75291873D01*
X103630732Y-75213232D01*
X103770872Y-75111414D01*
X103893358Y-74988928D01*
X103995176Y-74848788D01*
X104073817Y-74694445D01*
X104127346Y-74529701D01*
X104154444Y-74358611D01*
X104154444Y-74185389D01*
X104127346Y-74014299D01*
X104073817Y-73849555D01*
X103995176Y-73695212D01*
X103893358Y-73555072D01*
X103770872Y-73432586D01*
X103630732Y-73330768D01*
X103476389Y-73252127D01*
X103311645Y-73198598D01*
X103311643Y-73198597D01*
X103311642Y-73198597D01*
X103180215Y-73177781D01*
X103140555Y-73171500D01*
X102167333Y-73171500D01*
X102127672Y-73177781D01*
X101996246Y-73198597D01*
X101831496Y-73252128D01*
X101677155Y-73330768D01*
X101659644Y-73343491D01*
X101537016Y-73432586D01*
X101537014Y-73432588D01*
X101537013Y-73432588D01*
X101414532Y-73555069D01*
X101414532Y-73555070D01*
X101414530Y-73555072D01*
X101370803Y-73615256D01*
X101312712Y-73695211D01*
X101234072Y-73849552D01*
X101180541Y-74014302D01*
X101168103Y-74092836D01*
X101153444Y-74185389D01*
X78554444Y-74185389D01*
X78527346Y-74014299D01*
X78473817Y-73849555D01*
X78395176Y-73695212D01*
X78293358Y-73555072D01*
X78170872Y-73432586D01*
X78030732Y-73330768D01*
X77876389Y-73252127D01*
X77711645Y-73198598D01*
X77711643Y-73198597D01*
X77711642Y-73198597D01*
X77580215Y-73177781D01*
X77540555Y-73171500D01*
X76567333Y-73171500D01*
X76527672Y-73177781D01*
X76396246Y-73198597D01*
X76231496Y-73252128D01*
X76077155Y-73330768D01*
X76059644Y-73343491D01*
X75937016Y-73432586D01*
X75937014Y-73432588D01*
X75937013Y-73432588D01*
X75814532Y-73555069D01*
X75814532Y-73555070D01*
X75814530Y-73555072D01*
X75770803Y-73615256D01*
X75712712Y-73695211D01*
X75634072Y-73849552D01*
X75580541Y-74014302D01*
X75568103Y-74092836D01*
X75553444Y-74185389D01*
X72909788Y-74185389D01*
X75343505Y-71751672D01*
X75404826Y-71718189D01*
X75474518Y-71723173D01*
X75530451Y-71765045D01*
X75553657Y-71819957D01*
X75580542Y-71989701D01*
X75634071Y-72154445D01*
X75712712Y-72308788D01*
X75814530Y-72448928D01*
X75937016Y-72571414D01*
X76077156Y-72673232D01*
X76231499Y-72751873D01*
X76396243Y-72805402D01*
X76567333Y-72832500D01*
X76567334Y-72832500D01*
X77540554Y-72832500D01*
X77540555Y-72832500D01*
X77711645Y-72805402D01*
X77876389Y-72751873D01*
X78030732Y-72673232D01*
X78170872Y-72571414D01*
X78293358Y-72448928D01*
X78395176Y-72308788D01*
X78473817Y-72154445D01*
X78527346Y-71989701D01*
X78554444Y-71818611D01*
X78554444Y-71645389D01*
X101153444Y-71645389D01*
X101153444Y-71818611D01*
X101180542Y-71989701D01*
X101234071Y-72154445D01*
X101312712Y-72308788D01*
X101414530Y-72448928D01*
X101537016Y-72571414D01*
X101677156Y-72673232D01*
X101831499Y-72751873D01*
X101996243Y-72805402D01*
X102167333Y-72832500D01*
X102167334Y-72832500D01*
X103140554Y-72832500D01*
X103140555Y-72832500D01*
X103311645Y-72805402D01*
X103476389Y-72751873D01*
X103630732Y-72673232D01*
X103770872Y-72571414D01*
X103893358Y-72448928D01*
X103995176Y-72308788D01*
X104073817Y-72154445D01*
X104127346Y-71989701D01*
X104154444Y-71818611D01*
X104154444Y-71645389D01*
X104127346Y-71474299D01*
X104073817Y-71309555D01*
X103995176Y-71155212D01*
X103893358Y-71015072D01*
X103770872Y-70892586D01*
X103630732Y-70790768D01*
X103476389Y-70712127D01*
X103311645Y-70658598D01*
X103311643Y-70658597D01*
X103311642Y-70658597D01*
X103180215Y-70637781D01*
X103140555Y-70631500D01*
X102167333Y-70631500D01*
X102127672Y-70637781D01*
X101996246Y-70658597D01*
X101831496Y-70712128D01*
X101677155Y-70790768D01*
X101659644Y-70803491D01*
X101537016Y-70892586D01*
X101537014Y-70892588D01*
X101537013Y-70892588D01*
X101414532Y-71015069D01*
X101414532Y-71015070D01*
X101414530Y-71015072D01*
X101370803Y-71075256D01*
X101312712Y-71155211D01*
X101234072Y-71309552D01*
X101180541Y-71474302D01*
X101157848Y-71617585D01*
X101153444Y-71645389D01*
X78554444Y-71645389D01*
X78527346Y-71474299D01*
X78473817Y-71309555D01*
X78395176Y-71155212D01*
X78293358Y-71015072D01*
X78170872Y-70892586D01*
X78030732Y-70790768D01*
X77876389Y-70712127D01*
X77711645Y-70658598D01*
X77711643Y-70658597D01*
X77711642Y-70658597D01*
X77580215Y-70637781D01*
X77540555Y-70631500D01*
X76763041Y-70631500D01*
X76741795Y-70625261D01*
X76719707Y-70623682D01*
X76708923Y-70615609D01*
X76696002Y-70611815D01*
X76681502Y-70595081D01*
X76663774Y-70581810D01*
X76659066Y-70569189D01*
X76650247Y-70559011D01*
X76647095Y-70537093D01*
X76639357Y-70516346D01*
X76642219Y-70503185D01*
X76640303Y-70489853D01*
X76649502Y-70469709D01*
X76654209Y-70448073D01*
X76667477Y-70430347D01*
X76669328Y-70426297D01*
X76675360Y-70419819D01*
X76766360Y-70328819D01*
X76827683Y-70295334D01*
X76854041Y-70292500D01*
X77540554Y-70292500D01*
X77540555Y-70292500D01*
X77711645Y-70265402D01*
X77876389Y-70211873D01*
X78030732Y-70133232D01*
X78170872Y-70031414D01*
X78293358Y-69908928D01*
X78395176Y-69768788D01*
X78473817Y-69614445D01*
X78527346Y-69449701D01*
X78554444Y-69278611D01*
X78554444Y-69105389D01*
X101153444Y-69105389D01*
X101153444Y-69278611D01*
X101180542Y-69449701D01*
X101234071Y-69614445D01*
X101312712Y-69768788D01*
X101414530Y-69908928D01*
X101537016Y-70031414D01*
X101677156Y-70133232D01*
X101831499Y-70211873D01*
X101996243Y-70265402D01*
X102167333Y-70292500D01*
X102167334Y-70292500D01*
X103140554Y-70292500D01*
X103140555Y-70292500D01*
X103311645Y-70265402D01*
X103476389Y-70211873D01*
X103630732Y-70133232D01*
X103770872Y-70031414D01*
X103893358Y-69908928D01*
X103995176Y-69768788D01*
X104073817Y-69614445D01*
X104127346Y-69449701D01*
X104154444Y-69278611D01*
X104154444Y-69105389D01*
X104127346Y-68934299D01*
X104073817Y-68769555D01*
X103995176Y-68615212D01*
X103893358Y-68475072D01*
X103770872Y-68352586D01*
X103630732Y-68250768D01*
X103476389Y-68172127D01*
X103311645Y-68118598D01*
X103311643Y-68118597D01*
X103311642Y-68118597D01*
X103180215Y-68097781D01*
X103140555Y-68091500D01*
X102167333Y-68091500D01*
X102127672Y-68097781D01*
X101996246Y-68118597D01*
X101831496Y-68172128D01*
X101677155Y-68250768D01*
X101599629Y-68307095D01*
X101537016Y-68352586D01*
X101537014Y-68352588D01*
X101537013Y-68352588D01*
X101414532Y-68475069D01*
X101414532Y-68475070D01*
X101414530Y-68475072D01*
X101370803Y-68535256D01*
X101312712Y-68615211D01*
X101234072Y-68769552D01*
X101180541Y-68934302D01*
X101157848Y-69077585D01*
X101153444Y-69105389D01*
X78554444Y-69105389D01*
X78527346Y-68934299D01*
X78473817Y-68769555D01*
X78395176Y-68615212D01*
X78293358Y-68475072D01*
X78170872Y-68352586D01*
X78030732Y-68250768D01*
X77876389Y-68172127D01*
X77711645Y-68118598D01*
X77711643Y-68118597D01*
X77711642Y-68118597D01*
X77580215Y-68097781D01*
X77540555Y-68091500D01*
X76567333Y-68091500D01*
X76527672Y-68097781D01*
X76396246Y-68118597D01*
X76231496Y-68172128D01*
X76077155Y-68250768D01*
X75999629Y-68307095D01*
X75937016Y-68352586D01*
X75937014Y-68352588D01*
X75937013Y-68352588D01*
X75814532Y-68475069D01*
X75814532Y-68475070D01*
X75814530Y-68475072D01*
X75770803Y-68535256D01*
X75712712Y-68615211D01*
X75634072Y-68769552D01*
X75580541Y-68934302D01*
X75553444Y-69105389D01*
X75553444Y-69278610D01*
X75580541Y-69449697D01*
X75634070Y-69614442D01*
X75634072Y-69614447D01*
X75643192Y-69632346D01*
X75656087Y-69701015D01*
X75629810Y-69765755D01*
X75620387Y-69776320D01*
X68150342Y-77246366D01*
X68038537Y-77358170D01*
X68038535Y-77358173D01*
X67988417Y-77444982D01*
X67988415Y-77444984D01*
X67959481Y-77495097D01*
X67959480Y-77495098D01*
X67956119Y-77507643D01*
X67918555Y-77647831D01*
X67918555Y-77647833D01*
X67918555Y-77815934D01*
X67918556Y-77815947D01*
X67918556Y-91454846D01*
X67898871Y-91521885D01*
X67882237Y-91542527D01*
X63791681Y-95633082D01*
X63730358Y-95666567D01*
X63660666Y-95661583D01*
X63604733Y-95619711D01*
X63580316Y-95554247D01*
X63580000Y-95545401D01*
X63580000Y-95397753D01*
X63546757Y-95187872D01*
X63546757Y-95187869D01*
X63481095Y-94985782D01*
X63384624Y-94796449D01*
X63345270Y-94742282D01*
X63345269Y-94742282D01*
X62712962Y-95374590D01*
X62695925Y-95311007D01*
X62630099Y-95196993D01*
X62537007Y-95103901D01*
X62422993Y-95038075D01*
X62359409Y-95021037D01*
X62991716Y-94388728D01*
X62937547Y-94349373D01*
X62937547Y-94349372D01*
X62928500Y-94344763D01*
X62877706Y-94296788D01*
X62860912Y-94228966D01*
X62883451Y-94162832D01*
X62928508Y-94123793D01*
X62937816Y-94119051D01*
X63017007Y-94061515D01*
X63109786Y-93994109D01*
X63109788Y-93994106D01*
X63109792Y-93994104D01*
X63260104Y-93843792D01*
X63260106Y-93843788D01*
X63260109Y-93843786D01*
X63383902Y-93673397D01*
X63385051Y-93671816D01*
X63481557Y-93482412D01*
X63547246Y-93280243D01*
X63580500Y-93070287D01*
X63580500Y-92857713D01*
X63547246Y-92647757D01*
X63481557Y-92445588D01*
X63385051Y-92256184D01*
X63385049Y-92256181D01*
X63385048Y-92256179D01*
X63260109Y-92084213D01*
X63109786Y-91933890D01*
X62937820Y-91808951D01*
X62937115Y-91808591D01*
X62929054Y-91804485D01*
X62878259Y-91756512D01*
X62861463Y-91688692D01*
X62883999Y-91622556D01*
X62929054Y-91583515D01*
X62937816Y-91579051D01*
X63016499Y-91521885D01*
X63109786Y-91454109D01*
X63109788Y-91454106D01*
X63109792Y-91454104D01*
X63260104Y-91303792D01*
X63260106Y-91303788D01*
X63260109Y-91303786D01*
X63385048Y-91131820D01*
X63385047Y-91131820D01*
X63385051Y-91131816D01*
X63481557Y-90942412D01*
X63547246Y-90740243D01*
X63580500Y-90530287D01*
X63580500Y-90317713D01*
X63547246Y-90107757D01*
X63481557Y-89905588D01*
X63385051Y-89716184D01*
X63385049Y-89716181D01*
X63385048Y-89716179D01*
X63260109Y-89544213D01*
X63109786Y-89393890D01*
X62937820Y-89268951D01*
X62937115Y-89268591D01*
X62929054Y-89264485D01*
X62878259Y-89216512D01*
X62861463Y-89148692D01*
X62883999Y-89082556D01*
X62929054Y-89043515D01*
X62937816Y-89039051D01*
X62959789Y-89023086D01*
X63109786Y-88914109D01*
X63109788Y-88914106D01*
X63109792Y-88914104D01*
X63260104Y-88763792D01*
X63260106Y-88763788D01*
X63260109Y-88763786D01*
X63385048Y-88591820D01*
X63385047Y-88591820D01*
X63385051Y-88591816D01*
X63481557Y-88402412D01*
X63547246Y-88200243D01*
X63580500Y-87990287D01*
X63580500Y-87777713D01*
X63547246Y-87567757D01*
X63481557Y-87365588D01*
X63385051Y-87176184D01*
X63385049Y-87176181D01*
X63385048Y-87176179D01*
X63260109Y-87004213D01*
X63109786Y-86853890D01*
X62937820Y-86728951D01*
X62937115Y-86728591D01*
X62929054Y-86724485D01*
X62878259Y-86676512D01*
X62861463Y-86608692D01*
X62883999Y-86542556D01*
X62929054Y-86503515D01*
X62937816Y-86499051D01*
X63019747Y-86439525D01*
X63109786Y-86374109D01*
X63109788Y-86374106D01*
X63109792Y-86374104D01*
X63260104Y-86223792D01*
X63260106Y-86223788D01*
X63260109Y-86223786D01*
X63385048Y-86051820D01*
X63385047Y-86051820D01*
X63385051Y-86051816D01*
X63481557Y-85862412D01*
X63547246Y-85660243D01*
X63580500Y-85450287D01*
X63580500Y-85237713D01*
X63547246Y-85027757D01*
X63481557Y-84825588D01*
X63385051Y-84636184D01*
X63385049Y-84636181D01*
X63385048Y-84636179D01*
X63260109Y-84464213D01*
X63109786Y-84313890D01*
X62937820Y-84188951D01*
X62748414Y-84092444D01*
X62748413Y-84092443D01*
X62748412Y-84092443D01*
X62546243Y-84026754D01*
X62546241Y-84026753D01*
X62546240Y-84026753D01*
X62384957Y-84001208D01*
X62336287Y-83993500D01*
X62123713Y-83993500D01*
X62075042Y-84001208D01*
X61913760Y-84026753D01*
X61711585Y-84092444D01*
X61522179Y-84188951D01*
X61350213Y-84313890D01*
X61199890Y-84464213D01*
X61074951Y-84636179D01*
X60978444Y-84825585D01*
X60912753Y-85027760D01*
X60879500Y-85237713D01*
X60879500Y-85450286D01*
X60902895Y-85598000D01*
X60912754Y-85660243D01*
X60955237Y-85790993D01*
X60978444Y-85862414D01*
X61074951Y-86051820D01*
X61199890Y-86223786D01*
X61350213Y-86374109D01*
X61522182Y-86499050D01*
X61530946Y-86503516D01*
X61581742Y-86551491D01*
X61598536Y-86619312D01*
X61575998Y-86685447D01*
X61530946Y-86724484D01*
X61522182Y-86728949D01*
X61350213Y-86853890D01*
X61199890Y-87004213D01*
X61074951Y-87176179D01*
X60978444Y-87365585D01*
X60912753Y-87567760D01*
X60879500Y-87777713D01*
X60879500Y-87990286D01*
X60912753Y-88200239D01*
X60978444Y-88402414D01*
X61074951Y-88591820D01*
X61199890Y-88763786D01*
X61350213Y-88914109D01*
X61522182Y-89039050D01*
X61530946Y-89043516D01*
X61581742Y-89091491D01*
X61598536Y-89159312D01*
X61575998Y-89225447D01*
X61530946Y-89264484D01*
X61522182Y-89268949D01*
X61350213Y-89393890D01*
X61199890Y-89544213D01*
X61074951Y-89716179D01*
X60978444Y-89905585D01*
X60912753Y-90107760D01*
X60879500Y-90317713D01*
X60879500Y-90530286D01*
X60912753Y-90740239D01*
X60978444Y-90942414D01*
X61074951Y-91131820D01*
X61199890Y-91303786D01*
X61350213Y-91454109D01*
X61522182Y-91579050D01*
X61530946Y-91583516D01*
X61581742Y-91631491D01*
X61598536Y-91699312D01*
X61575998Y-91765447D01*
X61530946Y-91804484D01*
X61522182Y-91808949D01*
X61350213Y-91933890D01*
X61199890Y-92084213D01*
X61074948Y-92256184D01*
X61074947Y-92256185D01*
X61054765Y-92295795D01*
X61006791Y-92346591D01*
X60944281Y-92363500D01*
X51125766Y-92363500D01*
X51058727Y-92343815D01*
X51056875Y-92342602D01*
X50925185Y-92254609D01*
X50925172Y-92254602D01*
X50779501Y-92194264D01*
X50779489Y-92194261D01*
X50624845Y-92163500D01*
X50624842Y-92163500D01*
X50467158Y-92163500D01*
X50467155Y-92163500D01*
X50312510Y-92194261D01*
X50312498Y-92194264D01*
X50166827Y-92254602D01*
X50166814Y-92254609D01*
X50035711Y-92342210D01*
X50035707Y-92342213D01*
X49924213Y-92453707D01*
X49924210Y-92453711D01*
X49836609Y-92584814D01*
X49836602Y-92584827D01*
X49776264Y-92730498D01*
X49776261Y-92730510D01*
X49745500Y-92885153D01*
X35354500Y-92885153D01*
X35354500Y-50467153D01*
X51777500Y-50467153D01*
X51777500Y-50624846D01*
X51808261Y-50779489D01*
X51808263Y-50779497D01*
X51818061Y-50803151D01*
X51827500Y-50850604D01*
X51827500Y-74371396D01*
X51818062Y-74418844D01*
X51808263Y-74442503D01*
X51808262Y-74442506D01*
X51808260Y-74442511D01*
X51777500Y-74597153D01*
X51777500Y-74754846D01*
X51808261Y-74909489D01*
X51808264Y-74909501D01*
X51868602Y-75055172D01*
X51868609Y-75055185D01*
X51956210Y-75186288D01*
X51956213Y-75186292D01*
X52067707Y-75297786D01*
X52067711Y-75297789D01*
X52198814Y-75385390D01*
X52198827Y-75385397D01*
X52344498Y-75445735D01*
X52344503Y-75445737D01*
X52499153Y-75476499D01*
X52499156Y-75476500D01*
X52499158Y-75476500D01*
X52656844Y-75476500D01*
X52656845Y-75476499D01*
X52811497Y-75445737D01*
X52957179Y-75385394D01*
X53088289Y-75297789D01*
X53199789Y-75186289D01*
X53287394Y-75055179D01*
X53347737Y-74909497D01*
X53378500Y-74754842D01*
X53378500Y-74597158D01*
X53378500Y-74597155D01*
X53378499Y-74597153D01*
X53347739Y-74442511D01*
X53347738Y-74442508D01*
X53347737Y-74442503D01*
X53337937Y-74418844D01*
X53328500Y-74371396D01*
X53328500Y-63618135D01*
X61133500Y-63618135D01*
X61133500Y-65413870D01*
X61133501Y-65413876D01*
X61139908Y-65473483D01*
X61190202Y-65608328D01*
X61190206Y-65608335D01*
X61276452Y-65723544D01*
X61276455Y-65723547D01*
X61391664Y-65809793D01*
X61391671Y-65809797D01*
X61436618Y-65826561D01*
X61526517Y-65860091D01*
X61586127Y-65866500D01*
X61596685Y-65866499D01*
X61663723Y-65886179D01*
X61684372Y-65902818D01*
X62354591Y-66573037D01*
X62291007Y-66590075D01*
X62176993Y-66655901D01*
X62083901Y-66748993D01*
X62018075Y-66863007D01*
X62001037Y-66926591D01*
X61368728Y-66294282D01*
X61368727Y-66294282D01*
X61329380Y-66348439D01*
X61232904Y-66537782D01*
X61167242Y-66739869D01*
X61167242Y-66739872D01*
X61134000Y-66949753D01*
X61134000Y-67162246D01*
X61167242Y-67372127D01*
X61167242Y-67372130D01*
X61232904Y-67574217D01*
X61329375Y-67763550D01*
X61368728Y-67817716D01*
X62001037Y-67185408D01*
X62018075Y-67248993D01*
X62083901Y-67363007D01*
X62176993Y-67456099D01*
X62291007Y-67521925D01*
X62354590Y-67538962D01*
X61722282Y-68171269D01*
X61722282Y-68171270D01*
X61776452Y-68210626D01*
X61776451Y-68210626D01*
X61785495Y-68215234D01*
X61836292Y-68263208D01*
X61853087Y-68331029D01*
X61830550Y-68397164D01*
X61785499Y-68436202D01*
X61776182Y-68440949D01*
X61604213Y-68565890D01*
X61453890Y-68716213D01*
X61328951Y-68888179D01*
X61232444Y-69077585D01*
X61166753Y-69279760D01*
X61139838Y-69449697D01*
X61133500Y-69489713D01*
X61133500Y-69702287D01*
X61166754Y-69912243D01*
X61205475Y-70031414D01*
X61232444Y-70114414D01*
X61328951Y-70303820D01*
X61453890Y-70475786D01*
X61604213Y-70626109D01*
X61776182Y-70751050D01*
X61784946Y-70755516D01*
X61835742Y-70803491D01*
X61852536Y-70871312D01*
X61829998Y-70937447D01*
X61784946Y-70976484D01*
X61776182Y-70980949D01*
X61604213Y-71105890D01*
X61453890Y-71256213D01*
X61328951Y-71428179D01*
X61232444Y-71617585D01*
X61166753Y-71819760D01*
X61166722Y-71819957D01*
X61133500Y-72029713D01*
X61133500Y-72242287D01*
X61166754Y-72452243D01*
X61205475Y-72571414D01*
X61232444Y-72654414D01*
X61328951Y-72843820D01*
X61453890Y-73015786D01*
X61604213Y-73166109D01*
X61776182Y-73291050D01*
X61784946Y-73295516D01*
X61835742Y-73343491D01*
X61852536Y-73411312D01*
X61829998Y-73477447D01*
X61784946Y-73516484D01*
X61776182Y-73520949D01*
X61604213Y-73645890D01*
X61453890Y-73796213D01*
X61328951Y-73968179D01*
X61232444Y-74157585D01*
X61166753Y-74359760D01*
X61153647Y-74442511D01*
X61133500Y-74569713D01*
X61133500Y-74782287D01*
X61166754Y-74992243D01*
X61229803Y-75186288D01*
X61232444Y-75194414D01*
X61328951Y-75383820D01*
X61453890Y-75555786D01*
X61604213Y-75706109D01*
X61776182Y-75831050D01*
X61784946Y-75835516D01*
X61835742Y-75883491D01*
X61852536Y-75951312D01*
X61829998Y-76017447D01*
X61784946Y-76056484D01*
X61776182Y-76060949D01*
X61604213Y-76185890D01*
X61453890Y-76336213D01*
X61328951Y-76508179D01*
X61232444Y-76697585D01*
X61166753Y-76899760D01*
X61133500Y-77109713D01*
X61133500Y-77322286D01*
X61166125Y-77528275D01*
X61166754Y-77532243D01*
X61205475Y-77651414D01*
X61232444Y-77734414D01*
X61328951Y-77923820D01*
X61453890Y-78095786D01*
X61604213Y-78246109D01*
X61776179Y-78371048D01*
X61776181Y-78371049D01*
X61776184Y-78371051D01*
X61965588Y-78467557D01*
X62167757Y-78533246D01*
X62377713Y-78566500D01*
X62377714Y-78566500D01*
X62590286Y-78566500D01*
X62590287Y-78566500D01*
X62800243Y-78533246D01*
X63002412Y-78467557D01*
X63191816Y-78371051D01*
X63319068Y-78278598D01*
X63363786Y-78246109D01*
X63363788Y-78246106D01*
X63363792Y-78246104D01*
X63514104Y-78095792D01*
X63514106Y-78095788D01*
X63514109Y-78095786D01*
X63639048Y-77923820D01*
X63639047Y-77923820D01*
X63639051Y-77923816D01*
X63735557Y-77734412D01*
X63801246Y-77532243D01*
X63834500Y-77322287D01*
X63834500Y-77109713D01*
X63801246Y-76899757D01*
X63735557Y-76697588D01*
X63639051Y-76508184D01*
X63639049Y-76508181D01*
X63639048Y-76508179D01*
X63514109Y-76336213D01*
X63363786Y-76185890D01*
X63191820Y-76060951D01*
X63191115Y-76060591D01*
X63183054Y-76056485D01*
X63132259Y-76008512D01*
X63115463Y-75940692D01*
X63137999Y-75874556D01*
X63183054Y-75835515D01*
X63191816Y-75831051D01*
X63245391Y-75792127D01*
X63363786Y-75706109D01*
X63363788Y-75706106D01*
X63363792Y-75706104D01*
X63514104Y-75555792D01*
X63514106Y-75555788D01*
X63514109Y-75555786D01*
X63637902Y-75385397D01*
X63639051Y-75383816D01*
X63735557Y-75194412D01*
X63801246Y-74992243D01*
X63834500Y-74782287D01*
X63834500Y-74569713D01*
X63801246Y-74359757D01*
X63735557Y-74157588D01*
X63639051Y-73968184D01*
X63639049Y-73968181D01*
X63639048Y-73968179D01*
X63514109Y-73796213D01*
X63363786Y-73645890D01*
X63191820Y-73520951D01*
X63191115Y-73520591D01*
X63183054Y-73516485D01*
X63132259Y-73468512D01*
X63115463Y-73400692D01*
X63137999Y-73334556D01*
X63183054Y-73295515D01*
X63191816Y-73291051D01*
X63319068Y-73198598D01*
X63363786Y-73166109D01*
X63363788Y-73166106D01*
X63363792Y-73166104D01*
X63514104Y-73015792D01*
X63514106Y-73015788D01*
X63514109Y-73015786D01*
X63639048Y-72843820D01*
X63639047Y-72843820D01*
X63639051Y-72843816D01*
X63735557Y-72654412D01*
X63801246Y-72452243D01*
X63834500Y-72242287D01*
X63834500Y-72029713D01*
X63801246Y-71819757D01*
X63735557Y-71617588D01*
X63639051Y-71428184D01*
X63639049Y-71428181D01*
X63639048Y-71428179D01*
X63514109Y-71256213D01*
X63363786Y-71105890D01*
X63191820Y-70980951D01*
X63191115Y-70980591D01*
X63183054Y-70976485D01*
X63132259Y-70928512D01*
X63115463Y-70860692D01*
X63137999Y-70794556D01*
X63183054Y-70755515D01*
X63191816Y-70751051D01*
X63319068Y-70658598D01*
X63363786Y-70626109D01*
X63363788Y-70626106D01*
X63363792Y-70626104D01*
X63514104Y-70475792D01*
X63514106Y-70475788D01*
X63514109Y-70475786D01*
X63639048Y-70303820D01*
X63639047Y-70303820D01*
X63639051Y-70303816D01*
X63735557Y-70114412D01*
X63801246Y-69912243D01*
X63834500Y-69702287D01*
X63834500Y-69489713D01*
X63801246Y-69279757D01*
X63735557Y-69077588D01*
X63639051Y-68888184D01*
X63639049Y-68888181D01*
X63639048Y-68888179D01*
X63514109Y-68716213D01*
X63363786Y-68565890D01*
X63191817Y-68440949D01*
X63182504Y-68436204D01*
X63131707Y-68388230D01*
X63114912Y-68320409D01*
X63137449Y-68254274D01*
X63182507Y-68215232D01*
X63191555Y-68210622D01*
X63245716Y-68171270D01*
X63245717Y-68171270D01*
X62613408Y-67538962D01*
X62676993Y-67521925D01*
X62791007Y-67456099D01*
X62884099Y-67363007D01*
X62949925Y-67248993D01*
X62966962Y-67185408D01*
X63599270Y-67817717D01*
X63599270Y-67817716D01*
X63638622Y-67763554D01*
X63735095Y-67574217D01*
X63800757Y-67372130D01*
X63800757Y-67372127D01*
X63834000Y-67162246D01*
X63834000Y-66949753D01*
X63800757Y-66739872D01*
X63800757Y-66739869D01*
X63735095Y-66537782D01*
X63638624Y-66348449D01*
X63599270Y-66294282D01*
X63599269Y-66294282D01*
X62966962Y-66926590D01*
X62949925Y-66863007D01*
X62884099Y-66748993D01*
X62791007Y-66655901D01*
X62676993Y-66590075D01*
X62613409Y-66573037D01*
X63182310Y-66004135D01*
X75553444Y-66004135D01*
X75553444Y-67299870D01*
X75553445Y-67299876D01*
X75559852Y-67359483D01*
X75610146Y-67494328D01*
X75610150Y-67494335D01*
X75696396Y-67609544D01*
X75696399Y-67609547D01*
X75811608Y-67695793D01*
X75811615Y-67695797D01*
X75946461Y-67746091D01*
X75946460Y-67746091D01*
X75953388Y-67746835D01*
X76006071Y-67752500D01*
X78101816Y-67752499D01*
X78161427Y-67746091D01*
X78296275Y-67695796D01*
X78411490Y-67609546D01*
X78497740Y-67494331D01*
X78548035Y-67359483D01*
X78554444Y-67299873D01*
X78554443Y-66401999D01*
X101179828Y-66401999D01*
X101179829Y-66402000D01*
X102338258Y-66402000D01*
X102333864Y-66406394D01*
X102281203Y-66497606D01*
X102253944Y-66599339D01*
X102253944Y-66704661D01*
X102281203Y-66806394D01*
X102333864Y-66897606D01*
X102338258Y-66902000D01*
X101179829Y-66902000D01*
X101181029Y-66909584D01*
X101234535Y-67074255D01*
X101313139Y-67228524D01*
X101414911Y-67368602D01*
X101537341Y-67491032D01*
X101677419Y-67592804D01*
X101831686Y-67671408D01*
X101996359Y-67724914D01*
X102167373Y-67752000D01*
X102403944Y-67752000D01*
X102403944Y-66967686D01*
X102408338Y-66972080D01*
X102499550Y-67024741D01*
X102601283Y-67052000D01*
X102706605Y-67052000D01*
X102808338Y-67024741D01*
X102899550Y-66972080D01*
X102903944Y-66967686D01*
X102903944Y-67752000D01*
X103140515Y-67752000D01*
X103311528Y-67724914D01*
X103476201Y-67671408D01*
X103630468Y-67592804D01*
X103770546Y-67491032D01*
X103892976Y-67368602D01*
X103994748Y-67228524D01*
X104073352Y-67074255D01*
X104126858Y-66909584D01*
X104128059Y-66902000D01*
X102969630Y-66902000D01*
X102974024Y-66897606D01*
X103026685Y-66806394D01*
X103053944Y-66704661D01*
X103053944Y-66599339D01*
X103026685Y-66497606D01*
X102974024Y-66406394D01*
X102969630Y-66402000D01*
X104128059Y-66402000D01*
X104128059Y-66401999D01*
X104126858Y-66394415D01*
X104073353Y-66229745D01*
X104063854Y-66211103D01*
X104063853Y-66211101D01*
X104036865Y-66158135D01*
X116759500Y-66158135D01*
X116759500Y-67953870D01*
X116759501Y-67953876D01*
X116765908Y-68013483D01*
X116816202Y-68148328D01*
X116816206Y-68148335D01*
X116902452Y-68263544D01*
X116902455Y-68263547D01*
X117017664Y-68349793D01*
X117017671Y-68349797D01*
X117152517Y-68400091D01*
X117152516Y-68400091D01*
X117159444Y-68400835D01*
X117212127Y-68406500D01*
X119007872Y-68406499D01*
X119067483Y-68400091D01*
X119202331Y-68349796D01*
X119317546Y-68263546D01*
X119403796Y-68148331D01*
X119454091Y-68013483D01*
X119460500Y-67953873D01*
X119460499Y-67929979D01*
X119463330Y-67916963D01*
X119473940Y-67897525D01*
X119480179Y-67876275D01*
X119496803Y-67855643D01*
X119496808Y-67855636D01*
X119496811Y-67855634D01*
X119496818Y-67855626D01*
X120167037Y-67185408D01*
X120184075Y-67248993D01*
X120249901Y-67363007D01*
X120342993Y-67456099D01*
X120457007Y-67521925D01*
X120520590Y-67538962D01*
X119888282Y-68171269D01*
X119888282Y-68171270D01*
X119942449Y-68210624D01*
X120131782Y-68307095D01*
X120333870Y-68372757D01*
X120543754Y-68406000D01*
X120756246Y-68406000D01*
X120966127Y-68372757D01*
X120966130Y-68372757D01*
X121168217Y-68307095D01*
X121357554Y-68210622D01*
X121411716Y-68171270D01*
X121411717Y-68171270D01*
X120779408Y-67538962D01*
X120842993Y-67521925D01*
X120957007Y-67456099D01*
X121050099Y-67363007D01*
X121115925Y-67248993D01*
X121132962Y-67185408D01*
X121765270Y-67817717D01*
X121765270Y-67817716D01*
X121804622Y-67763554D01*
X121901095Y-67574217D01*
X121966757Y-67372130D01*
X121966757Y-67372127D01*
X122000000Y-67162246D01*
X122000000Y-66949753D01*
X121966757Y-66739872D01*
X121966757Y-66739869D01*
X121901095Y-66537782D01*
X121804624Y-66348449D01*
X121765270Y-66294282D01*
X121765269Y-66294282D01*
X121132962Y-66926590D01*
X121115925Y-66863007D01*
X121050099Y-66748993D01*
X120957007Y-66655901D01*
X120842993Y-66590075D01*
X120779409Y-66573037D01*
X121411716Y-65940728D01*
X121357550Y-65901375D01*
X121168217Y-65804904D01*
X120966129Y-65739242D01*
X120756246Y-65706000D01*
X120543754Y-65706000D01*
X120333872Y-65739242D01*
X120333869Y-65739242D01*
X120131782Y-65804904D01*
X119942439Y-65901380D01*
X119888282Y-65940727D01*
X119888282Y-65940728D01*
X120520591Y-66573037D01*
X120457007Y-66590075D01*
X120342993Y-66655901D01*
X120249901Y-66748993D01*
X120184075Y-66863007D01*
X120167037Y-66926591D01*
X119496818Y-66256372D01*
X119463333Y-66195049D01*
X119463330Y-66195036D01*
X119460499Y-66182015D01*
X119460499Y-66158128D01*
X119454091Y-66098517D01*
X119418887Y-66004129D01*
X119403798Y-65963673D01*
X119403793Y-65963664D01*
X119317547Y-65848455D01*
X119317544Y-65848452D01*
X119202335Y-65762206D01*
X119202328Y-65762202D01*
X119067482Y-65711908D01*
X119067483Y-65711908D01*
X119007883Y-65705501D01*
X119007881Y-65705500D01*
X119007873Y-65705500D01*
X119007864Y-65705500D01*
X117212129Y-65705500D01*
X117212123Y-65705501D01*
X117152516Y-65711908D01*
X117017671Y-65762202D01*
X117017664Y-65762206D01*
X116902455Y-65848452D01*
X116902452Y-65848455D01*
X116816206Y-65963664D01*
X116816202Y-65963671D01*
X116765908Y-66098517D01*
X116759501Y-66158116D01*
X116759500Y-66158135D01*
X104036865Y-66158135D01*
X103994748Y-66075475D01*
X103892976Y-65935397D01*
X103770546Y-65812967D01*
X103630468Y-65711195D01*
X103476201Y-65632591D01*
X103311528Y-65579085D01*
X103140515Y-65552000D01*
X102903944Y-65552000D01*
X102903944Y-66336314D01*
X102899550Y-66331920D01*
X102808338Y-66279259D01*
X102706605Y-66252000D01*
X102601283Y-66252000D01*
X102499550Y-66279259D01*
X102408338Y-66331920D01*
X102403944Y-66336314D01*
X102403944Y-65552000D01*
X102167373Y-65552000D01*
X101996359Y-65579085D01*
X101831686Y-65632591D01*
X101677419Y-65711195D01*
X101537341Y-65812967D01*
X101414911Y-65935397D01*
X101313139Y-66075475D01*
X101234535Y-66229744D01*
X101181029Y-66394415D01*
X101179828Y-66401999D01*
X78554443Y-66401999D01*
X78554443Y-66004128D01*
X78548035Y-65944517D01*
X78546621Y-65940727D01*
X78497741Y-65809671D01*
X78497737Y-65809664D01*
X78411491Y-65694455D01*
X78411488Y-65694452D01*
X78296279Y-65608206D01*
X78296272Y-65608202D01*
X78161426Y-65557908D01*
X78161427Y-65557908D01*
X78101827Y-65551501D01*
X78101825Y-65551500D01*
X78101817Y-65551500D01*
X78101808Y-65551500D01*
X76006073Y-65551500D01*
X76006067Y-65551501D01*
X75946460Y-65557908D01*
X75811615Y-65608202D01*
X75811608Y-65608206D01*
X75696399Y-65694452D01*
X75696396Y-65694455D01*
X75610150Y-65809664D01*
X75610146Y-65809671D01*
X75559852Y-65944517D01*
X75557793Y-65963673D01*
X75553445Y-66004123D01*
X75553444Y-66004135D01*
X63182310Y-66004135D01*
X63273320Y-65913125D01*
X63283627Y-65902818D01*
X63344950Y-65869333D01*
X63371307Y-65866499D01*
X63381872Y-65866499D01*
X63441483Y-65860091D01*
X63576331Y-65809796D01*
X63691546Y-65723546D01*
X63777796Y-65608331D01*
X63828091Y-65473483D01*
X63834500Y-65413873D01*
X63834499Y-63618128D01*
X63828091Y-63558517D01*
X63777796Y-63423669D01*
X63777795Y-63423668D01*
X63777793Y-63423664D01*
X63691547Y-63308455D01*
X63691544Y-63308452D01*
X63576335Y-63222206D01*
X63576328Y-63222202D01*
X63441482Y-63171908D01*
X63441483Y-63171908D01*
X63381883Y-63165501D01*
X63381881Y-63165500D01*
X63381873Y-63165500D01*
X63381864Y-63165500D01*
X61586129Y-63165500D01*
X61586123Y-63165501D01*
X61526516Y-63171908D01*
X61391671Y-63222202D01*
X61391664Y-63222206D01*
X61276455Y-63308452D01*
X61276452Y-63308455D01*
X61190206Y-63423664D01*
X61190202Y-63423671D01*
X61139908Y-63558517D01*
X61133501Y-63618116D01*
X61133501Y-63618123D01*
X61133500Y-63618135D01*
X53328500Y-63618135D01*
X53328500Y-56027713D01*
X54021500Y-56027713D01*
X54021500Y-56240286D01*
X54054753Y-56450239D01*
X54120444Y-56652414D01*
X54216951Y-56841820D01*
X54341890Y-57013786D01*
X54492213Y-57164109D01*
X54664179Y-57289048D01*
X54664181Y-57289049D01*
X54664184Y-57289051D01*
X54853588Y-57385557D01*
X55055757Y-57451246D01*
X55265713Y-57484500D01*
X55265714Y-57484500D01*
X55478286Y-57484500D01*
X55478287Y-57484500D01*
X55688243Y-57451246D01*
X55890412Y-57385557D01*
X56079816Y-57289051D01*
X56159256Y-57231335D01*
X56251786Y-57164109D01*
X56251788Y-57164106D01*
X56251792Y-57164104D01*
X56402104Y-57013792D01*
X56402106Y-57013788D01*
X56402109Y-57013786D01*
X56527048Y-56841820D01*
X56527047Y-56841820D01*
X56527051Y-56841816D01*
X56531514Y-56833054D01*
X56579488Y-56782259D01*
X56647308Y-56765463D01*
X56713444Y-56787999D01*
X56752486Y-56833056D01*
X56756951Y-56841820D01*
X56881890Y-57013786D01*
X57032213Y-57164109D01*
X57204179Y-57289048D01*
X57204181Y-57289049D01*
X57204184Y-57289051D01*
X57393588Y-57385557D01*
X57595757Y-57451246D01*
X57805713Y-57484500D01*
X57805714Y-57484500D01*
X58018286Y-57484500D01*
X58018287Y-57484500D01*
X58228243Y-57451246D01*
X58430412Y-57385557D01*
X58619816Y-57289051D01*
X58699256Y-57231335D01*
X58791786Y-57164109D01*
X58791788Y-57164106D01*
X58791792Y-57164104D01*
X58942104Y-57013792D01*
X58942106Y-57013788D01*
X58942109Y-57013786D01*
X59067048Y-56841820D01*
X59067047Y-56841820D01*
X59067051Y-56841816D01*
X59071514Y-56833054D01*
X59119488Y-56782259D01*
X59187308Y-56765463D01*
X59253444Y-56787999D01*
X59292486Y-56833056D01*
X59296951Y-56841820D01*
X59421890Y-57013786D01*
X59572213Y-57164109D01*
X59744179Y-57289048D01*
X59744181Y-57289049D01*
X59744184Y-57289051D01*
X59933588Y-57385557D01*
X60135757Y-57451246D01*
X60345713Y-57484500D01*
X60345714Y-57484500D01*
X60558286Y-57484500D01*
X60558287Y-57484500D01*
X60768243Y-57451246D01*
X60970412Y-57385557D01*
X61159816Y-57289051D01*
X61239256Y-57231335D01*
X61331786Y-57164109D01*
X61331788Y-57164106D01*
X61331792Y-57164104D01*
X61482104Y-57013792D01*
X61482106Y-57013788D01*
X61482109Y-57013786D01*
X61607048Y-56841820D01*
X61607047Y-56841820D01*
X61607051Y-56841816D01*
X61611514Y-56833054D01*
X61659488Y-56782259D01*
X61727308Y-56765463D01*
X61793444Y-56787999D01*
X61832486Y-56833056D01*
X61836951Y-56841820D01*
X61961890Y-57013786D01*
X62112213Y-57164109D01*
X62284179Y-57289048D01*
X62284181Y-57289049D01*
X62284184Y-57289051D01*
X62473588Y-57385557D01*
X62675757Y-57451246D01*
X62885713Y-57484500D01*
X62885714Y-57484500D01*
X63098286Y-57484500D01*
X63098287Y-57484500D01*
X63308243Y-57451246D01*
X63510412Y-57385557D01*
X63699816Y-57289051D01*
X63779256Y-57231335D01*
X63871786Y-57164109D01*
X63871788Y-57164106D01*
X63871792Y-57164104D01*
X64022104Y-57013792D01*
X64022106Y-57013788D01*
X64022109Y-57013786D01*
X64107890Y-56895717D01*
X64147051Y-56841816D01*
X64151793Y-56832508D01*
X64199763Y-56781711D01*
X64267583Y-56764911D01*
X64333719Y-56787445D01*
X64372763Y-56832500D01*
X64377373Y-56841547D01*
X64416728Y-56895716D01*
X65049037Y-56263408D01*
X65066075Y-56326993D01*
X65131901Y-56441007D01*
X65224993Y-56534099D01*
X65339007Y-56599925D01*
X65402590Y-56616962D01*
X64770282Y-57249269D01*
X64770282Y-57249270D01*
X64824449Y-57288624D01*
X65013782Y-57385095D01*
X65215870Y-57450757D01*
X65425754Y-57484000D01*
X65638246Y-57484000D01*
X65848127Y-57450757D01*
X65848130Y-57450757D01*
X66050217Y-57385095D01*
X66239554Y-57288622D01*
X66293716Y-57249270D01*
X66293717Y-57249270D01*
X65661408Y-56616962D01*
X65724993Y-56599925D01*
X65839007Y-56534099D01*
X65932099Y-56441007D01*
X65997925Y-56326993D01*
X66014962Y-56263408D01*
X66685181Y-56933628D01*
X66718666Y-56994951D01*
X66721500Y-57021300D01*
X66721500Y-57031865D01*
X66721501Y-57031876D01*
X66727908Y-57091483D01*
X66778202Y-57226328D01*
X66778206Y-57226335D01*
X66864452Y-57341544D01*
X66864455Y-57341547D01*
X66979664Y-57427793D01*
X66979671Y-57427797D01*
X67114517Y-57478091D01*
X67114516Y-57478091D01*
X67121444Y-57478835D01*
X67174127Y-57484500D01*
X68969872Y-57484499D01*
X69029483Y-57478091D01*
X69164331Y-57427796D01*
X69279546Y-57341546D01*
X69365796Y-57226331D01*
X69416091Y-57091483D01*
X69422500Y-57031873D01*
X69422499Y-56027753D01*
X73580000Y-56027753D01*
X73580000Y-56240246D01*
X73613242Y-56450127D01*
X73613242Y-56450130D01*
X73678904Y-56652217D01*
X73775375Y-56841550D01*
X73814728Y-56895716D01*
X74447037Y-56263408D01*
X74464075Y-56326993D01*
X74529901Y-56441007D01*
X74622993Y-56534099D01*
X74737007Y-56599925D01*
X74800590Y-56616962D01*
X74168282Y-57249269D01*
X74168282Y-57249270D01*
X74222449Y-57288624D01*
X74411782Y-57385095D01*
X74613870Y-57450757D01*
X74823754Y-57484000D01*
X75036246Y-57484000D01*
X75246127Y-57450757D01*
X75246130Y-57450757D01*
X75448217Y-57385095D01*
X75637554Y-57288622D01*
X75691716Y-57249270D01*
X75691717Y-57249270D01*
X75059408Y-56616962D01*
X75122993Y-56599925D01*
X75237007Y-56534099D01*
X75330099Y-56441007D01*
X75395925Y-56326993D01*
X75412962Y-56263408D01*
X76045270Y-56895717D01*
X76045270Y-56895716D01*
X76084622Y-56841555D01*
X76089232Y-56832507D01*
X76137205Y-56781709D01*
X76205025Y-56764912D01*
X76271161Y-56787447D01*
X76310204Y-56832504D01*
X76314949Y-56841817D01*
X76439890Y-57013786D01*
X76590213Y-57164109D01*
X76762179Y-57289048D01*
X76762181Y-57289049D01*
X76762184Y-57289051D01*
X76951588Y-57385557D01*
X77153757Y-57451246D01*
X77363713Y-57484500D01*
X77363714Y-57484500D01*
X77576286Y-57484500D01*
X77576287Y-57484500D01*
X77786243Y-57451246D01*
X77988412Y-57385557D01*
X78177816Y-57289051D01*
X78257261Y-57231331D01*
X78349784Y-57164110D01*
X78349784Y-57164109D01*
X78349792Y-57164104D01*
X78463329Y-57050566D01*
X78524648Y-57017084D01*
X78594340Y-57022068D01*
X78650274Y-57063939D01*
X78667189Y-57094917D01*
X78716202Y-57226328D01*
X78716206Y-57226335D01*
X78802452Y-57341544D01*
X78802455Y-57341547D01*
X78917664Y-57427793D01*
X78917671Y-57427797D01*
X79052517Y-57478091D01*
X79052516Y-57478091D01*
X79059444Y-57478835D01*
X79112127Y-57484500D01*
X80907872Y-57484499D01*
X80967483Y-57478091D01*
X81102331Y-57427796D01*
X81217546Y-57341546D01*
X81303796Y-57226331D01*
X81354091Y-57091483D01*
X81360500Y-57031873D01*
X81360499Y-55241135D01*
X83739500Y-55241135D01*
X83739500Y-57036870D01*
X83739501Y-57036876D01*
X83745908Y-57096483D01*
X83796202Y-57231328D01*
X83796206Y-57231335D01*
X83882452Y-57346544D01*
X83882455Y-57346547D01*
X83997664Y-57432793D01*
X83997671Y-57432797D01*
X84132517Y-57483091D01*
X84132516Y-57483091D01*
X84139444Y-57483835D01*
X84192127Y-57489500D01*
X85987872Y-57489499D01*
X86047483Y-57483091D01*
X86182331Y-57432796D01*
X86297546Y-57346546D01*
X86383796Y-57231331D01*
X86434091Y-57096483D01*
X86440500Y-57036873D01*
X86440499Y-55241135D01*
X92629500Y-55241135D01*
X92629500Y-57036870D01*
X92629501Y-57036876D01*
X92635908Y-57096483D01*
X92686202Y-57231328D01*
X92686206Y-57231335D01*
X92772452Y-57346544D01*
X92772455Y-57346547D01*
X92887664Y-57432793D01*
X92887671Y-57432797D01*
X93022517Y-57483091D01*
X93022516Y-57483091D01*
X93029444Y-57483835D01*
X93082127Y-57489500D01*
X94877872Y-57489499D01*
X94937483Y-57483091D01*
X95072331Y-57432796D01*
X95187546Y-57346546D01*
X95273796Y-57231331D01*
X95324091Y-57096483D01*
X95330500Y-57036873D01*
X95330499Y-55241135D01*
X102281500Y-55241135D01*
X102281500Y-57036870D01*
X102281501Y-57036876D01*
X102287908Y-57096483D01*
X102338202Y-57231328D01*
X102338206Y-57231335D01*
X102424452Y-57346544D01*
X102424455Y-57346547D01*
X102539664Y-57432793D01*
X102539671Y-57432797D01*
X102674517Y-57483091D01*
X102674516Y-57483091D01*
X102681444Y-57483835D01*
X102734127Y-57489500D01*
X104529872Y-57489499D01*
X104589483Y-57483091D01*
X104724331Y-57432796D01*
X104839546Y-57346546D01*
X104925796Y-57231331D01*
X104976091Y-57096483D01*
X104982500Y-57036873D01*
X104982499Y-55241128D01*
X104982498Y-55241122D01*
X104981962Y-55236135D01*
X111933500Y-55236135D01*
X111933500Y-57031870D01*
X111933501Y-57031876D01*
X111939908Y-57091483D01*
X111990202Y-57226328D01*
X111990206Y-57226335D01*
X112076452Y-57341544D01*
X112076455Y-57341547D01*
X112191664Y-57427793D01*
X112191671Y-57427797D01*
X112326517Y-57478091D01*
X112326516Y-57478091D01*
X112333444Y-57478835D01*
X112386127Y-57484500D01*
X114181872Y-57484499D01*
X114241483Y-57478091D01*
X114376331Y-57427796D01*
X114491546Y-57341546D01*
X114577796Y-57226331D01*
X114628091Y-57091483D01*
X114634500Y-57031873D01*
X114634499Y-57007979D01*
X114637330Y-56994963D01*
X114647940Y-56975525D01*
X114654179Y-56954275D01*
X114670803Y-56933643D01*
X114670808Y-56933636D01*
X114670811Y-56933634D01*
X114670818Y-56933626D01*
X115341037Y-56263408D01*
X115358075Y-56326993D01*
X115423901Y-56441007D01*
X115516993Y-56534099D01*
X115631007Y-56599925D01*
X115694590Y-56616962D01*
X115062282Y-57249269D01*
X115062282Y-57249270D01*
X115116449Y-57288624D01*
X115305782Y-57385095D01*
X115507870Y-57450757D01*
X115717754Y-57484000D01*
X115930246Y-57484000D01*
X116140127Y-57450757D01*
X116140130Y-57450757D01*
X116342217Y-57385095D01*
X116531554Y-57288622D01*
X116585716Y-57249270D01*
X116585717Y-57249270D01*
X115953408Y-56616962D01*
X116016993Y-56599925D01*
X116131007Y-56534099D01*
X116224099Y-56441007D01*
X116289925Y-56326993D01*
X116306962Y-56263408D01*
X116939270Y-56895717D01*
X116939270Y-56895716D01*
X116978622Y-56841555D01*
X116983232Y-56832507D01*
X117031205Y-56781709D01*
X117099025Y-56764912D01*
X117165161Y-56787447D01*
X117204204Y-56832504D01*
X117208949Y-56841817D01*
X117333890Y-57013786D01*
X117484213Y-57164109D01*
X117656179Y-57289048D01*
X117656181Y-57289049D01*
X117656184Y-57289051D01*
X117845588Y-57385557D01*
X118047757Y-57451246D01*
X118257713Y-57484500D01*
X118257714Y-57484500D01*
X118470286Y-57484500D01*
X118470287Y-57484500D01*
X118680243Y-57451246D01*
X118882412Y-57385557D01*
X119071816Y-57289051D01*
X119151256Y-57231335D01*
X119243786Y-57164109D01*
X119243788Y-57164106D01*
X119243792Y-57164104D01*
X119394104Y-57013792D01*
X119394106Y-57013788D01*
X119394109Y-57013786D01*
X119519048Y-56841820D01*
X119519047Y-56841820D01*
X119519051Y-56841816D01*
X119523514Y-56833054D01*
X119571488Y-56782259D01*
X119639308Y-56765463D01*
X119705444Y-56787999D01*
X119744486Y-56833056D01*
X119748951Y-56841820D01*
X119873890Y-57013786D01*
X120024213Y-57164109D01*
X120196179Y-57289048D01*
X120196181Y-57289049D01*
X120196184Y-57289051D01*
X120385588Y-57385557D01*
X120587757Y-57451246D01*
X120797713Y-57484500D01*
X120797714Y-57484500D01*
X121010286Y-57484500D01*
X121010287Y-57484500D01*
X121220243Y-57451246D01*
X121422412Y-57385557D01*
X121611816Y-57289051D01*
X121691256Y-57231335D01*
X121783786Y-57164109D01*
X121783788Y-57164106D01*
X121783792Y-57164104D01*
X121934104Y-57013792D01*
X121934106Y-57013788D01*
X121934109Y-57013786D01*
X122059048Y-56841820D01*
X122059047Y-56841820D01*
X122059051Y-56841816D01*
X122063514Y-56833054D01*
X122111488Y-56782259D01*
X122179308Y-56765463D01*
X122245444Y-56787999D01*
X122284486Y-56833056D01*
X122288951Y-56841820D01*
X122413890Y-57013786D01*
X122564213Y-57164109D01*
X122736179Y-57289048D01*
X122736181Y-57289049D01*
X122736184Y-57289051D01*
X122925588Y-57385557D01*
X123127757Y-57451246D01*
X123337713Y-57484500D01*
X123337714Y-57484500D01*
X123550286Y-57484500D01*
X123550287Y-57484500D01*
X123760243Y-57451246D01*
X123962412Y-57385557D01*
X124151816Y-57289051D01*
X124231256Y-57231335D01*
X124323786Y-57164109D01*
X124323788Y-57164106D01*
X124323792Y-57164104D01*
X124474104Y-57013792D01*
X124474106Y-57013788D01*
X124474109Y-57013786D01*
X124599048Y-56841820D01*
X124599047Y-56841820D01*
X124599051Y-56841816D01*
X124603514Y-56833054D01*
X124651488Y-56782259D01*
X124719308Y-56765463D01*
X124785444Y-56787999D01*
X124824486Y-56833056D01*
X124828951Y-56841820D01*
X124953890Y-57013786D01*
X125104213Y-57164109D01*
X125276179Y-57289048D01*
X125276181Y-57289049D01*
X125276184Y-57289051D01*
X125465588Y-57385557D01*
X125667757Y-57451246D01*
X125877713Y-57484500D01*
X125877714Y-57484500D01*
X126090286Y-57484500D01*
X126090287Y-57484500D01*
X126300243Y-57451246D01*
X126502412Y-57385557D01*
X126691816Y-57289051D01*
X126771256Y-57231335D01*
X126863786Y-57164109D01*
X126863788Y-57164106D01*
X126863792Y-57164104D01*
X127014104Y-57013792D01*
X127014106Y-57013788D01*
X127014109Y-57013786D01*
X127139048Y-56841820D01*
X127139047Y-56841820D01*
X127139051Y-56841816D01*
X127235557Y-56652412D01*
X127301246Y-56450243D01*
X127334500Y-56240287D01*
X127334500Y-56027713D01*
X127301246Y-55817757D01*
X127235557Y-55615588D01*
X127139051Y-55426184D01*
X127139049Y-55426181D01*
X127139048Y-55426179D01*
X127014109Y-55254213D01*
X126863786Y-55103890D01*
X126691820Y-54978951D01*
X126502414Y-54882444D01*
X126502413Y-54882443D01*
X126502412Y-54882443D01*
X126300243Y-54816754D01*
X126300241Y-54816753D01*
X126300240Y-54816753D01*
X126138957Y-54791208D01*
X126090287Y-54783500D01*
X125877713Y-54783500D01*
X125829042Y-54791208D01*
X125667760Y-54816753D01*
X125465585Y-54882444D01*
X125276179Y-54978951D01*
X125104213Y-55103890D01*
X124953890Y-55254213D01*
X124828949Y-55426182D01*
X124824484Y-55434946D01*
X124776509Y-55485742D01*
X124708688Y-55502536D01*
X124642553Y-55479998D01*
X124603516Y-55434946D01*
X124599050Y-55426182D01*
X124474109Y-55254213D01*
X124323786Y-55103890D01*
X124151820Y-54978951D01*
X123962414Y-54882444D01*
X123962413Y-54882443D01*
X123962412Y-54882443D01*
X123760243Y-54816754D01*
X123760241Y-54816753D01*
X123760240Y-54816753D01*
X123598957Y-54791208D01*
X123550287Y-54783500D01*
X123337713Y-54783500D01*
X123289042Y-54791208D01*
X123127760Y-54816753D01*
X122925585Y-54882444D01*
X122736179Y-54978951D01*
X122564213Y-55103890D01*
X122413890Y-55254213D01*
X122288949Y-55426182D01*
X122284484Y-55434946D01*
X122236509Y-55485742D01*
X122168688Y-55502536D01*
X122102553Y-55479998D01*
X122063516Y-55434946D01*
X122059050Y-55426182D01*
X121934109Y-55254213D01*
X121783786Y-55103890D01*
X121611820Y-54978951D01*
X121422414Y-54882444D01*
X121422413Y-54882443D01*
X121422412Y-54882443D01*
X121220243Y-54816754D01*
X121220241Y-54816753D01*
X121220240Y-54816753D01*
X121058957Y-54791208D01*
X121010287Y-54783500D01*
X120797713Y-54783500D01*
X120749042Y-54791208D01*
X120587760Y-54816753D01*
X120385585Y-54882444D01*
X120196179Y-54978951D01*
X120024213Y-55103890D01*
X119873890Y-55254213D01*
X119748949Y-55426182D01*
X119744484Y-55434946D01*
X119696509Y-55485742D01*
X119628688Y-55502536D01*
X119562553Y-55479998D01*
X119523516Y-55434946D01*
X119519050Y-55426182D01*
X119394109Y-55254213D01*
X119243786Y-55103890D01*
X119071820Y-54978951D01*
X118882414Y-54882444D01*
X118882413Y-54882443D01*
X118882412Y-54882443D01*
X118680243Y-54816754D01*
X118680241Y-54816753D01*
X118680240Y-54816753D01*
X118518957Y-54791208D01*
X118470287Y-54783500D01*
X118257713Y-54783500D01*
X118209042Y-54791208D01*
X118047760Y-54816753D01*
X117845585Y-54882444D01*
X117656179Y-54978951D01*
X117484213Y-55103890D01*
X117333890Y-55254213D01*
X117208949Y-55426182D01*
X117204202Y-55435499D01*
X117156227Y-55486293D01*
X117088405Y-55503087D01*
X117022271Y-55480548D01*
X116983234Y-55435495D01*
X116978626Y-55426452D01*
X116939270Y-55372282D01*
X116939269Y-55372282D01*
X116306962Y-56004590D01*
X116289925Y-55941007D01*
X116224099Y-55826993D01*
X116131007Y-55733901D01*
X116016993Y-55668075D01*
X115953409Y-55651037D01*
X116585716Y-55018728D01*
X116531550Y-54979375D01*
X116342217Y-54882904D01*
X116140129Y-54817242D01*
X115930246Y-54784000D01*
X115717754Y-54784000D01*
X115507872Y-54817242D01*
X115507869Y-54817242D01*
X115305782Y-54882904D01*
X115116439Y-54979380D01*
X115062282Y-55018727D01*
X115062282Y-55018728D01*
X115694591Y-55651037D01*
X115631007Y-55668075D01*
X115516993Y-55733901D01*
X115423901Y-55826993D01*
X115358075Y-55941007D01*
X115341037Y-56004591D01*
X114670818Y-55334372D01*
X114637333Y-55273049D01*
X114637330Y-55273036D01*
X114634499Y-55260015D01*
X114634499Y-55236128D01*
X114628091Y-55176517D01*
X114579659Y-55046664D01*
X114577798Y-55041673D01*
X114577793Y-55041664D01*
X114491547Y-54926455D01*
X114491544Y-54926452D01*
X114376335Y-54840206D01*
X114376328Y-54840202D01*
X114241482Y-54789908D01*
X114241483Y-54789908D01*
X114181883Y-54783501D01*
X114181881Y-54783500D01*
X114181873Y-54783500D01*
X114181865Y-54783500D01*
X114158500Y-54783500D01*
X114091461Y-54763815D01*
X114045706Y-54711011D01*
X114034500Y-54659500D01*
X114034500Y-50850604D01*
X114043939Y-50803151D01*
X114053737Y-50779497D01*
X114084500Y-50624842D01*
X114084500Y-50467158D01*
X114084500Y-50467155D01*
X114084499Y-50467153D01*
X114053738Y-50312510D01*
X114053737Y-50312503D01*
X114053735Y-50312498D01*
X113993397Y-50166827D01*
X113993390Y-50166814D01*
X113905789Y-50035711D01*
X113905786Y-50035707D01*
X113794292Y-49924213D01*
X113794288Y-49924210D01*
X113663185Y-49836609D01*
X113663172Y-49836602D01*
X113517501Y-49776264D01*
X113517489Y-49776261D01*
X113362845Y-49745500D01*
X113362842Y-49745500D01*
X113205158Y-49745500D01*
X113205155Y-49745500D01*
X113050510Y-49776261D01*
X113050498Y-49776264D01*
X112904827Y-49836602D01*
X112904814Y-49836609D01*
X112773711Y-49924210D01*
X112773707Y-49924213D01*
X112662213Y-50035707D01*
X112662210Y-50035711D01*
X112574609Y-50166814D01*
X112574602Y-50166827D01*
X112514264Y-50312498D01*
X112514261Y-50312510D01*
X112483500Y-50467153D01*
X112483500Y-50624846D01*
X112514261Y-50779489D01*
X112514263Y-50779497D01*
X112524061Y-50803151D01*
X112533500Y-50850604D01*
X112533500Y-54659500D01*
X112513815Y-54726539D01*
X112461011Y-54772294D01*
X112409505Y-54783500D01*
X112386132Y-54783500D01*
X112386123Y-54783501D01*
X112326516Y-54789908D01*
X112191671Y-54840202D01*
X112191664Y-54840206D01*
X112076455Y-54926452D01*
X112076452Y-54926455D01*
X111990206Y-55041664D01*
X111990202Y-55041671D01*
X111939908Y-55176517D01*
X111933501Y-55236116D01*
X111933501Y-55236123D01*
X111933500Y-55236135D01*
X104981962Y-55236135D01*
X104976091Y-55181516D01*
X104925797Y-55046671D01*
X104925793Y-55046664D01*
X104839547Y-54931455D01*
X104839544Y-54931452D01*
X104724335Y-54845206D01*
X104724328Y-54845202D01*
X104589482Y-54794908D01*
X104589483Y-54794908D01*
X104529883Y-54788501D01*
X104529881Y-54788500D01*
X104529873Y-54788500D01*
X104529865Y-54788500D01*
X104519309Y-54788500D01*
X104452270Y-54768815D01*
X104431628Y-54752181D01*
X103761408Y-54081962D01*
X103824993Y-54064925D01*
X103939007Y-53999099D01*
X104032099Y-53906007D01*
X104097925Y-53791993D01*
X104114962Y-53728408D01*
X104747270Y-54360717D01*
X104747270Y-54360716D01*
X104786622Y-54306554D01*
X104883095Y-54117217D01*
X104948757Y-53915130D01*
X104948757Y-53915127D01*
X104982000Y-53705246D01*
X104982000Y-53492753D01*
X104948757Y-53282872D01*
X104948757Y-53282869D01*
X104883095Y-53080782D01*
X104786624Y-52891449D01*
X104747270Y-52837282D01*
X104747269Y-52837282D01*
X104114962Y-53469590D01*
X104097925Y-53406007D01*
X104032099Y-53291993D01*
X103939007Y-53198901D01*
X103824993Y-53133075D01*
X103761409Y-53116037D01*
X104393716Y-52483728D01*
X104339550Y-52444375D01*
X104150217Y-52347904D01*
X103948129Y-52282242D01*
X103738246Y-52249000D01*
X103525754Y-52249000D01*
X103315872Y-52282242D01*
X103315869Y-52282242D01*
X103113782Y-52347904D01*
X102924439Y-52444380D01*
X102870282Y-52483727D01*
X102870282Y-52483728D01*
X103502591Y-53116037D01*
X103439007Y-53133075D01*
X103324993Y-53198901D01*
X103231901Y-53291993D01*
X103166075Y-53406007D01*
X103149037Y-53469591D01*
X102516728Y-52837282D01*
X102516727Y-52837282D01*
X102477380Y-52891439D01*
X102380904Y-53080782D01*
X102315242Y-53282869D01*
X102315242Y-53282872D01*
X102282000Y-53492753D01*
X102282000Y-53705246D01*
X102315242Y-53915127D01*
X102315242Y-53915130D01*
X102380904Y-54117217D01*
X102477375Y-54306550D01*
X102516728Y-54360716D01*
X103149037Y-53728408D01*
X103166075Y-53791993D01*
X103231901Y-53906007D01*
X103324993Y-53999099D01*
X103439007Y-54064925D01*
X103502590Y-54081962D01*
X102832370Y-54752181D01*
X102771047Y-54785666D01*
X102744698Y-54788500D01*
X102734134Y-54788500D01*
X102734123Y-54788501D01*
X102674516Y-54794908D01*
X102539671Y-54845202D01*
X102539664Y-54845206D01*
X102424455Y-54931452D01*
X102424452Y-54931455D01*
X102338206Y-55046664D01*
X102338202Y-55046671D01*
X102287908Y-55181517D01*
X102281501Y-55241116D01*
X102281500Y-55241135D01*
X95330499Y-55241135D01*
X95330499Y-55241128D01*
X95324091Y-55181517D01*
X95322226Y-55176518D01*
X95273797Y-55046671D01*
X95273793Y-55046664D01*
X95187547Y-54931455D01*
X95187544Y-54931452D01*
X95072335Y-54845206D01*
X95072328Y-54845202D01*
X94937482Y-54794908D01*
X94937483Y-54794908D01*
X94877883Y-54788501D01*
X94877881Y-54788500D01*
X94877873Y-54788500D01*
X94877865Y-54788500D01*
X94867309Y-54788500D01*
X94800270Y-54768815D01*
X94779628Y-54752181D01*
X94109408Y-54081962D01*
X94172993Y-54064925D01*
X94287007Y-53999099D01*
X94380099Y-53906007D01*
X94445925Y-53791993D01*
X94462962Y-53728408D01*
X95095270Y-54360717D01*
X95095270Y-54360716D01*
X95134622Y-54306554D01*
X95231095Y-54117217D01*
X95296757Y-53915130D01*
X95296757Y-53915127D01*
X95330000Y-53705246D01*
X95330000Y-53492753D01*
X95296757Y-53282872D01*
X95296757Y-53282869D01*
X95231095Y-53080782D01*
X95134624Y-52891449D01*
X95095270Y-52837282D01*
X95095269Y-52837282D01*
X94462962Y-53469590D01*
X94445925Y-53406007D01*
X94380099Y-53291993D01*
X94287007Y-53198901D01*
X94172993Y-53133075D01*
X94109409Y-53116037D01*
X94741716Y-52483728D01*
X94687550Y-52444375D01*
X94498217Y-52347904D01*
X94296129Y-52282242D01*
X94086246Y-52249000D01*
X93873754Y-52249000D01*
X93663872Y-52282242D01*
X93663869Y-52282242D01*
X93461782Y-52347904D01*
X93272439Y-52444380D01*
X93218282Y-52483727D01*
X93218282Y-52483728D01*
X93850591Y-53116037D01*
X93787007Y-53133075D01*
X93672993Y-53198901D01*
X93579901Y-53291993D01*
X93514075Y-53406007D01*
X93497037Y-53469591D01*
X92864728Y-52837282D01*
X92864727Y-52837282D01*
X92825380Y-52891439D01*
X92728904Y-53080782D01*
X92663242Y-53282869D01*
X92663242Y-53282872D01*
X92630000Y-53492753D01*
X92630000Y-53705246D01*
X92663242Y-53915127D01*
X92663242Y-53915130D01*
X92728904Y-54117217D01*
X92825375Y-54306550D01*
X92864728Y-54360716D01*
X93497037Y-53728408D01*
X93514075Y-53791993D01*
X93579901Y-53906007D01*
X93672993Y-53999099D01*
X93787007Y-54064925D01*
X93850590Y-54081962D01*
X93180370Y-54752181D01*
X93119047Y-54785666D01*
X93092698Y-54788500D01*
X93082134Y-54788500D01*
X93082123Y-54788501D01*
X93022516Y-54794908D01*
X92887671Y-54845202D01*
X92887664Y-54845206D01*
X92772455Y-54931452D01*
X92772452Y-54931455D01*
X92686206Y-55046664D01*
X92686202Y-55046671D01*
X92635908Y-55181517D01*
X92629501Y-55241116D01*
X92629500Y-55241135D01*
X86440499Y-55241135D01*
X86440499Y-55241128D01*
X86434091Y-55181517D01*
X86432226Y-55176518D01*
X86383797Y-55046671D01*
X86383793Y-55046664D01*
X86297547Y-54931455D01*
X86297544Y-54931452D01*
X86182335Y-54845206D01*
X86182328Y-54845202D01*
X86047482Y-54794908D01*
X86047483Y-54794908D01*
X85987883Y-54788501D01*
X85987881Y-54788500D01*
X85987873Y-54788500D01*
X85987865Y-54788500D01*
X85977309Y-54788500D01*
X85910270Y-54768815D01*
X85889628Y-54752181D01*
X85219408Y-54081962D01*
X85282993Y-54064925D01*
X85397007Y-53999099D01*
X85490099Y-53906007D01*
X85555925Y-53791993D01*
X85572962Y-53728408D01*
X86205270Y-54360717D01*
X86205270Y-54360716D01*
X86244622Y-54306554D01*
X86341095Y-54117217D01*
X86406757Y-53915130D01*
X86406757Y-53915127D01*
X86440000Y-53705246D01*
X86440000Y-53492753D01*
X86406757Y-53282872D01*
X86406757Y-53282869D01*
X86341095Y-53080782D01*
X86244624Y-52891449D01*
X86205270Y-52837282D01*
X86205269Y-52837282D01*
X85572962Y-53469590D01*
X85555925Y-53406007D01*
X85490099Y-53291993D01*
X85397007Y-53198901D01*
X85282993Y-53133075D01*
X85219409Y-53116037D01*
X85851716Y-52483728D01*
X85797550Y-52444375D01*
X85608217Y-52347904D01*
X85406129Y-52282242D01*
X85196246Y-52249000D01*
X84983754Y-52249000D01*
X84773872Y-52282242D01*
X84773869Y-52282242D01*
X84571782Y-52347904D01*
X84382439Y-52444380D01*
X84328282Y-52483727D01*
X84328282Y-52483728D01*
X84960591Y-53116037D01*
X84897007Y-53133075D01*
X84782993Y-53198901D01*
X84689901Y-53291993D01*
X84624075Y-53406007D01*
X84607037Y-53469591D01*
X83974728Y-52837282D01*
X83974727Y-52837282D01*
X83935380Y-52891439D01*
X83838904Y-53080782D01*
X83773242Y-53282869D01*
X83773242Y-53282872D01*
X83740000Y-53492753D01*
X83740000Y-53705246D01*
X83773242Y-53915127D01*
X83773242Y-53915130D01*
X83838904Y-54117217D01*
X83935375Y-54306550D01*
X83974728Y-54360716D01*
X84607037Y-53728408D01*
X84624075Y-53791993D01*
X84689901Y-53906007D01*
X84782993Y-53999099D01*
X84897007Y-54064925D01*
X84960590Y-54081962D01*
X84290370Y-54752181D01*
X84229047Y-54785666D01*
X84202698Y-54788500D01*
X84192134Y-54788500D01*
X84192123Y-54788501D01*
X84132516Y-54794908D01*
X83997671Y-54845202D01*
X83997664Y-54845206D01*
X83882455Y-54931452D01*
X83882452Y-54931455D01*
X83796206Y-55046664D01*
X83796202Y-55046671D01*
X83745908Y-55181517D01*
X83739501Y-55241116D01*
X83739500Y-55241135D01*
X81360499Y-55241135D01*
X81360499Y-55236128D01*
X81355299Y-55187757D01*
X81354091Y-55176516D01*
X81303797Y-55041671D01*
X81303793Y-55041664D01*
X81217547Y-54926455D01*
X81217544Y-54926452D01*
X81102335Y-54840206D01*
X81102328Y-54840202D01*
X80967482Y-54789908D01*
X80967483Y-54789908D01*
X80907883Y-54783501D01*
X80907881Y-54783500D01*
X80907873Y-54783500D01*
X80907864Y-54783500D01*
X79112129Y-54783500D01*
X79112123Y-54783501D01*
X79052516Y-54789908D01*
X78917671Y-54840202D01*
X78917664Y-54840206D01*
X78802455Y-54926452D01*
X78802452Y-54926455D01*
X78716206Y-55041664D01*
X78716203Y-55041669D01*
X78667189Y-55173083D01*
X78625317Y-55229016D01*
X78559853Y-55253433D01*
X78491580Y-55238581D01*
X78463326Y-55217430D01*
X78349794Y-55103898D01*
X78349788Y-55103893D01*
X78271615Y-55047097D01*
X78228949Y-54991767D01*
X78220500Y-54946779D01*
X78220500Y-50850604D01*
X78229939Y-50803151D01*
X78239737Y-50779497D01*
X78270500Y-50624842D01*
X78270500Y-50467158D01*
X78270500Y-50467155D01*
X78270499Y-50467153D01*
X78239738Y-50312510D01*
X78239737Y-50312503D01*
X78239735Y-50312498D01*
X78179397Y-50166827D01*
X78179390Y-50166814D01*
X78091789Y-50035711D01*
X78091786Y-50035707D01*
X77980292Y-49924213D01*
X77980288Y-49924210D01*
X77849185Y-49836609D01*
X77849172Y-49836602D01*
X77703501Y-49776264D01*
X77703489Y-49776261D01*
X77548845Y-49745500D01*
X77548842Y-49745500D01*
X77391158Y-49745500D01*
X77391155Y-49745500D01*
X77236510Y-49776261D01*
X77236498Y-49776264D01*
X77090827Y-49836602D01*
X77090814Y-49836609D01*
X76959711Y-49924210D01*
X76959707Y-49924213D01*
X76848213Y-50035707D01*
X76848210Y-50035711D01*
X76760609Y-50166814D01*
X76760602Y-50166827D01*
X76700264Y-50312498D01*
X76700261Y-50312510D01*
X76669500Y-50467153D01*
X76669500Y-50624846D01*
X76700261Y-50779489D01*
X76700263Y-50779497D01*
X76710061Y-50803151D01*
X76719500Y-50850604D01*
X76719500Y-54946779D01*
X76699815Y-55013818D01*
X76668385Y-55047097D01*
X76590211Y-55103893D01*
X76590205Y-55103898D01*
X76439890Y-55254213D01*
X76314949Y-55426182D01*
X76310202Y-55435499D01*
X76262227Y-55486293D01*
X76194405Y-55503087D01*
X76128271Y-55480548D01*
X76089234Y-55435495D01*
X76084626Y-55426452D01*
X76045270Y-55372282D01*
X76045269Y-55372282D01*
X75412962Y-56004590D01*
X75395925Y-55941007D01*
X75330099Y-55826993D01*
X75237007Y-55733901D01*
X75122993Y-55668075D01*
X75059409Y-55651037D01*
X75691716Y-55018728D01*
X75637550Y-54979375D01*
X75448217Y-54882904D01*
X75246129Y-54817242D01*
X75036246Y-54784000D01*
X74823754Y-54784000D01*
X74613872Y-54817242D01*
X74613869Y-54817242D01*
X74411782Y-54882904D01*
X74222439Y-54979380D01*
X74168282Y-55018727D01*
X74168282Y-55018728D01*
X74800591Y-55651037D01*
X74737007Y-55668075D01*
X74622993Y-55733901D01*
X74529901Y-55826993D01*
X74464075Y-55941007D01*
X74447037Y-56004591D01*
X73814728Y-55372282D01*
X73814727Y-55372282D01*
X73775380Y-55426439D01*
X73678904Y-55615782D01*
X73613242Y-55817869D01*
X73613242Y-55817872D01*
X73580000Y-56027753D01*
X69422499Y-56027753D01*
X69422499Y-55236128D01*
X69416091Y-55176517D01*
X69367659Y-55046664D01*
X69365798Y-55041673D01*
X69365793Y-55041664D01*
X69279547Y-54926455D01*
X69279544Y-54926452D01*
X69164335Y-54840206D01*
X69164328Y-54840202D01*
X69029482Y-54789908D01*
X69029483Y-54789908D01*
X68969883Y-54783501D01*
X68969881Y-54783500D01*
X68969873Y-54783500D01*
X68969864Y-54783500D01*
X67174129Y-54783500D01*
X67174123Y-54783501D01*
X67114516Y-54789908D01*
X66979671Y-54840202D01*
X66979664Y-54840206D01*
X66864455Y-54926452D01*
X66864452Y-54926455D01*
X66778206Y-55041664D01*
X66778202Y-55041671D01*
X66727908Y-55176517D01*
X66721501Y-55236116D01*
X66721501Y-55236123D01*
X66721500Y-55236135D01*
X66721500Y-55246690D01*
X66701815Y-55313729D01*
X66685181Y-55334371D01*
X66014962Y-56004590D01*
X65997925Y-55941007D01*
X65932099Y-55826993D01*
X65839007Y-55733901D01*
X65724993Y-55668075D01*
X65661409Y-55651037D01*
X66293716Y-55018728D01*
X66239550Y-54979375D01*
X66050217Y-54882904D01*
X65848129Y-54817242D01*
X65638246Y-54784000D01*
X65425754Y-54784000D01*
X65215872Y-54817242D01*
X65215869Y-54817242D01*
X65013782Y-54882904D01*
X64824439Y-54979380D01*
X64770282Y-55018727D01*
X64770282Y-55018728D01*
X65402591Y-55651037D01*
X65339007Y-55668075D01*
X65224993Y-55733901D01*
X65131901Y-55826993D01*
X65066075Y-55941007D01*
X65049037Y-56004591D01*
X64416728Y-55372282D01*
X64416727Y-55372282D01*
X64377380Y-55426440D01*
X64377376Y-55426446D01*
X64372760Y-55435505D01*
X64324781Y-55486297D01*
X64256959Y-55503087D01*
X64190826Y-55480543D01*
X64151794Y-55435493D01*
X64147051Y-55426184D01*
X64147049Y-55426181D01*
X64147048Y-55426179D01*
X64022109Y-55254213D01*
X63871786Y-55103890D01*
X63699820Y-54978951D01*
X63510414Y-54882444D01*
X63510413Y-54882443D01*
X63510412Y-54882443D01*
X63308243Y-54816754D01*
X63308241Y-54816753D01*
X63308240Y-54816753D01*
X63146957Y-54791208D01*
X63098287Y-54783500D01*
X62885713Y-54783500D01*
X62837042Y-54791208D01*
X62675760Y-54816753D01*
X62473585Y-54882444D01*
X62284179Y-54978951D01*
X62112213Y-55103890D01*
X61961890Y-55254213D01*
X61836949Y-55426182D01*
X61832484Y-55434946D01*
X61784509Y-55485742D01*
X61716688Y-55502536D01*
X61650553Y-55479998D01*
X61611516Y-55434946D01*
X61607050Y-55426182D01*
X61482109Y-55254213D01*
X61331786Y-55103890D01*
X61159820Y-54978951D01*
X60970414Y-54882444D01*
X60970413Y-54882443D01*
X60970412Y-54882443D01*
X60768243Y-54816754D01*
X60768241Y-54816753D01*
X60768240Y-54816753D01*
X60606957Y-54791208D01*
X60558287Y-54783500D01*
X60345713Y-54783500D01*
X60297042Y-54791208D01*
X60135760Y-54816753D01*
X59933585Y-54882444D01*
X59744179Y-54978951D01*
X59572213Y-55103890D01*
X59421890Y-55254213D01*
X59296949Y-55426182D01*
X59292484Y-55434946D01*
X59244509Y-55485742D01*
X59176688Y-55502536D01*
X59110553Y-55479998D01*
X59071516Y-55434946D01*
X59067050Y-55426182D01*
X58942109Y-55254213D01*
X58791786Y-55103890D01*
X58619820Y-54978951D01*
X58430414Y-54882444D01*
X58430413Y-54882443D01*
X58430412Y-54882443D01*
X58228243Y-54816754D01*
X58228241Y-54816753D01*
X58228240Y-54816753D01*
X58066957Y-54791208D01*
X58018287Y-54783500D01*
X57805713Y-54783500D01*
X57757042Y-54791208D01*
X57595760Y-54816753D01*
X57393585Y-54882444D01*
X57204179Y-54978951D01*
X57032213Y-55103890D01*
X56881890Y-55254213D01*
X56756949Y-55426182D01*
X56752484Y-55434946D01*
X56704509Y-55485742D01*
X56636688Y-55502536D01*
X56570553Y-55479998D01*
X56531516Y-55434946D01*
X56527050Y-55426182D01*
X56402109Y-55254213D01*
X56251786Y-55103890D01*
X56079820Y-54978951D01*
X55890414Y-54882444D01*
X55890413Y-54882443D01*
X55890412Y-54882443D01*
X55688243Y-54816754D01*
X55688241Y-54816753D01*
X55688240Y-54816753D01*
X55526957Y-54791208D01*
X55478287Y-54783500D01*
X55265713Y-54783500D01*
X55217042Y-54791208D01*
X55055760Y-54816753D01*
X54853585Y-54882444D01*
X54664179Y-54978951D01*
X54492213Y-55103890D01*
X54341890Y-55254213D01*
X54216951Y-55426179D01*
X54120444Y-55615585D01*
X54054753Y-55817760D01*
X54021500Y-56027713D01*
X53328500Y-56027713D01*
X53328500Y-50850604D01*
X53337939Y-50803151D01*
X53347737Y-50779497D01*
X53378500Y-50624842D01*
X53378500Y-50467158D01*
X53378500Y-50467155D01*
X53378499Y-50467153D01*
X53347738Y-50312510D01*
X53347737Y-50312503D01*
X53347735Y-50312498D01*
X53287397Y-50166827D01*
X53287390Y-50166814D01*
X53199789Y-50035711D01*
X53199786Y-50035707D01*
X53088292Y-49924213D01*
X53088288Y-49924210D01*
X52957185Y-49836609D01*
X52957172Y-49836602D01*
X52811501Y-49776264D01*
X52811489Y-49776261D01*
X52656845Y-49745500D01*
X52656842Y-49745500D01*
X52499158Y-49745500D01*
X52499155Y-49745500D01*
X52344510Y-49776261D01*
X52344498Y-49776264D01*
X52198827Y-49836602D01*
X52198814Y-49836609D01*
X52067711Y-49924210D01*
X52067707Y-49924213D01*
X51956213Y-50035707D01*
X51956210Y-50035711D01*
X51868609Y-50166814D01*
X51868602Y-50166827D01*
X51808264Y-50312498D01*
X51808261Y-50312510D01*
X51777500Y-50467153D01*
X35354500Y-50467153D01*
X35354500Y-47422791D01*
X41003500Y-47422791D01*
X41003500Y-47665368D01*
X41035161Y-47905865D01*
X41097947Y-48140184D01*
X41190773Y-48364285D01*
X41190776Y-48364292D01*
X41312064Y-48574369D01*
X41312066Y-48574372D01*
X41312067Y-48574373D01*
X41459733Y-48766816D01*
X41459739Y-48766823D01*
X41631256Y-48938340D01*
X41631262Y-48938345D01*
X41823711Y-49086016D01*
X42033788Y-49207304D01*
X42257900Y-49300134D01*
X42492211Y-49362918D01*
X42672586Y-49386664D01*
X42732711Y-49394580D01*
X42732712Y-49394580D01*
X42975289Y-49394580D01*
X43023388Y-49388247D01*
X43215789Y-49362918D01*
X43450100Y-49300134D01*
X43674212Y-49207304D01*
X43884289Y-49086016D01*
X44076738Y-48938345D01*
X44248265Y-48766818D01*
X44395936Y-48574369D01*
X44517224Y-48364292D01*
X44610054Y-48140180D01*
X44672838Y-47905869D01*
X44704500Y-47665368D01*
X44704500Y-47422792D01*
X44704500Y-47422791D01*
X135003500Y-47422791D01*
X135003500Y-47665368D01*
X135035161Y-47905865D01*
X135097947Y-48140184D01*
X135190773Y-48364285D01*
X135190776Y-48364292D01*
X135312064Y-48574369D01*
X135312066Y-48574372D01*
X135312067Y-48574373D01*
X135459733Y-48766816D01*
X135459739Y-48766823D01*
X135631256Y-48938340D01*
X135631262Y-48938345D01*
X135823711Y-49086016D01*
X136033788Y-49207304D01*
X136257900Y-49300134D01*
X136492211Y-49362918D01*
X136672586Y-49386664D01*
X136732711Y-49394580D01*
X136732712Y-49394580D01*
X136975289Y-49394580D01*
X137023388Y-49388247D01*
X137215789Y-49362918D01*
X137450100Y-49300134D01*
X137674212Y-49207304D01*
X137884289Y-49086016D01*
X138076738Y-48938345D01*
X138248265Y-48766818D01*
X138395936Y-48574369D01*
X138517224Y-48364292D01*
X138610054Y-48140180D01*
X138672838Y-47905869D01*
X138704500Y-47665368D01*
X138704500Y-47422792D01*
X138672838Y-47182291D01*
X138610054Y-46947980D01*
X138517224Y-46723868D01*
X138395936Y-46513791D01*
X138248265Y-46321342D01*
X138248260Y-46321336D01*
X138076743Y-46149819D01*
X138076736Y-46149813D01*
X137884293Y-46002147D01*
X137884292Y-46002146D01*
X137884289Y-46002144D01*
X137674212Y-45880856D01*
X137674205Y-45880853D01*
X137450104Y-45788027D01*
X137215785Y-45725241D01*
X136975289Y-45693580D01*
X136975288Y-45693580D01*
X136732712Y-45693580D01*
X136732711Y-45693580D01*
X136492214Y-45725241D01*
X136257895Y-45788027D01*
X136033794Y-45880853D01*
X136033785Y-45880857D01*
X135823706Y-46002147D01*
X135631263Y-46149813D01*
X135631256Y-46149819D01*
X135459739Y-46321336D01*
X135459733Y-46321343D01*
X135312067Y-46513786D01*
X135190777Y-46723865D01*
X135190773Y-46723874D01*
X135097947Y-46947975D01*
X135035161Y-47182294D01*
X135003500Y-47422791D01*
X44704500Y-47422791D01*
X44672838Y-47182291D01*
X44610054Y-46947980D01*
X44517224Y-46723868D01*
X44395936Y-46513791D01*
X44248265Y-46321342D01*
X44248260Y-46321336D01*
X44076743Y-46149819D01*
X44076736Y-46149813D01*
X43884293Y-46002147D01*
X43884292Y-46002146D01*
X43884289Y-46002144D01*
X43674212Y-45880856D01*
X43674205Y-45880853D01*
X43450104Y-45788027D01*
X43215785Y-45725241D01*
X42975289Y-45693580D01*
X42975288Y-45693580D01*
X42732712Y-45693580D01*
X42732711Y-45693580D01*
X42492214Y-45725241D01*
X42257895Y-45788027D01*
X42033794Y-45880853D01*
X42033785Y-45880857D01*
X41823706Y-46002147D01*
X41631263Y-46149813D01*
X41631256Y-46149819D01*
X41459739Y-46321336D01*
X41459733Y-46321343D01*
X41312067Y-46513786D01*
X41190777Y-46723865D01*
X41190773Y-46723874D01*
X41097947Y-46947975D01*
X41035161Y-47182294D01*
X41003500Y-47422791D01*
X35354500Y-47422791D01*
X35354500Y-40168580D01*
X35374185Y-40101541D01*
X35426989Y-40055786D01*
X35478500Y-40044580D01*
X144229500Y-40044580D01*
X144296539Y-40064265D01*
G37*
%TD.AperFunction*%
%TD*%
M02*
