M48
; DRILL file {KiCad 9.0.6} date 2026-08-01T14:39:10+0800
; FORMAT={-:-/ absolute / metric / decimal}
; #@! TF.CreationDate,2026-08-01T14:39:10+08:00
; #@! TF.GenerationSoftware,Kicad,Pcbnew,9.0.6
; #@! TF.FileFunction,Plated,1,2,PTH
FMAT,2
METRIC
; #@! TA.AperFunction,Plated,PTH,ViaDrill
T1C0.300
; #@! TA.AperFunction,Plated,PTH,ComponentDrill
T2C0.800
; #@! TA.AperFunction,Plated,PTH,ComponentDrill
T3C1.000
; #@! TA.AperFunction,Plated,PTH,ComponentDrill
T4C1.300
%
G90
G05
T1
X115.57Y-84.836
X117.348Y-91.186
X129.032Y-55.88
X131.572Y-53.34
X136.398Y-57.15
X136.398Y-60.452
X139.7Y-57.404
X139.7Y-61.214
X145.034Y-57.404
X145.034Y-61.214
X150.622Y-38.862
X155.702Y-40.132
X161.29Y-100.584
X162.052Y-47.244
X163.322Y-57.15
X169.256Y-47.244
X170.688Y-39.37
X172.974Y-58.42
X178.562Y-118.11
X180.283Y-119.831
X181.667Y-125.165
X182.88Y-93.98
X182.88Y-114.554
X192.024Y-60.706
X196.596Y-96.774
T2
X155.0Y-64.4
X155.0Y-90.0
X157.54Y-64.4
X157.54Y-90.0
X160.08Y-64.4
X160.08Y-90.0
X162.62Y-64.4
X162.62Y-90.0
X165.16Y-64.4
X165.16Y-90.0
X167.7Y-64.4
X167.7Y-90.0
X170.24Y-64.4
X170.24Y-90.0
X172.78Y-64.4
X172.78Y-90.0
X175.32Y-64.4
X175.32Y-90.0
X177.86Y-64.4
X177.86Y-90.0
X180.4Y-64.4
X180.4Y-90.0
X182.94Y-64.4
X182.94Y-90.0
X185.48Y-64.4
X185.48Y-90.0
X188.02Y-64.4
X188.02Y-90.0
X190.56Y-64.4
X190.56Y-90.0
X193.1Y-64.4
X193.1Y-90.0
X195.64Y-64.4
X195.64Y-90.0
X198.18Y-64.4
X198.18Y-90.0
X200.72Y-64.4
X200.72Y-90.0
X203.257Y-90.004
X203.26Y-64.4
X205.797Y-90.004
X205.8Y-64.4
X208.337Y-90.004
X208.34Y-64.4
T3
X110.744Y-65.278
X110.744Y-67.818
X110.744Y-70.358
X110.744Y-72.898
X110.744Y-75.438
X110.744Y-77.978
X110.744Y-80.518
X110.744Y-83.058
X110.744Y-85.598
X110.744Y-88.138
X120.142Y-65.278
X120.142Y-67.818
X120.142Y-70.358
X120.142Y-72.898
X120.142Y-80.518
X120.142Y-83.058
X120.142Y-85.598
X120.142Y-88.138
X124.46Y-39.723
X124.46Y-42.263
X124.46Y-44.803
X124.46Y-47.343
X124.46Y-49.883
X126.238Y-118.11
X126.238Y-120.65
X126.238Y-123.19
X126.238Y-125.73
X126.238Y-128.27
X128.524Y-65.278
X128.524Y-67.818
X128.524Y-70.358
X128.524Y-72.898
X128.524Y-80.518
X128.524Y-83.058
X128.524Y-85.598
X128.524Y-88.138
X135.636Y-43.688
X135.636Y-46.228
X135.636Y-48.768
X136.906Y-65.278
X136.906Y-67.818
X136.906Y-70.358
X136.906Y-72.898
X136.906Y-75.438
X136.906Y-77.978
X136.906Y-80.518
X136.906Y-83.058
X136.906Y-85.598
X136.906Y-88.138
X136.906Y-122.313
X136.906Y-124.853
X136.906Y-127.393
X142.494Y-41.91
X142.494Y-44.45
X142.494Y-46.99
X142.494Y-49.53
X143.764Y-120.281
X143.764Y-122.821
X143.764Y-125.361
X143.764Y-127.901
X150.622Y-44.063
X151.892Y-123.075
X153.162Y-44.063
X154.432Y-123.075
X155.702Y-44.063
X156.972Y-123.075
X158.242Y-44.063
X159.512Y-123.075
X160.782Y-44.063
X162.052Y-123.075
X163.322Y-44.063
X164.592Y-123.075
X168.656Y-44.0
X169.418Y-123.075
X171.196Y-44.0
X171.958Y-123.075
X173.736Y-44.0
X174.498Y-123.075
X176.276Y-44.0
X177.038Y-123.075
X178.816Y-44.0
X179.578Y-123.075
X181.356Y-44.0
X182.118Y-123.075
X192.786Y-43.897
X192.786Y-46.437
X192.786Y-48.977
X193.04Y-122.313
X193.04Y-124.853
X193.04Y-127.393
X200.152Y-42.627
X200.152Y-45.167
X200.152Y-47.707
X200.152Y-50.247
X200.406Y-120.281
X200.406Y-122.821
X200.406Y-125.361
X200.406Y-127.901
X208.586Y-118.11
X208.586Y-120.65
X208.586Y-123.19
X208.586Y-125.73
X208.586Y-128.27
X209.042Y-40.032
X209.042Y-42.572
X209.042Y-45.112
X209.042Y-47.652
X209.042Y-50.192
T4
X120.142Y-99.314
X120.142Y-104.394
M30
