%TF.GenerationSoftware,KiCad,Pcbnew,9.0.6*%
%TF.CreationDate,2026-08-01T14:39:07+08:00*%
%TF.ProjectId,Wheel Drive PCB,57686565-6c20-4447-9269-766520504342,rev?*%
%TF.SameCoordinates,Original*%
%TF.FileFunction,Soldermask,Top*%
%TF.FilePolarity,Negative*%
%FSLAX46Y46*%
G04 Gerber Fmt 4.6, Leading zero omitted, Abs format (unit mm)*
G04 Created by KiCad (PCBNEW 9.0.6) date 2026-08-01 14:39:07*
%MOMM*%
%LPD*%
G01*
G04 APERTURE LIST*
G04 Aperture macros list*
%AMRoundRect*
0 Rectangle with rounded corners*
0 $1 Rounding radius*
0 $2 $3 $4 $5 $6 $7 $8 $9 X,Y pos of 4 corners*
0 Add a 4 corners polygon primitive as box body*
4,1,4,$2,$3,$4,$5,$6,$7,$8,$9,$2,$3,0*
0 Add four circle primitives for the rounded corners*
1,1,$1+$1,$2,$3*
1,1,$1+$1,$4,$5*
1,1,$1+$1,$6,$7*
1,1,$1+$1,$8,$9*
0 Add four rect primitives between the rounded corners*
20,1,$1+$1,$2,$3,$4,$5,0*
20,1,$1+$1,$4,$5,$6,$7,0*
20,1,$1+$1,$6,$7,$8,$9,0*
20,1,$1+$1,$8,$9,$2,$3,0*%
G04 Aperture macros list end*
%ADD10R,1.700000X1.700000*%
%ADD11C,1.700000*%
%ADD12C,3.200000*%
%ADD13R,1.200000X2.000000*%
%ADD14O,1.200000X2.000000*%
%ADD15RoundRect,0.250000X-1.050000X1.050000X-1.050000X-1.050000X1.050000X-1.050000X1.050000X1.050000X0*%
%ADD16C,2.600000*%
G04 APERTURE END LIST*
D10*
%TO.C,J19*%
X110744000Y-88138000D03*
D11*
X110744000Y-85598000D03*
X110744000Y-83058000D03*
X110744000Y-80518000D03*
X110744000Y-77978000D03*
X110744000Y-75438000D03*
X110744000Y-72898000D03*
X110744000Y-70358000D03*
X110744000Y-67818000D03*
X110744000Y-65278000D03*
%TD*%
D10*
%TO.C,J15*%
X143764000Y-120281375D03*
D11*
X143764000Y-122821375D03*
X143764000Y-125361375D03*
X143764000Y-127901375D03*
%TD*%
D10*
%TO.C,J16*%
X193040000Y-122313375D03*
D11*
X193040000Y-124853375D03*
X193040000Y-127393375D03*
%TD*%
D10*
%TO.C,J11*%
X200152000Y-42626625D03*
D11*
X200152000Y-45166625D03*
X200152000Y-47706625D03*
X200152000Y-50246625D03*
%TD*%
D12*
%TO.C,H3*%
X110386000Y-129552000D03*
%TD*%
D10*
%TO.C,J1*%
X142494000Y-41910000D03*
D11*
X142494000Y-44450000D03*
X142494000Y-46990000D03*
X142494000Y-49530000D03*
%TD*%
D10*
%TO.C,J18*%
X200406000Y-120281375D03*
D11*
X200406000Y-122821375D03*
X200406000Y-125361375D03*
X200406000Y-127901375D03*
%TD*%
D10*
%TO.C,J10*%
X192786000Y-43896625D03*
D11*
X192786000Y-46436625D03*
X192786000Y-48976625D03*
%TD*%
D12*
%TO.C,H2*%
X224386000Y-40552000D03*
%TD*%
D10*
%TO.C,J2*%
X135636000Y-43688000D03*
D11*
X135636000Y-46228000D03*
X135636000Y-48768000D03*
%TD*%
D10*
%TO.C,J5*%
X209042000Y-40032000D03*
D11*
X209042000Y-42572000D03*
X209042000Y-45112000D03*
X209042000Y-47652000D03*
X209042000Y-50192000D03*
%TD*%
D13*
%TO.C,U6*%
X155000000Y-90000000D03*
D14*
X157540000Y-90000000D03*
X160080000Y-90000000D03*
X162620000Y-90000000D03*
X165160000Y-90000000D03*
X167700000Y-90000000D03*
X170240000Y-90000000D03*
X172780000Y-90000000D03*
X175320000Y-90000000D03*
X177860000Y-90000000D03*
X180400000Y-90000000D03*
X182940000Y-90000000D03*
X185480000Y-90000000D03*
X188020000Y-90000000D03*
X190560000Y-90000000D03*
X193100000Y-90000000D03*
X195640000Y-90000000D03*
X198180000Y-90000000D03*
X200720000Y-90000000D03*
X203257280Y-90003680D03*
X205797280Y-90003680D03*
X208337280Y-90003680D03*
X208340000Y-64400000D03*
X205800000Y-64400000D03*
X203260000Y-64400000D03*
X200720000Y-64400000D03*
X198180000Y-64400000D03*
X195640000Y-64400000D03*
X193100000Y-64400000D03*
X190560000Y-64400000D03*
X188020000Y-64400000D03*
X185480000Y-64400000D03*
X182940000Y-64400000D03*
X180400000Y-64400000D03*
X177860000Y-64400000D03*
X175320000Y-64400000D03*
X172780000Y-64400000D03*
X170240000Y-64400000D03*
X167700000Y-64400000D03*
X165160000Y-64400000D03*
X162620000Y-64400000D03*
X160080000Y-64400000D03*
X157540000Y-64400000D03*
X155000000Y-64400000D03*
%TD*%
D10*
%TO.C,J13*%
X136906000Y-122313375D03*
D11*
X136906000Y-124853375D03*
X136906000Y-127393375D03*
%TD*%
D10*
%TO.C,TOF8*%
X182118000Y-123075375D03*
D11*
X179578000Y-123075375D03*
X177038000Y-123075375D03*
X174498000Y-123075375D03*
X171958000Y-123075375D03*
X169418000Y-123075375D03*
%TD*%
D15*
%TO.C,J3*%
X120142000Y-99314000D03*
D16*
X120142000Y-104394000D03*
%TD*%
D10*
%TO.C,J8*%
X136906000Y-88138000D03*
D11*
X136906000Y-85598000D03*
X136906000Y-83058000D03*
X136906000Y-80518000D03*
X136906000Y-77978000D03*
X136906000Y-75438000D03*
X136906000Y-72898000D03*
X136906000Y-70358000D03*
X136906000Y-67818000D03*
X136906000Y-65278000D03*
%TD*%
D12*
%TO.C,H4*%
X224386000Y-129552000D03*
%TD*%
D10*
%TO.C,TOF5*%
X150622000Y-44063453D03*
D11*
X153162000Y-44063453D03*
X155702000Y-44063453D03*
X158242000Y-44063453D03*
X160782000Y-44063453D03*
X163322000Y-44063453D03*
%TD*%
D10*
%TO.C,TOF6*%
X181356000Y-44000000D03*
D11*
X178816000Y-44000000D03*
X176276000Y-44000000D03*
X173736000Y-44000000D03*
X171196000Y-44000000D03*
X168656000Y-44000000D03*
%TD*%
D12*
%TO.C,H1*%
X110386000Y-40552000D03*
%TD*%
D10*
%TO.C,J14*%
X120142000Y-65278000D03*
D11*
X120142000Y-67818000D03*
X120142000Y-70358000D03*
X120142000Y-72898000D03*
%TD*%
D10*
%TO.C,TOF7*%
X164592000Y-123075375D03*
D11*
X162052000Y-123075375D03*
X159512000Y-123075375D03*
X156972000Y-123075375D03*
X154432000Y-123075375D03*
X151892000Y-123075375D03*
%TD*%
D10*
%TO.C,J12*%
X120142000Y-88138000D03*
D11*
X120142000Y-85598000D03*
X120142000Y-83058000D03*
X120142000Y-80518000D03*
%TD*%
D10*
%TO.C,J17*%
X128524000Y-65278000D03*
D11*
X128524000Y-67818000D03*
X128524000Y-70358000D03*
X128524000Y-72898000D03*
%TD*%
D10*
%TO.C,J4*%
X124460000Y-39723375D03*
D11*
X124460000Y-42263375D03*
X124460000Y-44803375D03*
X124460000Y-47343375D03*
X124460000Y-49883375D03*
%TD*%
D10*
%TO.C,J9*%
X128524000Y-88138000D03*
D11*
X128524000Y-85598000D03*
X128524000Y-83058000D03*
X128524000Y-80518000D03*
%TD*%
D10*
%TO.C,J6*%
X126238000Y-118110000D03*
D11*
X126238000Y-120650000D03*
X126238000Y-123190000D03*
X126238000Y-125730000D03*
X126238000Y-128270000D03*
%TD*%
D10*
%TO.C,J7*%
X208585548Y-118110000D03*
D11*
X208585548Y-120650000D03*
X208585548Y-123190000D03*
X208585548Y-125730000D03*
X208585548Y-128270000D03*
%TD*%
M02*
