M48
; DRILL file {KiCad 9.0.6} date 2026-08-10T23:59:44+0800
; FORMAT={-:-/ absolute / metric / decimal}
; #@! TF.CreationDate,2026-08-10T23:59:44+08:00
; #@! TF.GenerationSoftware,Kicad,Pcbnew,9.0.6
; #@! TF.FileFunction,Plated,1,2,PTH
FMAT,2
METRIC
; #@! TA.AperFunction,Plated,PTH,ComponentDrill
T1C1.000
%
G90
G05
T1
X76.708Y-78.994
X76.708Y-81.534
X76.708Y-84.074
X76.708Y-86.614
X76.708Y-91.44
X76.708Y-93.98
X76.708Y-96.52
X76.708Y-99.06
X76.708Y-101.6
X76.708Y-107.442
X76.708Y-109.982
X76.708Y-112.522
X76.708Y-115.062
X76.708Y-117.602
X89.84Y-86.044
X89.84Y-88.584
X89.84Y-91.124
X89.84Y-93.664
X89.84Y-96.204
X89.84Y-98.744
X89.84Y-101.284
X89.84Y-103.824
X89.84Y-106.364
X89.84Y-108.904
X89.84Y-111.444
X89.84Y-113.984
X110.16Y-86.044
X110.16Y-88.584
X110.16Y-91.124
X110.16Y-93.664
X110.16Y-96.204
X110.16Y-98.744
X110.16Y-101.284
X110.16Y-103.824
X110.16Y-106.364
X110.16Y-108.904
X110.16Y-111.444
X110.16Y-113.984
X119.888Y-77.47
X119.888Y-80.01
X119.888Y-82.55
X119.888Y-85.09
X119.888Y-87.63
X119.888Y-90.17
X119.888Y-92.71
X119.888Y-95.25
X119.888Y-101.6
X119.888Y-104.14
X119.888Y-106.68
X119.888Y-109.22
X119.888Y-111.76
X119.888Y-117.856
X119.888Y-120.396
X119.888Y-122.936
X119.888Y-125.476
X119.888Y-128.016
M30
