%TF.GenerationSoftware,KiCad,Pcbnew,9.0.6*%
%TF.CreationDate,2026-08-10T23:59:40+08:00*%
%TF.ProjectId,PCA9548A Breakout,50434139-3534-4384-9120-427265616b6f,rev?*%
%TF.SameCoordinates,Original*%
%TF.FileFunction,Copper,L2,Bot*%
%TF.FilePolarity,Positive*%
%FSLAX46Y46*%
G04 Gerber Fmt 4.6, Leading zero omitted, Abs format (unit mm)*
G04 Created by KiCad (PCBNEW 9.0.6) date 2026-08-10 23:59:40*
%MOMM*%
%LPD*%
G01*
G04 APERTURE LIST*
%TA.AperFunction,ComponentPad*%
%ADD10R,1.750000X1.750000*%
%TD*%
%TA.AperFunction,ComponentPad*%
%ADD11C,1.750000*%
%TD*%
%TA.AperFunction,ComponentPad*%
%ADD12R,1.700000X1.700000*%
%TD*%
%TA.AperFunction,ComponentPad*%
%ADD13C,1.700000*%
%TD*%
%TA.AperFunction,Conductor*%
%ADD14C,0.500000*%
%TD*%
%TA.AperFunction,Conductor*%
%ADD15C,0.250000*%
%TD*%
G04 APERTURE END LIST*
D10*
%TO.P,U2,1,VIN*%
%TO.N,/VIN*%
X89840000Y-86044000D03*
D11*
%TO.P,U2,2,GND*%
%TO.N,/GND*%
X89840000Y-88584000D03*
%TO.P,U2,3,SDA*%
%TO.N,/SDA*%
X89840000Y-91124000D03*
%TO.P,U2,4,SCL*%
%TO.N,/SCL*%
X89840000Y-93664000D03*
%TO.P,U2,5,RST*%
%TO.N,unconnected-(U2-RST-Pad5)*%
X89840000Y-96204000D03*
%TO.P,U2,6,A0*%
%TO.N,unconnected-(U2-A0-Pad6)*%
X89840000Y-98744000D03*
%TO.P,U2,7,A1*%
%TO.N,unconnected-(U2-A1-Pad7)*%
X89840000Y-101284000D03*
%TO.P,U2,8,A2*%
%TO.N,unconnected-(U2-A2-Pad8)*%
X89840000Y-103824000D03*
%TO.P,U2,9,SD0*%
%TO.N,/SD0*%
X89840000Y-106364000D03*
%TO.P,U2,10,SC0*%
%TO.N,/SC0*%
X89840000Y-108904000D03*
%TO.P,U2,11,SD1*%
%TO.N,/SD1*%
X89840000Y-111444000D03*
%TO.P,U2,12,SC1*%
%TO.N,/SC1*%
X89840000Y-113984000D03*
%TO.P,U2,13,SD2*%
%TO.N,/SD2*%
X110160000Y-113984000D03*
%TO.P,U2,14,SC2*%
%TO.N,/SC2*%
X110160000Y-111444000D03*
%TO.P,U2,15,SD3*%
%TO.N,/SD3*%
X110160000Y-108904000D03*
%TO.P,U2,16,SC3*%
%TO.N,/SC3*%
X110160000Y-106364000D03*
%TO.P,U2,17,SD4*%
%TO.N,/SD4*%
X110160000Y-103824000D03*
%TO.P,U2,18,SC4*%
%TO.N,/SC4*%
X110160000Y-101284000D03*
%TO.P,U2,19,SD5*%
%TO.N,/SD5*%
X110160000Y-98744000D03*
%TO.P,U2,20,SC5*%
%TO.N,/SC5*%
X110160000Y-96204000D03*
%TO.P,U2,21,SD6*%
%TO.N,/SD6*%
X110160000Y-93664000D03*
%TO.P,U2,22,SC6*%
%TO.N,/SC6*%
X110160000Y-91124000D03*
%TO.P,U2,23,SD7*%
%TO.N,/SD7*%
X110160000Y-88584000D03*
%TO.P,U2,24,SC7*%
%TO.N,/SC7*%
X110160000Y-86044000D03*
%TD*%
D12*
%TO.P,J6,1,Pin_1*%
%TO.N,/VIN*%
X119888000Y-101600000D03*
D13*
%TO.P,J6,2,Pin_2*%
%TO.N,/GND*%
X119888000Y-104140000D03*
%TO.P,J6,3,Pin_3*%
X119888000Y-106680000D03*
%TO.P,J6,4,Pin_4*%
%TO.N,/SC3*%
X119888000Y-109220000D03*
%TO.P,J6,5,Pin_5*%
%TO.N,/SD3*%
X119888000Y-111760000D03*
%TD*%
D12*
%TO.P,J5,1,Pin_1*%
%TO.N,/VIN*%
X119888000Y-117856000D03*
D13*
%TO.P,J5,2,Pin_2*%
%TO.N,/GND*%
X119888000Y-120396000D03*
%TO.P,J5,3,Pin_3*%
X119888000Y-122936000D03*
%TO.P,J5,4,Pin_4*%
%TO.N,/SC2*%
X119888000Y-125476000D03*
%TO.P,J5,5,Pin_5*%
%TO.N,/SD2*%
X119888000Y-128016000D03*
%TD*%
D12*
%TO.P,J4,1,Pin_1*%
%TO.N,/VIN*%
X76708000Y-117602000D03*
D13*
%TO.P,J4,2,Pin_2*%
%TO.N,/GND*%
X76708000Y-115062000D03*
%TO.P,J4,3,Pin_3*%
X76708000Y-112522000D03*
%TO.P,J4,4,Pin_4*%
%TO.N,/SC1*%
X76708000Y-109982000D03*
%TO.P,J4,5,Pin_5*%
%TO.N,/SD1*%
X76708000Y-107442000D03*
%TD*%
D12*
%TO.P,J3,1,Pin_1*%
%TO.N,/VIN*%
X76708000Y-101600000D03*
D13*
%TO.P,J3,2,Pin_2*%
%TO.N,/GND*%
X76708000Y-99060000D03*
%TO.P,J3,3,Pin_3*%
X76708000Y-96520000D03*
%TO.P,J3,4,Pin_4*%
%TO.N,/SC0*%
X76708000Y-93980000D03*
%TO.P,J3,5,Pin_5*%
%TO.N,/SD0*%
X76708000Y-91440000D03*
%TD*%
D12*
%TO.P,J2,1,Pin_1*%
%TO.N,/VIN*%
X76708000Y-78994000D03*
D13*
%TO.P,J2,2,Pin_2*%
%TO.N,/GND*%
X76708000Y-81534000D03*
%TO.P,J2,3,Pin_3*%
%TO.N,/SDA*%
X76708000Y-84074000D03*
%TO.P,J2,4,Pin_4*%
%TO.N,/SCL*%
X76708000Y-86614000D03*
%TD*%
D12*
%TO.P,J1,1,Pin_1*%
%TO.N,/SC7*%
X119888000Y-77470000D03*
D13*
%TO.P,J1,2,Pin_2*%
%TO.N,/SD7*%
X119888000Y-80010000D03*
%TO.P,J1,3,Pin_3*%
%TO.N,/SC6*%
X119888000Y-82550000D03*
%TO.P,J1,4,Pin_4*%
%TO.N,/SD6*%
X119888000Y-85090000D03*
%TO.P,J1,5,Pin_5*%
%TO.N,/SC5*%
X119888000Y-87630000D03*
%TO.P,J1,6,Pin_6*%
%TO.N,/SD5*%
X119888000Y-90170000D03*
%TO.P,J1,7,Pin_7*%
%TO.N,/SC4*%
X119888000Y-92710000D03*
%TO.P,J1,8,Pin_8*%
%TO.N,/SD4*%
X119888000Y-95250000D03*
%TD*%
D14*
%TO.N,/VIN*%
X124968000Y-103886000D02*
X123571000Y-105283000D01*
X124968000Y-77978000D02*
X124968000Y-103886000D01*
X121158000Y-74168000D02*
X124968000Y-77978000D01*
X123571000Y-105283000D02*
X119888000Y-101600000D01*
X87616000Y-74168000D02*
X121158000Y-74168000D01*
X82790000Y-78994000D02*
X87616000Y-74168000D01*
%TO.N,/GND*%
X94742000Y-130556000D02*
X76708000Y-112522000D01*
X120650000Y-130556000D02*
X94742000Y-130556000D01*
X122428000Y-125476000D02*
X122428000Y-128778000D01*
X122428000Y-128778000D02*
X120650000Y-130556000D01*
X119888000Y-122936000D02*
X122428000Y-125476000D01*
%TO.N,/VIN*%
X123698000Y-105410000D02*
X123571000Y-105283000D01*
X123698000Y-114046000D02*
X123698000Y-105410000D01*
X119888000Y-117856000D02*
X123698000Y-114046000D01*
%TO.N,/GND*%
X117094000Y-117602000D02*
X119888000Y-120396000D01*
X117094000Y-116840000D02*
X117094000Y-117602000D01*
X119380000Y-114554000D02*
X117094000Y-116840000D01*
X121158000Y-114554000D02*
X119380000Y-114554000D01*
X122428000Y-113284000D02*
X121158000Y-114554000D01*
X122428000Y-109220000D02*
X122428000Y-113284000D01*
X119888000Y-106680000D02*
X122428000Y-109220000D01*
X119888000Y-104140000D02*
X119888000Y-106680000D01*
X74676000Y-110490000D02*
X76708000Y-112522000D01*
X74676000Y-106172000D02*
X74676000Y-110490000D01*
X75692000Y-105156000D02*
X74676000Y-106172000D01*
X78232000Y-105156000D02*
X75692000Y-105156000D01*
X79248000Y-104140000D02*
X78232000Y-105156000D01*
X79248000Y-100838000D02*
X79248000Y-104140000D01*
X77470000Y-99060000D02*
X79248000Y-100838000D01*
X76708000Y-99060000D02*
X77470000Y-99060000D01*
X76708000Y-112522000D02*
X76708000Y-115062000D01*
%TO.N,/VIN*%
X72898000Y-113792000D02*
X76708000Y-117602000D01*
X72898000Y-97790000D02*
X72898000Y-113792000D01*
%TO.N,/GND*%
X119888000Y-120396000D02*
X119888000Y-122936000D01*
D15*
%TO.N,/SC7*%
X118734000Y-77470000D02*
X119888000Y-77470000D01*
X110160000Y-86044000D02*
X118734000Y-77470000D01*
%TO.N,/SD7*%
X118734000Y-80010000D02*
X119888000Y-80010000D01*
X110160000Y-88584000D02*
X118734000Y-80010000D01*
%TO.N,/SC6*%
X118734000Y-82550000D02*
X119888000Y-82550000D01*
X110160000Y-91124000D02*
X118734000Y-82550000D01*
%TO.N,/SD6*%
X118734000Y-85090000D02*
X119888000Y-85090000D01*
X110160000Y-93664000D02*
X118734000Y-85090000D01*
%TO.N,/SC5*%
X118734000Y-87630000D02*
X119888000Y-87630000D01*
X110160000Y-96204000D02*
X118734000Y-87630000D01*
%TO.N,/SD5*%
X111314000Y-98744000D02*
X110160000Y-98744000D01*
X119888000Y-90170000D02*
X111314000Y-98744000D01*
%TO.N,/SC4*%
X118734000Y-92710000D02*
X119888000Y-92710000D01*
X110160000Y-101284000D02*
X118734000Y-92710000D01*
%TO.N,/SD4*%
X118734000Y-95250000D02*
X119888000Y-95250000D01*
X110160000Y-103824000D02*
X118734000Y-95250000D01*
%TO.N,/SC3*%
X117032000Y-106364000D02*
X119888000Y-109220000D01*
X110160000Y-106364000D02*
X117032000Y-106364000D01*
%TO.N,/SD3*%
X117032000Y-108904000D02*
X119888000Y-111760000D01*
X110160000Y-108904000D02*
X117032000Y-108904000D01*
%TO.N,/SD2*%
X119888000Y-128016000D02*
X110160000Y-118288000D01*
X110160000Y-118288000D02*
X110160000Y-113984000D01*
%TO.N,/SC2*%
X111952000Y-111444000D02*
X110160000Y-111444000D01*
X114554000Y-114046000D02*
X111952000Y-111444000D01*
X114554000Y-120142000D02*
X114554000Y-114046000D01*
X119888000Y-125476000D02*
X114554000Y-120142000D01*
%TO.N,/SC1*%
X80710000Y-113984000D02*
X89840000Y-113984000D01*
X76708000Y-109982000D02*
X80710000Y-113984000D01*
%TO.N,/SD1*%
X76708000Y-107442000D02*
X80710000Y-111444000D01*
X80710000Y-111444000D02*
X89840000Y-111444000D01*
D14*
%TO.N,/VIN*%
X72898000Y-97790000D02*
X76708000Y-101600000D01*
X72898000Y-82804000D02*
X72898000Y-97790000D01*
X76708000Y-78994000D02*
X72898000Y-82804000D01*
%TO.N,/GND*%
X74168000Y-93980000D02*
X76708000Y-96520000D01*
X74168000Y-84074000D02*
X74168000Y-93980000D01*
X76708000Y-81534000D02*
X74168000Y-84074000D01*
X76708000Y-96520000D02*
X76708000Y-99060000D01*
D15*
%TO.N,/SD0*%
X81026000Y-99314000D02*
X88076000Y-106364000D01*
X88076000Y-106364000D02*
X89840000Y-106364000D01*
X81026000Y-95758000D02*
X81026000Y-99314000D01*
X76708000Y-91440000D02*
X81026000Y-95758000D01*
%TO.N,/SC0*%
X87314000Y-108904000D02*
X89840000Y-108904000D01*
X80264000Y-101854000D02*
X87314000Y-108904000D01*
X80264000Y-97536000D02*
X80264000Y-101854000D01*
X76708000Y-93980000D02*
X80264000Y-97536000D01*
%TO.N,/SCL*%
X87568000Y-93664000D02*
X89840000Y-93664000D01*
X80518000Y-86614000D02*
X87568000Y-93664000D01*
X76708000Y-86614000D02*
X80518000Y-86614000D01*
%TO.N,/SDA*%
X88584000Y-91124000D02*
X89840000Y-91124000D01*
X76708000Y-84074000D02*
X81534000Y-84074000D01*
X81534000Y-84074000D02*
X88584000Y-91124000D01*
D14*
%TO.N,/GND*%
X82790000Y-81534000D02*
X89840000Y-88584000D01*
X76708000Y-81534000D02*
X82790000Y-81534000D01*
%TO.N,/VIN*%
X82790000Y-78994000D02*
X89840000Y-86044000D01*
X76708000Y-78994000D02*
X82790000Y-78994000D01*
%TD*%
M02*
