%TF.GenerationSoftware,KiCad,Pcbnew,9.0.6*%
%TF.CreationDate,2026-08-10T23:59:40+08:00*%
%TF.ProjectId,PCA9548A Breakout,50434139-3534-4384-9120-427265616b6f,rev?*%
%TF.SameCoordinates,Original*%
%TF.FileFunction,Legend,Top*%
%TF.FilePolarity,Positive*%
%FSLAX46Y46*%
G04 Gerber Fmt 4.6, Leading zero omitted, Abs format (unit mm)*
G04 Created by KiCad (PCBNEW 9.0.6) date 2026-08-10 23:59:40*
%MOMM*%
%LPD*%
G01*
G04 APERTURE LIST*
%ADD10C,0.150000*%
%ADD11C,0.100000*%
%ADD12C,0.120000*%
G04 APERTURE END LIST*
D10*
X122209160Y-77800200D02*
X122352017Y-77847819D01*
X122352017Y-77847819D02*
X122590112Y-77847819D01*
X122590112Y-77847819D02*
X122685350Y-77800200D01*
X122685350Y-77800200D02*
X122732969Y-77752580D01*
X122732969Y-77752580D02*
X122780588Y-77657342D01*
X122780588Y-77657342D02*
X122780588Y-77562104D01*
X122780588Y-77562104D02*
X122732969Y-77466866D01*
X122732969Y-77466866D02*
X122685350Y-77419247D01*
X122685350Y-77419247D02*
X122590112Y-77371628D01*
X122590112Y-77371628D02*
X122399636Y-77324009D01*
X122399636Y-77324009D02*
X122304398Y-77276390D01*
X122304398Y-77276390D02*
X122256779Y-77228771D01*
X122256779Y-77228771D02*
X122209160Y-77133533D01*
X122209160Y-77133533D02*
X122209160Y-77038295D01*
X122209160Y-77038295D02*
X122256779Y-76943057D01*
X122256779Y-76943057D02*
X122304398Y-76895438D01*
X122304398Y-76895438D02*
X122399636Y-76847819D01*
X122399636Y-76847819D02*
X122637731Y-76847819D01*
X122637731Y-76847819D02*
X122780588Y-76895438D01*
X123780588Y-77752580D02*
X123732969Y-77800200D01*
X123732969Y-77800200D02*
X123590112Y-77847819D01*
X123590112Y-77847819D02*
X123494874Y-77847819D01*
X123494874Y-77847819D02*
X123352017Y-77800200D01*
X123352017Y-77800200D02*
X123256779Y-77704961D01*
X123256779Y-77704961D02*
X123209160Y-77609723D01*
X123209160Y-77609723D02*
X123161541Y-77419247D01*
X123161541Y-77419247D02*
X123161541Y-77276390D01*
X123161541Y-77276390D02*
X123209160Y-77085914D01*
X123209160Y-77085914D02*
X123256779Y-76990676D01*
X123256779Y-76990676D02*
X123352017Y-76895438D01*
X123352017Y-76895438D02*
X123494874Y-76847819D01*
X123494874Y-76847819D02*
X123590112Y-76847819D01*
X123590112Y-76847819D02*
X123732969Y-76895438D01*
X123732969Y-76895438D02*
X123780588Y-76943057D01*
X124113922Y-76847819D02*
X124780588Y-76847819D01*
X124780588Y-76847819D02*
X124352017Y-77847819D01*
X122209160Y-80594200D02*
X122352017Y-80641819D01*
X122352017Y-80641819D02*
X122590112Y-80641819D01*
X122590112Y-80641819D02*
X122685350Y-80594200D01*
X122685350Y-80594200D02*
X122732969Y-80546580D01*
X122732969Y-80546580D02*
X122780588Y-80451342D01*
X122780588Y-80451342D02*
X122780588Y-80356104D01*
X122780588Y-80356104D02*
X122732969Y-80260866D01*
X122732969Y-80260866D02*
X122685350Y-80213247D01*
X122685350Y-80213247D02*
X122590112Y-80165628D01*
X122590112Y-80165628D02*
X122399636Y-80118009D01*
X122399636Y-80118009D02*
X122304398Y-80070390D01*
X122304398Y-80070390D02*
X122256779Y-80022771D01*
X122256779Y-80022771D02*
X122209160Y-79927533D01*
X122209160Y-79927533D02*
X122209160Y-79832295D01*
X122209160Y-79832295D02*
X122256779Y-79737057D01*
X122256779Y-79737057D02*
X122304398Y-79689438D01*
X122304398Y-79689438D02*
X122399636Y-79641819D01*
X122399636Y-79641819D02*
X122637731Y-79641819D01*
X122637731Y-79641819D02*
X122780588Y-79689438D01*
X123209160Y-80641819D02*
X123209160Y-79641819D01*
X123209160Y-79641819D02*
X123447255Y-79641819D01*
X123447255Y-79641819D02*
X123590112Y-79689438D01*
X123590112Y-79689438D02*
X123685350Y-79784676D01*
X123685350Y-79784676D02*
X123732969Y-79879914D01*
X123732969Y-79879914D02*
X123780588Y-80070390D01*
X123780588Y-80070390D02*
X123780588Y-80213247D01*
X123780588Y-80213247D02*
X123732969Y-80403723D01*
X123732969Y-80403723D02*
X123685350Y-80498961D01*
X123685350Y-80498961D02*
X123590112Y-80594200D01*
X123590112Y-80594200D02*
X123447255Y-80641819D01*
X123447255Y-80641819D02*
X123209160Y-80641819D01*
X124113922Y-79641819D02*
X124780588Y-79641819D01*
X124780588Y-79641819D02*
X124352017Y-80641819D01*
X122209160Y-83134200D02*
X122352017Y-83181819D01*
X122352017Y-83181819D02*
X122590112Y-83181819D01*
X122590112Y-83181819D02*
X122685350Y-83134200D01*
X122685350Y-83134200D02*
X122732969Y-83086580D01*
X122732969Y-83086580D02*
X122780588Y-82991342D01*
X122780588Y-82991342D02*
X122780588Y-82896104D01*
X122780588Y-82896104D02*
X122732969Y-82800866D01*
X122732969Y-82800866D02*
X122685350Y-82753247D01*
X122685350Y-82753247D02*
X122590112Y-82705628D01*
X122590112Y-82705628D02*
X122399636Y-82658009D01*
X122399636Y-82658009D02*
X122304398Y-82610390D01*
X122304398Y-82610390D02*
X122256779Y-82562771D01*
X122256779Y-82562771D02*
X122209160Y-82467533D01*
X122209160Y-82467533D02*
X122209160Y-82372295D01*
X122209160Y-82372295D02*
X122256779Y-82277057D01*
X122256779Y-82277057D02*
X122304398Y-82229438D01*
X122304398Y-82229438D02*
X122399636Y-82181819D01*
X122399636Y-82181819D02*
X122637731Y-82181819D01*
X122637731Y-82181819D02*
X122780588Y-82229438D01*
X123780588Y-83086580D02*
X123732969Y-83134200D01*
X123732969Y-83134200D02*
X123590112Y-83181819D01*
X123590112Y-83181819D02*
X123494874Y-83181819D01*
X123494874Y-83181819D02*
X123352017Y-83134200D01*
X123352017Y-83134200D02*
X123256779Y-83038961D01*
X123256779Y-83038961D02*
X123209160Y-82943723D01*
X123209160Y-82943723D02*
X123161541Y-82753247D01*
X123161541Y-82753247D02*
X123161541Y-82610390D01*
X123161541Y-82610390D02*
X123209160Y-82419914D01*
X123209160Y-82419914D02*
X123256779Y-82324676D01*
X123256779Y-82324676D02*
X123352017Y-82229438D01*
X123352017Y-82229438D02*
X123494874Y-82181819D01*
X123494874Y-82181819D02*
X123590112Y-82181819D01*
X123590112Y-82181819D02*
X123732969Y-82229438D01*
X123732969Y-82229438D02*
X123780588Y-82277057D01*
X124637731Y-82181819D02*
X124447255Y-82181819D01*
X124447255Y-82181819D02*
X124352017Y-82229438D01*
X124352017Y-82229438D02*
X124304398Y-82277057D01*
X124304398Y-82277057D02*
X124209160Y-82419914D01*
X124209160Y-82419914D02*
X124161541Y-82610390D01*
X124161541Y-82610390D02*
X124161541Y-82991342D01*
X124161541Y-82991342D02*
X124209160Y-83086580D01*
X124209160Y-83086580D02*
X124256779Y-83134200D01*
X124256779Y-83134200D02*
X124352017Y-83181819D01*
X124352017Y-83181819D02*
X124542493Y-83181819D01*
X124542493Y-83181819D02*
X124637731Y-83134200D01*
X124637731Y-83134200D02*
X124685350Y-83086580D01*
X124685350Y-83086580D02*
X124732969Y-82991342D01*
X124732969Y-82991342D02*
X124732969Y-82753247D01*
X124732969Y-82753247D02*
X124685350Y-82658009D01*
X124685350Y-82658009D02*
X124637731Y-82610390D01*
X124637731Y-82610390D02*
X124542493Y-82562771D01*
X124542493Y-82562771D02*
X124352017Y-82562771D01*
X124352017Y-82562771D02*
X124256779Y-82610390D01*
X124256779Y-82610390D02*
X124209160Y-82658009D01*
X124209160Y-82658009D02*
X124161541Y-82753247D01*
X122209160Y-85928200D02*
X122352017Y-85975819D01*
X122352017Y-85975819D02*
X122590112Y-85975819D01*
X122590112Y-85975819D02*
X122685350Y-85928200D01*
X122685350Y-85928200D02*
X122732969Y-85880580D01*
X122732969Y-85880580D02*
X122780588Y-85785342D01*
X122780588Y-85785342D02*
X122780588Y-85690104D01*
X122780588Y-85690104D02*
X122732969Y-85594866D01*
X122732969Y-85594866D02*
X122685350Y-85547247D01*
X122685350Y-85547247D02*
X122590112Y-85499628D01*
X122590112Y-85499628D02*
X122399636Y-85452009D01*
X122399636Y-85452009D02*
X122304398Y-85404390D01*
X122304398Y-85404390D02*
X122256779Y-85356771D01*
X122256779Y-85356771D02*
X122209160Y-85261533D01*
X122209160Y-85261533D02*
X122209160Y-85166295D01*
X122209160Y-85166295D02*
X122256779Y-85071057D01*
X122256779Y-85071057D02*
X122304398Y-85023438D01*
X122304398Y-85023438D02*
X122399636Y-84975819D01*
X122399636Y-84975819D02*
X122637731Y-84975819D01*
X122637731Y-84975819D02*
X122780588Y-85023438D01*
X123209160Y-85975819D02*
X123209160Y-84975819D01*
X123209160Y-84975819D02*
X123447255Y-84975819D01*
X123447255Y-84975819D02*
X123590112Y-85023438D01*
X123590112Y-85023438D02*
X123685350Y-85118676D01*
X123685350Y-85118676D02*
X123732969Y-85213914D01*
X123732969Y-85213914D02*
X123780588Y-85404390D01*
X123780588Y-85404390D02*
X123780588Y-85547247D01*
X123780588Y-85547247D02*
X123732969Y-85737723D01*
X123732969Y-85737723D02*
X123685350Y-85832961D01*
X123685350Y-85832961D02*
X123590112Y-85928200D01*
X123590112Y-85928200D02*
X123447255Y-85975819D01*
X123447255Y-85975819D02*
X123209160Y-85975819D01*
X124637731Y-84975819D02*
X124447255Y-84975819D01*
X124447255Y-84975819D02*
X124352017Y-85023438D01*
X124352017Y-85023438D02*
X124304398Y-85071057D01*
X124304398Y-85071057D02*
X124209160Y-85213914D01*
X124209160Y-85213914D02*
X124161541Y-85404390D01*
X124161541Y-85404390D02*
X124161541Y-85785342D01*
X124161541Y-85785342D02*
X124209160Y-85880580D01*
X124209160Y-85880580D02*
X124256779Y-85928200D01*
X124256779Y-85928200D02*
X124352017Y-85975819D01*
X124352017Y-85975819D02*
X124542493Y-85975819D01*
X124542493Y-85975819D02*
X124637731Y-85928200D01*
X124637731Y-85928200D02*
X124685350Y-85880580D01*
X124685350Y-85880580D02*
X124732969Y-85785342D01*
X124732969Y-85785342D02*
X124732969Y-85547247D01*
X124732969Y-85547247D02*
X124685350Y-85452009D01*
X124685350Y-85452009D02*
X124637731Y-85404390D01*
X124637731Y-85404390D02*
X124542493Y-85356771D01*
X124542493Y-85356771D02*
X124352017Y-85356771D01*
X124352017Y-85356771D02*
X124256779Y-85404390D01*
X124256779Y-85404390D02*
X124209160Y-85452009D01*
X124209160Y-85452009D02*
X124161541Y-85547247D01*
X122209160Y-88214200D02*
X122352017Y-88261819D01*
X122352017Y-88261819D02*
X122590112Y-88261819D01*
X122590112Y-88261819D02*
X122685350Y-88214200D01*
X122685350Y-88214200D02*
X122732969Y-88166580D01*
X122732969Y-88166580D02*
X122780588Y-88071342D01*
X122780588Y-88071342D02*
X122780588Y-87976104D01*
X122780588Y-87976104D02*
X122732969Y-87880866D01*
X122732969Y-87880866D02*
X122685350Y-87833247D01*
X122685350Y-87833247D02*
X122590112Y-87785628D01*
X122590112Y-87785628D02*
X122399636Y-87738009D01*
X122399636Y-87738009D02*
X122304398Y-87690390D01*
X122304398Y-87690390D02*
X122256779Y-87642771D01*
X122256779Y-87642771D02*
X122209160Y-87547533D01*
X122209160Y-87547533D02*
X122209160Y-87452295D01*
X122209160Y-87452295D02*
X122256779Y-87357057D01*
X122256779Y-87357057D02*
X122304398Y-87309438D01*
X122304398Y-87309438D02*
X122399636Y-87261819D01*
X122399636Y-87261819D02*
X122637731Y-87261819D01*
X122637731Y-87261819D02*
X122780588Y-87309438D01*
X123780588Y-88166580D02*
X123732969Y-88214200D01*
X123732969Y-88214200D02*
X123590112Y-88261819D01*
X123590112Y-88261819D02*
X123494874Y-88261819D01*
X123494874Y-88261819D02*
X123352017Y-88214200D01*
X123352017Y-88214200D02*
X123256779Y-88118961D01*
X123256779Y-88118961D02*
X123209160Y-88023723D01*
X123209160Y-88023723D02*
X123161541Y-87833247D01*
X123161541Y-87833247D02*
X123161541Y-87690390D01*
X123161541Y-87690390D02*
X123209160Y-87499914D01*
X123209160Y-87499914D02*
X123256779Y-87404676D01*
X123256779Y-87404676D02*
X123352017Y-87309438D01*
X123352017Y-87309438D02*
X123494874Y-87261819D01*
X123494874Y-87261819D02*
X123590112Y-87261819D01*
X123590112Y-87261819D02*
X123732969Y-87309438D01*
X123732969Y-87309438D02*
X123780588Y-87357057D01*
X124685350Y-87261819D02*
X124209160Y-87261819D01*
X124209160Y-87261819D02*
X124161541Y-87738009D01*
X124161541Y-87738009D02*
X124209160Y-87690390D01*
X124209160Y-87690390D02*
X124304398Y-87642771D01*
X124304398Y-87642771D02*
X124542493Y-87642771D01*
X124542493Y-87642771D02*
X124637731Y-87690390D01*
X124637731Y-87690390D02*
X124685350Y-87738009D01*
X124685350Y-87738009D02*
X124732969Y-87833247D01*
X124732969Y-87833247D02*
X124732969Y-88071342D01*
X124732969Y-88071342D02*
X124685350Y-88166580D01*
X124685350Y-88166580D02*
X124637731Y-88214200D01*
X124637731Y-88214200D02*
X124542493Y-88261819D01*
X124542493Y-88261819D02*
X124304398Y-88261819D01*
X124304398Y-88261819D02*
X124209160Y-88214200D01*
X124209160Y-88214200D02*
X124161541Y-88166580D01*
X122209160Y-91008200D02*
X122352017Y-91055819D01*
X122352017Y-91055819D02*
X122590112Y-91055819D01*
X122590112Y-91055819D02*
X122685350Y-91008200D01*
X122685350Y-91008200D02*
X122732969Y-90960580D01*
X122732969Y-90960580D02*
X122780588Y-90865342D01*
X122780588Y-90865342D02*
X122780588Y-90770104D01*
X122780588Y-90770104D02*
X122732969Y-90674866D01*
X122732969Y-90674866D02*
X122685350Y-90627247D01*
X122685350Y-90627247D02*
X122590112Y-90579628D01*
X122590112Y-90579628D02*
X122399636Y-90532009D01*
X122399636Y-90532009D02*
X122304398Y-90484390D01*
X122304398Y-90484390D02*
X122256779Y-90436771D01*
X122256779Y-90436771D02*
X122209160Y-90341533D01*
X122209160Y-90341533D02*
X122209160Y-90246295D01*
X122209160Y-90246295D02*
X122256779Y-90151057D01*
X122256779Y-90151057D02*
X122304398Y-90103438D01*
X122304398Y-90103438D02*
X122399636Y-90055819D01*
X122399636Y-90055819D02*
X122637731Y-90055819D01*
X122637731Y-90055819D02*
X122780588Y-90103438D01*
X123209160Y-91055819D02*
X123209160Y-90055819D01*
X123209160Y-90055819D02*
X123447255Y-90055819D01*
X123447255Y-90055819D02*
X123590112Y-90103438D01*
X123590112Y-90103438D02*
X123685350Y-90198676D01*
X123685350Y-90198676D02*
X123732969Y-90293914D01*
X123732969Y-90293914D02*
X123780588Y-90484390D01*
X123780588Y-90484390D02*
X123780588Y-90627247D01*
X123780588Y-90627247D02*
X123732969Y-90817723D01*
X123732969Y-90817723D02*
X123685350Y-90912961D01*
X123685350Y-90912961D02*
X123590112Y-91008200D01*
X123590112Y-91008200D02*
X123447255Y-91055819D01*
X123447255Y-91055819D02*
X123209160Y-91055819D01*
X124685350Y-90055819D02*
X124209160Y-90055819D01*
X124209160Y-90055819D02*
X124161541Y-90532009D01*
X124161541Y-90532009D02*
X124209160Y-90484390D01*
X124209160Y-90484390D02*
X124304398Y-90436771D01*
X124304398Y-90436771D02*
X124542493Y-90436771D01*
X124542493Y-90436771D02*
X124637731Y-90484390D01*
X124637731Y-90484390D02*
X124685350Y-90532009D01*
X124685350Y-90532009D02*
X124732969Y-90627247D01*
X124732969Y-90627247D02*
X124732969Y-90865342D01*
X124732969Y-90865342D02*
X124685350Y-90960580D01*
X124685350Y-90960580D02*
X124637731Y-91008200D01*
X124637731Y-91008200D02*
X124542493Y-91055819D01*
X124542493Y-91055819D02*
X124304398Y-91055819D01*
X124304398Y-91055819D02*
X124209160Y-91008200D01*
X124209160Y-91008200D02*
X124161541Y-90960580D01*
X122209160Y-96088200D02*
X122352017Y-96135819D01*
X122352017Y-96135819D02*
X122590112Y-96135819D01*
X122590112Y-96135819D02*
X122685350Y-96088200D01*
X122685350Y-96088200D02*
X122732969Y-96040580D01*
X122732969Y-96040580D02*
X122780588Y-95945342D01*
X122780588Y-95945342D02*
X122780588Y-95850104D01*
X122780588Y-95850104D02*
X122732969Y-95754866D01*
X122732969Y-95754866D02*
X122685350Y-95707247D01*
X122685350Y-95707247D02*
X122590112Y-95659628D01*
X122590112Y-95659628D02*
X122399636Y-95612009D01*
X122399636Y-95612009D02*
X122304398Y-95564390D01*
X122304398Y-95564390D02*
X122256779Y-95516771D01*
X122256779Y-95516771D02*
X122209160Y-95421533D01*
X122209160Y-95421533D02*
X122209160Y-95326295D01*
X122209160Y-95326295D02*
X122256779Y-95231057D01*
X122256779Y-95231057D02*
X122304398Y-95183438D01*
X122304398Y-95183438D02*
X122399636Y-95135819D01*
X122399636Y-95135819D02*
X122637731Y-95135819D01*
X122637731Y-95135819D02*
X122780588Y-95183438D01*
X123209160Y-96135819D02*
X123209160Y-95135819D01*
X123209160Y-95135819D02*
X123447255Y-95135819D01*
X123447255Y-95135819D02*
X123590112Y-95183438D01*
X123590112Y-95183438D02*
X123685350Y-95278676D01*
X123685350Y-95278676D02*
X123732969Y-95373914D01*
X123732969Y-95373914D02*
X123780588Y-95564390D01*
X123780588Y-95564390D02*
X123780588Y-95707247D01*
X123780588Y-95707247D02*
X123732969Y-95897723D01*
X123732969Y-95897723D02*
X123685350Y-95992961D01*
X123685350Y-95992961D02*
X123590112Y-96088200D01*
X123590112Y-96088200D02*
X123447255Y-96135819D01*
X123447255Y-96135819D02*
X123209160Y-96135819D01*
X124637731Y-95469152D02*
X124637731Y-96135819D01*
X124399636Y-95088200D02*
X124161541Y-95802485D01*
X124161541Y-95802485D02*
X124780588Y-95802485D01*
X122209160Y-93294200D02*
X122352017Y-93341819D01*
X122352017Y-93341819D02*
X122590112Y-93341819D01*
X122590112Y-93341819D02*
X122685350Y-93294200D01*
X122685350Y-93294200D02*
X122732969Y-93246580D01*
X122732969Y-93246580D02*
X122780588Y-93151342D01*
X122780588Y-93151342D02*
X122780588Y-93056104D01*
X122780588Y-93056104D02*
X122732969Y-92960866D01*
X122732969Y-92960866D02*
X122685350Y-92913247D01*
X122685350Y-92913247D02*
X122590112Y-92865628D01*
X122590112Y-92865628D02*
X122399636Y-92818009D01*
X122399636Y-92818009D02*
X122304398Y-92770390D01*
X122304398Y-92770390D02*
X122256779Y-92722771D01*
X122256779Y-92722771D02*
X122209160Y-92627533D01*
X122209160Y-92627533D02*
X122209160Y-92532295D01*
X122209160Y-92532295D02*
X122256779Y-92437057D01*
X122256779Y-92437057D02*
X122304398Y-92389438D01*
X122304398Y-92389438D02*
X122399636Y-92341819D01*
X122399636Y-92341819D02*
X122637731Y-92341819D01*
X122637731Y-92341819D02*
X122780588Y-92389438D01*
X123780588Y-93246580D02*
X123732969Y-93294200D01*
X123732969Y-93294200D02*
X123590112Y-93341819D01*
X123590112Y-93341819D02*
X123494874Y-93341819D01*
X123494874Y-93341819D02*
X123352017Y-93294200D01*
X123352017Y-93294200D02*
X123256779Y-93198961D01*
X123256779Y-93198961D02*
X123209160Y-93103723D01*
X123209160Y-93103723D02*
X123161541Y-92913247D01*
X123161541Y-92913247D02*
X123161541Y-92770390D01*
X123161541Y-92770390D02*
X123209160Y-92579914D01*
X123209160Y-92579914D02*
X123256779Y-92484676D01*
X123256779Y-92484676D02*
X123352017Y-92389438D01*
X123352017Y-92389438D02*
X123494874Y-92341819D01*
X123494874Y-92341819D02*
X123590112Y-92341819D01*
X123590112Y-92341819D02*
X123732969Y-92389438D01*
X123732969Y-92389438D02*
X123780588Y-92437057D01*
X124637731Y-92675152D02*
X124637731Y-93341819D01*
X124399636Y-92294200D02*
X124161541Y-93008485D01*
X124161541Y-93008485D02*
X124780588Y-93008485D01*
X122209160Y-109804200D02*
X122352017Y-109851819D01*
X122352017Y-109851819D02*
X122590112Y-109851819D01*
X122590112Y-109851819D02*
X122685350Y-109804200D01*
X122685350Y-109804200D02*
X122732969Y-109756580D01*
X122732969Y-109756580D02*
X122780588Y-109661342D01*
X122780588Y-109661342D02*
X122780588Y-109566104D01*
X122780588Y-109566104D02*
X122732969Y-109470866D01*
X122732969Y-109470866D02*
X122685350Y-109423247D01*
X122685350Y-109423247D02*
X122590112Y-109375628D01*
X122590112Y-109375628D02*
X122399636Y-109328009D01*
X122399636Y-109328009D02*
X122304398Y-109280390D01*
X122304398Y-109280390D02*
X122256779Y-109232771D01*
X122256779Y-109232771D02*
X122209160Y-109137533D01*
X122209160Y-109137533D02*
X122209160Y-109042295D01*
X122209160Y-109042295D02*
X122256779Y-108947057D01*
X122256779Y-108947057D02*
X122304398Y-108899438D01*
X122304398Y-108899438D02*
X122399636Y-108851819D01*
X122399636Y-108851819D02*
X122637731Y-108851819D01*
X122637731Y-108851819D02*
X122780588Y-108899438D01*
X123780588Y-109756580D02*
X123732969Y-109804200D01*
X123732969Y-109804200D02*
X123590112Y-109851819D01*
X123590112Y-109851819D02*
X123494874Y-109851819D01*
X123494874Y-109851819D02*
X123352017Y-109804200D01*
X123352017Y-109804200D02*
X123256779Y-109708961D01*
X123256779Y-109708961D02*
X123209160Y-109613723D01*
X123209160Y-109613723D02*
X123161541Y-109423247D01*
X123161541Y-109423247D02*
X123161541Y-109280390D01*
X123161541Y-109280390D02*
X123209160Y-109089914D01*
X123209160Y-109089914D02*
X123256779Y-108994676D01*
X123256779Y-108994676D02*
X123352017Y-108899438D01*
X123352017Y-108899438D02*
X123494874Y-108851819D01*
X123494874Y-108851819D02*
X123590112Y-108851819D01*
X123590112Y-108851819D02*
X123732969Y-108899438D01*
X123732969Y-108899438D02*
X123780588Y-108947057D01*
X124113922Y-108851819D02*
X124732969Y-108851819D01*
X124732969Y-108851819D02*
X124399636Y-109232771D01*
X124399636Y-109232771D02*
X124542493Y-109232771D01*
X124542493Y-109232771D02*
X124637731Y-109280390D01*
X124637731Y-109280390D02*
X124685350Y-109328009D01*
X124685350Y-109328009D02*
X124732969Y-109423247D01*
X124732969Y-109423247D02*
X124732969Y-109661342D01*
X124732969Y-109661342D02*
X124685350Y-109756580D01*
X124685350Y-109756580D02*
X124637731Y-109804200D01*
X124637731Y-109804200D02*
X124542493Y-109851819D01*
X124542493Y-109851819D02*
X124256779Y-109851819D01*
X124256779Y-109851819D02*
X124161541Y-109804200D01*
X124161541Y-109804200D02*
X124113922Y-109756580D01*
X122209160Y-112598200D02*
X122352017Y-112645819D01*
X122352017Y-112645819D02*
X122590112Y-112645819D01*
X122590112Y-112645819D02*
X122685350Y-112598200D01*
X122685350Y-112598200D02*
X122732969Y-112550580D01*
X122732969Y-112550580D02*
X122780588Y-112455342D01*
X122780588Y-112455342D02*
X122780588Y-112360104D01*
X122780588Y-112360104D02*
X122732969Y-112264866D01*
X122732969Y-112264866D02*
X122685350Y-112217247D01*
X122685350Y-112217247D02*
X122590112Y-112169628D01*
X122590112Y-112169628D02*
X122399636Y-112122009D01*
X122399636Y-112122009D02*
X122304398Y-112074390D01*
X122304398Y-112074390D02*
X122256779Y-112026771D01*
X122256779Y-112026771D02*
X122209160Y-111931533D01*
X122209160Y-111931533D02*
X122209160Y-111836295D01*
X122209160Y-111836295D02*
X122256779Y-111741057D01*
X122256779Y-111741057D02*
X122304398Y-111693438D01*
X122304398Y-111693438D02*
X122399636Y-111645819D01*
X122399636Y-111645819D02*
X122637731Y-111645819D01*
X122637731Y-111645819D02*
X122780588Y-111693438D01*
X123209160Y-112645819D02*
X123209160Y-111645819D01*
X123209160Y-111645819D02*
X123447255Y-111645819D01*
X123447255Y-111645819D02*
X123590112Y-111693438D01*
X123590112Y-111693438D02*
X123685350Y-111788676D01*
X123685350Y-111788676D02*
X123732969Y-111883914D01*
X123732969Y-111883914D02*
X123780588Y-112074390D01*
X123780588Y-112074390D02*
X123780588Y-112217247D01*
X123780588Y-112217247D02*
X123732969Y-112407723D01*
X123732969Y-112407723D02*
X123685350Y-112502961D01*
X123685350Y-112502961D02*
X123590112Y-112598200D01*
X123590112Y-112598200D02*
X123447255Y-112645819D01*
X123447255Y-112645819D02*
X123209160Y-112645819D01*
X124113922Y-111645819D02*
X124732969Y-111645819D01*
X124732969Y-111645819D02*
X124399636Y-112026771D01*
X124399636Y-112026771D02*
X124542493Y-112026771D01*
X124542493Y-112026771D02*
X124637731Y-112074390D01*
X124637731Y-112074390D02*
X124685350Y-112122009D01*
X124685350Y-112122009D02*
X124732969Y-112217247D01*
X124732969Y-112217247D02*
X124732969Y-112455342D01*
X124732969Y-112455342D02*
X124685350Y-112550580D01*
X124685350Y-112550580D02*
X124637731Y-112598200D01*
X124637731Y-112598200D02*
X124542493Y-112645819D01*
X124542493Y-112645819D02*
X124256779Y-112645819D01*
X124256779Y-112645819D02*
X124161541Y-112598200D01*
X124161541Y-112598200D02*
X124113922Y-112550580D01*
X122780588Y-103565438D02*
X122685350Y-103517819D01*
X122685350Y-103517819D02*
X122542493Y-103517819D01*
X122542493Y-103517819D02*
X122399636Y-103565438D01*
X122399636Y-103565438D02*
X122304398Y-103660676D01*
X122304398Y-103660676D02*
X122256779Y-103755914D01*
X122256779Y-103755914D02*
X122209160Y-103946390D01*
X122209160Y-103946390D02*
X122209160Y-104089247D01*
X122209160Y-104089247D02*
X122256779Y-104279723D01*
X122256779Y-104279723D02*
X122304398Y-104374961D01*
X122304398Y-104374961D02*
X122399636Y-104470200D01*
X122399636Y-104470200D02*
X122542493Y-104517819D01*
X122542493Y-104517819D02*
X122637731Y-104517819D01*
X122637731Y-104517819D02*
X122780588Y-104470200D01*
X122780588Y-104470200D02*
X122828207Y-104422580D01*
X122828207Y-104422580D02*
X122828207Y-104089247D01*
X122828207Y-104089247D02*
X122637731Y-104089247D01*
X123256779Y-104517819D02*
X123256779Y-103517819D01*
X123256779Y-103517819D02*
X123828207Y-104517819D01*
X123828207Y-104517819D02*
X123828207Y-103517819D01*
X124304398Y-104517819D02*
X124304398Y-103517819D01*
X124304398Y-103517819D02*
X124542493Y-103517819D01*
X124542493Y-103517819D02*
X124685350Y-103565438D01*
X124685350Y-103565438D02*
X124780588Y-103660676D01*
X124780588Y-103660676D02*
X124828207Y-103755914D01*
X124828207Y-103755914D02*
X124875826Y-103946390D01*
X124875826Y-103946390D02*
X124875826Y-104089247D01*
X124875826Y-104089247D02*
X124828207Y-104279723D01*
X124828207Y-104279723D02*
X124780588Y-104374961D01*
X124780588Y-104374961D02*
X124685350Y-104470200D01*
X124685350Y-104470200D02*
X124542493Y-104517819D01*
X124542493Y-104517819D02*
X124304398Y-104517819D01*
X122113922Y-100977819D02*
X122447255Y-101977819D01*
X122447255Y-101977819D02*
X122780588Y-100977819D01*
X123113922Y-101977819D02*
X123113922Y-100977819D01*
X123590112Y-101977819D02*
X123590112Y-100977819D01*
X123590112Y-100977819D02*
X124161540Y-101977819D01*
X124161540Y-101977819D02*
X124161540Y-100977819D01*
X122780588Y-105851438D02*
X122685350Y-105803819D01*
X122685350Y-105803819D02*
X122542493Y-105803819D01*
X122542493Y-105803819D02*
X122399636Y-105851438D01*
X122399636Y-105851438D02*
X122304398Y-105946676D01*
X122304398Y-105946676D02*
X122256779Y-106041914D01*
X122256779Y-106041914D02*
X122209160Y-106232390D01*
X122209160Y-106232390D02*
X122209160Y-106375247D01*
X122209160Y-106375247D02*
X122256779Y-106565723D01*
X122256779Y-106565723D02*
X122304398Y-106660961D01*
X122304398Y-106660961D02*
X122399636Y-106756200D01*
X122399636Y-106756200D02*
X122542493Y-106803819D01*
X122542493Y-106803819D02*
X122637731Y-106803819D01*
X122637731Y-106803819D02*
X122780588Y-106756200D01*
X122780588Y-106756200D02*
X122828207Y-106708580D01*
X122828207Y-106708580D02*
X122828207Y-106375247D01*
X122828207Y-106375247D02*
X122637731Y-106375247D01*
X123256779Y-106803819D02*
X123256779Y-105803819D01*
X123256779Y-105803819D02*
X123828207Y-106803819D01*
X123828207Y-106803819D02*
X123828207Y-105803819D01*
X124304398Y-106803819D02*
X124304398Y-105803819D01*
X124304398Y-105803819D02*
X124542493Y-105803819D01*
X124542493Y-105803819D02*
X124685350Y-105851438D01*
X124685350Y-105851438D02*
X124780588Y-105946676D01*
X124780588Y-105946676D02*
X124828207Y-106041914D01*
X124828207Y-106041914D02*
X124875826Y-106232390D01*
X124875826Y-106232390D02*
X124875826Y-106375247D01*
X124875826Y-106375247D02*
X124828207Y-106565723D01*
X124828207Y-106565723D02*
X124780588Y-106660961D01*
X124780588Y-106660961D02*
X124685350Y-106756200D01*
X124685350Y-106756200D02*
X124542493Y-106803819D01*
X124542493Y-106803819D02*
X124304398Y-106803819D01*
X122209160Y-125806200D02*
X122352017Y-125853819D01*
X122352017Y-125853819D02*
X122590112Y-125853819D01*
X122590112Y-125853819D02*
X122685350Y-125806200D01*
X122685350Y-125806200D02*
X122732969Y-125758580D01*
X122732969Y-125758580D02*
X122780588Y-125663342D01*
X122780588Y-125663342D02*
X122780588Y-125568104D01*
X122780588Y-125568104D02*
X122732969Y-125472866D01*
X122732969Y-125472866D02*
X122685350Y-125425247D01*
X122685350Y-125425247D02*
X122590112Y-125377628D01*
X122590112Y-125377628D02*
X122399636Y-125330009D01*
X122399636Y-125330009D02*
X122304398Y-125282390D01*
X122304398Y-125282390D02*
X122256779Y-125234771D01*
X122256779Y-125234771D02*
X122209160Y-125139533D01*
X122209160Y-125139533D02*
X122209160Y-125044295D01*
X122209160Y-125044295D02*
X122256779Y-124949057D01*
X122256779Y-124949057D02*
X122304398Y-124901438D01*
X122304398Y-124901438D02*
X122399636Y-124853819D01*
X122399636Y-124853819D02*
X122637731Y-124853819D01*
X122637731Y-124853819D02*
X122780588Y-124901438D01*
X123780588Y-125758580D02*
X123732969Y-125806200D01*
X123732969Y-125806200D02*
X123590112Y-125853819D01*
X123590112Y-125853819D02*
X123494874Y-125853819D01*
X123494874Y-125853819D02*
X123352017Y-125806200D01*
X123352017Y-125806200D02*
X123256779Y-125710961D01*
X123256779Y-125710961D02*
X123209160Y-125615723D01*
X123209160Y-125615723D02*
X123161541Y-125425247D01*
X123161541Y-125425247D02*
X123161541Y-125282390D01*
X123161541Y-125282390D02*
X123209160Y-125091914D01*
X123209160Y-125091914D02*
X123256779Y-124996676D01*
X123256779Y-124996676D02*
X123352017Y-124901438D01*
X123352017Y-124901438D02*
X123494874Y-124853819D01*
X123494874Y-124853819D02*
X123590112Y-124853819D01*
X123590112Y-124853819D02*
X123732969Y-124901438D01*
X123732969Y-124901438D02*
X123780588Y-124949057D01*
X124161541Y-124949057D02*
X124209160Y-124901438D01*
X124209160Y-124901438D02*
X124304398Y-124853819D01*
X124304398Y-124853819D02*
X124542493Y-124853819D01*
X124542493Y-124853819D02*
X124637731Y-124901438D01*
X124637731Y-124901438D02*
X124685350Y-124949057D01*
X124685350Y-124949057D02*
X124732969Y-125044295D01*
X124732969Y-125044295D02*
X124732969Y-125139533D01*
X124732969Y-125139533D02*
X124685350Y-125282390D01*
X124685350Y-125282390D02*
X124113922Y-125853819D01*
X124113922Y-125853819D02*
X124732969Y-125853819D01*
X122209160Y-128600200D02*
X122352017Y-128647819D01*
X122352017Y-128647819D02*
X122590112Y-128647819D01*
X122590112Y-128647819D02*
X122685350Y-128600200D01*
X122685350Y-128600200D02*
X122732969Y-128552580D01*
X122732969Y-128552580D02*
X122780588Y-128457342D01*
X122780588Y-128457342D02*
X122780588Y-128362104D01*
X122780588Y-128362104D02*
X122732969Y-128266866D01*
X122732969Y-128266866D02*
X122685350Y-128219247D01*
X122685350Y-128219247D02*
X122590112Y-128171628D01*
X122590112Y-128171628D02*
X122399636Y-128124009D01*
X122399636Y-128124009D02*
X122304398Y-128076390D01*
X122304398Y-128076390D02*
X122256779Y-128028771D01*
X122256779Y-128028771D02*
X122209160Y-127933533D01*
X122209160Y-127933533D02*
X122209160Y-127838295D01*
X122209160Y-127838295D02*
X122256779Y-127743057D01*
X122256779Y-127743057D02*
X122304398Y-127695438D01*
X122304398Y-127695438D02*
X122399636Y-127647819D01*
X122399636Y-127647819D02*
X122637731Y-127647819D01*
X122637731Y-127647819D02*
X122780588Y-127695438D01*
X123209160Y-128647819D02*
X123209160Y-127647819D01*
X123209160Y-127647819D02*
X123447255Y-127647819D01*
X123447255Y-127647819D02*
X123590112Y-127695438D01*
X123590112Y-127695438D02*
X123685350Y-127790676D01*
X123685350Y-127790676D02*
X123732969Y-127885914D01*
X123732969Y-127885914D02*
X123780588Y-128076390D01*
X123780588Y-128076390D02*
X123780588Y-128219247D01*
X123780588Y-128219247D02*
X123732969Y-128409723D01*
X123732969Y-128409723D02*
X123685350Y-128504961D01*
X123685350Y-128504961D02*
X123590112Y-128600200D01*
X123590112Y-128600200D02*
X123447255Y-128647819D01*
X123447255Y-128647819D02*
X123209160Y-128647819D01*
X124161541Y-127743057D02*
X124209160Y-127695438D01*
X124209160Y-127695438D02*
X124304398Y-127647819D01*
X124304398Y-127647819D02*
X124542493Y-127647819D01*
X124542493Y-127647819D02*
X124637731Y-127695438D01*
X124637731Y-127695438D02*
X124685350Y-127743057D01*
X124685350Y-127743057D02*
X124732969Y-127838295D01*
X124732969Y-127838295D02*
X124732969Y-127933533D01*
X124732969Y-127933533D02*
X124685350Y-128076390D01*
X124685350Y-128076390D02*
X124113922Y-128647819D01*
X124113922Y-128647819D02*
X124732969Y-128647819D01*
X122780588Y-122361438D02*
X122685350Y-122313819D01*
X122685350Y-122313819D02*
X122542493Y-122313819D01*
X122542493Y-122313819D02*
X122399636Y-122361438D01*
X122399636Y-122361438D02*
X122304398Y-122456676D01*
X122304398Y-122456676D02*
X122256779Y-122551914D01*
X122256779Y-122551914D02*
X122209160Y-122742390D01*
X122209160Y-122742390D02*
X122209160Y-122885247D01*
X122209160Y-122885247D02*
X122256779Y-123075723D01*
X122256779Y-123075723D02*
X122304398Y-123170961D01*
X122304398Y-123170961D02*
X122399636Y-123266200D01*
X122399636Y-123266200D02*
X122542493Y-123313819D01*
X122542493Y-123313819D02*
X122637731Y-123313819D01*
X122637731Y-123313819D02*
X122780588Y-123266200D01*
X122780588Y-123266200D02*
X122828207Y-123218580D01*
X122828207Y-123218580D02*
X122828207Y-122885247D01*
X122828207Y-122885247D02*
X122637731Y-122885247D01*
X123256779Y-123313819D02*
X123256779Y-122313819D01*
X123256779Y-122313819D02*
X123828207Y-123313819D01*
X123828207Y-123313819D02*
X123828207Y-122313819D01*
X124304398Y-123313819D02*
X124304398Y-122313819D01*
X124304398Y-122313819D02*
X124542493Y-122313819D01*
X124542493Y-122313819D02*
X124685350Y-122361438D01*
X124685350Y-122361438D02*
X124780588Y-122456676D01*
X124780588Y-122456676D02*
X124828207Y-122551914D01*
X124828207Y-122551914D02*
X124875826Y-122742390D01*
X124875826Y-122742390D02*
X124875826Y-122885247D01*
X124875826Y-122885247D02*
X124828207Y-123075723D01*
X124828207Y-123075723D02*
X124780588Y-123170961D01*
X124780588Y-123170961D02*
X124685350Y-123266200D01*
X124685350Y-123266200D02*
X124542493Y-123313819D01*
X124542493Y-123313819D02*
X124304398Y-123313819D01*
X122780588Y-120075438D02*
X122685350Y-120027819D01*
X122685350Y-120027819D02*
X122542493Y-120027819D01*
X122542493Y-120027819D02*
X122399636Y-120075438D01*
X122399636Y-120075438D02*
X122304398Y-120170676D01*
X122304398Y-120170676D02*
X122256779Y-120265914D01*
X122256779Y-120265914D02*
X122209160Y-120456390D01*
X122209160Y-120456390D02*
X122209160Y-120599247D01*
X122209160Y-120599247D02*
X122256779Y-120789723D01*
X122256779Y-120789723D02*
X122304398Y-120884961D01*
X122304398Y-120884961D02*
X122399636Y-120980200D01*
X122399636Y-120980200D02*
X122542493Y-121027819D01*
X122542493Y-121027819D02*
X122637731Y-121027819D01*
X122637731Y-121027819D02*
X122780588Y-120980200D01*
X122780588Y-120980200D02*
X122828207Y-120932580D01*
X122828207Y-120932580D02*
X122828207Y-120599247D01*
X122828207Y-120599247D02*
X122637731Y-120599247D01*
X123256779Y-121027819D02*
X123256779Y-120027819D01*
X123256779Y-120027819D02*
X123828207Y-121027819D01*
X123828207Y-121027819D02*
X123828207Y-120027819D01*
X124304398Y-121027819D02*
X124304398Y-120027819D01*
X124304398Y-120027819D02*
X124542493Y-120027819D01*
X124542493Y-120027819D02*
X124685350Y-120075438D01*
X124685350Y-120075438D02*
X124780588Y-120170676D01*
X124780588Y-120170676D02*
X124828207Y-120265914D01*
X124828207Y-120265914D02*
X124875826Y-120456390D01*
X124875826Y-120456390D02*
X124875826Y-120599247D01*
X124875826Y-120599247D02*
X124828207Y-120789723D01*
X124828207Y-120789723D02*
X124780588Y-120884961D01*
X124780588Y-120884961D02*
X124685350Y-120980200D01*
X124685350Y-120980200D02*
X124542493Y-121027819D01*
X124542493Y-121027819D02*
X124304398Y-121027819D01*
X122113922Y-117487819D02*
X122447255Y-118487819D01*
X122447255Y-118487819D02*
X122780588Y-117487819D01*
X123113922Y-118487819D02*
X123113922Y-117487819D01*
X123590112Y-118487819D02*
X123590112Y-117487819D01*
X123590112Y-117487819D02*
X124161540Y-118487819D01*
X124161540Y-118487819D02*
X124161540Y-117487819D01*
X72171160Y-110566200D02*
X72314017Y-110613819D01*
X72314017Y-110613819D02*
X72552112Y-110613819D01*
X72552112Y-110613819D02*
X72647350Y-110566200D01*
X72647350Y-110566200D02*
X72694969Y-110518580D01*
X72694969Y-110518580D02*
X72742588Y-110423342D01*
X72742588Y-110423342D02*
X72742588Y-110328104D01*
X72742588Y-110328104D02*
X72694969Y-110232866D01*
X72694969Y-110232866D02*
X72647350Y-110185247D01*
X72647350Y-110185247D02*
X72552112Y-110137628D01*
X72552112Y-110137628D02*
X72361636Y-110090009D01*
X72361636Y-110090009D02*
X72266398Y-110042390D01*
X72266398Y-110042390D02*
X72218779Y-109994771D01*
X72218779Y-109994771D02*
X72171160Y-109899533D01*
X72171160Y-109899533D02*
X72171160Y-109804295D01*
X72171160Y-109804295D02*
X72218779Y-109709057D01*
X72218779Y-109709057D02*
X72266398Y-109661438D01*
X72266398Y-109661438D02*
X72361636Y-109613819D01*
X72361636Y-109613819D02*
X72599731Y-109613819D01*
X72599731Y-109613819D02*
X72742588Y-109661438D01*
X73742588Y-110518580D02*
X73694969Y-110566200D01*
X73694969Y-110566200D02*
X73552112Y-110613819D01*
X73552112Y-110613819D02*
X73456874Y-110613819D01*
X73456874Y-110613819D02*
X73314017Y-110566200D01*
X73314017Y-110566200D02*
X73218779Y-110470961D01*
X73218779Y-110470961D02*
X73171160Y-110375723D01*
X73171160Y-110375723D02*
X73123541Y-110185247D01*
X73123541Y-110185247D02*
X73123541Y-110042390D01*
X73123541Y-110042390D02*
X73171160Y-109851914D01*
X73171160Y-109851914D02*
X73218779Y-109756676D01*
X73218779Y-109756676D02*
X73314017Y-109661438D01*
X73314017Y-109661438D02*
X73456874Y-109613819D01*
X73456874Y-109613819D02*
X73552112Y-109613819D01*
X73552112Y-109613819D02*
X73694969Y-109661438D01*
X73694969Y-109661438D02*
X73742588Y-109709057D01*
X74694969Y-110613819D02*
X74123541Y-110613819D01*
X74409255Y-110613819D02*
X74409255Y-109613819D01*
X74409255Y-109613819D02*
X74314017Y-109756676D01*
X74314017Y-109756676D02*
X74218779Y-109851914D01*
X74218779Y-109851914D02*
X74123541Y-109899533D01*
X72171160Y-107772200D02*
X72314017Y-107819819D01*
X72314017Y-107819819D02*
X72552112Y-107819819D01*
X72552112Y-107819819D02*
X72647350Y-107772200D01*
X72647350Y-107772200D02*
X72694969Y-107724580D01*
X72694969Y-107724580D02*
X72742588Y-107629342D01*
X72742588Y-107629342D02*
X72742588Y-107534104D01*
X72742588Y-107534104D02*
X72694969Y-107438866D01*
X72694969Y-107438866D02*
X72647350Y-107391247D01*
X72647350Y-107391247D02*
X72552112Y-107343628D01*
X72552112Y-107343628D02*
X72361636Y-107296009D01*
X72361636Y-107296009D02*
X72266398Y-107248390D01*
X72266398Y-107248390D02*
X72218779Y-107200771D01*
X72218779Y-107200771D02*
X72171160Y-107105533D01*
X72171160Y-107105533D02*
X72171160Y-107010295D01*
X72171160Y-107010295D02*
X72218779Y-106915057D01*
X72218779Y-106915057D02*
X72266398Y-106867438D01*
X72266398Y-106867438D02*
X72361636Y-106819819D01*
X72361636Y-106819819D02*
X72599731Y-106819819D01*
X72599731Y-106819819D02*
X72742588Y-106867438D01*
X73171160Y-107819819D02*
X73171160Y-106819819D01*
X73171160Y-106819819D02*
X73409255Y-106819819D01*
X73409255Y-106819819D02*
X73552112Y-106867438D01*
X73552112Y-106867438D02*
X73647350Y-106962676D01*
X73647350Y-106962676D02*
X73694969Y-107057914D01*
X73694969Y-107057914D02*
X73742588Y-107248390D01*
X73742588Y-107248390D02*
X73742588Y-107391247D01*
X73742588Y-107391247D02*
X73694969Y-107581723D01*
X73694969Y-107581723D02*
X73647350Y-107676961D01*
X73647350Y-107676961D02*
X73552112Y-107772200D01*
X73552112Y-107772200D02*
X73409255Y-107819819D01*
X73409255Y-107819819D02*
X73171160Y-107819819D01*
X74694969Y-107819819D02*
X74123541Y-107819819D01*
X74409255Y-107819819D02*
X74409255Y-106819819D01*
X74409255Y-106819819D02*
X74314017Y-106962676D01*
X74314017Y-106962676D02*
X74218779Y-107057914D01*
X74218779Y-107057914D02*
X74123541Y-107105533D01*
X72488588Y-111947438D02*
X72393350Y-111899819D01*
X72393350Y-111899819D02*
X72250493Y-111899819D01*
X72250493Y-111899819D02*
X72107636Y-111947438D01*
X72107636Y-111947438D02*
X72012398Y-112042676D01*
X72012398Y-112042676D02*
X71964779Y-112137914D01*
X71964779Y-112137914D02*
X71917160Y-112328390D01*
X71917160Y-112328390D02*
X71917160Y-112471247D01*
X71917160Y-112471247D02*
X71964779Y-112661723D01*
X71964779Y-112661723D02*
X72012398Y-112756961D01*
X72012398Y-112756961D02*
X72107636Y-112852200D01*
X72107636Y-112852200D02*
X72250493Y-112899819D01*
X72250493Y-112899819D02*
X72345731Y-112899819D01*
X72345731Y-112899819D02*
X72488588Y-112852200D01*
X72488588Y-112852200D02*
X72536207Y-112804580D01*
X72536207Y-112804580D02*
X72536207Y-112471247D01*
X72536207Y-112471247D02*
X72345731Y-112471247D01*
X72964779Y-112899819D02*
X72964779Y-111899819D01*
X72964779Y-111899819D02*
X73536207Y-112899819D01*
X73536207Y-112899819D02*
X73536207Y-111899819D01*
X74012398Y-112899819D02*
X74012398Y-111899819D01*
X74012398Y-111899819D02*
X74250493Y-111899819D01*
X74250493Y-111899819D02*
X74393350Y-111947438D01*
X74393350Y-111947438D02*
X74488588Y-112042676D01*
X74488588Y-112042676D02*
X74536207Y-112137914D01*
X74536207Y-112137914D02*
X74583826Y-112328390D01*
X74583826Y-112328390D02*
X74583826Y-112471247D01*
X74583826Y-112471247D02*
X74536207Y-112661723D01*
X74536207Y-112661723D02*
X74488588Y-112756961D01*
X74488588Y-112756961D02*
X74393350Y-112852200D01*
X74393350Y-112852200D02*
X74250493Y-112899819D01*
X74250493Y-112899819D02*
X74012398Y-112899819D01*
X72488588Y-114741438D02*
X72393350Y-114693819D01*
X72393350Y-114693819D02*
X72250493Y-114693819D01*
X72250493Y-114693819D02*
X72107636Y-114741438D01*
X72107636Y-114741438D02*
X72012398Y-114836676D01*
X72012398Y-114836676D02*
X71964779Y-114931914D01*
X71964779Y-114931914D02*
X71917160Y-115122390D01*
X71917160Y-115122390D02*
X71917160Y-115265247D01*
X71917160Y-115265247D02*
X71964779Y-115455723D01*
X71964779Y-115455723D02*
X72012398Y-115550961D01*
X72012398Y-115550961D02*
X72107636Y-115646200D01*
X72107636Y-115646200D02*
X72250493Y-115693819D01*
X72250493Y-115693819D02*
X72345731Y-115693819D01*
X72345731Y-115693819D02*
X72488588Y-115646200D01*
X72488588Y-115646200D02*
X72536207Y-115598580D01*
X72536207Y-115598580D02*
X72536207Y-115265247D01*
X72536207Y-115265247D02*
X72345731Y-115265247D01*
X72964779Y-115693819D02*
X72964779Y-114693819D01*
X72964779Y-114693819D02*
X73536207Y-115693819D01*
X73536207Y-115693819D02*
X73536207Y-114693819D01*
X74012398Y-115693819D02*
X74012398Y-114693819D01*
X74012398Y-114693819D02*
X74250493Y-114693819D01*
X74250493Y-114693819D02*
X74393350Y-114741438D01*
X74393350Y-114741438D02*
X74488588Y-114836676D01*
X74488588Y-114836676D02*
X74536207Y-114931914D01*
X74536207Y-114931914D02*
X74583826Y-115122390D01*
X74583826Y-115122390D02*
X74583826Y-115265247D01*
X74583826Y-115265247D02*
X74536207Y-115455723D01*
X74536207Y-115455723D02*
X74488588Y-115550961D01*
X74488588Y-115550961D02*
X74393350Y-115646200D01*
X74393350Y-115646200D02*
X74250493Y-115693819D01*
X74250493Y-115693819D02*
X74012398Y-115693819D01*
X72329922Y-117233819D02*
X72663255Y-118233819D01*
X72663255Y-118233819D02*
X72996588Y-117233819D01*
X73329922Y-118233819D02*
X73329922Y-117233819D01*
X73806112Y-118233819D02*
X73806112Y-117233819D01*
X73806112Y-117233819D02*
X74377540Y-118233819D01*
X74377540Y-118233819D02*
X74377540Y-117233819D01*
X72329922Y-101231819D02*
X72663255Y-102231819D01*
X72663255Y-102231819D02*
X72996588Y-101231819D01*
X73329922Y-102231819D02*
X73329922Y-101231819D01*
X73806112Y-102231819D02*
X73806112Y-101231819D01*
X73806112Y-101231819D02*
X74377540Y-102231819D01*
X74377540Y-102231819D02*
X74377540Y-101231819D01*
X72488588Y-98485438D02*
X72393350Y-98437819D01*
X72393350Y-98437819D02*
X72250493Y-98437819D01*
X72250493Y-98437819D02*
X72107636Y-98485438D01*
X72107636Y-98485438D02*
X72012398Y-98580676D01*
X72012398Y-98580676D02*
X71964779Y-98675914D01*
X71964779Y-98675914D02*
X71917160Y-98866390D01*
X71917160Y-98866390D02*
X71917160Y-99009247D01*
X71917160Y-99009247D02*
X71964779Y-99199723D01*
X71964779Y-99199723D02*
X72012398Y-99294961D01*
X72012398Y-99294961D02*
X72107636Y-99390200D01*
X72107636Y-99390200D02*
X72250493Y-99437819D01*
X72250493Y-99437819D02*
X72345731Y-99437819D01*
X72345731Y-99437819D02*
X72488588Y-99390200D01*
X72488588Y-99390200D02*
X72536207Y-99342580D01*
X72536207Y-99342580D02*
X72536207Y-99009247D01*
X72536207Y-99009247D02*
X72345731Y-99009247D01*
X72964779Y-99437819D02*
X72964779Y-98437819D01*
X72964779Y-98437819D02*
X73536207Y-99437819D01*
X73536207Y-99437819D02*
X73536207Y-98437819D01*
X74012398Y-99437819D02*
X74012398Y-98437819D01*
X74012398Y-98437819D02*
X74250493Y-98437819D01*
X74250493Y-98437819D02*
X74393350Y-98485438D01*
X74393350Y-98485438D02*
X74488588Y-98580676D01*
X74488588Y-98580676D02*
X74536207Y-98675914D01*
X74536207Y-98675914D02*
X74583826Y-98866390D01*
X74583826Y-98866390D02*
X74583826Y-99009247D01*
X74583826Y-99009247D02*
X74536207Y-99199723D01*
X74536207Y-99199723D02*
X74488588Y-99294961D01*
X74488588Y-99294961D02*
X74393350Y-99390200D01*
X74393350Y-99390200D02*
X74250493Y-99437819D01*
X74250493Y-99437819D02*
X74012398Y-99437819D01*
X72488588Y-95945438D02*
X72393350Y-95897819D01*
X72393350Y-95897819D02*
X72250493Y-95897819D01*
X72250493Y-95897819D02*
X72107636Y-95945438D01*
X72107636Y-95945438D02*
X72012398Y-96040676D01*
X72012398Y-96040676D02*
X71964779Y-96135914D01*
X71964779Y-96135914D02*
X71917160Y-96326390D01*
X71917160Y-96326390D02*
X71917160Y-96469247D01*
X71917160Y-96469247D02*
X71964779Y-96659723D01*
X71964779Y-96659723D02*
X72012398Y-96754961D01*
X72012398Y-96754961D02*
X72107636Y-96850200D01*
X72107636Y-96850200D02*
X72250493Y-96897819D01*
X72250493Y-96897819D02*
X72345731Y-96897819D01*
X72345731Y-96897819D02*
X72488588Y-96850200D01*
X72488588Y-96850200D02*
X72536207Y-96802580D01*
X72536207Y-96802580D02*
X72536207Y-96469247D01*
X72536207Y-96469247D02*
X72345731Y-96469247D01*
X72964779Y-96897819D02*
X72964779Y-95897819D01*
X72964779Y-95897819D02*
X73536207Y-96897819D01*
X73536207Y-96897819D02*
X73536207Y-95897819D01*
X74012398Y-96897819D02*
X74012398Y-95897819D01*
X74012398Y-95897819D02*
X74250493Y-95897819D01*
X74250493Y-95897819D02*
X74393350Y-95945438D01*
X74393350Y-95945438D02*
X74488588Y-96040676D01*
X74488588Y-96040676D02*
X74536207Y-96135914D01*
X74536207Y-96135914D02*
X74583826Y-96326390D01*
X74583826Y-96326390D02*
X74583826Y-96469247D01*
X74583826Y-96469247D02*
X74536207Y-96659723D01*
X74536207Y-96659723D02*
X74488588Y-96754961D01*
X74488588Y-96754961D02*
X74393350Y-96850200D01*
X74393350Y-96850200D02*
X74250493Y-96897819D01*
X74250493Y-96897819D02*
X74012398Y-96897819D01*
X72171160Y-94564200D02*
X72314017Y-94611819D01*
X72314017Y-94611819D02*
X72552112Y-94611819D01*
X72552112Y-94611819D02*
X72647350Y-94564200D01*
X72647350Y-94564200D02*
X72694969Y-94516580D01*
X72694969Y-94516580D02*
X72742588Y-94421342D01*
X72742588Y-94421342D02*
X72742588Y-94326104D01*
X72742588Y-94326104D02*
X72694969Y-94230866D01*
X72694969Y-94230866D02*
X72647350Y-94183247D01*
X72647350Y-94183247D02*
X72552112Y-94135628D01*
X72552112Y-94135628D02*
X72361636Y-94088009D01*
X72361636Y-94088009D02*
X72266398Y-94040390D01*
X72266398Y-94040390D02*
X72218779Y-93992771D01*
X72218779Y-93992771D02*
X72171160Y-93897533D01*
X72171160Y-93897533D02*
X72171160Y-93802295D01*
X72171160Y-93802295D02*
X72218779Y-93707057D01*
X72218779Y-93707057D02*
X72266398Y-93659438D01*
X72266398Y-93659438D02*
X72361636Y-93611819D01*
X72361636Y-93611819D02*
X72599731Y-93611819D01*
X72599731Y-93611819D02*
X72742588Y-93659438D01*
X73742588Y-94516580D02*
X73694969Y-94564200D01*
X73694969Y-94564200D02*
X73552112Y-94611819D01*
X73552112Y-94611819D02*
X73456874Y-94611819D01*
X73456874Y-94611819D02*
X73314017Y-94564200D01*
X73314017Y-94564200D02*
X73218779Y-94468961D01*
X73218779Y-94468961D02*
X73171160Y-94373723D01*
X73171160Y-94373723D02*
X73123541Y-94183247D01*
X73123541Y-94183247D02*
X73123541Y-94040390D01*
X73123541Y-94040390D02*
X73171160Y-93849914D01*
X73171160Y-93849914D02*
X73218779Y-93754676D01*
X73218779Y-93754676D02*
X73314017Y-93659438D01*
X73314017Y-93659438D02*
X73456874Y-93611819D01*
X73456874Y-93611819D02*
X73552112Y-93611819D01*
X73552112Y-93611819D02*
X73694969Y-93659438D01*
X73694969Y-93659438D02*
X73742588Y-93707057D01*
X74361636Y-93611819D02*
X74456874Y-93611819D01*
X74456874Y-93611819D02*
X74552112Y-93659438D01*
X74552112Y-93659438D02*
X74599731Y-93707057D01*
X74599731Y-93707057D02*
X74647350Y-93802295D01*
X74647350Y-93802295D02*
X74694969Y-93992771D01*
X74694969Y-93992771D02*
X74694969Y-94230866D01*
X74694969Y-94230866D02*
X74647350Y-94421342D01*
X74647350Y-94421342D02*
X74599731Y-94516580D01*
X74599731Y-94516580D02*
X74552112Y-94564200D01*
X74552112Y-94564200D02*
X74456874Y-94611819D01*
X74456874Y-94611819D02*
X74361636Y-94611819D01*
X74361636Y-94611819D02*
X74266398Y-94564200D01*
X74266398Y-94564200D02*
X74218779Y-94516580D01*
X74218779Y-94516580D02*
X74171160Y-94421342D01*
X74171160Y-94421342D02*
X74123541Y-94230866D01*
X74123541Y-94230866D02*
X74123541Y-93992771D01*
X74123541Y-93992771D02*
X74171160Y-93802295D01*
X74171160Y-93802295D02*
X74218779Y-93707057D01*
X74218779Y-93707057D02*
X74266398Y-93659438D01*
X74266398Y-93659438D02*
X74361636Y-93611819D01*
X72171160Y-91770200D02*
X72314017Y-91817819D01*
X72314017Y-91817819D02*
X72552112Y-91817819D01*
X72552112Y-91817819D02*
X72647350Y-91770200D01*
X72647350Y-91770200D02*
X72694969Y-91722580D01*
X72694969Y-91722580D02*
X72742588Y-91627342D01*
X72742588Y-91627342D02*
X72742588Y-91532104D01*
X72742588Y-91532104D02*
X72694969Y-91436866D01*
X72694969Y-91436866D02*
X72647350Y-91389247D01*
X72647350Y-91389247D02*
X72552112Y-91341628D01*
X72552112Y-91341628D02*
X72361636Y-91294009D01*
X72361636Y-91294009D02*
X72266398Y-91246390D01*
X72266398Y-91246390D02*
X72218779Y-91198771D01*
X72218779Y-91198771D02*
X72171160Y-91103533D01*
X72171160Y-91103533D02*
X72171160Y-91008295D01*
X72171160Y-91008295D02*
X72218779Y-90913057D01*
X72218779Y-90913057D02*
X72266398Y-90865438D01*
X72266398Y-90865438D02*
X72361636Y-90817819D01*
X72361636Y-90817819D02*
X72599731Y-90817819D01*
X72599731Y-90817819D02*
X72742588Y-90865438D01*
X73171160Y-91817819D02*
X73171160Y-90817819D01*
X73171160Y-90817819D02*
X73409255Y-90817819D01*
X73409255Y-90817819D02*
X73552112Y-90865438D01*
X73552112Y-90865438D02*
X73647350Y-90960676D01*
X73647350Y-90960676D02*
X73694969Y-91055914D01*
X73694969Y-91055914D02*
X73742588Y-91246390D01*
X73742588Y-91246390D02*
X73742588Y-91389247D01*
X73742588Y-91389247D02*
X73694969Y-91579723D01*
X73694969Y-91579723D02*
X73647350Y-91674961D01*
X73647350Y-91674961D02*
X73552112Y-91770200D01*
X73552112Y-91770200D02*
X73409255Y-91817819D01*
X73409255Y-91817819D02*
X73171160Y-91817819D01*
X74361636Y-90817819D02*
X74456874Y-90817819D01*
X74456874Y-90817819D02*
X74552112Y-90865438D01*
X74552112Y-90865438D02*
X74599731Y-90913057D01*
X74599731Y-90913057D02*
X74647350Y-91008295D01*
X74647350Y-91008295D02*
X74694969Y-91198771D01*
X74694969Y-91198771D02*
X74694969Y-91436866D01*
X74694969Y-91436866D02*
X74647350Y-91627342D01*
X74647350Y-91627342D02*
X74599731Y-91722580D01*
X74599731Y-91722580D02*
X74552112Y-91770200D01*
X74552112Y-91770200D02*
X74456874Y-91817819D01*
X74456874Y-91817819D02*
X74361636Y-91817819D01*
X74361636Y-91817819D02*
X74266398Y-91770200D01*
X74266398Y-91770200D02*
X74218779Y-91722580D01*
X74218779Y-91722580D02*
X74171160Y-91627342D01*
X74171160Y-91627342D02*
X74123541Y-91436866D01*
X74123541Y-91436866D02*
X74123541Y-91198771D01*
X74123541Y-91198771D02*
X74171160Y-91008295D01*
X74171160Y-91008295D02*
X74218779Y-90913057D01*
X74218779Y-90913057D02*
X74266398Y-90865438D01*
X74266398Y-90865438D02*
X74361636Y-90817819D01*
X72171160Y-87198200D02*
X72314017Y-87245819D01*
X72314017Y-87245819D02*
X72552112Y-87245819D01*
X72552112Y-87245819D02*
X72647350Y-87198200D01*
X72647350Y-87198200D02*
X72694969Y-87150580D01*
X72694969Y-87150580D02*
X72742588Y-87055342D01*
X72742588Y-87055342D02*
X72742588Y-86960104D01*
X72742588Y-86960104D02*
X72694969Y-86864866D01*
X72694969Y-86864866D02*
X72647350Y-86817247D01*
X72647350Y-86817247D02*
X72552112Y-86769628D01*
X72552112Y-86769628D02*
X72361636Y-86722009D01*
X72361636Y-86722009D02*
X72266398Y-86674390D01*
X72266398Y-86674390D02*
X72218779Y-86626771D01*
X72218779Y-86626771D02*
X72171160Y-86531533D01*
X72171160Y-86531533D02*
X72171160Y-86436295D01*
X72171160Y-86436295D02*
X72218779Y-86341057D01*
X72218779Y-86341057D02*
X72266398Y-86293438D01*
X72266398Y-86293438D02*
X72361636Y-86245819D01*
X72361636Y-86245819D02*
X72599731Y-86245819D01*
X72599731Y-86245819D02*
X72742588Y-86293438D01*
X73742588Y-87150580D02*
X73694969Y-87198200D01*
X73694969Y-87198200D02*
X73552112Y-87245819D01*
X73552112Y-87245819D02*
X73456874Y-87245819D01*
X73456874Y-87245819D02*
X73314017Y-87198200D01*
X73314017Y-87198200D02*
X73218779Y-87102961D01*
X73218779Y-87102961D02*
X73171160Y-87007723D01*
X73171160Y-87007723D02*
X73123541Y-86817247D01*
X73123541Y-86817247D02*
X73123541Y-86674390D01*
X73123541Y-86674390D02*
X73171160Y-86483914D01*
X73171160Y-86483914D02*
X73218779Y-86388676D01*
X73218779Y-86388676D02*
X73314017Y-86293438D01*
X73314017Y-86293438D02*
X73456874Y-86245819D01*
X73456874Y-86245819D02*
X73552112Y-86245819D01*
X73552112Y-86245819D02*
X73694969Y-86293438D01*
X73694969Y-86293438D02*
X73742588Y-86341057D01*
X74647350Y-87245819D02*
X74171160Y-87245819D01*
X74171160Y-87245819D02*
X74171160Y-86245819D01*
X72171160Y-84658200D02*
X72314017Y-84705819D01*
X72314017Y-84705819D02*
X72552112Y-84705819D01*
X72552112Y-84705819D02*
X72647350Y-84658200D01*
X72647350Y-84658200D02*
X72694969Y-84610580D01*
X72694969Y-84610580D02*
X72742588Y-84515342D01*
X72742588Y-84515342D02*
X72742588Y-84420104D01*
X72742588Y-84420104D02*
X72694969Y-84324866D01*
X72694969Y-84324866D02*
X72647350Y-84277247D01*
X72647350Y-84277247D02*
X72552112Y-84229628D01*
X72552112Y-84229628D02*
X72361636Y-84182009D01*
X72361636Y-84182009D02*
X72266398Y-84134390D01*
X72266398Y-84134390D02*
X72218779Y-84086771D01*
X72218779Y-84086771D02*
X72171160Y-83991533D01*
X72171160Y-83991533D02*
X72171160Y-83896295D01*
X72171160Y-83896295D02*
X72218779Y-83801057D01*
X72218779Y-83801057D02*
X72266398Y-83753438D01*
X72266398Y-83753438D02*
X72361636Y-83705819D01*
X72361636Y-83705819D02*
X72599731Y-83705819D01*
X72599731Y-83705819D02*
X72742588Y-83753438D01*
X73171160Y-84705819D02*
X73171160Y-83705819D01*
X73171160Y-83705819D02*
X73409255Y-83705819D01*
X73409255Y-83705819D02*
X73552112Y-83753438D01*
X73552112Y-83753438D02*
X73647350Y-83848676D01*
X73647350Y-83848676D02*
X73694969Y-83943914D01*
X73694969Y-83943914D02*
X73742588Y-84134390D01*
X73742588Y-84134390D02*
X73742588Y-84277247D01*
X73742588Y-84277247D02*
X73694969Y-84467723D01*
X73694969Y-84467723D02*
X73647350Y-84562961D01*
X73647350Y-84562961D02*
X73552112Y-84658200D01*
X73552112Y-84658200D02*
X73409255Y-84705819D01*
X73409255Y-84705819D02*
X73171160Y-84705819D01*
X74123541Y-84420104D02*
X74599731Y-84420104D01*
X74028303Y-84705819D02*
X74361636Y-83705819D01*
X74361636Y-83705819D02*
X74694969Y-84705819D01*
X72488588Y-81213438D02*
X72393350Y-81165819D01*
X72393350Y-81165819D02*
X72250493Y-81165819D01*
X72250493Y-81165819D02*
X72107636Y-81213438D01*
X72107636Y-81213438D02*
X72012398Y-81308676D01*
X72012398Y-81308676D02*
X71964779Y-81403914D01*
X71964779Y-81403914D02*
X71917160Y-81594390D01*
X71917160Y-81594390D02*
X71917160Y-81737247D01*
X71917160Y-81737247D02*
X71964779Y-81927723D01*
X71964779Y-81927723D02*
X72012398Y-82022961D01*
X72012398Y-82022961D02*
X72107636Y-82118200D01*
X72107636Y-82118200D02*
X72250493Y-82165819D01*
X72250493Y-82165819D02*
X72345731Y-82165819D01*
X72345731Y-82165819D02*
X72488588Y-82118200D01*
X72488588Y-82118200D02*
X72536207Y-82070580D01*
X72536207Y-82070580D02*
X72536207Y-81737247D01*
X72536207Y-81737247D02*
X72345731Y-81737247D01*
X72964779Y-82165819D02*
X72964779Y-81165819D01*
X72964779Y-81165819D02*
X73536207Y-82165819D01*
X73536207Y-82165819D02*
X73536207Y-81165819D01*
X74012398Y-82165819D02*
X74012398Y-81165819D01*
X74012398Y-81165819D02*
X74250493Y-81165819D01*
X74250493Y-81165819D02*
X74393350Y-81213438D01*
X74393350Y-81213438D02*
X74488588Y-81308676D01*
X74488588Y-81308676D02*
X74536207Y-81403914D01*
X74536207Y-81403914D02*
X74583826Y-81594390D01*
X74583826Y-81594390D02*
X74583826Y-81737247D01*
X74583826Y-81737247D02*
X74536207Y-81927723D01*
X74536207Y-81927723D02*
X74488588Y-82022961D01*
X74488588Y-82022961D02*
X74393350Y-82118200D01*
X74393350Y-82118200D02*
X74250493Y-82165819D01*
X74250493Y-82165819D02*
X74012398Y-82165819D01*
X72583922Y-78625819D02*
X72917255Y-79625819D01*
X72917255Y-79625819D02*
X73250588Y-78625819D01*
X73583922Y-79625819D02*
X73583922Y-78625819D01*
X74060112Y-79625819D02*
X74060112Y-78625819D01*
X74060112Y-78625819D02*
X74631540Y-79625819D01*
X74631540Y-79625819D02*
X74631540Y-78625819D01*
X126858095Y-129004819D02*
X126858095Y-128004819D01*
X126858095Y-128481009D02*
X127429523Y-128481009D01*
X127429523Y-129004819D02*
X127429523Y-128004819D01*
X128334285Y-128338152D02*
X128334285Y-129004819D01*
X128096190Y-127957200D02*
X127858095Y-128671485D01*
X127858095Y-128671485D02*
X128477142Y-128671485D01*
X74818095Y-129004819D02*
X74818095Y-128004819D01*
X74818095Y-128481009D02*
X75389523Y-128481009D01*
X75389523Y-129004819D02*
X75389523Y-128004819D01*
X75770476Y-128004819D02*
X76389523Y-128004819D01*
X76389523Y-128004819D02*
X76056190Y-128385771D01*
X76056190Y-128385771D02*
X76199047Y-128385771D01*
X76199047Y-128385771D02*
X76294285Y-128433390D01*
X76294285Y-128433390D02*
X76341904Y-128481009D01*
X76341904Y-128481009D02*
X76389523Y-128576247D01*
X76389523Y-128576247D02*
X76389523Y-128814342D01*
X76389523Y-128814342D02*
X76341904Y-128909580D01*
X76341904Y-128909580D02*
X76294285Y-128957200D01*
X76294285Y-128957200D02*
X76199047Y-129004819D01*
X76199047Y-129004819D02*
X75913333Y-129004819D01*
X75913333Y-129004819D02*
X75818095Y-128957200D01*
X75818095Y-128957200D02*
X75770476Y-128909580D01*
X126858095Y-66804819D02*
X126858095Y-65804819D01*
X126858095Y-66281009D02*
X127429523Y-66281009D01*
X127429523Y-66804819D02*
X127429523Y-65804819D01*
X127858095Y-65900057D02*
X127905714Y-65852438D01*
X127905714Y-65852438D02*
X128000952Y-65804819D01*
X128000952Y-65804819D02*
X128239047Y-65804819D01*
X128239047Y-65804819D02*
X128334285Y-65852438D01*
X128334285Y-65852438D02*
X128381904Y-65900057D01*
X128381904Y-65900057D02*
X128429523Y-65995295D01*
X128429523Y-65995295D02*
X128429523Y-66090533D01*
X128429523Y-66090533D02*
X128381904Y-66233390D01*
X128381904Y-66233390D02*
X127810476Y-66804819D01*
X127810476Y-66804819D02*
X128429523Y-66804819D01*
X74818095Y-66804819D02*
X74818095Y-65804819D01*
X74818095Y-66281009D02*
X75389523Y-66281009D01*
X75389523Y-66804819D02*
X75389523Y-65804819D01*
X76389523Y-66804819D02*
X75818095Y-66804819D01*
X76103809Y-66804819D02*
X76103809Y-65804819D01*
X76103809Y-65804819D02*
X76008571Y-65947676D01*
X76008571Y-65947676D02*
X75913333Y-66042914D01*
X75913333Y-66042914D02*
X75818095Y-66090533D01*
X91049922Y-85675819D02*
X91383255Y-86675819D01*
X91383255Y-86675819D02*
X91716588Y-85675819D01*
X92049922Y-86675819D02*
X92049922Y-85675819D01*
X92526112Y-86675819D02*
X92526112Y-85675819D01*
X92526112Y-85675819D02*
X93097540Y-86675819D01*
X93097540Y-86675819D02*
X93097540Y-85675819D01*
X91145160Y-106694200D02*
X91288017Y-106741819D01*
X91288017Y-106741819D02*
X91526112Y-106741819D01*
X91526112Y-106741819D02*
X91621350Y-106694200D01*
X91621350Y-106694200D02*
X91668969Y-106646580D01*
X91668969Y-106646580D02*
X91716588Y-106551342D01*
X91716588Y-106551342D02*
X91716588Y-106456104D01*
X91716588Y-106456104D02*
X91668969Y-106360866D01*
X91668969Y-106360866D02*
X91621350Y-106313247D01*
X91621350Y-106313247D02*
X91526112Y-106265628D01*
X91526112Y-106265628D02*
X91335636Y-106218009D01*
X91335636Y-106218009D02*
X91240398Y-106170390D01*
X91240398Y-106170390D02*
X91192779Y-106122771D01*
X91192779Y-106122771D02*
X91145160Y-106027533D01*
X91145160Y-106027533D02*
X91145160Y-105932295D01*
X91145160Y-105932295D02*
X91192779Y-105837057D01*
X91192779Y-105837057D02*
X91240398Y-105789438D01*
X91240398Y-105789438D02*
X91335636Y-105741819D01*
X91335636Y-105741819D02*
X91573731Y-105741819D01*
X91573731Y-105741819D02*
X91716588Y-105789438D01*
X92145160Y-106741819D02*
X92145160Y-105741819D01*
X92145160Y-105741819D02*
X92383255Y-105741819D01*
X92383255Y-105741819D02*
X92526112Y-105789438D01*
X92526112Y-105789438D02*
X92621350Y-105884676D01*
X92621350Y-105884676D02*
X92668969Y-105979914D01*
X92668969Y-105979914D02*
X92716588Y-106170390D01*
X92716588Y-106170390D02*
X92716588Y-106313247D01*
X92716588Y-106313247D02*
X92668969Y-106503723D01*
X92668969Y-106503723D02*
X92621350Y-106598961D01*
X92621350Y-106598961D02*
X92526112Y-106694200D01*
X92526112Y-106694200D02*
X92383255Y-106741819D01*
X92383255Y-106741819D02*
X92145160Y-106741819D01*
X93335636Y-105741819D02*
X93430874Y-105741819D01*
X93430874Y-105741819D02*
X93526112Y-105789438D01*
X93526112Y-105789438D02*
X93573731Y-105837057D01*
X93573731Y-105837057D02*
X93621350Y-105932295D01*
X93621350Y-105932295D02*
X93668969Y-106122771D01*
X93668969Y-106122771D02*
X93668969Y-106360866D01*
X93668969Y-106360866D02*
X93621350Y-106551342D01*
X93621350Y-106551342D02*
X93573731Y-106646580D01*
X93573731Y-106646580D02*
X93526112Y-106694200D01*
X93526112Y-106694200D02*
X93430874Y-106741819D01*
X93430874Y-106741819D02*
X93335636Y-106741819D01*
X93335636Y-106741819D02*
X93240398Y-106694200D01*
X93240398Y-106694200D02*
X93192779Y-106646580D01*
X93192779Y-106646580D02*
X93145160Y-106551342D01*
X93145160Y-106551342D02*
X93097541Y-106360866D01*
X93097541Y-106360866D02*
X93097541Y-106122771D01*
X93097541Y-106122771D02*
X93145160Y-105932295D01*
X93145160Y-105932295D02*
X93192779Y-105837057D01*
X93192779Y-105837057D02*
X93240398Y-105789438D01*
X93240398Y-105789438D02*
X93335636Y-105741819D01*
X106385160Y-91708200D02*
X106528017Y-91755819D01*
X106528017Y-91755819D02*
X106766112Y-91755819D01*
X106766112Y-91755819D02*
X106861350Y-91708200D01*
X106861350Y-91708200D02*
X106908969Y-91660580D01*
X106908969Y-91660580D02*
X106956588Y-91565342D01*
X106956588Y-91565342D02*
X106956588Y-91470104D01*
X106956588Y-91470104D02*
X106908969Y-91374866D01*
X106908969Y-91374866D02*
X106861350Y-91327247D01*
X106861350Y-91327247D02*
X106766112Y-91279628D01*
X106766112Y-91279628D02*
X106575636Y-91232009D01*
X106575636Y-91232009D02*
X106480398Y-91184390D01*
X106480398Y-91184390D02*
X106432779Y-91136771D01*
X106432779Y-91136771D02*
X106385160Y-91041533D01*
X106385160Y-91041533D02*
X106385160Y-90946295D01*
X106385160Y-90946295D02*
X106432779Y-90851057D01*
X106432779Y-90851057D02*
X106480398Y-90803438D01*
X106480398Y-90803438D02*
X106575636Y-90755819D01*
X106575636Y-90755819D02*
X106813731Y-90755819D01*
X106813731Y-90755819D02*
X106956588Y-90803438D01*
X107956588Y-91660580D02*
X107908969Y-91708200D01*
X107908969Y-91708200D02*
X107766112Y-91755819D01*
X107766112Y-91755819D02*
X107670874Y-91755819D01*
X107670874Y-91755819D02*
X107528017Y-91708200D01*
X107528017Y-91708200D02*
X107432779Y-91612961D01*
X107432779Y-91612961D02*
X107385160Y-91517723D01*
X107385160Y-91517723D02*
X107337541Y-91327247D01*
X107337541Y-91327247D02*
X107337541Y-91184390D01*
X107337541Y-91184390D02*
X107385160Y-90993914D01*
X107385160Y-90993914D02*
X107432779Y-90898676D01*
X107432779Y-90898676D02*
X107528017Y-90803438D01*
X107528017Y-90803438D02*
X107670874Y-90755819D01*
X107670874Y-90755819D02*
X107766112Y-90755819D01*
X107766112Y-90755819D02*
X107908969Y-90803438D01*
X107908969Y-90803438D02*
X107956588Y-90851057D01*
X108813731Y-90755819D02*
X108623255Y-90755819D01*
X108623255Y-90755819D02*
X108528017Y-90803438D01*
X108528017Y-90803438D02*
X108480398Y-90851057D01*
X108480398Y-90851057D02*
X108385160Y-90993914D01*
X108385160Y-90993914D02*
X108337541Y-91184390D01*
X108337541Y-91184390D02*
X108337541Y-91565342D01*
X108337541Y-91565342D02*
X108385160Y-91660580D01*
X108385160Y-91660580D02*
X108432779Y-91708200D01*
X108432779Y-91708200D02*
X108528017Y-91755819D01*
X108528017Y-91755819D02*
X108718493Y-91755819D01*
X108718493Y-91755819D02*
X108813731Y-91708200D01*
X108813731Y-91708200D02*
X108861350Y-91660580D01*
X108861350Y-91660580D02*
X108908969Y-91565342D01*
X108908969Y-91565342D02*
X108908969Y-91327247D01*
X108908969Y-91327247D02*
X108861350Y-91232009D01*
X108861350Y-91232009D02*
X108813731Y-91184390D01*
X108813731Y-91184390D02*
X108718493Y-91136771D01*
X108718493Y-91136771D02*
X108528017Y-91136771D01*
X108528017Y-91136771D02*
X108432779Y-91184390D01*
X108432779Y-91184390D02*
X108385160Y-91232009D01*
X108385160Y-91232009D02*
X108337541Y-91327247D01*
X106385160Y-96788200D02*
X106528017Y-96835819D01*
X106528017Y-96835819D02*
X106766112Y-96835819D01*
X106766112Y-96835819D02*
X106861350Y-96788200D01*
X106861350Y-96788200D02*
X106908969Y-96740580D01*
X106908969Y-96740580D02*
X106956588Y-96645342D01*
X106956588Y-96645342D02*
X106956588Y-96550104D01*
X106956588Y-96550104D02*
X106908969Y-96454866D01*
X106908969Y-96454866D02*
X106861350Y-96407247D01*
X106861350Y-96407247D02*
X106766112Y-96359628D01*
X106766112Y-96359628D02*
X106575636Y-96312009D01*
X106575636Y-96312009D02*
X106480398Y-96264390D01*
X106480398Y-96264390D02*
X106432779Y-96216771D01*
X106432779Y-96216771D02*
X106385160Y-96121533D01*
X106385160Y-96121533D02*
X106385160Y-96026295D01*
X106385160Y-96026295D02*
X106432779Y-95931057D01*
X106432779Y-95931057D02*
X106480398Y-95883438D01*
X106480398Y-95883438D02*
X106575636Y-95835819D01*
X106575636Y-95835819D02*
X106813731Y-95835819D01*
X106813731Y-95835819D02*
X106956588Y-95883438D01*
X107956588Y-96740580D02*
X107908969Y-96788200D01*
X107908969Y-96788200D02*
X107766112Y-96835819D01*
X107766112Y-96835819D02*
X107670874Y-96835819D01*
X107670874Y-96835819D02*
X107528017Y-96788200D01*
X107528017Y-96788200D02*
X107432779Y-96692961D01*
X107432779Y-96692961D02*
X107385160Y-96597723D01*
X107385160Y-96597723D02*
X107337541Y-96407247D01*
X107337541Y-96407247D02*
X107337541Y-96264390D01*
X107337541Y-96264390D02*
X107385160Y-96073914D01*
X107385160Y-96073914D02*
X107432779Y-95978676D01*
X107432779Y-95978676D02*
X107528017Y-95883438D01*
X107528017Y-95883438D02*
X107670874Y-95835819D01*
X107670874Y-95835819D02*
X107766112Y-95835819D01*
X107766112Y-95835819D02*
X107908969Y-95883438D01*
X107908969Y-95883438D02*
X107956588Y-95931057D01*
X108861350Y-95835819D02*
X108385160Y-95835819D01*
X108385160Y-95835819D02*
X108337541Y-96312009D01*
X108337541Y-96312009D02*
X108385160Y-96264390D01*
X108385160Y-96264390D02*
X108480398Y-96216771D01*
X108480398Y-96216771D02*
X108718493Y-96216771D01*
X108718493Y-96216771D02*
X108813731Y-96264390D01*
X108813731Y-96264390D02*
X108861350Y-96312009D01*
X108861350Y-96312009D02*
X108908969Y-96407247D01*
X108908969Y-96407247D02*
X108908969Y-96645342D01*
X108908969Y-96645342D02*
X108861350Y-96740580D01*
X108861350Y-96740580D02*
X108813731Y-96788200D01*
X108813731Y-96788200D02*
X108718493Y-96835819D01*
X108718493Y-96835819D02*
X108480398Y-96835819D01*
X108480398Y-96835819D02*
X108385160Y-96788200D01*
X108385160Y-96788200D02*
X108337541Y-96740580D01*
X91145160Y-101376104D02*
X91621350Y-101376104D01*
X91049922Y-101661819D02*
X91383255Y-100661819D01*
X91383255Y-100661819D02*
X91716588Y-101661819D01*
X92573731Y-101661819D02*
X92002303Y-101661819D01*
X92288017Y-101661819D02*
X92288017Y-100661819D01*
X92288017Y-100661819D02*
X92192779Y-100804676D01*
X92192779Y-100804676D02*
X92097541Y-100899914D01*
X92097541Y-100899914D02*
X92002303Y-100947533D01*
X91145160Y-103916104D02*
X91621350Y-103916104D01*
X91049922Y-104201819D02*
X91383255Y-103201819D01*
X91383255Y-103201819D02*
X91716588Y-104201819D01*
X92002303Y-103297057D02*
X92049922Y-103249438D01*
X92049922Y-103249438D02*
X92145160Y-103201819D01*
X92145160Y-103201819D02*
X92383255Y-103201819D01*
X92383255Y-103201819D02*
X92478493Y-103249438D01*
X92478493Y-103249438D02*
X92526112Y-103297057D01*
X92526112Y-103297057D02*
X92573731Y-103392295D01*
X92573731Y-103392295D02*
X92573731Y-103487533D01*
X92573731Y-103487533D02*
X92526112Y-103630390D01*
X92526112Y-103630390D02*
X91954684Y-104201819D01*
X91954684Y-104201819D02*
X92573731Y-104201819D01*
X91716588Y-88009438D02*
X91621350Y-87961819D01*
X91621350Y-87961819D02*
X91478493Y-87961819D01*
X91478493Y-87961819D02*
X91335636Y-88009438D01*
X91335636Y-88009438D02*
X91240398Y-88104676D01*
X91240398Y-88104676D02*
X91192779Y-88199914D01*
X91192779Y-88199914D02*
X91145160Y-88390390D01*
X91145160Y-88390390D02*
X91145160Y-88533247D01*
X91145160Y-88533247D02*
X91192779Y-88723723D01*
X91192779Y-88723723D02*
X91240398Y-88818961D01*
X91240398Y-88818961D02*
X91335636Y-88914200D01*
X91335636Y-88914200D02*
X91478493Y-88961819D01*
X91478493Y-88961819D02*
X91573731Y-88961819D01*
X91573731Y-88961819D02*
X91716588Y-88914200D01*
X91716588Y-88914200D02*
X91764207Y-88866580D01*
X91764207Y-88866580D02*
X91764207Y-88533247D01*
X91764207Y-88533247D02*
X91573731Y-88533247D01*
X92192779Y-88961819D02*
X92192779Y-87961819D01*
X92192779Y-87961819D02*
X92764207Y-88961819D01*
X92764207Y-88961819D02*
X92764207Y-87961819D01*
X93240398Y-88961819D02*
X93240398Y-87961819D01*
X93240398Y-87961819D02*
X93478493Y-87961819D01*
X93478493Y-87961819D02*
X93621350Y-88009438D01*
X93621350Y-88009438D02*
X93716588Y-88104676D01*
X93716588Y-88104676D02*
X93764207Y-88199914D01*
X93764207Y-88199914D02*
X93811826Y-88390390D01*
X93811826Y-88390390D02*
X93811826Y-88533247D01*
X93811826Y-88533247D02*
X93764207Y-88723723D01*
X93764207Y-88723723D02*
X93716588Y-88818961D01*
X93716588Y-88818961D02*
X93621350Y-88914200D01*
X93621350Y-88914200D02*
X93478493Y-88961819D01*
X93478493Y-88961819D02*
X93240398Y-88961819D01*
X91145160Y-111774200D02*
X91288017Y-111821819D01*
X91288017Y-111821819D02*
X91526112Y-111821819D01*
X91526112Y-111821819D02*
X91621350Y-111774200D01*
X91621350Y-111774200D02*
X91668969Y-111726580D01*
X91668969Y-111726580D02*
X91716588Y-111631342D01*
X91716588Y-111631342D02*
X91716588Y-111536104D01*
X91716588Y-111536104D02*
X91668969Y-111440866D01*
X91668969Y-111440866D02*
X91621350Y-111393247D01*
X91621350Y-111393247D02*
X91526112Y-111345628D01*
X91526112Y-111345628D02*
X91335636Y-111298009D01*
X91335636Y-111298009D02*
X91240398Y-111250390D01*
X91240398Y-111250390D02*
X91192779Y-111202771D01*
X91192779Y-111202771D02*
X91145160Y-111107533D01*
X91145160Y-111107533D02*
X91145160Y-111012295D01*
X91145160Y-111012295D02*
X91192779Y-110917057D01*
X91192779Y-110917057D02*
X91240398Y-110869438D01*
X91240398Y-110869438D02*
X91335636Y-110821819D01*
X91335636Y-110821819D02*
X91573731Y-110821819D01*
X91573731Y-110821819D02*
X91716588Y-110869438D01*
X92145160Y-111821819D02*
X92145160Y-110821819D01*
X92145160Y-110821819D02*
X92383255Y-110821819D01*
X92383255Y-110821819D02*
X92526112Y-110869438D01*
X92526112Y-110869438D02*
X92621350Y-110964676D01*
X92621350Y-110964676D02*
X92668969Y-111059914D01*
X92668969Y-111059914D02*
X92716588Y-111250390D01*
X92716588Y-111250390D02*
X92716588Y-111393247D01*
X92716588Y-111393247D02*
X92668969Y-111583723D01*
X92668969Y-111583723D02*
X92621350Y-111678961D01*
X92621350Y-111678961D02*
X92526112Y-111774200D01*
X92526112Y-111774200D02*
X92383255Y-111821819D01*
X92383255Y-111821819D02*
X92145160Y-111821819D01*
X93668969Y-111821819D02*
X93097541Y-111821819D01*
X93383255Y-111821819D02*
X93383255Y-110821819D01*
X93383255Y-110821819D02*
X93288017Y-110964676D01*
X93288017Y-110964676D02*
X93192779Y-111059914D01*
X93192779Y-111059914D02*
X93097541Y-111107533D01*
X106385160Y-104408200D02*
X106528017Y-104455819D01*
X106528017Y-104455819D02*
X106766112Y-104455819D01*
X106766112Y-104455819D02*
X106861350Y-104408200D01*
X106861350Y-104408200D02*
X106908969Y-104360580D01*
X106908969Y-104360580D02*
X106956588Y-104265342D01*
X106956588Y-104265342D02*
X106956588Y-104170104D01*
X106956588Y-104170104D02*
X106908969Y-104074866D01*
X106908969Y-104074866D02*
X106861350Y-104027247D01*
X106861350Y-104027247D02*
X106766112Y-103979628D01*
X106766112Y-103979628D02*
X106575636Y-103932009D01*
X106575636Y-103932009D02*
X106480398Y-103884390D01*
X106480398Y-103884390D02*
X106432779Y-103836771D01*
X106432779Y-103836771D02*
X106385160Y-103741533D01*
X106385160Y-103741533D02*
X106385160Y-103646295D01*
X106385160Y-103646295D02*
X106432779Y-103551057D01*
X106432779Y-103551057D02*
X106480398Y-103503438D01*
X106480398Y-103503438D02*
X106575636Y-103455819D01*
X106575636Y-103455819D02*
X106813731Y-103455819D01*
X106813731Y-103455819D02*
X106956588Y-103503438D01*
X107385160Y-104455819D02*
X107385160Y-103455819D01*
X107385160Y-103455819D02*
X107623255Y-103455819D01*
X107623255Y-103455819D02*
X107766112Y-103503438D01*
X107766112Y-103503438D02*
X107861350Y-103598676D01*
X107861350Y-103598676D02*
X107908969Y-103693914D01*
X107908969Y-103693914D02*
X107956588Y-103884390D01*
X107956588Y-103884390D02*
X107956588Y-104027247D01*
X107956588Y-104027247D02*
X107908969Y-104217723D01*
X107908969Y-104217723D02*
X107861350Y-104312961D01*
X107861350Y-104312961D02*
X107766112Y-104408200D01*
X107766112Y-104408200D02*
X107623255Y-104455819D01*
X107623255Y-104455819D02*
X107385160Y-104455819D01*
X108813731Y-103789152D02*
X108813731Y-104455819D01*
X108575636Y-103408200D02*
X108337541Y-104122485D01*
X108337541Y-104122485D02*
X108956588Y-104122485D01*
X91145160Y-109488200D02*
X91288017Y-109535819D01*
X91288017Y-109535819D02*
X91526112Y-109535819D01*
X91526112Y-109535819D02*
X91621350Y-109488200D01*
X91621350Y-109488200D02*
X91668969Y-109440580D01*
X91668969Y-109440580D02*
X91716588Y-109345342D01*
X91716588Y-109345342D02*
X91716588Y-109250104D01*
X91716588Y-109250104D02*
X91668969Y-109154866D01*
X91668969Y-109154866D02*
X91621350Y-109107247D01*
X91621350Y-109107247D02*
X91526112Y-109059628D01*
X91526112Y-109059628D02*
X91335636Y-109012009D01*
X91335636Y-109012009D02*
X91240398Y-108964390D01*
X91240398Y-108964390D02*
X91192779Y-108916771D01*
X91192779Y-108916771D02*
X91145160Y-108821533D01*
X91145160Y-108821533D02*
X91145160Y-108726295D01*
X91145160Y-108726295D02*
X91192779Y-108631057D01*
X91192779Y-108631057D02*
X91240398Y-108583438D01*
X91240398Y-108583438D02*
X91335636Y-108535819D01*
X91335636Y-108535819D02*
X91573731Y-108535819D01*
X91573731Y-108535819D02*
X91716588Y-108583438D01*
X92716588Y-109440580D02*
X92668969Y-109488200D01*
X92668969Y-109488200D02*
X92526112Y-109535819D01*
X92526112Y-109535819D02*
X92430874Y-109535819D01*
X92430874Y-109535819D02*
X92288017Y-109488200D01*
X92288017Y-109488200D02*
X92192779Y-109392961D01*
X92192779Y-109392961D02*
X92145160Y-109297723D01*
X92145160Y-109297723D02*
X92097541Y-109107247D01*
X92097541Y-109107247D02*
X92097541Y-108964390D01*
X92097541Y-108964390D02*
X92145160Y-108773914D01*
X92145160Y-108773914D02*
X92192779Y-108678676D01*
X92192779Y-108678676D02*
X92288017Y-108583438D01*
X92288017Y-108583438D02*
X92430874Y-108535819D01*
X92430874Y-108535819D02*
X92526112Y-108535819D01*
X92526112Y-108535819D02*
X92668969Y-108583438D01*
X92668969Y-108583438D02*
X92716588Y-108631057D01*
X93335636Y-108535819D02*
X93430874Y-108535819D01*
X93430874Y-108535819D02*
X93526112Y-108583438D01*
X93526112Y-108583438D02*
X93573731Y-108631057D01*
X93573731Y-108631057D02*
X93621350Y-108726295D01*
X93621350Y-108726295D02*
X93668969Y-108916771D01*
X93668969Y-108916771D02*
X93668969Y-109154866D01*
X93668969Y-109154866D02*
X93621350Y-109345342D01*
X93621350Y-109345342D02*
X93573731Y-109440580D01*
X93573731Y-109440580D02*
X93526112Y-109488200D01*
X93526112Y-109488200D02*
X93430874Y-109535819D01*
X93430874Y-109535819D02*
X93335636Y-109535819D01*
X93335636Y-109535819D02*
X93240398Y-109488200D01*
X93240398Y-109488200D02*
X93192779Y-109440580D01*
X93192779Y-109440580D02*
X93145160Y-109345342D01*
X93145160Y-109345342D02*
X93097541Y-109154866D01*
X93097541Y-109154866D02*
X93097541Y-108916771D01*
X93097541Y-108916771D02*
X93145160Y-108726295D01*
X93145160Y-108726295D02*
X93192779Y-108631057D01*
X93192779Y-108631057D02*
X93240398Y-108583438D01*
X93240398Y-108583438D02*
X93335636Y-108535819D01*
X106385160Y-112028200D02*
X106528017Y-112075819D01*
X106528017Y-112075819D02*
X106766112Y-112075819D01*
X106766112Y-112075819D02*
X106861350Y-112028200D01*
X106861350Y-112028200D02*
X106908969Y-111980580D01*
X106908969Y-111980580D02*
X106956588Y-111885342D01*
X106956588Y-111885342D02*
X106956588Y-111790104D01*
X106956588Y-111790104D02*
X106908969Y-111694866D01*
X106908969Y-111694866D02*
X106861350Y-111647247D01*
X106861350Y-111647247D02*
X106766112Y-111599628D01*
X106766112Y-111599628D02*
X106575636Y-111552009D01*
X106575636Y-111552009D02*
X106480398Y-111504390D01*
X106480398Y-111504390D02*
X106432779Y-111456771D01*
X106432779Y-111456771D02*
X106385160Y-111361533D01*
X106385160Y-111361533D02*
X106385160Y-111266295D01*
X106385160Y-111266295D02*
X106432779Y-111171057D01*
X106432779Y-111171057D02*
X106480398Y-111123438D01*
X106480398Y-111123438D02*
X106575636Y-111075819D01*
X106575636Y-111075819D02*
X106813731Y-111075819D01*
X106813731Y-111075819D02*
X106956588Y-111123438D01*
X107956588Y-111980580D02*
X107908969Y-112028200D01*
X107908969Y-112028200D02*
X107766112Y-112075819D01*
X107766112Y-112075819D02*
X107670874Y-112075819D01*
X107670874Y-112075819D02*
X107528017Y-112028200D01*
X107528017Y-112028200D02*
X107432779Y-111932961D01*
X107432779Y-111932961D02*
X107385160Y-111837723D01*
X107385160Y-111837723D02*
X107337541Y-111647247D01*
X107337541Y-111647247D02*
X107337541Y-111504390D01*
X107337541Y-111504390D02*
X107385160Y-111313914D01*
X107385160Y-111313914D02*
X107432779Y-111218676D01*
X107432779Y-111218676D02*
X107528017Y-111123438D01*
X107528017Y-111123438D02*
X107670874Y-111075819D01*
X107670874Y-111075819D02*
X107766112Y-111075819D01*
X107766112Y-111075819D02*
X107908969Y-111123438D01*
X107908969Y-111123438D02*
X107956588Y-111171057D01*
X108337541Y-111171057D02*
X108385160Y-111123438D01*
X108385160Y-111123438D02*
X108480398Y-111075819D01*
X108480398Y-111075819D02*
X108718493Y-111075819D01*
X108718493Y-111075819D02*
X108813731Y-111123438D01*
X108813731Y-111123438D02*
X108861350Y-111171057D01*
X108861350Y-111171057D02*
X108908969Y-111266295D01*
X108908969Y-111266295D02*
X108908969Y-111361533D01*
X108908969Y-111361533D02*
X108861350Y-111504390D01*
X108861350Y-111504390D02*
X108289922Y-112075819D01*
X108289922Y-112075819D02*
X108908969Y-112075819D01*
X91145160Y-93994200D02*
X91288017Y-94041819D01*
X91288017Y-94041819D02*
X91526112Y-94041819D01*
X91526112Y-94041819D02*
X91621350Y-93994200D01*
X91621350Y-93994200D02*
X91668969Y-93946580D01*
X91668969Y-93946580D02*
X91716588Y-93851342D01*
X91716588Y-93851342D02*
X91716588Y-93756104D01*
X91716588Y-93756104D02*
X91668969Y-93660866D01*
X91668969Y-93660866D02*
X91621350Y-93613247D01*
X91621350Y-93613247D02*
X91526112Y-93565628D01*
X91526112Y-93565628D02*
X91335636Y-93518009D01*
X91335636Y-93518009D02*
X91240398Y-93470390D01*
X91240398Y-93470390D02*
X91192779Y-93422771D01*
X91192779Y-93422771D02*
X91145160Y-93327533D01*
X91145160Y-93327533D02*
X91145160Y-93232295D01*
X91145160Y-93232295D02*
X91192779Y-93137057D01*
X91192779Y-93137057D02*
X91240398Y-93089438D01*
X91240398Y-93089438D02*
X91335636Y-93041819D01*
X91335636Y-93041819D02*
X91573731Y-93041819D01*
X91573731Y-93041819D02*
X91716588Y-93089438D01*
X92716588Y-93946580D02*
X92668969Y-93994200D01*
X92668969Y-93994200D02*
X92526112Y-94041819D01*
X92526112Y-94041819D02*
X92430874Y-94041819D01*
X92430874Y-94041819D02*
X92288017Y-93994200D01*
X92288017Y-93994200D02*
X92192779Y-93898961D01*
X92192779Y-93898961D02*
X92145160Y-93803723D01*
X92145160Y-93803723D02*
X92097541Y-93613247D01*
X92097541Y-93613247D02*
X92097541Y-93470390D01*
X92097541Y-93470390D02*
X92145160Y-93279914D01*
X92145160Y-93279914D02*
X92192779Y-93184676D01*
X92192779Y-93184676D02*
X92288017Y-93089438D01*
X92288017Y-93089438D02*
X92430874Y-93041819D01*
X92430874Y-93041819D02*
X92526112Y-93041819D01*
X92526112Y-93041819D02*
X92668969Y-93089438D01*
X92668969Y-93089438D02*
X92716588Y-93137057D01*
X93621350Y-94041819D02*
X93145160Y-94041819D01*
X93145160Y-94041819D02*
X93145160Y-93041819D01*
X106385160Y-106948200D02*
X106528017Y-106995819D01*
X106528017Y-106995819D02*
X106766112Y-106995819D01*
X106766112Y-106995819D02*
X106861350Y-106948200D01*
X106861350Y-106948200D02*
X106908969Y-106900580D01*
X106908969Y-106900580D02*
X106956588Y-106805342D01*
X106956588Y-106805342D02*
X106956588Y-106710104D01*
X106956588Y-106710104D02*
X106908969Y-106614866D01*
X106908969Y-106614866D02*
X106861350Y-106567247D01*
X106861350Y-106567247D02*
X106766112Y-106519628D01*
X106766112Y-106519628D02*
X106575636Y-106472009D01*
X106575636Y-106472009D02*
X106480398Y-106424390D01*
X106480398Y-106424390D02*
X106432779Y-106376771D01*
X106432779Y-106376771D02*
X106385160Y-106281533D01*
X106385160Y-106281533D02*
X106385160Y-106186295D01*
X106385160Y-106186295D02*
X106432779Y-106091057D01*
X106432779Y-106091057D02*
X106480398Y-106043438D01*
X106480398Y-106043438D02*
X106575636Y-105995819D01*
X106575636Y-105995819D02*
X106813731Y-105995819D01*
X106813731Y-105995819D02*
X106956588Y-106043438D01*
X107956588Y-106900580D02*
X107908969Y-106948200D01*
X107908969Y-106948200D02*
X107766112Y-106995819D01*
X107766112Y-106995819D02*
X107670874Y-106995819D01*
X107670874Y-106995819D02*
X107528017Y-106948200D01*
X107528017Y-106948200D02*
X107432779Y-106852961D01*
X107432779Y-106852961D02*
X107385160Y-106757723D01*
X107385160Y-106757723D02*
X107337541Y-106567247D01*
X107337541Y-106567247D02*
X107337541Y-106424390D01*
X107337541Y-106424390D02*
X107385160Y-106233914D01*
X107385160Y-106233914D02*
X107432779Y-106138676D01*
X107432779Y-106138676D02*
X107528017Y-106043438D01*
X107528017Y-106043438D02*
X107670874Y-105995819D01*
X107670874Y-105995819D02*
X107766112Y-105995819D01*
X107766112Y-105995819D02*
X107908969Y-106043438D01*
X107908969Y-106043438D02*
X107956588Y-106091057D01*
X108289922Y-105995819D02*
X108908969Y-105995819D01*
X108908969Y-105995819D02*
X108575636Y-106376771D01*
X108575636Y-106376771D02*
X108718493Y-106376771D01*
X108718493Y-106376771D02*
X108813731Y-106424390D01*
X108813731Y-106424390D02*
X108861350Y-106472009D01*
X108861350Y-106472009D02*
X108908969Y-106567247D01*
X108908969Y-106567247D02*
X108908969Y-106805342D01*
X108908969Y-106805342D02*
X108861350Y-106900580D01*
X108861350Y-106900580D02*
X108813731Y-106948200D01*
X108813731Y-106948200D02*
X108718493Y-106995819D01*
X108718493Y-106995819D02*
X108432779Y-106995819D01*
X108432779Y-106995819D02*
X108337541Y-106948200D01*
X108337541Y-106948200D02*
X108289922Y-106900580D01*
X106385160Y-94248200D02*
X106528017Y-94295819D01*
X106528017Y-94295819D02*
X106766112Y-94295819D01*
X106766112Y-94295819D02*
X106861350Y-94248200D01*
X106861350Y-94248200D02*
X106908969Y-94200580D01*
X106908969Y-94200580D02*
X106956588Y-94105342D01*
X106956588Y-94105342D02*
X106956588Y-94010104D01*
X106956588Y-94010104D02*
X106908969Y-93914866D01*
X106908969Y-93914866D02*
X106861350Y-93867247D01*
X106861350Y-93867247D02*
X106766112Y-93819628D01*
X106766112Y-93819628D02*
X106575636Y-93772009D01*
X106575636Y-93772009D02*
X106480398Y-93724390D01*
X106480398Y-93724390D02*
X106432779Y-93676771D01*
X106432779Y-93676771D02*
X106385160Y-93581533D01*
X106385160Y-93581533D02*
X106385160Y-93486295D01*
X106385160Y-93486295D02*
X106432779Y-93391057D01*
X106432779Y-93391057D02*
X106480398Y-93343438D01*
X106480398Y-93343438D02*
X106575636Y-93295819D01*
X106575636Y-93295819D02*
X106813731Y-93295819D01*
X106813731Y-93295819D02*
X106956588Y-93343438D01*
X107385160Y-94295819D02*
X107385160Y-93295819D01*
X107385160Y-93295819D02*
X107623255Y-93295819D01*
X107623255Y-93295819D02*
X107766112Y-93343438D01*
X107766112Y-93343438D02*
X107861350Y-93438676D01*
X107861350Y-93438676D02*
X107908969Y-93533914D01*
X107908969Y-93533914D02*
X107956588Y-93724390D01*
X107956588Y-93724390D02*
X107956588Y-93867247D01*
X107956588Y-93867247D02*
X107908969Y-94057723D01*
X107908969Y-94057723D02*
X107861350Y-94152961D01*
X107861350Y-94152961D02*
X107766112Y-94248200D01*
X107766112Y-94248200D02*
X107623255Y-94295819D01*
X107623255Y-94295819D02*
X107385160Y-94295819D01*
X108813731Y-93295819D02*
X108623255Y-93295819D01*
X108623255Y-93295819D02*
X108528017Y-93343438D01*
X108528017Y-93343438D02*
X108480398Y-93391057D01*
X108480398Y-93391057D02*
X108385160Y-93533914D01*
X108385160Y-93533914D02*
X108337541Y-93724390D01*
X108337541Y-93724390D02*
X108337541Y-94105342D01*
X108337541Y-94105342D02*
X108385160Y-94200580D01*
X108385160Y-94200580D02*
X108432779Y-94248200D01*
X108432779Y-94248200D02*
X108528017Y-94295819D01*
X108528017Y-94295819D02*
X108718493Y-94295819D01*
X108718493Y-94295819D02*
X108813731Y-94248200D01*
X108813731Y-94248200D02*
X108861350Y-94200580D01*
X108861350Y-94200580D02*
X108908969Y-94105342D01*
X108908969Y-94105342D02*
X108908969Y-93867247D01*
X108908969Y-93867247D02*
X108861350Y-93772009D01*
X108861350Y-93772009D02*
X108813731Y-93724390D01*
X108813731Y-93724390D02*
X108718493Y-93676771D01*
X108718493Y-93676771D02*
X108528017Y-93676771D01*
X108528017Y-93676771D02*
X108432779Y-93724390D01*
X108432779Y-93724390D02*
X108385160Y-93772009D01*
X108385160Y-93772009D02*
X108337541Y-93867247D01*
X106385160Y-89168200D02*
X106528017Y-89215819D01*
X106528017Y-89215819D02*
X106766112Y-89215819D01*
X106766112Y-89215819D02*
X106861350Y-89168200D01*
X106861350Y-89168200D02*
X106908969Y-89120580D01*
X106908969Y-89120580D02*
X106956588Y-89025342D01*
X106956588Y-89025342D02*
X106956588Y-88930104D01*
X106956588Y-88930104D02*
X106908969Y-88834866D01*
X106908969Y-88834866D02*
X106861350Y-88787247D01*
X106861350Y-88787247D02*
X106766112Y-88739628D01*
X106766112Y-88739628D02*
X106575636Y-88692009D01*
X106575636Y-88692009D02*
X106480398Y-88644390D01*
X106480398Y-88644390D02*
X106432779Y-88596771D01*
X106432779Y-88596771D02*
X106385160Y-88501533D01*
X106385160Y-88501533D02*
X106385160Y-88406295D01*
X106385160Y-88406295D02*
X106432779Y-88311057D01*
X106432779Y-88311057D02*
X106480398Y-88263438D01*
X106480398Y-88263438D02*
X106575636Y-88215819D01*
X106575636Y-88215819D02*
X106813731Y-88215819D01*
X106813731Y-88215819D02*
X106956588Y-88263438D01*
X107385160Y-89215819D02*
X107385160Y-88215819D01*
X107385160Y-88215819D02*
X107623255Y-88215819D01*
X107623255Y-88215819D02*
X107766112Y-88263438D01*
X107766112Y-88263438D02*
X107861350Y-88358676D01*
X107861350Y-88358676D02*
X107908969Y-88453914D01*
X107908969Y-88453914D02*
X107956588Y-88644390D01*
X107956588Y-88644390D02*
X107956588Y-88787247D01*
X107956588Y-88787247D02*
X107908969Y-88977723D01*
X107908969Y-88977723D02*
X107861350Y-89072961D01*
X107861350Y-89072961D02*
X107766112Y-89168200D01*
X107766112Y-89168200D02*
X107623255Y-89215819D01*
X107623255Y-89215819D02*
X107385160Y-89215819D01*
X108289922Y-88215819D02*
X108956588Y-88215819D01*
X108956588Y-88215819D02*
X108528017Y-89215819D01*
X106385160Y-109488200D02*
X106528017Y-109535819D01*
X106528017Y-109535819D02*
X106766112Y-109535819D01*
X106766112Y-109535819D02*
X106861350Y-109488200D01*
X106861350Y-109488200D02*
X106908969Y-109440580D01*
X106908969Y-109440580D02*
X106956588Y-109345342D01*
X106956588Y-109345342D02*
X106956588Y-109250104D01*
X106956588Y-109250104D02*
X106908969Y-109154866D01*
X106908969Y-109154866D02*
X106861350Y-109107247D01*
X106861350Y-109107247D02*
X106766112Y-109059628D01*
X106766112Y-109059628D02*
X106575636Y-109012009D01*
X106575636Y-109012009D02*
X106480398Y-108964390D01*
X106480398Y-108964390D02*
X106432779Y-108916771D01*
X106432779Y-108916771D02*
X106385160Y-108821533D01*
X106385160Y-108821533D02*
X106385160Y-108726295D01*
X106385160Y-108726295D02*
X106432779Y-108631057D01*
X106432779Y-108631057D02*
X106480398Y-108583438D01*
X106480398Y-108583438D02*
X106575636Y-108535819D01*
X106575636Y-108535819D02*
X106813731Y-108535819D01*
X106813731Y-108535819D02*
X106956588Y-108583438D01*
X107385160Y-109535819D02*
X107385160Y-108535819D01*
X107385160Y-108535819D02*
X107623255Y-108535819D01*
X107623255Y-108535819D02*
X107766112Y-108583438D01*
X107766112Y-108583438D02*
X107861350Y-108678676D01*
X107861350Y-108678676D02*
X107908969Y-108773914D01*
X107908969Y-108773914D02*
X107956588Y-108964390D01*
X107956588Y-108964390D02*
X107956588Y-109107247D01*
X107956588Y-109107247D02*
X107908969Y-109297723D01*
X107908969Y-109297723D02*
X107861350Y-109392961D01*
X107861350Y-109392961D02*
X107766112Y-109488200D01*
X107766112Y-109488200D02*
X107623255Y-109535819D01*
X107623255Y-109535819D02*
X107385160Y-109535819D01*
X108289922Y-108535819D02*
X108908969Y-108535819D01*
X108908969Y-108535819D02*
X108575636Y-108916771D01*
X108575636Y-108916771D02*
X108718493Y-108916771D01*
X108718493Y-108916771D02*
X108813731Y-108964390D01*
X108813731Y-108964390D02*
X108861350Y-109012009D01*
X108861350Y-109012009D02*
X108908969Y-109107247D01*
X108908969Y-109107247D02*
X108908969Y-109345342D01*
X108908969Y-109345342D02*
X108861350Y-109440580D01*
X108861350Y-109440580D02*
X108813731Y-109488200D01*
X108813731Y-109488200D02*
X108718493Y-109535819D01*
X108718493Y-109535819D02*
X108432779Y-109535819D01*
X108432779Y-109535819D02*
X108337541Y-109488200D01*
X108337541Y-109488200D02*
X108289922Y-109440580D01*
X91764207Y-96581819D02*
X91430874Y-96105628D01*
X91192779Y-96581819D02*
X91192779Y-95581819D01*
X91192779Y-95581819D02*
X91573731Y-95581819D01*
X91573731Y-95581819D02*
X91668969Y-95629438D01*
X91668969Y-95629438D02*
X91716588Y-95677057D01*
X91716588Y-95677057D02*
X91764207Y-95772295D01*
X91764207Y-95772295D02*
X91764207Y-95915152D01*
X91764207Y-95915152D02*
X91716588Y-96010390D01*
X91716588Y-96010390D02*
X91668969Y-96058009D01*
X91668969Y-96058009D02*
X91573731Y-96105628D01*
X91573731Y-96105628D02*
X91192779Y-96105628D01*
X92145160Y-96534200D02*
X92288017Y-96581819D01*
X92288017Y-96581819D02*
X92526112Y-96581819D01*
X92526112Y-96581819D02*
X92621350Y-96534200D01*
X92621350Y-96534200D02*
X92668969Y-96486580D01*
X92668969Y-96486580D02*
X92716588Y-96391342D01*
X92716588Y-96391342D02*
X92716588Y-96296104D01*
X92716588Y-96296104D02*
X92668969Y-96200866D01*
X92668969Y-96200866D02*
X92621350Y-96153247D01*
X92621350Y-96153247D02*
X92526112Y-96105628D01*
X92526112Y-96105628D02*
X92335636Y-96058009D01*
X92335636Y-96058009D02*
X92240398Y-96010390D01*
X92240398Y-96010390D02*
X92192779Y-95962771D01*
X92192779Y-95962771D02*
X92145160Y-95867533D01*
X92145160Y-95867533D02*
X92145160Y-95772295D01*
X92145160Y-95772295D02*
X92192779Y-95677057D01*
X92192779Y-95677057D02*
X92240398Y-95629438D01*
X92240398Y-95629438D02*
X92335636Y-95581819D01*
X92335636Y-95581819D02*
X92573731Y-95581819D01*
X92573731Y-95581819D02*
X92716588Y-95629438D01*
X93002303Y-95581819D02*
X93573731Y-95581819D01*
X93288017Y-96581819D02*
X93288017Y-95581819D01*
X106385160Y-86628200D02*
X106528017Y-86675819D01*
X106528017Y-86675819D02*
X106766112Y-86675819D01*
X106766112Y-86675819D02*
X106861350Y-86628200D01*
X106861350Y-86628200D02*
X106908969Y-86580580D01*
X106908969Y-86580580D02*
X106956588Y-86485342D01*
X106956588Y-86485342D02*
X106956588Y-86390104D01*
X106956588Y-86390104D02*
X106908969Y-86294866D01*
X106908969Y-86294866D02*
X106861350Y-86247247D01*
X106861350Y-86247247D02*
X106766112Y-86199628D01*
X106766112Y-86199628D02*
X106575636Y-86152009D01*
X106575636Y-86152009D02*
X106480398Y-86104390D01*
X106480398Y-86104390D02*
X106432779Y-86056771D01*
X106432779Y-86056771D02*
X106385160Y-85961533D01*
X106385160Y-85961533D02*
X106385160Y-85866295D01*
X106385160Y-85866295D02*
X106432779Y-85771057D01*
X106432779Y-85771057D02*
X106480398Y-85723438D01*
X106480398Y-85723438D02*
X106575636Y-85675819D01*
X106575636Y-85675819D02*
X106813731Y-85675819D01*
X106813731Y-85675819D02*
X106956588Y-85723438D01*
X107956588Y-86580580D02*
X107908969Y-86628200D01*
X107908969Y-86628200D02*
X107766112Y-86675819D01*
X107766112Y-86675819D02*
X107670874Y-86675819D01*
X107670874Y-86675819D02*
X107528017Y-86628200D01*
X107528017Y-86628200D02*
X107432779Y-86532961D01*
X107432779Y-86532961D02*
X107385160Y-86437723D01*
X107385160Y-86437723D02*
X107337541Y-86247247D01*
X107337541Y-86247247D02*
X107337541Y-86104390D01*
X107337541Y-86104390D02*
X107385160Y-85913914D01*
X107385160Y-85913914D02*
X107432779Y-85818676D01*
X107432779Y-85818676D02*
X107528017Y-85723438D01*
X107528017Y-85723438D02*
X107670874Y-85675819D01*
X107670874Y-85675819D02*
X107766112Y-85675819D01*
X107766112Y-85675819D02*
X107908969Y-85723438D01*
X107908969Y-85723438D02*
X107956588Y-85771057D01*
X108289922Y-85675819D02*
X108956588Y-85675819D01*
X108956588Y-85675819D02*
X108528017Y-86675819D01*
X91145160Y-91454200D02*
X91288017Y-91501819D01*
X91288017Y-91501819D02*
X91526112Y-91501819D01*
X91526112Y-91501819D02*
X91621350Y-91454200D01*
X91621350Y-91454200D02*
X91668969Y-91406580D01*
X91668969Y-91406580D02*
X91716588Y-91311342D01*
X91716588Y-91311342D02*
X91716588Y-91216104D01*
X91716588Y-91216104D02*
X91668969Y-91120866D01*
X91668969Y-91120866D02*
X91621350Y-91073247D01*
X91621350Y-91073247D02*
X91526112Y-91025628D01*
X91526112Y-91025628D02*
X91335636Y-90978009D01*
X91335636Y-90978009D02*
X91240398Y-90930390D01*
X91240398Y-90930390D02*
X91192779Y-90882771D01*
X91192779Y-90882771D02*
X91145160Y-90787533D01*
X91145160Y-90787533D02*
X91145160Y-90692295D01*
X91145160Y-90692295D02*
X91192779Y-90597057D01*
X91192779Y-90597057D02*
X91240398Y-90549438D01*
X91240398Y-90549438D02*
X91335636Y-90501819D01*
X91335636Y-90501819D02*
X91573731Y-90501819D01*
X91573731Y-90501819D02*
X91716588Y-90549438D01*
X92145160Y-91501819D02*
X92145160Y-90501819D01*
X92145160Y-90501819D02*
X92383255Y-90501819D01*
X92383255Y-90501819D02*
X92526112Y-90549438D01*
X92526112Y-90549438D02*
X92621350Y-90644676D01*
X92621350Y-90644676D02*
X92668969Y-90739914D01*
X92668969Y-90739914D02*
X92716588Y-90930390D01*
X92716588Y-90930390D02*
X92716588Y-91073247D01*
X92716588Y-91073247D02*
X92668969Y-91263723D01*
X92668969Y-91263723D02*
X92621350Y-91358961D01*
X92621350Y-91358961D02*
X92526112Y-91454200D01*
X92526112Y-91454200D02*
X92383255Y-91501819D01*
X92383255Y-91501819D02*
X92145160Y-91501819D01*
X93097541Y-91216104D02*
X93573731Y-91216104D01*
X93002303Y-91501819D02*
X93335636Y-90501819D01*
X93335636Y-90501819D02*
X93668969Y-91501819D01*
X106385160Y-114568200D02*
X106528017Y-114615819D01*
X106528017Y-114615819D02*
X106766112Y-114615819D01*
X106766112Y-114615819D02*
X106861350Y-114568200D01*
X106861350Y-114568200D02*
X106908969Y-114520580D01*
X106908969Y-114520580D02*
X106956588Y-114425342D01*
X106956588Y-114425342D02*
X106956588Y-114330104D01*
X106956588Y-114330104D02*
X106908969Y-114234866D01*
X106908969Y-114234866D02*
X106861350Y-114187247D01*
X106861350Y-114187247D02*
X106766112Y-114139628D01*
X106766112Y-114139628D02*
X106575636Y-114092009D01*
X106575636Y-114092009D02*
X106480398Y-114044390D01*
X106480398Y-114044390D02*
X106432779Y-113996771D01*
X106432779Y-113996771D02*
X106385160Y-113901533D01*
X106385160Y-113901533D02*
X106385160Y-113806295D01*
X106385160Y-113806295D02*
X106432779Y-113711057D01*
X106432779Y-113711057D02*
X106480398Y-113663438D01*
X106480398Y-113663438D02*
X106575636Y-113615819D01*
X106575636Y-113615819D02*
X106813731Y-113615819D01*
X106813731Y-113615819D02*
X106956588Y-113663438D01*
X107385160Y-114615819D02*
X107385160Y-113615819D01*
X107385160Y-113615819D02*
X107623255Y-113615819D01*
X107623255Y-113615819D02*
X107766112Y-113663438D01*
X107766112Y-113663438D02*
X107861350Y-113758676D01*
X107861350Y-113758676D02*
X107908969Y-113853914D01*
X107908969Y-113853914D02*
X107956588Y-114044390D01*
X107956588Y-114044390D02*
X107956588Y-114187247D01*
X107956588Y-114187247D02*
X107908969Y-114377723D01*
X107908969Y-114377723D02*
X107861350Y-114472961D01*
X107861350Y-114472961D02*
X107766112Y-114568200D01*
X107766112Y-114568200D02*
X107623255Y-114615819D01*
X107623255Y-114615819D02*
X107385160Y-114615819D01*
X108337541Y-113711057D02*
X108385160Y-113663438D01*
X108385160Y-113663438D02*
X108480398Y-113615819D01*
X108480398Y-113615819D02*
X108718493Y-113615819D01*
X108718493Y-113615819D02*
X108813731Y-113663438D01*
X108813731Y-113663438D02*
X108861350Y-113711057D01*
X108861350Y-113711057D02*
X108908969Y-113806295D01*
X108908969Y-113806295D02*
X108908969Y-113901533D01*
X108908969Y-113901533D02*
X108861350Y-114044390D01*
X108861350Y-114044390D02*
X108289922Y-114615819D01*
X108289922Y-114615819D02*
X108908969Y-114615819D01*
X106385160Y-101868200D02*
X106528017Y-101915819D01*
X106528017Y-101915819D02*
X106766112Y-101915819D01*
X106766112Y-101915819D02*
X106861350Y-101868200D01*
X106861350Y-101868200D02*
X106908969Y-101820580D01*
X106908969Y-101820580D02*
X106956588Y-101725342D01*
X106956588Y-101725342D02*
X106956588Y-101630104D01*
X106956588Y-101630104D02*
X106908969Y-101534866D01*
X106908969Y-101534866D02*
X106861350Y-101487247D01*
X106861350Y-101487247D02*
X106766112Y-101439628D01*
X106766112Y-101439628D02*
X106575636Y-101392009D01*
X106575636Y-101392009D02*
X106480398Y-101344390D01*
X106480398Y-101344390D02*
X106432779Y-101296771D01*
X106432779Y-101296771D02*
X106385160Y-101201533D01*
X106385160Y-101201533D02*
X106385160Y-101106295D01*
X106385160Y-101106295D02*
X106432779Y-101011057D01*
X106432779Y-101011057D02*
X106480398Y-100963438D01*
X106480398Y-100963438D02*
X106575636Y-100915819D01*
X106575636Y-100915819D02*
X106813731Y-100915819D01*
X106813731Y-100915819D02*
X106956588Y-100963438D01*
X107956588Y-101820580D02*
X107908969Y-101868200D01*
X107908969Y-101868200D02*
X107766112Y-101915819D01*
X107766112Y-101915819D02*
X107670874Y-101915819D01*
X107670874Y-101915819D02*
X107528017Y-101868200D01*
X107528017Y-101868200D02*
X107432779Y-101772961D01*
X107432779Y-101772961D02*
X107385160Y-101677723D01*
X107385160Y-101677723D02*
X107337541Y-101487247D01*
X107337541Y-101487247D02*
X107337541Y-101344390D01*
X107337541Y-101344390D02*
X107385160Y-101153914D01*
X107385160Y-101153914D02*
X107432779Y-101058676D01*
X107432779Y-101058676D02*
X107528017Y-100963438D01*
X107528017Y-100963438D02*
X107670874Y-100915819D01*
X107670874Y-100915819D02*
X107766112Y-100915819D01*
X107766112Y-100915819D02*
X107908969Y-100963438D01*
X107908969Y-100963438D02*
X107956588Y-101011057D01*
X108813731Y-101249152D02*
X108813731Y-101915819D01*
X108575636Y-100868200D02*
X108337541Y-101582485D01*
X108337541Y-101582485D02*
X108956588Y-101582485D01*
X106385160Y-99074200D02*
X106528017Y-99121819D01*
X106528017Y-99121819D02*
X106766112Y-99121819D01*
X106766112Y-99121819D02*
X106861350Y-99074200D01*
X106861350Y-99074200D02*
X106908969Y-99026580D01*
X106908969Y-99026580D02*
X106956588Y-98931342D01*
X106956588Y-98931342D02*
X106956588Y-98836104D01*
X106956588Y-98836104D02*
X106908969Y-98740866D01*
X106908969Y-98740866D02*
X106861350Y-98693247D01*
X106861350Y-98693247D02*
X106766112Y-98645628D01*
X106766112Y-98645628D02*
X106575636Y-98598009D01*
X106575636Y-98598009D02*
X106480398Y-98550390D01*
X106480398Y-98550390D02*
X106432779Y-98502771D01*
X106432779Y-98502771D02*
X106385160Y-98407533D01*
X106385160Y-98407533D02*
X106385160Y-98312295D01*
X106385160Y-98312295D02*
X106432779Y-98217057D01*
X106432779Y-98217057D02*
X106480398Y-98169438D01*
X106480398Y-98169438D02*
X106575636Y-98121819D01*
X106575636Y-98121819D02*
X106813731Y-98121819D01*
X106813731Y-98121819D02*
X106956588Y-98169438D01*
X107385160Y-99121819D02*
X107385160Y-98121819D01*
X107385160Y-98121819D02*
X107623255Y-98121819D01*
X107623255Y-98121819D02*
X107766112Y-98169438D01*
X107766112Y-98169438D02*
X107861350Y-98264676D01*
X107861350Y-98264676D02*
X107908969Y-98359914D01*
X107908969Y-98359914D02*
X107956588Y-98550390D01*
X107956588Y-98550390D02*
X107956588Y-98693247D01*
X107956588Y-98693247D02*
X107908969Y-98883723D01*
X107908969Y-98883723D02*
X107861350Y-98978961D01*
X107861350Y-98978961D02*
X107766112Y-99074200D01*
X107766112Y-99074200D02*
X107623255Y-99121819D01*
X107623255Y-99121819D02*
X107385160Y-99121819D01*
X108861350Y-98121819D02*
X108385160Y-98121819D01*
X108385160Y-98121819D02*
X108337541Y-98598009D01*
X108337541Y-98598009D02*
X108385160Y-98550390D01*
X108385160Y-98550390D02*
X108480398Y-98502771D01*
X108480398Y-98502771D02*
X108718493Y-98502771D01*
X108718493Y-98502771D02*
X108813731Y-98550390D01*
X108813731Y-98550390D02*
X108861350Y-98598009D01*
X108861350Y-98598009D02*
X108908969Y-98693247D01*
X108908969Y-98693247D02*
X108908969Y-98931342D01*
X108908969Y-98931342D02*
X108861350Y-99026580D01*
X108861350Y-99026580D02*
X108813731Y-99074200D01*
X108813731Y-99074200D02*
X108718493Y-99121819D01*
X108718493Y-99121819D02*
X108480398Y-99121819D01*
X108480398Y-99121819D02*
X108385160Y-99074200D01*
X108385160Y-99074200D02*
X108337541Y-99026580D01*
X91145160Y-114314200D02*
X91288017Y-114361819D01*
X91288017Y-114361819D02*
X91526112Y-114361819D01*
X91526112Y-114361819D02*
X91621350Y-114314200D01*
X91621350Y-114314200D02*
X91668969Y-114266580D01*
X91668969Y-114266580D02*
X91716588Y-114171342D01*
X91716588Y-114171342D02*
X91716588Y-114076104D01*
X91716588Y-114076104D02*
X91668969Y-113980866D01*
X91668969Y-113980866D02*
X91621350Y-113933247D01*
X91621350Y-113933247D02*
X91526112Y-113885628D01*
X91526112Y-113885628D02*
X91335636Y-113838009D01*
X91335636Y-113838009D02*
X91240398Y-113790390D01*
X91240398Y-113790390D02*
X91192779Y-113742771D01*
X91192779Y-113742771D02*
X91145160Y-113647533D01*
X91145160Y-113647533D02*
X91145160Y-113552295D01*
X91145160Y-113552295D02*
X91192779Y-113457057D01*
X91192779Y-113457057D02*
X91240398Y-113409438D01*
X91240398Y-113409438D02*
X91335636Y-113361819D01*
X91335636Y-113361819D02*
X91573731Y-113361819D01*
X91573731Y-113361819D02*
X91716588Y-113409438D01*
X92716588Y-114266580D02*
X92668969Y-114314200D01*
X92668969Y-114314200D02*
X92526112Y-114361819D01*
X92526112Y-114361819D02*
X92430874Y-114361819D01*
X92430874Y-114361819D02*
X92288017Y-114314200D01*
X92288017Y-114314200D02*
X92192779Y-114218961D01*
X92192779Y-114218961D02*
X92145160Y-114123723D01*
X92145160Y-114123723D02*
X92097541Y-113933247D01*
X92097541Y-113933247D02*
X92097541Y-113790390D01*
X92097541Y-113790390D02*
X92145160Y-113599914D01*
X92145160Y-113599914D02*
X92192779Y-113504676D01*
X92192779Y-113504676D02*
X92288017Y-113409438D01*
X92288017Y-113409438D02*
X92430874Y-113361819D01*
X92430874Y-113361819D02*
X92526112Y-113361819D01*
X92526112Y-113361819D02*
X92668969Y-113409438D01*
X92668969Y-113409438D02*
X92716588Y-113457057D01*
X93668969Y-114361819D02*
X93097541Y-114361819D01*
X93383255Y-114361819D02*
X93383255Y-113361819D01*
X93383255Y-113361819D02*
X93288017Y-113504676D01*
X93288017Y-113504676D02*
X93192779Y-113599914D01*
X93192779Y-113599914D02*
X93097541Y-113647533D01*
X91145160Y-98836104D02*
X91621350Y-98836104D01*
X91049922Y-99121819D02*
X91383255Y-98121819D01*
X91383255Y-98121819D02*
X91716588Y-99121819D01*
X92240398Y-98121819D02*
X92335636Y-98121819D01*
X92335636Y-98121819D02*
X92430874Y-98169438D01*
X92430874Y-98169438D02*
X92478493Y-98217057D01*
X92478493Y-98217057D02*
X92526112Y-98312295D01*
X92526112Y-98312295D02*
X92573731Y-98502771D01*
X92573731Y-98502771D02*
X92573731Y-98740866D01*
X92573731Y-98740866D02*
X92526112Y-98931342D01*
X92526112Y-98931342D02*
X92478493Y-99026580D01*
X92478493Y-99026580D02*
X92430874Y-99074200D01*
X92430874Y-99074200D02*
X92335636Y-99121819D01*
X92335636Y-99121819D02*
X92240398Y-99121819D01*
X92240398Y-99121819D02*
X92145160Y-99074200D01*
X92145160Y-99074200D02*
X92097541Y-99026580D01*
X92097541Y-99026580D02*
X92049922Y-98931342D01*
X92049922Y-98931342D02*
X92002303Y-98740866D01*
X92002303Y-98740866D02*
X92002303Y-98502771D01*
X92002303Y-98502771D02*
X92049922Y-98312295D01*
X92049922Y-98312295D02*
X92097541Y-98217057D01*
X92097541Y-98217057D02*
X92145160Y-98169438D01*
X92145160Y-98169438D02*
X92240398Y-98121819D01*
X119554666Y-98674819D02*
X119554666Y-99389104D01*
X119554666Y-99389104D02*
X119507047Y-99531961D01*
X119507047Y-99531961D02*
X119411809Y-99627200D01*
X119411809Y-99627200D02*
X119268952Y-99674819D01*
X119268952Y-99674819D02*
X119173714Y-99674819D01*
X120459428Y-98674819D02*
X120268952Y-98674819D01*
X120268952Y-98674819D02*
X120173714Y-98722438D01*
X120173714Y-98722438D02*
X120126095Y-98770057D01*
X120126095Y-98770057D02*
X120030857Y-98912914D01*
X120030857Y-98912914D02*
X119983238Y-99103390D01*
X119983238Y-99103390D02*
X119983238Y-99484342D01*
X119983238Y-99484342D02*
X120030857Y-99579580D01*
X120030857Y-99579580D02*
X120078476Y-99627200D01*
X120078476Y-99627200D02*
X120173714Y-99674819D01*
X120173714Y-99674819D02*
X120364190Y-99674819D01*
X120364190Y-99674819D02*
X120459428Y-99627200D01*
X120459428Y-99627200D02*
X120507047Y-99579580D01*
X120507047Y-99579580D02*
X120554666Y-99484342D01*
X120554666Y-99484342D02*
X120554666Y-99246247D01*
X120554666Y-99246247D02*
X120507047Y-99151009D01*
X120507047Y-99151009D02*
X120459428Y-99103390D01*
X120459428Y-99103390D02*
X120364190Y-99055771D01*
X120364190Y-99055771D02*
X120173714Y-99055771D01*
X120173714Y-99055771D02*
X120078476Y-99103390D01*
X120078476Y-99103390D02*
X120030857Y-99151009D01*
X120030857Y-99151009D02*
X119983238Y-99246247D01*
X119554666Y-114930819D02*
X119554666Y-115645104D01*
X119554666Y-115645104D02*
X119507047Y-115787961D01*
X119507047Y-115787961D02*
X119411809Y-115883200D01*
X119411809Y-115883200D02*
X119268952Y-115930819D01*
X119268952Y-115930819D02*
X119173714Y-115930819D01*
X120507047Y-114930819D02*
X120030857Y-114930819D01*
X120030857Y-114930819D02*
X119983238Y-115407009D01*
X119983238Y-115407009D02*
X120030857Y-115359390D01*
X120030857Y-115359390D02*
X120126095Y-115311771D01*
X120126095Y-115311771D02*
X120364190Y-115311771D01*
X120364190Y-115311771D02*
X120459428Y-115359390D01*
X120459428Y-115359390D02*
X120507047Y-115407009D01*
X120507047Y-115407009D02*
X120554666Y-115502247D01*
X120554666Y-115502247D02*
X120554666Y-115740342D01*
X120554666Y-115740342D02*
X120507047Y-115835580D01*
X120507047Y-115835580D02*
X120459428Y-115883200D01*
X120459428Y-115883200D02*
X120364190Y-115930819D01*
X120364190Y-115930819D02*
X120126095Y-115930819D01*
X120126095Y-115930819D02*
X120030857Y-115883200D01*
X120030857Y-115883200D02*
X119983238Y-115835580D01*
X76374666Y-119436819D02*
X76374666Y-120151104D01*
X76374666Y-120151104D02*
X76327047Y-120293961D01*
X76327047Y-120293961D02*
X76231809Y-120389200D01*
X76231809Y-120389200D02*
X76088952Y-120436819D01*
X76088952Y-120436819D02*
X75993714Y-120436819D01*
X77279428Y-119770152D02*
X77279428Y-120436819D01*
X77041333Y-119389200D02*
X76803238Y-120103485D01*
X76803238Y-120103485D02*
X77422285Y-120103485D01*
X76374666Y-103848819D02*
X76374666Y-104563104D01*
X76374666Y-104563104D02*
X76327047Y-104705961D01*
X76327047Y-104705961D02*
X76231809Y-104801200D01*
X76231809Y-104801200D02*
X76088952Y-104848819D01*
X76088952Y-104848819D02*
X75993714Y-104848819D01*
X76755619Y-103848819D02*
X77374666Y-103848819D01*
X77374666Y-103848819D02*
X77041333Y-104229771D01*
X77041333Y-104229771D02*
X77184190Y-104229771D01*
X77184190Y-104229771D02*
X77279428Y-104277390D01*
X77279428Y-104277390D02*
X77327047Y-104325009D01*
X77327047Y-104325009D02*
X77374666Y-104420247D01*
X77374666Y-104420247D02*
X77374666Y-104658342D01*
X77374666Y-104658342D02*
X77327047Y-104753580D01*
X77327047Y-104753580D02*
X77279428Y-104801200D01*
X77279428Y-104801200D02*
X77184190Y-104848819D01*
X77184190Y-104848819D02*
X76898476Y-104848819D01*
X76898476Y-104848819D02*
X76803238Y-104801200D01*
X76803238Y-104801200D02*
X76755619Y-104753580D01*
X76374666Y-75908819D02*
X76374666Y-76623104D01*
X76374666Y-76623104D02*
X76327047Y-76765961D01*
X76327047Y-76765961D02*
X76231809Y-76861200D01*
X76231809Y-76861200D02*
X76088952Y-76908819D01*
X76088952Y-76908819D02*
X75993714Y-76908819D01*
X76803238Y-76004057D02*
X76850857Y-75956438D01*
X76850857Y-75956438D02*
X76946095Y-75908819D01*
X76946095Y-75908819D02*
X77184190Y-75908819D01*
X77184190Y-75908819D02*
X77279428Y-75956438D01*
X77279428Y-75956438D02*
X77327047Y-76004057D01*
X77327047Y-76004057D02*
X77374666Y-76099295D01*
X77374666Y-76099295D02*
X77374666Y-76194533D01*
X77374666Y-76194533D02*
X77327047Y-76337390D01*
X77327047Y-76337390D02*
X76755619Y-76908819D01*
X76755619Y-76908819D02*
X77374666Y-76908819D01*
X119554666Y-74544819D02*
X119554666Y-75259104D01*
X119554666Y-75259104D02*
X119507047Y-75401961D01*
X119507047Y-75401961D02*
X119411809Y-75497200D01*
X119411809Y-75497200D02*
X119268952Y-75544819D01*
X119268952Y-75544819D02*
X119173714Y-75544819D01*
X120554666Y-75544819D02*
X119983238Y-75544819D01*
X120268952Y-75544819D02*
X120268952Y-74544819D01*
X120268952Y-74544819D02*
X120173714Y-74687676D01*
X120173714Y-74687676D02*
X120078476Y-74782914D01*
X120078476Y-74782914D02*
X119983238Y-74830533D01*
%TO.C,U2*%
D11*
X87300000Y-83504000D02*
X112700000Y-83504000D01*
X112700000Y-116524000D01*
X87300000Y-116524000D01*
X87300000Y-83504000D01*
D12*
%TO.C,J6*%
X118508000Y-100220000D02*
X119888000Y-100220000D01*
X118508000Y-101600000D02*
X118508000Y-100220000D01*
X118508000Y-102870000D02*
X118508000Y-113140000D01*
X118508000Y-102870000D02*
X121268000Y-102870000D01*
X118508000Y-113140000D02*
X121268000Y-113140000D01*
X121268000Y-102870000D02*
X121268000Y-113140000D01*
%TO.C,J5*%
X118508000Y-116476000D02*
X119888000Y-116476000D01*
X118508000Y-117856000D02*
X118508000Y-116476000D01*
X118508000Y-119126000D02*
X118508000Y-129396000D01*
X118508000Y-119126000D02*
X121268000Y-119126000D01*
X118508000Y-129396000D02*
X121268000Y-129396000D01*
X121268000Y-119126000D02*
X121268000Y-129396000D01*
%TO.C,J4*%
X78088000Y-118982000D02*
X76708000Y-118982000D01*
X78088000Y-117602000D02*
X78088000Y-118982000D01*
X78088000Y-116332000D02*
X78088000Y-106062000D01*
X78088000Y-116332000D02*
X75328000Y-116332000D01*
X78088000Y-106062000D02*
X75328000Y-106062000D01*
X75328000Y-116332000D02*
X75328000Y-106062000D01*
%TO.C,J3*%
X78088000Y-102980000D02*
X76708000Y-102980000D01*
X78088000Y-101600000D02*
X78088000Y-102980000D01*
X78088000Y-100330000D02*
X78088000Y-90060000D01*
X78088000Y-100330000D02*
X75328000Y-100330000D01*
X78088000Y-90060000D02*
X75328000Y-90060000D01*
X75328000Y-100330000D02*
X75328000Y-90060000D01*
%TO.C,J2*%
X75328000Y-77614000D02*
X76708000Y-77614000D01*
X75328000Y-78994000D02*
X75328000Y-77614000D01*
X75328000Y-80264000D02*
X75328000Y-87994000D01*
X75328000Y-80264000D02*
X78088000Y-80264000D01*
X75328000Y-87994000D02*
X78088000Y-87994000D01*
X78088000Y-80264000D02*
X78088000Y-87994000D01*
%TO.C,J1*%
X118508000Y-76090000D02*
X119888000Y-76090000D01*
X118508000Y-77470000D02*
X118508000Y-76090000D01*
X118508000Y-78740000D02*
X118508000Y-96630000D01*
X118508000Y-78740000D02*
X121268000Y-78740000D01*
X118508000Y-96630000D02*
X121268000Y-96630000D01*
X121268000Y-78740000D02*
X121268000Y-96630000D01*
%TD*%
M02*
