%TF.GenerationSoftware,KiCad,Pcbnew,10.0.5*%
%TF.CreationDate,2026-08-07T13:13:40+08:00*%
%TF.ProjectId,Driver PCB,44726976-6572-4205-9043-422e6b696361,rev?*%
%TF.SameCoordinates,Original*%
%TF.FileFunction,Copper,L2,Bot*%
%TF.FilePolarity,Positive*%
%FSLAX46Y46*%
G04 Gerber Fmt 4.6, Leading zero omitted, Abs format (unit mm)*
G04 Created by KiCad (PCBNEW 10.0.5) date 2026-08-07 13:13:40*
%MOMM*%
%LPD*%
G01*
G04 APERTURE LIST*
%TA.AperFunction,ComponentPad*%
%ADD10C,1.600000*%
%TD*%
%TA.AperFunction,ComponentPad*%
%ADD11R,1.700000X1.700000*%
%TD*%
%TA.AperFunction,ComponentPad*%
%ADD12C,1.700000*%
%TD*%
%TA.AperFunction,ComponentPad*%
%ADD13R,1.500000X1.500000*%
%TD*%
%TA.AperFunction,ComponentPad*%
%ADD14C,1.500000*%
%TD*%
%TA.AperFunction,Conductor*%
%ADD15C,0.200000*%
%TD*%
G04 APERTURE END LIST*
D10*
%TO.P,R3,1*%
%TO.N,Net-(J1-Pin_3)*%
X111500000Y-98805923D03*
%TO.P,R3,2*%
%TO.N,Net-(Q3-B)*%
X116888154Y-104194077D03*
%TD*%
%TO.P,R1,1*%
%TO.N,Net-(Q1-B)*%
X116888154Y-81305923D03*
%TO.P,R1,2*%
%TO.N,Net-(J1-Pin_1)*%
X111500000Y-86694077D03*
%TD*%
%TO.P,R5,1*%
%TO.N,Net-(J1-Pin_4)*%
X128440000Y-95000000D03*
%TO.P,R5,2*%
%TO.N,Net-(Q2-B)*%
X136060000Y-95000000D03*
%TD*%
D11*
%TO.P,J2,1,Pin_1_1*%
%TO.N,Net-(J2-Pin_1)*%
X140500000Y-89960000D03*
D12*
%TO.P,J2,2,Pin_2_2*%
%TO.N,Net-(J2-Pin_2)*%
X140500000Y-92500000D03*
%TO.P,J2,3,Pin_3_3*%
%TO.N,Net-(J2-Pin_3)*%
X140500000Y-95040000D03*
%TO.P,J2,4,Pin_4_4*%
%TO.N,Net-(J1-Pin_4)*%
X140500000Y-97580000D03*
%TO.P,J2,5,Pin_5_5*%
%TO.N,Net-(J2-Pin_5)*%
X140500000Y-100120000D03*
%TD*%
D13*
%TO.P,Q3,1,E_1*%
%TO.N,Net-(J1-Pin_4)*%
X125360000Y-104040000D03*
D14*
%TO.P,Q3,2,B_2*%
%TO.N,Net-(Q3-B)*%
X125360000Y-101500000D03*
%TO.P,Q3,3,C_3*%
%TO.N,Net-(J2-Pin_3)*%
X125360000Y-98960000D03*
%TD*%
D13*
%TO.P,Q1,1,E_1*%
%TO.N,Net-(J1-Pin_4)*%
X125360000Y-86040000D03*
D14*
%TO.P,Q1,2,B_2*%
%TO.N,Net-(Q1-B)*%
X125360000Y-83500000D03*
%TO.P,Q1,3,C_3*%
%TO.N,Net-(J2-Pin_1)*%
X125360000Y-80960000D03*
%TD*%
D10*
%TO.P,R6,1*%
%TO.N,Net-(J1-Pin_4)*%
X128440000Y-86000000D03*
%TO.P,R6,2*%
%TO.N,Net-(Q1-B)*%
X136060000Y-86000000D03*
%TD*%
%TO.P,R4,1*%
%TO.N,Net-(Q3-B)*%
X128440000Y-104000000D03*
%TO.P,R4,2*%
%TO.N,Net-(J1-Pin_4)*%
X136060000Y-104000000D03*
%TD*%
D13*
%TO.P,Q2,1,E_1*%
%TO.N,Net-(J1-Pin_4)*%
X125360000Y-95080000D03*
D14*
%TO.P,Q2,2,B_2*%
%TO.N,Net-(Q2-B)*%
X125360000Y-92540000D03*
%TO.P,Q2,3,C_3*%
%TO.N,Net-(J2-Pin_2)*%
X125360000Y-90000000D03*
%TD*%
D10*
%TO.P,R2,1*%
%TO.N,Net-(J1-Pin_2)*%
X110384077Y-92500000D03*
%TO.P,R2,2*%
%TO.N,Net-(Q2-B)*%
X118004077Y-92500000D03*
%TD*%
D11*
%TO.P,J1,1,Pin_1_1*%
%TO.N,Net-(J1-Pin_1)*%
X107000000Y-89960000D03*
D12*
%TO.P,J1,2,Pin_2_2*%
%TO.N,Net-(J1-Pin_2)*%
X107000000Y-92500000D03*
%TO.P,J1,3,Pin_3_3*%
%TO.N,Net-(J1-Pin_3)*%
X107000000Y-95040000D03*
%TO.P,J1,4,Pin_4_4*%
%TO.N,Net-(J1-Pin_4)*%
X107000000Y-97580000D03*
%TO.P,J1,5,Pin_5_5*%
%TO.N,Net-(J1-Pin_5)*%
X107000000Y-100120000D03*
%TD*%
D10*
%TO.P,R7,1*%
%TO.N,Net-(J2-Pin_5)*%
X124500000Y-107500000D03*
%TO.P,R7,2*%
%TO.N,Net-(J1-Pin_5)*%
X116880000Y-107500000D03*
%TD*%
%TO.N,Net-(J1-Pin_3)*%
D15*
X105200000Y-96800000D02*
X105200000Y-98200000D01*
X107000000Y-95000000D02*
X105200000Y-96800000D01*
X107000000Y-94750000D02*
X107000000Y-95000000D01*
X105850000Y-98850000D02*
X105894077Y-98805923D01*
X105200000Y-98200000D02*
X105850000Y-98850000D01*
X105894077Y-98805923D02*
X111500000Y-98805923D01*
%TO.N,Net-(Q3-B)*%
X116888154Y-104194077D02*
X122665923Y-104194077D01*
X126940000Y-105500000D02*
X124000000Y-105500000D01*
X124000000Y-105500000D02*
X122694077Y-104194077D01*
X122694077Y-104194077D02*
X122665923Y-104194077D01*
X122665923Y-104194077D02*
X125360000Y-101500000D01*
X128440000Y-104000000D02*
X126940000Y-105500000D01*
%TO.N,Net-(Q1-B)*%
X133620000Y-83500000D02*
X125250000Y-83500000D01*
X119638154Y-83500000D02*
X125250000Y-83500000D01*
X136120000Y-86000000D02*
X133620000Y-83500000D01*
X117444077Y-81305923D02*
X119638154Y-83500000D01*
%TO.N,Net-(J1-Pin_1)*%
X108790000Y-89960000D02*
X112055923Y-86694077D01*
X107000000Y-89960000D02*
X108790000Y-89960000D01*
%TO.N,Net-(J1-Pin_4)*%
X127000000Y-101500000D02*
X127000000Y-102400000D01*
X108460000Y-97290000D02*
X113625000Y-92125000D01*
X125350000Y-95050000D02*
X119500000Y-95050000D01*
X113625000Y-92125000D02*
X114625000Y-92125000D01*
X117550000Y-95050000D02*
X114625000Y-92125000D01*
X119200000Y-97950000D02*
X121500000Y-100250000D01*
X133060000Y-101000000D02*
X127000000Y-101000000D01*
X136060000Y-101980000D02*
X136060000Y-104000000D01*
X114625000Y-92125000D02*
X120710000Y-86040000D01*
X125360000Y-95080000D02*
X128420000Y-95080000D01*
X125290000Y-86000000D02*
X128500000Y-86000000D01*
X127000000Y-101250000D02*
X127000000Y-101500000D01*
X125360000Y-95040000D02*
X125350000Y-95050000D01*
X126250000Y-100250000D02*
X127000000Y-101000000D01*
X120710000Y-86040000D02*
X125250000Y-86040000D01*
X136060000Y-104000000D02*
X133060000Y-101000000D01*
X107000000Y-97290000D02*
X108460000Y-97290000D01*
X127000000Y-101000000D02*
X127000000Y-101250000D01*
X119500000Y-95050000D02*
X119200000Y-95050000D01*
X119200000Y-95050000D02*
X117550000Y-95050000D01*
X140500000Y-97540000D02*
X136060000Y-101980000D01*
X128420000Y-95080000D02*
X128500000Y-95000000D01*
X127000000Y-102400000D02*
X125360000Y-104040000D01*
X121500000Y-100250000D02*
X126250000Y-100250000D01*
X125250000Y-86040000D02*
X125290000Y-86000000D01*
X119200000Y-95050000D02*
X119200000Y-97950000D01*
%TO.N,Net-(Q2-B)*%
X133660000Y-92540000D02*
X125360000Y-92540000D01*
X118004077Y-92500000D02*
X125360000Y-92500000D01*
X136120000Y-95000000D02*
X133660000Y-92540000D01*
%TO.N,Net-(J2-Pin_1)*%
X132635635Y-80960000D02*
X140500000Y-88824365D01*
X140500000Y-88824365D02*
X140500000Y-89920000D01*
X125250000Y-80960000D02*
X132635635Y-80960000D01*
%TO.N,Net-(J2-Pin_2)*%
X138040000Y-90000000D02*
X125360000Y-90000000D01*
X140500000Y-92460000D02*
X138040000Y-90000000D01*
%TO.N,Net-(J2-Pin_3)*%
X136540000Y-98960000D02*
X140500000Y-95000000D01*
X125360000Y-98960000D02*
X136540000Y-98960000D01*
%TO.N,Net-(J2-Pin_5)*%
X134750000Y-107500000D02*
X140500000Y-101750000D01*
X124500000Y-107500000D02*
X134750000Y-107500000D01*
X140500000Y-101750000D02*
X140500000Y-100080000D01*
%TO.N,Net-(J1-Pin_2)*%
X110384077Y-92500000D02*
X107000000Y-92500000D01*
%TO.N,Net-(J1-Pin_5)*%
X116880000Y-107500000D02*
X114670000Y-107500000D01*
X114670000Y-107500000D02*
X107000000Y-99830000D01*
%TD*%
M02*
