M48
; DRILL file KiCad 10.0.5 date 2026-08-07T13:13:40
; FORMAT={-:-/ absolute / metric / decimal}
; #@! TF.CreationDate,2026-08-07T13:13:40+08:00
; #@! TF.GenerationSoftware,Kicad,Pcbnew,10.0.5
; #@! TF.FileFunction,Plated,1,2,PTH
FMAT,2
METRIC
; #@! TA.AperFunction,Plated,PTH,ComponentDrill
T1C0.800
; #@! TA.AperFunction,Plated,PTH,ComponentDrill
T2C1.000
%
G90
G05
T1
X110.384Y-92.5
X111.5Y-86.694
X111.5Y-98.806
X116.88Y-107.5
X116.888Y-81.306
X116.888Y-104.194
X118.004Y-92.5
X124.5Y-107.5
X125.36Y-80.96
X125.36Y-83.5
X125.36Y-86.04
X125.36Y-90.0
X125.36Y-92.54
X125.36Y-95.08
X125.36Y-98.96
X125.36Y-101.5
X125.36Y-104.04
X128.44Y-86.0
X128.44Y-95.0
X128.44Y-104.0
X136.06Y-86.0
X136.06Y-95.0
X136.06Y-104.0
T2
X107.0Y-89.96
X107.0Y-92.5
X107.0Y-95.04
X107.0Y-97.58
X107.0Y-100.12
X140.5Y-89.96
X140.5Y-92.5
X140.5Y-95.04
X140.5Y-97.58
X140.5Y-100.12
M30
