  0
SECTION
  2
HEADER
  9
$ACADVER
  1
AC1018
  9
$HANDSEED
  5
FFFFFFFF
  9
$ANGBASE
  50
0.0
  9
$ANGDIR
  70
1
  9
$MEASUREMENT
  70
0
  9
$INSUNITS
  70
1
  0
ENDSEC
  0
SECTION
  2
TABLES
  0
TABLE
  2
APPID
  5
1
330
0
100
AcDbSymbolTable
 70
1
  0
APPID
  5
2
330
1
100
AcDbSymbolTableRecord
100
AcDbRegAppTableRecord
  2
ACAD
 70
0
  0
ENDTAB
  0
TABLE
  2
LTYPE
  5
3
330
0
100
AcDbSymbolTable
 70
6
  0
LTYPE
  5
4
330
3
100
AcDbSymbolTableRecord
100
AcDbLinetypeTableRecord
  2
ByBlock
 70
0
  3

 72
65
 73
0
 40
0
  0
LTYPE
  5
5
330
3
100
AcDbSymbolTableRecord
100
AcDbLinetypeTableRecord
  2
ByLayer
 70
0
  3

 72
65
 73
0
 40
0
  0
LTYPE
  5
6
330
3
100
AcDbSymbolTableRecord
100
AcDbLinetypeTableRecord
  2
CONTINUOUS
 70
0
  3
Solid line
 72
65
 73
0
 40
0
  0
LTYPE
  5
7
330
3
100
AcDbSymbolTableRecord
100
AcDbLinetypeTableRecord
  2
DASHDOT
 70
0
  3
Dash Dot ____ _ ____ _
 72
65
 73
4
 40
2
 49
1.25
 74
0
 49
-0.25
 74
0
 49
0.25
 74
0
 49
-0.25
 74
0
  0
LTYPE
  5
8
330
3
100
AcDbSymbolTableRecord
100
AcDbLinetypeTableRecord
  2
DASHED
 70
0
  3
Dashed __ __ __ __ __
 72
65
 73
2
 40
0.75
 49
0.5
 74
0
 49
-0.25
 74
0
  0
LTYPE
  5
9
330
3
100
AcDbSymbolTableRecord
100
AcDbLinetypeTableRecord
  2
DOTTED
 70
0
  3
Dotted .  .  .  .
 72
65
 73
2
 40
0.2
 49
0.0
 74
0
 49
-0.2
 74
0
  0
ENDTAB
  0
TABLE
  2
STYLE
  5
A
330
0
100
AcDbSymbolTable
 70
4
  0
STYLE
  5
B
330
A
100
AcDbSymbolTableRecord
100
AcDbTextStyleTableRecord
  2
KICAD
 70
0
 40
0
 41
1
 42
1
 50
0
 71
0
  3
isocp.shx
  0
STYLE
  5
C
330
A
100
AcDbSymbolTableRecord
100
AcDbTextStyleTableRecord
  2
KICADB
 70
0
 40
0
 41
1
 42
1
 50
0
 71
0
  3
isocp.shx
  0
STYLE
  5
D
330
A
100
AcDbSymbolTableRecord
100
AcDbTextStyleTableRecord
  2
KICADI
 70
0
 40
0
 41
1
 42
1
 50
15
 71
0
  3
isocp.shx
  0
STYLE
  5
E
330
A
100
AcDbSymbolTableRecord
100
AcDbTextStyleTableRecord
  2
KICADBI
 70
0
 40
0
 41
1
 42
1
 50
15
 71
0
  3
isocp.shx
  0
ENDTAB
  0
TABLE
  2
LAYER
  5
F
330
0
100
AcDbSymbolTable
 70
10
  0
LAYER
  5
12
330
F
100
AcDbSymbolTableRecord
100
AcDbLayerTableRecord
  2
0
 70
0
 62
7
  6
CONTINUOUS
390
10
  0
LAYER
  5
13
330
F
100
AcDbSymbolTableRecord
100
AcDbLayerTableRecord
  2
F.Cu
 70
0
 62
13
420
13120564
  6
CONTINUOUS
390
10
  0
LAYER
  5
14
330
F
100
AcDbSymbolTableRecord
100
AcDbLayerTableRecord
  2
B.Cu
 70
0
 62
153
420
5078980
  6
CONTINUOUS
390
10
  0
LAYER
  5
15
330
F
100
AcDbSymbolTableRecord
100
AcDbLayerTableRecord
  2
F.Paste
 70
0
 62
253
420
11837594
  6
CONTINUOUS
390
10
  0
LAYER
  5
16
330
F
100
AcDbSymbolTableRecord
100
AcDbLayerTableRecord
  2
B.Paste
 70
0
 62
132
420
49858
  6
CONTINUOUS
390
10
  0
LAYER
  5
17
330
F
100
AcDbSymbolTableRecord
100
AcDbLayerTableRecord
  2
F.Silkscreen
 70
0
 62
41
420
15920545
  6
CONTINUOUS
390
10
  0
LAYER
  5
18
330
F
100
AcDbSymbolTableRecord
100
AcDbLayerTableRecord
  2
B.Silkscreen
 70
0
 62
31
420
15250087
  6
CONTINUOUS
390
10
  0
LAYER
  5
19
330
F
100
AcDbSymbolTableRecord
100
AcDbLayerTableRecord
  2
F.Mask
 70
0
 62
201
420
14181631
  6
CONTINUOUS
390
10
  0
LAYER
  5
1A
330
F
100
AcDbSymbolTableRecord
100
AcDbLayerTableRecord
  2
B.Mask
 70
0
 62
4
420
196590
  6
CONTINUOUS
390
10
  0
LAYER
  5
1B
330
F
100
AcDbSymbolTableRecord
100
AcDbLayerTableRecord
  2
Edge.Cuts
 70
0
 62
254
420
13685453
  6
CONTINUOUS
390
10
  0
ENDTAB
  0
TABLE
  2
VPORT
  5
1C
330
0
100
AcDbSymbolTable
 70
0
  0
ENDTAB
  0
TABLE
  2
VIEW
  5
1D
330
0
100
AcDbSymbolTable
 70
0
  0
ENDTAB
  0
TABLE
  2
UCS
  5
1E
330
0
100
AcDbSymbolTable
 70
0
  0
ENDTAB
  0
TABLE
  2
DIMSTYLE
  5
1F
330
0
100
AcDbSymbolTable
 70
1
100
AcDbDimStyleTable
 71
0
  0
DIMSTYLE
105
20
330
1F
100
AcDbSymbolTableRecord
100
AcDbDimStyleTableRecord
  2
Standard
 70
0
  0
ENDTAB
  0
TABLE
  2
BLOCK_RECORD
  5
21
330
0
100
AcDbSymbolTable
 70
3
  0
BLOCK_RECORD
  5
22
330
21
100
AcDbSymbolTableRecord
100
AcDbBlockTableRecord
  2
*Model_Space
340
25
 70
0
280
1
281
0
  0
BLOCK_RECORD
  5
23
330
21
100
AcDbSymbolTableRecord
100
AcDbBlockTableRecord
  2
*Paper_Space
340
26
 70
0
280
1
281
0
  0
BLOCK_RECORD
  5
24
330
21
100
AcDbSymbolTableRecord
100
AcDbBlockTableRecord
  2
*Paper_Space0
340
27
 70
0
280
1
281
0
  0
ENDTAB
  0
ENDSEC
  0
SECTION
  2
BLOCKS
  0
BLOCK
  5
2B
330
22
100
AcDbEntity
  8
0
100
AcDbBlockBegin
  2
*Model_Space
 70
0
 10
0.0
 20
0.0
 30
0.0
  3
*Model_Space
  1

  0
ENDBLK
  5
2A
330
22
100
AcDbEntity
  8
0
100
AcDbBlockEnd
  0
BLOCK
  5
2D
330
23
100
AcDbEntity
 67
1
  8
0
100
AcDbBlockBegin
  2
*Paper_Space
 70
0
 10
0.0
 20
0.0
 30
0.0
  3
*Paper_Space
  1

  0
ENDBLK
  5
2C
330
23
100
AcDbEntity
 67
1
  8
0
100
AcDbBlockEnd
  0
BLOCK
  5
2F
330
24
100
AcDbEntity
 67
1
  8
0
100
AcDbBlockBegin
  2
*Paper_Space0
 70
0
 10
0.0
 20
0.0
 30
0.0
  3
*Paper_Space0
  1

  0
ENDBLK
  5
2E
330
24
100
AcDbEntity
 67
1
  8
0
100
AcDbBlockEnd
  0
ENDSEC
  0
SECTION
  2
ENTITIES
  0
LINE
  5
30
330
22
100
AcDbEntity
  8
B.Silkscreen
  6
CONTINUOUS
100
AcDbLine
 10
4.6250170472440946
 20
-4.2723243700787403
 30
0
 11
4.6251968503937011
 21
-4.2732283464566931
 31
0
  0
LINE
  5
31
330
22
100
AcDbEntity
  8
B.Silkscreen
  6
CONTINUOUS
100
AcDbLine
 10
4.6251968503937011
 20
-4.2732283464566931
 30
0
 11
4.6251968503937011
 21
-4.2838582677165356
 31
0
  0
LINE
  5
32
330
22
100
AcDbEntity
  8
B.Silkscreen
  6
CONTINUOUS
100
AcDbLine
 10
4.6251968503937011
 20
-4.2838582677165356
 30
0
 11
4.877952755905512
 21
-4.2838582677165356
 31
0
  0
LINE
  5
33
330
22
100
AcDbEntity
  8
B.Silkscreen
  6
CONTINUOUS
100
AcDbLine
 10
4.877952755905512
 20
-4.2838582677165356
 30
0
 11
4.877952755905512
 21
-4.2732283464566931
 31
0
  0
LINE
  5
34
330
22
100
AcDbEntity
  8
B.Silkscreen
  6
CONTINUOUS
100
AcDbLine
 10
4.877952755905512
 20
-4.2732283464566931
 30
0
 11
4.8781325590551177
 21
-4.2723243700787403
 31
0
  0
LINE
  5
35
330
22
100
AcDbEntity
  8
B.Silkscreen
  6
CONTINUOUS
100
AcDbLine
 10
4.8781325590551177
 20
-4.2723243700787403
 30
0
 11
4.879410984251968
 21
-4.27104594488189
 31
0
  0
LINE
  5
36
330
22
100
AcDbEntity
  8
B.Silkscreen
  6
CONTINUOUS
100
AcDbLine
 10
4.879410984251968
 20
-4.27104594488189
 30
0
 11
4.8812189370078736
 21
-4.27104594488189
 31
0
  0
LINE
  5
37
330
22
100
AcDbEntity
  8
B.Silkscreen
  6
CONTINUOUS
100
AcDbLine
 10
4.8812189370078736
 20
-4.27104594488189
 30
0
 11
4.8824973622047239
 21
-4.2723243700787403
 31
0
  0
LINE
  5
38
330
22
100
AcDbEntity
  8
B.Silkscreen
  6
CONTINUOUS
100
AcDbLine
 10
4.8824973622047239
 20
-4.2723243700787403
 30
0
 11
4.8826771653543304
 21
-4.2732283464566931
 31
0
  0
LINE
  5
39
330
22
100
AcDbEntity
  8
B.Silkscreen
  6
CONTINUOUS
100
AcDbLine
 10
4.8826771653543304
 20
-4.2732283464566931
 30
0
 11
4.8826771653543304
 21
-4.2862204724409452
 31
0
  0
LINE
  5
3A
330
22
100
AcDbEntity
  8
B.Silkscreen
  6
CONTINUOUS
100
AcDbLine
 10
4.8826771653543304
 20
-4.2862204724409452
 30
0
 11
4.8824973622047239
 21
-4.287124448818898
 31
0
  0
LINE
  5
3B
330
22
100
AcDbEntity
  8
B.Silkscreen
  6
CONTINUOUS
100
AcDbLine
 10
4.8824973622047239
 20
-4.287124448818898
 30
0
 11
4.8812189370078736
 21
-4.2884028740157483
 31
0
  0
LINE
  5
3C
330
22
100
AcDbEntity
  8
B.Silkscreen
  6
CONTINUOUS
100
AcDbLine
 10
4.8812189370078736
 20
-4.2884028740157483
 30
0
 11
4.8803149606299208
 21
-4.2885826771653539
 31
0
  0
LINE
  5
3D
330
22
100
AcDbEntity
  8
B.Silkscreen
  6
CONTINUOUS
100
AcDbLine
 10
4.8803149606299208
 20
-4.2885826771653539
 30
0
 11
4.6228346456692915
 21
-4.2885826771653539
 31
0
  0
LINE
  5
3E
330
22
100
AcDbEntity
  8
B.Silkscreen
  6
CONTINUOUS
100
AcDbLine
 10
4.6228346456692915
 20
-4.2885826771653539
 30
0
 11
4.6219306692913387
 21
-4.2884028740157483
 31
0
  0
LINE
  5
3F
330
22
100
AcDbEntity
  8
B.Silkscreen
  6
CONTINUOUS
100
AcDbLine
 10
4.6219306692913387
 20
-4.2884028740157483
 30
0
 11
4.6206522440944884
 21
-4.287124448818898
 31
0
  0
LINE
  5
40
330
22
100
AcDbEntity
  8
B.Silkscreen
  6
CONTINUOUS
100
AcDbLine
 10
4.6206522440944884
 20
-4.287124448818898
 30
0
 11
4.6204724409448819
 21
-4.2862204724409452
 31
0
  0
LINE
  5
41
330
22
100
AcDbEntity
  8
B.Silkscreen
  6
CONTINUOUS
100
AcDbLine
 10
4.6204724409448819
 20
-4.2862204724409452
 30
0
 11
4.6204724409448819
 21
-4.2732283464566931
 31
0
  0
LINE
  5
42
330
22
100
AcDbEntity
  8
B.Silkscreen
  6
CONTINUOUS
100
AcDbLine
 10
4.6204724409448819
 20
-4.2732283464566931
 30
0
 11
4.6206522440944884
 21
-4.2723243700787403
 31
0
  0
LINE
  5
43
330
22
100
AcDbEntity
  8
B.Silkscreen
  6
CONTINUOUS
100
AcDbLine
 10
4.6206522440944884
 20
-4.2723243700787403
 30
0
 11
4.6219306692913387
 21
-4.27104594488189
 31
0
  0
LINE
  5
44
330
22
100
AcDbEntity
  8
B.Silkscreen
  6
CONTINUOUS
100
AcDbLine
 10
4.6219306692913387
 20
-4.27104594488189
 30
0
 11
4.6237386220472443
 21
-4.27104594488189
 31
0
  0
LINE
  5
45
330
22
100
AcDbEntity
  8
B.Silkscreen
  6
CONTINUOUS
100
AcDbLine
 10
4.6237386220472443
 20
-4.27104594488189
 30
0
 11
4.6250170472440946
 21
-4.2723243700787403
 31
0
  0
LINE
  5
46
330
22
100
AcDbEntity
  8
B.Silkscreen
  6
CONTINUOUS
100
AcDbLine
 10
4.8812189370078736
 20
-4.1761640551181101
 30
0
 11
4.8824973622047239
 21
-4.1774424803149603
 31
0
  0
LINE
  5
47
330
22
100
AcDbEntity
  8
B.Silkscreen
  6
CONTINUOUS
100
AcDbLine
 10
4.8824973622047239
 20
-4.1774424803149603
 30
0
 11
4.8826771653543304
 21
-4.1783464566929132
 31
0
  0
LINE
  5
48
330
22
100
AcDbEntity
  8
B.Silkscreen
  6
CONTINUOUS
100
AcDbLine
 10
4.8826771653543304
 20
-4.1783464566929132
 30
0
 11
4.8826771653543304
 21
-4.1913385826771652
 31
0
  0
LINE
  5
49
330
22
100
AcDbEntity
  8
B.Silkscreen
  6
CONTINUOUS
100
AcDbLine
 10
4.8826771653543304
 20
-4.1913385826771652
 30
0
 11
4.8824973622047239
 21
-4.192242559055118
 31
0
  0
LINE
  5
4A
330
22
100
AcDbEntity
  8
B.Silkscreen
  6
CONTINUOUS
100
AcDbLine
 10
4.8824973622047239
 20
-4.192242559055118
 30
0
 11
4.8812189370078736
 21
-4.1935209842519683
 31
0
  0
LINE
  5
4B
330
22
100
AcDbEntity
  8
B.Silkscreen
  6
CONTINUOUS
100
AcDbLine
 10
4.8812189370078736
 20
-4.1935209842519683
 30
0
 11
4.879410984251968
 21
-4.1935209842519683
 31
0
  0
LINE
  5
4C
330
22
100
AcDbEntity
  8
B.Silkscreen
  6
CONTINUOUS
100
AcDbLine
 10
4.879410984251968
 20
-4.1935209842519683
 30
0
 11
4.8781325590551177
 21
-4.192242559055118
 31
0
  0
LINE
  5
4D
330
22
100
AcDbEntity
  8
B.Silkscreen
  6
CONTINUOUS
100
AcDbLine
 10
4.8781325590551177
 20
-4.192242559055118
 30
0
 11
4.877952755905512
 21
-4.1913385826771652
 31
0
  0
LINE
  5
4E
330
22
100
AcDbEntity
  8
B.Silkscreen
  6
CONTINUOUS
100
AcDbLine
 10
4.877952755905512
 20
-4.1913385826771652
 30
0
 11
4.877952755905512
 21
-4.1807086614173228
 31
0
  0
LINE
  5
4F
330
22
100
AcDbEntity
  8
B.Silkscreen
  6
CONTINUOUS
100
AcDbLine
 10
4.877952755905512
 20
-4.1807086614173228
 30
0
 11
4.6251968503937011
 21
-4.1807086614173228
 31
0
  0
LINE
  5
50
330
22
100
AcDbEntity
  8
B.Silkscreen
  6
CONTINUOUS
100
AcDbLine
 10
4.6251968503937011
 20
-4.1807086614173228
 30
0
 11
4.6251968503937011
 21
-4.1913385826771652
 31
0
  0
LINE
  5
51
330
22
100
AcDbEntity
  8
B.Silkscreen
  6
CONTINUOUS
100
AcDbLine
 10
4.6251968503937011
 20
-4.1913385826771652
 30
0
 11
4.6250170472440946
 21
-4.192242559055118
 31
0
  0
LINE
  5
52
330
22
100
AcDbEntity
  8
B.Silkscreen
  6
CONTINUOUS
100
AcDbLine
 10
4.6250170472440946
 20
-4.192242559055118
 30
0
 11
4.6237386220472443
 21
-4.1935209842519683
 31
0
  0
LINE
  5
53
330
22
100
AcDbEntity
  8
B.Silkscreen
  6
CONTINUOUS
100
AcDbLine
 10
4.6237386220472443
 20
-4.1935209842519683
 30
0
 11
4.6219306692913387
 21
-4.1935209842519683
 31
0
  0
LINE
  5
54
330
22
100
AcDbEntity
  8
B.Silkscreen
  6
CONTINUOUS
100
AcDbLine
 10
4.6219306692913387
 20
-4.1935209842519683
 30
0
 11
4.6206522440944884
 21
-4.192242559055118
 31
0
  0
LINE
  5
55
330
22
100
AcDbEntity
  8
B.Silkscreen
  6
CONTINUOUS
100
AcDbLine
 10
4.6206522440944884
 20
-4.192242559055118
 30
0
 11
4.6204724409448819
 21
-4.1913385826771652
 31
0
  0
LINE
  5
56
330
22
100
AcDbEntity
  8
B.Silkscreen
  6
CONTINUOUS
100
AcDbLine
 10
4.6204724409448819
 20
-4.1913385826771652
 30
0
 11
4.6204724409448819
 21
-4.1783464566929132
 31
0
  0
LINE
  5
57
330
22
100
AcDbEntity
  8
B.Silkscreen
  6
CONTINUOUS
100
AcDbLine
 10
4.6204724409448819
 20
-4.1783464566929132
 30
0
 11
4.6206522440944884
 21
-4.1774424803149603
 31
0
  0
LINE
  5
58
330
22
100
AcDbEntity
  8
B.Silkscreen
  6
CONTINUOUS
100
AcDbLine
 10
4.6206522440944884
 20
-4.1774424803149603
 30
0
 11
4.6219306692913387
 21
-4.1761640551181101
 31
0
  0
LINE
  5
59
330
22
100
AcDbEntity
  8
B.Silkscreen
  6
CONTINUOUS
100
AcDbLine
 10
4.6219306692913387
 20
-4.1761640551181101
 30
0
 11
4.6228346456692915
 21
-4.1759842519685035
 31
0
  0
LINE
  5
5A
330
22
100
AcDbEntity
  8
B.Silkscreen
  6
CONTINUOUS
100
AcDbLine
 10
4.6228346456692915
 20
-4.1759842519685035
 30
0
 11
4.8803149606299208
 21
-4.1759842519685035
 31
0
  0
LINE
  5
5B
330
22
100
AcDbEntity
  8
B.Silkscreen
  6
CONTINUOUS
100
AcDbLine
 10
4.8803149606299208
 20
-4.1759842519685035
 30
0
 11
4.8812189370078736
 21
-4.1761640551181101
 31
0
  0
ENDSEC
  0
SECTION
  2
OBJECTS
  0
DICTIONARY
  5
28
330
0
100
AcDbDictionary
281
1
  3
ACAD_GROUP
350
5C
  3
ACAD_LAYOUT
350
29
  3
ACAD_PLOTSTYLENAME
350
11
  0
DICTIONARY
  5
5C
330
28
100
AcDbDictionary
281
1
  0
ACDBDICTIONARYWDFLT
  5
11
330
28
100
AcDbDictionary
281
1
  3
Normal
350
10
100
AcDbDictionaryWithDefault
340
10
  0
ACDBPLACEHOLDER
  5
10
330
11
  0
DICTIONARY
  5
29
330
28
100
AcDbDictionary
281
1
  3
Model
350
25
  3
Layout1
350
26
  3
Layout2
350
27
  0
LAYOUT
  5
25
330
29
100
AcDbPlotSettings
  1

  2
none_device
  4
A3
  6

 40
0.0
 41
0.0
 42
0.0
 43
0.0
 44
420.0
 45
297.0
 46
0.0
 47
0.0
 48
0.0
 49
0.0
140
0.0
141
0.0
142
1.0
143
1.0
 70
1024
 72
1
 73
0
 74
5
  7

 75
16
 76
0
 77
2
 78
300
147
1.0
148
0.0
149
0.0
100
AcDbLayout
  1
Model
 70
1
 71
0
 10
0.0
 20
0.0
 11
420.0
 21
297.0
 12
0.0
 22
0.0
 32
0.0
 14
1e+20
 24
1e+20
 34
1e+20
 15
-1e+20
 25
-1e+20
 35
-1e+20
146
0.0
 13
0.0
 23
0.0
 33
0.0
 16
1.0
 26
0.0
 36
0.0
 17
0.0
 27
1.0
 37
0.0
 76
0
330
22
  0
LAYOUT
  5
26
330
29
100
AcDbPlotSettings
  1

  2
none_device
  4
A3
  6

 40
0.0
 41
0.0
 42
0.0
 43
0.0
 44
420.0
 45
297.0
 46
0.0
 47
0.0
 48
0.0
 49
0.0
140
0.0
141
0.0
142
1.0
143
1.0
 70
0
 72
1
 73
0
 74
5
  7

 75
16
 76
0
 77
2
 78
300
147
1.0
148
0.0
149
0.0
100
AcDbLayout
  1
Layout1
 70
1
 71
1
 10
0.0
 20
0.0
 11
420.0
 21
297.0
 12
0.0
 22
0.0
 32
0.0
 14
1e+20
 24
1e+20
 34
1e+20
 15
-1e+20
 25
-1e+20
 35
-1e+20
146
0.0
 13
0.0
 23
0.0
 33
0.0
 16
1.0
 26
0.0
 36
0.0
 17
0.0
 27
1.0
 37
0.0
 76
0
330
23
  0
LAYOUT
  5
27
330
29
100
AcDbPlotSettings
  1

  2
none_device
  4
A3
  6

 40
0.0
 41
0.0
 42
0.0
 43
0.0
 44
420.0
 45
297.0
 46
0.0
 47
0.0
 48
0.0
 49
0.0
140
0.0
141
0.0
142
1.0
143
1.0
 70
0
 72
1
 73
0
 74
5
  7

 75
16
 76
0
 77
2
 78
300
147
1.0
148
0.0
149
0.0
100
AcDbLayout
  1
Layout2
 70
1
 71
2
 10
0.0
 20
0.0
 11
420.0
 21
297.0
 12
0.0
 22
0.0
 32
0.0
 14
1e+20
 24
1e+20
 34
1e+20
 15
-1e+20
 25
-1e+20
 35
-1e+20
146
0.0
 13
0.0
 23
0.0
 33
0.0
 16
1.0
 26
0.0
 36
0.0
 17
0.0
 27
1.0
 37
0.0
 76
0
330
24
  0
ENDSEC
  0
EOF
