G04 #@! TF.GenerationSoftware,KiCad,Pcbnew,10.0.5*
G04 #@! TF.CreationDate,2026-08-13T16:50:30+08:00*
G04 #@! TF.ProjectId,Driver PCB,44726976-6572-4205-9043-422e6b696361,rev?*
G04 #@! TF.SameCoordinates,Original*
G04 #@! TF.FileFunction,Copper,L2,Bot*
G04 #@! TF.FilePolarity,Positive*
%FSLAX46Y46*%
G04 Gerber Fmt 4.6, Leading zero omitted, Abs format (unit mm)*
G04 Created by KiCad (PCBNEW 10.0.5) date 2026-08-13 16:50:30*
%MOMM*%
%LPD*%
G01*
G04 APERTURE LIST*
G04 #@! TA.AperFunction,ComponentPad*
%ADD10C,1.600000*%
G04 #@! TD*
G04 #@! TA.AperFunction,ComponentPad*
%ADD11R,1.700000X1.700000*%
G04 #@! TD*
G04 #@! TA.AperFunction,ComponentPad*
%ADD12C,1.700000*%
G04 #@! TD*
G04 #@! TA.AperFunction,ComponentPad*
%ADD13R,1.500000X1.500000*%
G04 #@! TD*
G04 #@! TA.AperFunction,ComponentPad*
%ADD14C,1.500000*%
G04 #@! TD*
G04 #@! TA.AperFunction,Conductor*
%ADD15C,0.400000*%
G04 #@! TD*
G04 APERTURE END LIST*
D10*
X111500000Y-98805923D03*
X116888154Y-104194077D03*
X116888154Y-81305923D03*
X111500000Y-86694077D03*
X128440000Y-95000000D03*
X136060000Y-95000000D03*
D11*
X140500000Y-89960000D03*
D12*
X140500000Y-92500000D03*
X140500000Y-95040000D03*
X140500000Y-97580000D03*
X140500000Y-100120000D03*
D13*
X125360000Y-104040000D03*
D14*
X125360000Y-101500000D03*
X125360000Y-98960000D03*
D13*
X125360000Y-86040000D03*
D14*
X125360000Y-83500000D03*
X125360000Y-80960000D03*
D10*
X128440000Y-86000000D03*
X136060000Y-86000000D03*
X128440000Y-104000000D03*
X136060000Y-104000000D03*
D13*
X125360000Y-95080000D03*
D14*
X125360000Y-92540000D03*
X125360000Y-90000000D03*
D10*
X110384077Y-92500000D03*
X118004077Y-92500000D03*
D11*
X107000000Y-89960000D03*
D12*
X107000000Y-92500000D03*
X107000000Y-95040000D03*
X107000000Y-97580000D03*
X107000000Y-100120000D03*
D10*
X124500000Y-107500000D03*
X116880000Y-107500000D03*
D15*
X105200000Y-98200000D02*
X105850000Y-98850000D01*
X107000000Y-95000000D02*
X105200000Y-96800000D01*
X105200000Y-96800000D02*
X105200000Y-98200000D01*
X111455923Y-98850000D02*
X111500000Y-98805923D01*
X107000000Y-94750000D02*
X107000000Y-95000000D01*
X105850000Y-98850000D02*
X111455923Y-98850000D01*
X116888154Y-104194077D02*
X122665923Y-104194077D01*
X126940000Y-105500000D02*
X124000000Y-105500000D01*
X124000000Y-105500000D02*
X122694077Y-104194077D01*
X122694077Y-104194077D02*
X122665923Y-104194077D01*
X122665923Y-104194077D02*
X125360000Y-101500000D01*
X128440000Y-104000000D02*
X126940000Y-105500000D01*
X133620000Y-83500000D02*
X125250000Y-83500000D01*
X119638154Y-83500000D02*
X125250000Y-83500000D01*
X136120000Y-86000000D02*
X133620000Y-83500000D01*
X117444077Y-81305923D02*
X119638154Y-83500000D01*
X108790000Y-89960000D02*
X112055923Y-86694077D01*
X107000000Y-89960000D02*
X108790000Y-89960000D01*
X127000000Y-101500000D02*
X127000000Y-102400000D01*
X108460000Y-97290000D02*
X113625000Y-92125000D01*
X125350000Y-95050000D02*
X119500000Y-95050000D01*
X113625000Y-92125000D02*
X114625000Y-92125000D01*
X117550000Y-95050000D02*
X114625000Y-92125000D01*
X119200000Y-97950000D02*
X121500000Y-100250000D01*
X133060000Y-101000000D02*
X127000000Y-101000000D01*
X136060000Y-101980000D02*
X136060000Y-104000000D01*
X114625000Y-92125000D02*
X120710000Y-86040000D01*
X125360000Y-95080000D02*
X128420000Y-95080000D01*
X125290000Y-86000000D02*
X128500000Y-86000000D01*
X127000000Y-101250000D02*
X127000000Y-101500000D01*
X125360000Y-95040000D02*
X125350000Y-95050000D01*
X126250000Y-100250000D02*
X127000000Y-101000000D01*
X120710000Y-86040000D02*
X125250000Y-86040000D01*
X136060000Y-104000000D02*
X133060000Y-101000000D01*
X107000000Y-97290000D02*
X108460000Y-97290000D01*
X127000000Y-101000000D02*
X127000000Y-101250000D01*
X119500000Y-95050000D02*
X119200000Y-95050000D01*
X119200000Y-95050000D02*
X117550000Y-95050000D01*
X140500000Y-97540000D02*
X136060000Y-101980000D01*
X128420000Y-95080000D02*
X128500000Y-95000000D01*
X127000000Y-102400000D02*
X125360000Y-104040000D01*
X121500000Y-100250000D02*
X126250000Y-100250000D01*
X125250000Y-86040000D02*
X125290000Y-86000000D01*
X119200000Y-95050000D02*
X119200000Y-97950000D01*
X133660000Y-92540000D02*
X125360000Y-92540000D01*
X118004077Y-92500000D02*
X125360000Y-92500000D01*
X136120000Y-95000000D02*
X133660000Y-92540000D01*
X140500000Y-88300000D02*
X140500000Y-89920000D01*
X133160000Y-80960000D02*
X140500000Y-88300000D01*
X125250000Y-80960000D02*
X133160000Y-80960000D01*
X138040000Y-90000000D02*
X125360000Y-90000000D01*
X140500000Y-92460000D02*
X138040000Y-90000000D01*
X136540000Y-98960000D02*
X140500000Y-95000000D01*
X125360000Y-98960000D02*
X136540000Y-98960000D01*
X134750000Y-107500000D02*
X140500000Y-101750000D01*
X124500000Y-107500000D02*
X134750000Y-107500000D01*
X140500000Y-101750000D02*
X140500000Y-100080000D01*
X110384077Y-92500000D02*
X107000000Y-92500000D01*
X116880000Y-107500000D02*
X114670000Y-107500000D01*
X114670000Y-107500000D02*
X107000000Y-99830000D01*
M02*
