  0
SECTION
  2
HEADER
  9
$ACADVER
  1
AC1018
  9
$HANDSEED
  5
FFFFFFFF
  9
$ANGBASE
  50
0.0
  9
$ANGDIR
  70
1
  9
$MEASUREMENT
  70
0
  9
$INSUNITS
  70
1
  0
ENDSEC
  0
SECTION
  2
TABLES
  0
TABLE
  2
APPID
  5
1
330
0
100
AcDbSymbolTable
 70
1
  0
APPID
  5
2
330
1
100
AcDbSymbolTableRecord
100
AcDbRegAppTableRecord
  2
ACAD
 70
0
  0
ENDTAB
  0
TABLE
  2
LTYPE
  5
3
330
0
100
AcDbSymbolTable
 70
6
  0
LTYPE
  5
4
330
3
100
AcDbSymbolTableRecord
100
AcDbLinetypeTableRecord
  2
ByBlock
 70
0
  3

 72
65
 73
0
 40
0
  0
LTYPE
  5
5
330
3
100
AcDbSymbolTableRecord
100
AcDbLinetypeTableRecord
  2
ByLayer
 70
0
  3

 72
65
 73
0
 40
0
  0
LTYPE
  5
6
330
3
100
AcDbSymbolTableRecord
100
AcDbLinetypeTableRecord
  2
CONTINUOUS
 70
0
  3
Solid line
 72
65
 73
0
 40
0
  0
LTYPE
  5
7
330
3
100
AcDbSymbolTableRecord
100
AcDbLinetypeTableRecord
  2
DASHDOT
 70
0
  3
Dash Dot ____ _ ____ _
 72
65
 73
4
 40
2
 49
1.25
 74
0
 49
-0.25
 74
0
 49
0.25
 74
0
 49
-0.25
 74
0
  0
LTYPE
  5
8
330
3
100
AcDbSymbolTableRecord
100
AcDbLinetypeTableRecord
  2
DASHED
 70
0
  3
Dashed __ __ __ __ __
 72
65
 73
2
 40
0.75
 49
0.5
 74
0
 49
-0.25
 74
0
  0
LTYPE
  5
9
330
3
100
AcDbSymbolTableRecord
100
AcDbLinetypeTableRecord
  2
DOTTED
 70
0
  3
Dotted .  .  .  .
 72
65
 73
2
 40
0.2
 49
0.0
 74
0
 49
-0.2
 74
0
  0
ENDTAB
  0
TABLE
  2
STYLE
  5
A
330
0
100
AcDbSymbolTable
 70
4
  0
STYLE
  5
B
330
A
100
AcDbSymbolTableRecord
100
AcDbTextStyleTableRecord
  2
KICAD
 70
0
 40
0
 41
1
 42
1
 50
0
 71
0
  3
isocp.shx
  0
STYLE
  5
C
330
A
100
AcDbSymbolTableRecord
100
AcDbTextStyleTableRecord
  2
KICADB
 70
0
 40
0
 41
1
 42
1
 50
0
 71
0
  3
isocp.shx
  0
STYLE
  5
D
330
A
100
AcDbSymbolTableRecord
100
AcDbTextStyleTableRecord
  2
KICADI
 70
0
 40
0
 41
1
 42
1
 50
15
 71
0
  3
isocp.shx
  0
STYLE
  5
E
330
A
100
AcDbSymbolTableRecord
100
AcDbTextStyleTableRecord
  2
KICADBI
 70
0
 40
0
 41
1
 42
1
 50
15
 71
0
  3
isocp.shx
  0
ENDTAB
  0
TABLE
  2
LAYER
  5
F
330
0
100
AcDbSymbolTable
 70
10
  0
LAYER
  5
12
330
F
100
AcDbSymbolTableRecord
100
AcDbLayerTableRecord
  2
0
 70
0
 62
7
  6
CONTINUOUS
390
10
  0
LAYER
  5
13
330
F
100
AcDbSymbolTableRecord
100
AcDbLayerTableRecord
  2
F.Cu
 70
0
 62
13
420
13120564
  6
CONTINUOUS
390
10
  0
LAYER
  5
14
330
F
100
AcDbSymbolTableRecord
100
AcDbLayerTableRecord
  2
B.Cu
 70
0
 62
153
420
5078980
  6
CONTINUOUS
390
10
  0
LAYER
  5
15
330
F
100
AcDbSymbolTableRecord
100
AcDbLayerTableRecord
  2
F.Paste
 70
0
 62
253
420
11837594
  6
CONTINUOUS
390
10
  0
LAYER
  5
16
330
F
100
AcDbSymbolTableRecord
100
AcDbLayerTableRecord
  2
B.Paste
 70
0
 62
132
420
49858
  6
CONTINUOUS
390
10
  0
LAYER
  5
17
330
F
100
AcDbSymbolTableRecord
100
AcDbLayerTableRecord
  2
F.Silkscreen
 70
0
 62
41
420
15920545
  6
CONTINUOUS
390
10
  0
LAYER
  5
18
330
F
100
AcDbSymbolTableRecord
100
AcDbLayerTableRecord
  2
B.Silkscreen
 70
0
 62
31
420
15250087
  6
CONTINUOUS
390
10
  0
LAYER
  5
19
330
F
100
AcDbSymbolTableRecord
100
AcDbLayerTableRecord
  2
F.Mask
 70
0
 62
201
420
14181631
  6
CONTINUOUS
390
10
  0
LAYER
  5
1A
330
F
100
AcDbSymbolTableRecord
100
AcDbLayerTableRecord
  2
B.Mask
 70
0
 62
4
420
196590
  6
CONTINUOUS
390
10
  0
LAYER
  5
1B
330
F
100
AcDbSymbolTableRecord
100
AcDbLayerTableRecord
  2
Edge.Cuts
 70
0
 62
254
420
13685453
  6
CONTINUOUS
390
10
  0
ENDTAB
  0
TABLE
  2
VPORT
  5
1C
330
0
100
AcDbSymbolTable
 70
0
  0
ENDTAB
  0
TABLE
  2
VIEW
  5
1D
330
0
100
AcDbSymbolTable
 70
0
  0
ENDTAB
  0
TABLE
  2
UCS
  5
1E
330
0
100
AcDbSymbolTable
 70
0
  0
ENDTAB
  0
TABLE
  2
DIMSTYLE
  5
1F
330
0
100
AcDbSymbolTable
 70
1
100
AcDbDimStyleTable
 71
0
  0
DIMSTYLE
105
20
330
1F
100
AcDbSymbolTableRecord
100
AcDbDimStyleTableRecord
  2
Standard
 70
0
  0
ENDTAB
  0
TABLE
  2
BLOCK_RECORD
  5
21
330
0
100
AcDbSymbolTable
 70
3
  0
BLOCK_RECORD
  5
22
330
21
100
AcDbSymbolTableRecord
100
AcDbBlockTableRecord
  2
*Model_Space
340
25
 70
0
280
1
281
0
  0
BLOCK_RECORD
  5
23
330
21
100
AcDbSymbolTableRecord
100
AcDbBlockTableRecord
  2
*Paper_Space
340
26
 70
0
280
1
281
0
  0
BLOCK_RECORD
  5
24
330
21
100
AcDbSymbolTableRecord
100
AcDbBlockTableRecord
  2
*Paper_Space0
340
27
 70
0
280
1
281
0
  0
ENDTAB
  0
ENDSEC
  0
SECTION
  2
BLOCKS
  0
BLOCK
  5
2B
330
22
100
AcDbEntity
  8
0
100
AcDbBlockBegin
  2
*Model_Space
 70
0
 10
0.0
 20
0.0
 30
0.0
  3
*Model_Space
  1

  0
ENDBLK
  5
2A
330
22
100
AcDbEntity
  8
0
100
AcDbBlockEnd
  0
BLOCK
  5
2D
330
23
100
AcDbEntity
 67
1
  8
0
100
AcDbBlockBegin
  2
*Paper_Space
 70
0
 10
0.0
 20
0.0
 30
0.0
  3
*Paper_Space
  1

  0
ENDBLK
  5
2C
330
23
100
AcDbEntity
 67
1
  8
0
100
AcDbBlockEnd
  0
BLOCK
  5
2F
330
24
100
AcDbEntity
 67
1
  8
0
100
AcDbBlockBegin
  2
*Paper_Space0
 70
0
 10
0.0
 20
0.0
 30
0.0
  3
*Paper_Space0
  1

  0
ENDBLK
  5
2E
330
24
100
AcDbEntity
 67
1
  8
0
100
AcDbBlockEnd
  0
ENDSEC
  0
SECTION
  2
ENTITIES
  0
LINE
  5
30
330
22
100
AcDbEntity
  8
Edge.Cuts
  6
CONTINUOUS
100
AcDbLine
 10
5.5216535433070861
 20
-3.0698818897637796
 30
0
 11
5.537990590551181
 21
-3.0705575984251969
 31
0
  0
LINE
  5
31
330
22
100
AcDbEntity
  8
Edge.Cuts
  6
CONTINUOUS
100
AcDbLine
 10
5.537990590551181
 20
-3.0705575984251969
 30
0
 11
5.5542160629921256
 21
-3.0725800787401574
 31
0
  0
LINE
  5
32
330
22
100
AcDbEntity
  8
Edge.Cuts
  6
CONTINUOUS
100
AcDbLine
 10
5.5542160629921256
 20
-3.0725800787401574
 30
0
 11
5.5702190944881886
 21
-3.0759355905511812
 31
0
  0
LINE
  5
33
330
22
100
AcDbEntity
  8
Edge.Cuts
  6
CONTINUOUS
100
AcDbLine
 10
5.5702190944881886
 20
-3.0759355905511812
 30
0
 11
5.5858903543307088
 21
-3.0806011023622046
 31
0
  0
LINE
  5
34
330
22
100
AcDbEntity
  8
Edge.Cuts
  6
CONTINUOUS
100
AcDbLine
 10
5.5858903543307088
 20
-3.0806011023622046
 30
0
 11
5.6011228346456692
 21
-3.0865448425196851
 31
0
  0
LINE
  5
35
330
22
100
AcDbEntity
  8
Edge.Cuts
  6
CONTINUOUS
100
AcDbLine
 10
5.6011228346456692
 20
-3.0865448425196851
 30
0
 11
5.6158124409448815
 21
-3.0937261417322834
 31
0
  0
LINE
  5
36
330
22
100
AcDbEntity
  8
Edge.Cuts
  6
CONTINUOUS
100
AcDbLine
 10
5.6158124409448815
 20
-3.0937261417322834
 30
0
 11
5.629858858267716
 21
-3.1020959842519686
 31
0
  0
LINE
  5
37
330
22
100
AcDbEntity
  8
Edge.Cuts
  6
CONTINUOUS
100
AcDbLine
 10
5.629858858267716
 20
-3.1020959842519686
 30
0
 11
5.6431661023622048
 21
-3.1115972047244096
 31
0
  0
LINE
  5
38
330
22
100
AcDbEntity
  8
Edge.Cuts
  6
CONTINUOUS
100
AcDbLine
 10
5.6431661023622048
 20
-3.1115972047244096
 30
0
 11
5.6556433070866143
 21
-3.1221648425196848
 31
0
  0
LINE
  5
39
330
22
100
AcDbEntity
  8
Edge.Cuts
  6
CONTINUOUS
100
AcDbLine
 10
5.6556433070866143
 20
-3.1221648425196848
 30
0
 11
5.6672052362204726
 21
-3.1337267716535431
 31
0
  0
LINE
  5
3A
330
22
100
AcDbEntity
  8
Edge.Cuts
  6
CONTINUOUS
100
AcDbLine
 10
5.6672052362204726
 20
-3.1337267716535431
 30
0
 11
5.6777728740157478
 21
-3.1462039763779526
 31
0
  0
LINE
  5
3B
330
22
100
AcDbEntity
  8
Edge.Cuts
  6
CONTINUOUS
100
AcDbLine
 10
5.6777728740157478
 20
-3.1462039763779526
 30
0
 11
5.6872740944881892
 21
-3.1595112204724409
 31
0
  0
LINE
  5
3C
330
22
100
AcDbEntity
  8
Edge.Cuts
  6
CONTINUOUS
100
AcDbLine
 10
5.6872740944881892
 20
-3.1595112204724409
 30
0
 11
5.6956439370078735
 21
-3.1735576377952754
 31
0
  0
LINE
  5
3D
330
22
100
AcDbEntity
  8
Edge.Cuts
  6
CONTINUOUS
100
AcDbLine
 10
5.6956439370078735
 20
-3.1735576377952754
 30
0
 11
5.7028252362204723
 21
-3.1882472440944882
 31
0
  0
LINE
  5
3E
330
22
100
AcDbEntity
  8
Edge.Cuts
  6
CONTINUOUS
100
AcDbLine
 10
5.7028252362204723
 20
-3.1882472440944882
 30
0
 11
5.7087689763779528
 21
-3.2034797244094486
 31
0
  0
LINE
  5
3F
330
22
100
AcDbEntity
  8
Edge.Cuts
  6
CONTINUOUS
100
AcDbLine
 10
5.7087689763779528
 20
-3.2034797244094486
 30
0
 11
5.7134344881889758
 21
-3.2191509842519683
 31
0
  0
LINE
  5
40
330
22
100
AcDbEntity
  8
Edge.Cuts
  6
CONTINUOUS
100
AcDbLine
 10
5.7134344881889758
 20
-3.2191509842519683
 30
0
 11
5.7167899999999996
 21
-3.2351540157480314
 31
0
  0
LINE
  5
41
330
22
100
AcDbEntity
  8
Edge.Cuts
  6
CONTINUOUS
100
AcDbLine
 10
5.7167899999999996
 20
-3.2351540157480314
 30
0
 11
5.7188124803149609
 21
-3.2513794881889764
 31
0
  0
LINE
  5
42
330
22
100
AcDbEntity
  8
Edge.Cuts
  6
CONTINUOUS
100
AcDbLine
 10
5.7188124803149609
 20
-3.2513794881889764
 30
0
 11
5.7194881889763778
 21
-3.2677165354330708
 31
0
  0
LINE
  5
43
330
22
100
AcDbEntity
  8
Edge.Cuts
  6
CONTINUOUS
100
AcDbLine
 10
5.7194881889763778
 20
-3.2677165354330708
 30
0
 11
5.7194881889763778
 21
-4.2027559055118111
 31
0
  0
LINE
  5
44
330
22
100
AcDbEntity
  8
Edge.Cuts
  6
CONTINUOUS
100
AcDbLine
 10
5.7194881889763778
 20
-4.2027559055118111
 30
0
 11
5.7188124803149609
 21
-4.2190929527559051
 31
0
  0
LINE
  5
45
330
22
100
AcDbEntity
  8
Edge.Cuts
  6
CONTINUOUS
100
AcDbLine
 10
5.7188124803149609
 20
-4.2190929527559051
 30
0
 11
5.7167899999999996
 21
-4.2353184251968505
 31
0
  0
LINE
  5
46
330
22
100
AcDbEntity
  8
Edge.Cuts
  6
CONTINUOUS
100
AcDbLine
 10
5.7167899999999996
 20
-4.2353184251968505
 30
0
 11
5.7134344881889758
 21
-4.2513214566929136
 31
0
  0
LINE
  5
47
330
22
100
AcDbEntity
  8
Edge.Cuts
  6
CONTINUOUS
100
AcDbLine
 10
5.7134344881889758
 20
-4.2513214566929136
 30
0
 11
5.7087689763779528
 21
-4.2669927165354329
 31
0
  0
LINE
  5
48
330
22
100
AcDbEntity
  8
Edge.Cuts
  6
CONTINUOUS
100
AcDbLine
 10
5.7087689763779528
 20
-4.2669927165354329
 30
0
 11
5.7028252362204723
 21
-4.2822251968503933
 31
0
  0
LINE
  5
49
330
22
100
AcDbEntity
  8
Edge.Cuts
  6
CONTINUOUS
100
AcDbLine
 10
5.7028252362204723
 20
-4.2822251968503933
 30
0
 11
5.6956439370078735
 21
-4.2969148031496065
 31
0
  0
LINE
  5
4A
330
22
100
AcDbEntity
  8
Edge.Cuts
  6
CONTINUOUS
100
AcDbLine
 10
5.6956439370078735
 20
-4.2969148031496065
 30
0
 11
5.6872740944881892
 21
-4.310961220472441
 31
0
  0
LINE
  5
4B
330
22
100
AcDbEntity
  8
Edge.Cuts
  6
CONTINUOUS
100
AcDbLine
 10
5.6872740944881892
 20
-4.310961220472441
 30
0
 11
5.6777728740157478
 21
-4.3242684645669289
 31
0
  0
LINE
  5
4C
330
22
100
AcDbEntity
  8
Edge.Cuts
  6
CONTINUOUS
100
AcDbLine
 10
5.6777728740157478
 20
-4.3242684645669289
 30
0
 11
5.6672052362204726
 21
-4.3367456692913384
 31
0
  0
LINE
  5
4D
330
22
100
AcDbEntity
  8
Edge.Cuts
  6
CONTINUOUS
100
AcDbLine
 10
5.6672052362204726
 20
-4.3367456692913384
 30
0
 11
5.6556433070866143
 21
-4.3483075984251967
 31
0
  0
LINE
  5
4E
330
22
100
AcDbEntity
  8
Edge.Cuts
  6
CONTINUOUS
100
AcDbLine
 10
5.6556433070866143
 20
-4.3483075984251967
 30
0
 11
5.6431661023622048
 21
-4.3588752362204719
 31
0
  0
LINE
  5
4F
330
22
100
AcDbEntity
  8
Edge.Cuts
  6
CONTINUOUS
100
AcDbLine
 10
5.6431661023622048
 20
-4.3588752362204719
 30
0
 11
5.629858858267716
 21
-4.3683764566929133
 31
0
  0
LINE
  5
50
330
22
100
AcDbEntity
  8
Edge.Cuts
  6
CONTINUOUS
100
AcDbLine
 10
5.629858858267716
 20
-4.3683764566929133
 30
0
 11
5.6158124409448815
 21
-4.3767462992125985
 31
0
  0
LINE
  5
51
330
22
100
AcDbEntity
  8
Edge.Cuts
  6
CONTINUOUS
100
AcDbLine
 10
5.6158124409448815
 20
-4.3767462992125985
 30
0
 11
5.6011228346456692
 21
-4.3839275984251964
 31
0
  0
LINE
  5
52
330
22
100
AcDbEntity
  8
Edge.Cuts
  6
CONTINUOUS
100
AcDbLine
 10
5.6011228346456692
 20
-4.3839275984251964
 30
0
 11
5.5858903543307088
 21
-4.3898713385826769
 31
0
  0
LINE
  5
53
330
22
100
AcDbEntity
  8
Edge.Cuts
  6
CONTINUOUS
100
AcDbLine
 10
5.5858903543307088
 20
-4.3898713385826769
 30
0
 11
5.5702190944881886
 21
-4.3945368503937008
 31
0
  0
LINE
  5
54
330
22
100
AcDbEntity
  8
Edge.Cuts
  6
CONTINUOUS
100
AcDbLine
 10
5.5702190944881886
 20
-4.3945368503937008
 30
0
 11
5.5542160629921256
 21
-4.3978923622047246
 31
0
  0
LINE
  5
55
330
22
100
AcDbEntity
  8
Edge.Cuts
  6
CONTINUOUS
100
AcDbLine
 10
5.5542160629921256
 20
-4.3978923622047246
 30
0
 11
5.537990590551181
 21
-4.399914842519685
 31
0
  0
LINE
  5
56
330
22
100
AcDbEntity
  8
Edge.Cuts
  6
CONTINUOUS
100
AcDbLine
 10
5.537990590551181
 20
-4.399914842519685
 30
0
 11
5.5216535433070861
 21
-4.4005905511811019
 31
0
  0
LINE
  5
57
330
22
100
AcDbEntity
  8
Edge.Cuts
  6
CONTINUOUS
100
AcDbLine
 10
5.5216535433070861
 20
-4.4005905511811019
 30
0
 11
4.2322834645669287
 21
-4.4005905511811019
 31
0
  0
LINE
  5
58
330
22
100
AcDbEntity
  8
Edge.Cuts
  6
CONTINUOUS
100
AcDbLine
 10
4.2322834645669287
 20
-4.4005905511811019
 30
0
 11
4.2159464173228347
 21
-4.399914842519685
 31
0
  0
LINE
  5
59
330
22
100
AcDbEntity
  8
Edge.Cuts
  6
CONTINUOUS
100
AcDbLine
 10
4.2159464173228347
 20
-4.399914842519685
 30
0
 11
4.1997209448818893
 21
-4.3978923622047246
 31
0
  0
LINE
  5
5A
330
22
100
AcDbEntity
  8
Edge.Cuts
  6
CONTINUOUS
100
AcDbLine
 10
4.1997209448818893
 20
-4.3978923622047246
 30
0
 11
4.1837179133858271
 21
-4.3945368503937008
 31
0
  0
LINE
  5
5B
330
22
100
AcDbEntity
  8
Edge.Cuts
  6
CONTINUOUS
100
AcDbLine
 10
4.1837179133858271
 20
-4.3945368503937008
 30
0
 11
4.1680466535433069
 21
-4.3898713385826769
 31
0
  0
LINE
  5
5C
330
22
100
AcDbEntity
  8
Edge.Cuts
  6
CONTINUOUS
100
AcDbLine
 10
4.1680466535433069
 20
-4.3898713385826769
 30
0
 11
4.1528141732283466
 21
-4.3839275984251964
 31
0
  0
LINE
  5
5D
330
22
100
AcDbEntity
  8
Edge.Cuts
  6
CONTINUOUS
100
AcDbLine
 10
4.1528141732283466
 20
-4.3839275984251964
 30
0
 11
4.1381245669291333
 21
-4.3767462992125985
 31
0
  0
LINE
  5
5E
330
22
100
AcDbEntity
  8
Edge.Cuts
  6
CONTINUOUS
100
AcDbLine
 10
4.1381245669291333
 20
-4.3767462992125985
 30
0
 11
4.1240781496062988
 21
-4.3683764566929133
 31
0
  0
LINE
  5
5F
330
22
100
AcDbEntity
  8
Edge.Cuts
  6
CONTINUOUS
100
AcDbLine
 10
4.1240781496062988
 20
-4.3683764566929133
 30
0
 11
4.1107709055118109
 21
-4.3588752362204719
 31
0
  0
LINE
  5
60
330
22
100
AcDbEntity
  8
Edge.Cuts
  6
CONTINUOUS
100
AcDbLine
 10
4.1107709055118109
 20
-4.3588752362204719
 30
0
 11
4.0982937007874014
 21
-4.3483075984251967
 31
0
  0
LINE
  5
61
330
22
100
AcDbEntity
  8
Edge.Cuts
  6
CONTINUOUS
100
AcDbLine
 10
4.0982937007874014
 20
-4.3483075984251967
 30
0
 11
4.0867317716535432
 21
-4.3367456692913384
 31
0
  0
LINE
  5
62
330
22
100
AcDbEntity
  8
Edge.Cuts
  6
CONTINUOUS
100
AcDbLine
 10
4.0867317716535432
 20
-4.3367456692913384
 30
0
 11
4.0761641338582679
 21
-4.3242684645669289
 31
0
  0
LINE
  5
63
330
22
100
AcDbEntity
  8
Edge.Cuts
  6
CONTINUOUS
100
AcDbLine
 10
4.0761641338582679
 20
-4.3242684645669289
 30
0
 11
4.0666629133858265
 21
-4.310961220472441
 31
0
  0
LINE
  5
64
330
22
100
AcDbEntity
  8
Edge.Cuts
  6
CONTINUOUS
100
AcDbLine
 10
4.0666629133858265
 20
-4.310961220472441
 30
0
 11
4.0582930708661413
 21
-4.2969148031496065
 31
0
  0
LINE
  5
65
330
22
100
AcDbEntity
  8
Edge.Cuts
  6
CONTINUOUS
100
AcDbLine
 10
4.0582930708661413
 20
-4.2969148031496065
 30
0
 11
4.0511117716535434
 21
-4.2822251968503933
 31
0
  0
LINE
  5
66
330
22
100
AcDbEntity
  8
Edge.Cuts
  6
CONTINUOUS
100
AcDbLine
 10
4.0511117716535434
 20
-4.2822251968503933
 30
0
 11
4.045168031496063
 21
-4.2669927165354329
 31
0
  0
LINE
  5
67
330
22
100
AcDbEntity
  8
Edge.Cuts
  6
CONTINUOUS
100
AcDbLine
 10
4.045168031496063
 20
-4.2669927165354329
 30
0
 11
4.040502519685039
 21
-4.2513214566929136
 31
0
  0
LINE
  5
68
330
22
100
AcDbEntity
  8
Edge.Cuts
  6
CONTINUOUS
100
AcDbLine
 10
4.040502519685039
 20
-4.2513214566929136
 30
0
 11
4.0371470078740153
 21
-4.2353184251968505
 31
0
  0
LINE
  5
69
330
22
100
AcDbEntity
  8
Edge.Cuts
  6
CONTINUOUS
100
AcDbLine
 10
4.0371470078740153
 20
-4.2353184251968505
 30
0
 11
4.0351245275590548
 21
-4.2190929527559051
 31
0
  0
LINE
  5
6A
330
22
100
AcDbEntity
  8
Edge.Cuts
  6
CONTINUOUS
100
AcDbLine
 10
4.0351245275590548
 20
-4.2190929527559051
 30
0
 11
4.034448818897638
 21
-4.2027559055118111
 31
0
  0
LINE
  5
6B
330
22
100
AcDbEntity
  8
Edge.Cuts
  6
CONTINUOUS
100
AcDbLine
 10
4.034448818897638
 20
-4.2027559055118111
 30
0
 11
4.034448818897638
 21
-3.2677165354330708
 31
0
  0
LINE
  5
6C
330
22
100
AcDbEntity
  8
Edge.Cuts
  6
CONTINUOUS
100
AcDbLine
 10
4.034448818897638
 20
-3.2677165354330708
 30
0
 11
4.0351245275590548
 21
-3.2513794881889764
 31
0
  0
LINE
  5
6D
330
22
100
AcDbEntity
  8
Edge.Cuts
  6
CONTINUOUS
100
AcDbLine
 10
4.0351245275590548
 20
-3.2513794881889764
 30
0
 11
4.0371470078740153
 21
-3.2351540157480314
 31
0
  0
LINE
  5
6E
330
22
100
AcDbEntity
  8
Edge.Cuts
  6
CONTINUOUS
100
AcDbLine
 10
4.0371470078740153
 20
-3.2351540157480314
 30
0
 11
4.040502519685039
 21
-3.2191509842519683
 31
0
  0
LINE
  5
6F
330
22
100
AcDbEntity
  8
Edge.Cuts
  6
CONTINUOUS
100
AcDbLine
 10
4.040502519685039
 20
-3.2191509842519683
 30
0
 11
4.045168031496063
 21
-3.2034797244094486
 31
0
  0
LINE
  5
70
330
22
100
AcDbEntity
  8
Edge.Cuts
  6
CONTINUOUS
100
AcDbLine
 10
4.045168031496063
 20
-3.2034797244094486
 30
0
 11
4.0511117716535434
 21
-3.1882472440944882
 31
0
  0
LINE
  5
71
330
22
100
AcDbEntity
  8
Edge.Cuts
  6
CONTINUOUS
100
AcDbLine
 10
4.0511117716535434
 20
-3.1882472440944882
 30
0
 11
4.0582930708661413
 21
-3.1735576377952754
 31
0
  0
LINE
  5
72
330
22
100
AcDbEntity
  8
Edge.Cuts
  6
CONTINUOUS
100
AcDbLine
 10
4.0582930708661413
 20
-3.1735576377952754
 30
0
 11
4.0666629133858265
 21
-3.1595112204724409
 31
0
  0
LINE
  5
73
330
22
100
AcDbEntity
  8
Edge.Cuts
  6
CONTINUOUS
100
AcDbLine
 10
4.0666629133858265
 20
-3.1595112204724409
 30
0
 11
4.0761641338582679
 21
-3.1462039763779526
 31
0
  0
LINE
  5
74
330
22
100
AcDbEntity
  8
Edge.Cuts
  6
CONTINUOUS
100
AcDbLine
 10
4.0761641338582679
 20
-3.1462039763779526
 30
0
 11
4.0867317716535432
 21
-3.1337267716535431
 31
0
  0
LINE
  5
75
330
22
100
AcDbEntity
  8
Edge.Cuts
  6
CONTINUOUS
100
AcDbLine
 10
4.0867317716535432
 20
-3.1337267716535431
 30
0
 11
4.0982937007874014
 21
-3.1221648425196848
 31
0
  0
LINE
  5
76
330
22
100
AcDbEntity
  8
Edge.Cuts
  6
CONTINUOUS
100
AcDbLine
 10
4.0982937007874014
 20
-3.1221648425196848
 30
0
 11
4.1107709055118109
 21
-3.1115972047244096
 31
0
  0
LINE
  5
77
330
22
100
AcDbEntity
  8
Edge.Cuts
  6
CONTINUOUS
100
AcDbLine
 10
4.1107709055118109
 20
-3.1115972047244096
 30
0
 11
4.1240781496062988
 21
-3.1020959842519686
 31
0
  0
LINE
  5
78
330
22
100
AcDbEntity
  8
Edge.Cuts
  6
CONTINUOUS
100
AcDbLine
 10
4.1240781496062988
 20
-3.1020959842519686
 30
0
 11
4.1381245669291333
 21
-3.0937261417322834
 31
0
  0
LINE
  5
79
330
22
100
AcDbEntity
  8
Edge.Cuts
  6
CONTINUOUS
100
AcDbLine
 10
4.1381245669291333
 20
-3.0937261417322834
 30
0
 11
4.1528141732283466
 21
-3.0865448425196851
 31
0
  0
LINE
  5
7A
330
22
100
AcDbEntity
  8
Edge.Cuts
  6
CONTINUOUS
100
AcDbLine
 10
4.1528141732283466
 20
-3.0865448425196851
 30
0
 11
4.1680466535433069
 21
-3.0806011023622046
 31
0
  0
LINE
  5
7B
330
22
100
AcDbEntity
  8
Edge.Cuts
  6
CONTINUOUS
100
AcDbLine
 10
4.1680466535433069
 20
-3.0806011023622046
 30
0
 11
4.1837179133858271
 21
-3.0759355905511812
 31
0
  0
LINE
  5
7C
330
22
100
AcDbEntity
  8
Edge.Cuts
  6
CONTINUOUS
100
AcDbLine
 10
4.1837179133858271
 20
-3.0759355905511812
 30
0
 11
4.1997209448818893
 21
-3.0725800787401574
 31
0
  0
LINE
  5
7D
330
22
100
AcDbEntity
  8
Edge.Cuts
  6
CONTINUOUS
100
AcDbLine
 10
4.1997209448818893
 20
-3.0725800787401574
 30
0
 11
4.2159464173228347
 21
-3.0705575984251969
 31
0
  0
LINE
  5
7E
330
22
100
AcDbEntity
  8
Edge.Cuts
  6
CONTINUOUS
100
AcDbLine
 10
4.2159464173228347
 20
-3.0705575984251969
 30
0
 11
4.2322834645669287
 21
-3.0698818897637796
 31
0
  0
LINE
  5
7F
330
22
100
AcDbEntity
  8
Edge.Cuts
  6
CONTINUOUS
100
AcDbLine
 10
4.2322834645669287
 20
-3.0698818897637796
 30
0
 11
5.5216535433070861
 21
-3.0698818897637796
 31
0
  0
LINE
  5
80
330
22
100
AcDbEntity
  8
Edge.Cuts
  6
CONTINUOUS
100
AcDbLine
 10
4.2322834645669287
 20
-3.0718503937007875
 30
0
 11
4.2241823622047239
 21
-3.0718503937007875
 31
0
  0
LINE
  5
81
330
22
100
AcDbEntity
  8
Edge.Cuts
  6
CONTINUOUS
100
AcDbLine
 10
4.2241823622047239
 20
-3.0718503937007875
 30
0
 11
4.2080355511811023
 21
-3.0731883858267715
 31
0
  0
LINE
  5
82
330
22
100
AcDbEntity
  8
Edge.Cuts
  6
CONTINUOUS
100
AcDbLine
 10
4.2080355511811023
 20
-3.0731883858267715
 30
0
 11
4.1920543700787398
 21
-3.0758551574803148
 31
0
  0
LINE
  5
83
330
22
100
AcDbEntity
  8
Edge.Cuts
  6
CONTINUOUS
100
AcDbLine
 10
4.1920543700787398
 20
-3.0758551574803148
 30
0
 11
4.1763479921259838
 21
-3.0798325590551179
 31
0
  0
LINE
  5
84
330
22
100
AcDbEntity
  8
Edge.Cuts
  6
CONTINUOUS
100
AcDbLine
 10
4.1763479921259838
 20
-3.0798325590551179
 30
0
 11
4.1610237007874016
 21
-3.0850933858267715
 31
0
  0
LINE
  5
85
330
22
100
AcDbEntity
  8
Edge.Cuts
  6
CONTINUOUS
100
AcDbLine
 10
4.1610237007874016
 20
-3.0850933858267715
 30
0
 11
4.1461861811023617
 21
-3.0916017322834644
 31
0
  0
LINE
  5
86
330
22
100
AcDbEntity
  8
Edge.Cuts
  6
CONTINUOUS
100
AcDbLine
 10
4.1461861811023617
 20
-3.0916017322834644
 30
0
 11
4.1319368110236221
 21
-3.0993131102362206
 31
0
  0
LINE
  5
87
330
22
100
AcDbEntity
  8
Edge.Cuts
  6
CONTINUOUS
100
AcDbLine
 10
4.1319368110236221
 20
-3.0993131102362206
 30
0
 11
4.1183728740157477
 21
-3.1081748425196851
 31
0
  0
LINE
  5
88
330
22
100
AcDbEntity
  8
Edge.Cuts
  6
CONTINUOUS
100
AcDbLine
 10
4.1183728740157477
 20
-3.1081748425196851
 30
0
 11
4.1055870866141735
 21
-3.1181264173228347
 31
0
  0
LINE
  5
89
330
22
100
AcDbEntity
  8
Edge.Cuts
  6
CONTINUOUS
100
AcDbLine
 10
4.1055870866141735
 20
-3.1181264173228347
 30
0
 11
4.0936667716535435
 21
-3.1290998425196848
 31
0
  0
LINE
  5
8A
330
22
100
AcDbEntity
  8
Edge.Cuts
  6
CONTINUOUS
100
AcDbLine
 10
4.0936667716535435
 20
-3.1290998425196848
 30
0
 11
4.0826933464566926
 21
-3.1410201574803147
 31
0
  0
LINE
  5
8B
330
22
100
AcDbEntity
  8
Edge.Cuts
  6
CONTINUOUS
100
AcDbLine
 10
4.0826933464566926
 20
-3.1410201574803147
 30
0
 11
4.0727417716535435
 21
-3.1538059448818898
 31
0
  0
LINE
  5
8C
330
22
100
AcDbEntity
  8
Edge.Cuts
  6
CONTINUOUS
100
AcDbLine
 10
4.0727417716535435
 20
-3.1538059448818898
 30
0
 11
4.0638800393700789
 21
-3.1673698818897638
 31
0
  0
LINE
  5
8D
330
22
100
AcDbEntity
  8
Edge.Cuts
  6
CONTINUOUS
100
AcDbLine
 10
4.0638800393700789
 20
-3.1673698818897638
 30
0
 11
4.0561686614173231
 21
-3.1816192519685038
 31
0
  0
LINE
  5
8E
330
22
100
AcDbEntity
  8
Edge.Cuts
  6
CONTINUOUS
100
AcDbLine
 10
4.0561686614173231
 20
-3.1816192519685038
 30
0
 11
4.0496603149606294
 21
-3.1964567716535432
 31
0
  0
LINE
  5
8F
330
22
100
AcDbEntity
  8
Edge.Cuts
  6
CONTINUOUS
100
AcDbLine
 10
4.0496603149606294
 20
-3.1964567716535432
 30
0
 11
4.0443994881889767
 21
-3.211781062992126
 31
0
  0
LINE
  5
90
330
22
100
AcDbEntity
  8
Edge.Cuts
  6
CONTINUOUS
100
AcDbLine
 10
4.0443994881889767
 20
-3.211781062992126
 30
0
 11
4.0404220866141731
 21
-3.2274874409448819
 31
0
  0
LINE
  5
91
330
22
100
AcDbEntity
  8
Edge.Cuts
  6
CONTINUOUS
100
AcDbLine
 10
4.0404220866141731
 20
-3.2274874409448819
 30
0
 11
4.0377553149606298
 21
-3.243468622047244
 31
0
  0
LINE
  5
92
330
22
100
AcDbEntity
  8
Edge.Cuts
  6
CONTINUOUS
100
AcDbLine
 10
4.0377553149606298
 20
-3.243468622047244
 30
0
 11
4.0364173228346454
 21
-3.259615433070866
 31
0
  0
LINE
  5
93
330
22
100
AcDbEntity
  8
Edge.Cuts
  6
CONTINUOUS
100
AcDbLine
 10
4.0364173228346454
 20
-3.259615433070866
 30
0
 11
4.0364173228346454
 21
-3.2677165354330708
 31
0
  0
LINE
  5
94
330
22
100
AcDbEntity
  8
Edge.Cuts
  6
CONTINUOUS
100
AcDbLine
 10
4.0364173228346454
 20
-3.2677165354330708
 30
0
 11
4.0364173228346454
 21
-4.2027559055118111
 31
0
  0
LINE
  5
95
330
22
100
AcDbEntity
  8
Edge.Cuts
  6
CONTINUOUS
100
AcDbLine
 10
4.0364173228346454
 20
-4.2027559055118111
 30
0
 11
4.0364173228346454
 21
-4.210857007874016
 31
0
  0
LINE
  5
96
330
22
100
AcDbEntity
  8
Edge.Cuts
  6
CONTINUOUS
100
AcDbLine
 10
4.0364173228346454
 20
-4.210857007874016
 30
0
 11
4.0377553149606298
 21
-4.2270038188976375
 31
0
  0
LINE
  5
97
330
22
100
AcDbEntity
  8
Edge.Cuts
  6
CONTINUOUS
100
AcDbLine
 10
4.0377553149606298
 20
-4.2270038188976375
 30
0
 11
4.0404220866141731
 21
-4.242985
 31
0
  0
LINE
  5
98
330
22
100
AcDbEntity
  8
Edge.Cuts
  6
CONTINUOUS
100
AcDbLine
 10
4.0404220866141731
 20
-4.242985
 30
0
 11
4.0443994881889767
 21
-4.258691377952756
 31
0
  0
LINE
  5
99
330
22
100
AcDbEntity
  8
Edge.Cuts
  6
CONTINUOUS
100
AcDbLine
 10
4.0443994881889767
 20
-4.258691377952756
 30
0
 11
4.0496603149606294
 21
-4.2740156692913382
 31
0
  0
LINE
  5
9A
330
22
100
AcDbEntity
  8
Edge.Cuts
  6
CONTINUOUS
100
AcDbLine
 10
4.0496603149606294
 20
-4.2740156692913382
 30
0
 11
4.0561686614173231
 21
-4.2888531889763781
 31
0
  0
LINE
  5
9B
330
22
100
AcDbEntity
  8
Edge.Cuts
  6
CONTINUOUS
100
AcDbLine
 10
4.0561686614173231
 20
-4.2888531889763781
 30
0
 11
4.0638800393700789
 21
-4.3031025590551177
 31
0
  0
LINE
  5
9C
330
22
100
AcDbEntity
  8
Edge.Cuts
  6
CONTINUOUS
100
AcDbLine
 10
4.0638800393700789
 20
-4.3031025590551177
 30
0
 11
4.0727417716535435
 21
-4.3166664960629921
 31
0
  0
LINE
  5
9D
330
22
100
AcDbEntity
  8
Edge.Cuts
  6
CONTINUOUS
100
AcDbLine
 10
4.0727417716535435
 20
-4.3166664960629921
 30
0
 11
4.0826933464566926
 21
-4.3294522834645672
 31
0
  0
LINE
  5
9E
330
22
100
AcDbEntity
  8
Edge.Cuts
  6
CONTINUOUS
100
AcDbLine
 10
4.0826933464566926
 20
-4.3294522834645672
 30
0
 11
4.0936667716535435
 21
-4.3413725984251972
 31
0
  0
LINE
  5
9F
330
22
100
AcDbEntity
  8
Edge.Cuts
  6
CONTINUOUS
100
AcDbLine
 10
4.0936667716535435
 20
-4.3413725984251972
 30
0
 11
4.1055870866141735
 21
-4.3523460236220473
 31
0
  0
LINE
  5
A0
330
22
100
AcDbEntity
  8
Edge.Cuts
  6
CONTINUOUS
100
AcDbLine
 10
4.1055870866141735
 20
-4.3523460236220473
 30
0
 11
4.1183728740157477
 21
-4.3622975984251964
 31
0
  0
LINE
  5
A1
330
22
100
AcDbEntity
  8
Edge.Cuts
  6
CONTINUOUS
100
AcDbLine
 10
4.1183728740157477
 20
-4.3622975984251964
 30
0
 11
4.1319368110236221
 21
-4.3711593307086609
 31
0
  0
LINE
  5
A2
330
22
100
AcDbEntity
  8
Edge.Cuts
  6
CONTINUOUS
100
AcDbLine
 10
4.1319368110236221
 20
-4.3711593307086609
 30
0
 11
4.1461861811023617
 21
-4.3788707086614176
 31
0
  0
LINE
  5
A3
330
22
100
AcDbEntity
  8
Edge.Cuts
  6
CONTINUOUS
100
AcDbLine
 10
4.1461861811023617
 20
-4.3788707086614176
 30
0
 11
4.1610237007874016
 21
-4.3853790551181104
 31
0
  0
LINE
  5
A4
330
22
100
AcDbEntity
  8
Edge.Cuts
  6
CONTINUOUS
100
AcDbLine
 10
4.1610237007874016
 20
-4.3853790551181104
 30
0
 11
4.1763479921259838
 21
-4.3906398818897641
 31
0
  0
LINE
  5
A5
330
22
100
AcDbEntity
  8
Edge.Cuts
  6
CONTINUOUS
100
AcDbLine
 10
4.1763479921259838
 20
-4.3906398818897641
 30
0
 11
4.1920543700787398
 21
-4.3946172834645667
 31
0
  0
LINE
  5
A6
330
22
100
AcDbEntity
  8
Edge.Cuts
  6
CONTINUOUS
100
AcDbLine
 10
4.1920543700787398
 20
-4.3946172834645667
 30
0
 11
4.2080355511811023
 21
-4.39728405511811
 31
0
  0
LINE
  5
A7
330
22
100
AcDbEntity
  8
Edge.Cuts
  6
CONTINUOUS
100
AcDbLine
 10
4.2080355511811023
 20
-4.39728405511811
 30
0
 11
4.2241823622047239
 21
-4.3986220472440944
 31
0
  0
LINE
  5
A8
330
22
100
AcDbEntity
  8
Edge.Cuts
  6
CONTINUOUS
100
AcDbLine
 10
4.2241823622047239
 20
-4.3986220472440944
 30
0
 11
4.2322834645669287
 21
-4.3986220472440944
 31
0
  0
LINE
  5
A9
330
22
100
AcDbEntity
  8
Edge.Cuts
  6
CONTINUOUS
100
AcDbLine
 10
4.2322834645669287
 20
-4.3986220472440944
 30
0
 11
5.5216535433070861
 21
-4.3986220472440944
 31
0
  0
LINE
  5
AA
330
22
100
AcDbEntity
  8
Edge.Cuts
  6
CONTINUOUS
100
AcDbLine
 10
5.5216535433070861
 20
-4.3986220472440944
 30
0
 11
5.529754645669291
 21
-4.3986220472440944
 31
0
  0
LINE
  5
AB
330
22
100
AcDbEntity
  8
Edge.Cuts
  6
CONTINUOUS
100
AcDbLine
 10
5.529754645669291
 20
-4.3986220472440944
 30
0
 11
5.5459014566929135
 21
-4.39728405511811
 31
0
  0
LINE
  5
AC
330
22
100
AcDbEntity
  8
Edge.Cuts
  6
CONTINUOUS
100
AcDbLine
 10
5.5459014566929135
 20
-4.39728405511811
 30
0
 11
5.561882637795275
 21
-4.3946172834645667
 31
0
  0
LINE
  5
AD
330
22
100
AcDbEntity
  8
Edge.Cuts
  6
CONTINUOUS
100
AcDbLine
 10
5.561882637795275
 20
-4.3946172834645667
 30
0
 11
5.577589015748031
 21
-4.3906398818897641
 31
0
  0
LINE
  5
AE
330
22
100
AcDbEntity
  8
Edge.Cuts
  6
CONTINUOUS
100
AcDbLine
 10
5.577589015748031
 20
-4.3906398818897641
 30
0
 11
5.5929133070866142
 21
-4.3853790551181104
 31
0
  0
LINE
  5
AF
330
22
100
AcDbEntity
  8
Edge.Cuts
  6
CONTINUOUS
100
AcDbLine
 10
5.5929133070866142
 20
-4.3853790551181104
 30
0
 11
5.6077508267716532
 21
-4.3788707086614176
 31
0
  0
LINE
  5
B0
330
22
100
AcDbEntity
  8
Edge.Cuts
  6
CONTINUOUS
100
AcDbLine
 10
5.6077508267716532
 20
-4.3788707086614176
 30
0
 11
5.6220001968503936
 21
-4.3711593307086609
 31
0
  0
LINE
  5
B1
330
22
100
AcDbEntity
  8
Edge.Cuts
  6
CONTINUOUS
100
AcDbLine
 10
5.6220001968503936
 20
-4.3711593307086609
 30
0
 11
5.6355641338582672
 21
-4.3622975984251964
 31
0
  0
LINE
  5
B2
330
22
100
AcDbEntity
  8
Edge.Cuts
  6
CONTINUOUS
100
AcDbLine
 10
5.6355641338582672
 20
-4.3622975984251964
 30
0
 11
5.6483499212598423
 21
-4.3523460236220473
 31
0
  0
LINE
  5
B3
330
22
100
AcDbEntity
  8
Edge.Cuts
  6
CONTINUOUS
100
AcDbLine
 10
5.6483499212598423
 20
-4.3523460236220473
 30
0
 11
5.6602702362204722
 21
-4.3413725984251972
 31
0
  0
LINE
  5
B4
330
22
100
AcDbEntity
  8
Edge.Cuts
  6
CONTINUOUS
100
AcDbLine
 10
5.6602702362204722
 20
-4.3413725984251972
 30
0
 11
5.6712436614173223
 21
-4.3294522834645672
 31
0
  0
LINE
  5
B5
330
22
100
AcDbEntity
  8
Edge.Cuts
  6
CONTINUOUS
100
AcDbLine
 10
5.6712436614173223
 20
-4.3294522834645672
 30
0
 11
5.6811952362204723
 21
-4.3166664960629921
 31
0
  0
LINE
  5
B6
330
22
100
AcDbEntity
  8
Edge.Cuts
  6
CONTINUOUS
100
AcDbLine
 10
5.6811952362204723
 20
-4.3166664960629921
 30
0
 11
5.6900569685039368
 21
-4.3031025590551177
 31
0
  0
LINE
  5
B7
330
22
100
AcDbEntity
  8
Edge.Cuts
  6
CONTINUOUS
100
AcDbLine
 10
5.6900569685039368
 20
-4.3031025590551177
 30
0
 11
5.6977683464566926
 21
-4.2888531889763781
 31
0
  0
LINE
  5
B8
330
22
100
AcDbEntity
  8
Edge.Cuts
  6
CONTINUOUS
100
AcDbLine
 10
5.6977683464566926
 20
-4.2888531889763781
 30
0
 11
5.7042766929133855
 21
-4.2740156692913382
 31
0
  0
LINE
  5
B9
330
22
100
AcDbEntity
  8
Edge.Cuts
  6
CONTINUOUS
100
AcDbLine
 10
5.7042766929133855
 20
-4.2740156692913382
 30
0
 11
5.7095375196850391
 21
-4.258691377952756
 31
0
  0
LINE
  5
BA
330
22
100
AcDbEntity
  8
Edge.Cuts
  6
CONTINUOUS
100
AcDbLine
 10
5.7095375196850391
 20
-4.258691377952756
 30
0
 11
5.7135149212598426
 21
-4.242985
 31
0
  0
LINE
  5
BB
330
22
100
AcDbEntity
  8
Edge.Cuts
  6
CONTINUOUS
100
AcDbLine
 10
5.7135149212598426
 20
-4.242985
 30
0
 11
5.716181692913386
 21
-4.2270038188976375
 31
0
  0
LINE
  5
BC
330
22
100
AcDbEntity
  8
Edge.Cuts
  6
CONTINUOUS
100
AcDbLine
 10
5.716181692913386
 20
-4.2270038188976375
 30
0
 11
5.7175196850393704
 21
-4.210857007874016
 31
0
  0
LINE
  5
BD
330
22
100
AcDbEntity
  8
Edge.Cuts
  6
CONTINUOUS
100
AcDbLine
 10
5.7175196850393704
 20
-4.210857007874016
 30
0
 11
5.7175196850393704
 21
-4.2027559055118111
 31
0
  0
LINE
  5
BE
330
22
100
AcDbEntity
  8
Edge.Cuts
  6
CONTINUOUS
100
AcDbLine
 10
5.7175196850393704
 20
-4.2027559055118111
 30
0
 11
5.7175196850393704
 21
-3.2677165354330708
 31
0
  0
LINE
  5
BF
330
22
100
AcDbEntity
  8
Edge.Cuts
  6
CONTINUOUS
100
AcDbLine
 10
5.7175196850393704
 20
-3.2677165354330708
 30
0
 11
5.7175196850393704
 21
-3.259615433070866
 31
0
  0
LINE
  5
C0
330
22
100
AcDbEntity
  8
Edge.Cuts
  6
CONTINUOUS
100
AcDbLine
 10
5.7175196850393704
 20
-3.259615433070866
 30
0
 11
5.716181692913386
 21
-3.243468622047244
 31
0
  0
LINE
  5
C1
330
22
100
AcDbEntity
  8
Edge.Cuts
  6
CONTINUOUS
100
AcDbLine
 10
5.716181692913386
 20
-3.243468622047244
 30
0
 11
5.7135149212598426
 21
-3.2274874409448819
 31
0
  0
LINE
  5
C2
330
22
100
AcDbEntity
  8
Edge.Cuts
  6
CONTINUOUS
100
AcDbLine
 10
5.7135149212598426
 20
-3.2274874409448819
 30
0
 11
5.7095375196850391
 21
-3.211781062992126
 31
0
  0
LINE
  5
C3
330
22
100
AcDbEntity
  8
Edge.Cuts
  6
CONTINUOUS
100
AcDbLine
 10
5.7095375196850391
 20
-3.211781062992126
 30
0
 11
5.7042766929133855
 21
-3.1964567716535432
 31
0
  0
LINE
  5
C4
330
22
100
AcDbEntity
  8
Edge.Cuts
  6
CONTINUOUS
100
AcDbLine
 10
5.7042766929133855
 20
-3.1964567716535432
 30
0
 11
5.6977683464566926
 21
-3.1816192519685038
 31
0
  0
LINE
  5
C5
330
22
100
AcDbEntity
  8
Edge.Cuts
  6
CONTINUOUS
100
AcDbLine
 10
5.6977683464566926
 20
-3.1816192519685038
 30
0
 11
5.6900569685039368
 21
-3.1673698818897638
 31
0
  0
LINE
  5
C6
330
22
100
AcDbEntity
  8
Edge.Cuts
  6
CONTINUOUS
100
AcDbLine
 10
5.6900569685039368
 20
-3.1673698818897638
 30
0
 11
5.6811952362204723
 21
-3.1538059448818898
 31
0
  0
LINE
  5
C7
330
22
100
AcDbEntity
  8
Edge.Cuts
  6
CONTINUOUS
100
AcDbLine
 10
5.6811952362204723
 20
-3.1538059448818898
 30
0
 11
5.6712436614173223
 21
-3.1410201574803147
 31
0
  0
LINE
  5
C8
330
22
100
AcDbEntity
  8
Edge.Cuts
  6
CONTINUOUS
100
AcDbLine
 10
5.6712436614173223
 20
-3.1410201574803147
 30
0
 11
5.6602702362204722
 21
-3.1290998425196848
 31
0
  0
LINE
  5
C9
330
22
100
AcDbEntity
  8
Edge.Cuts
  6
CONTINUOUS
100
AcDbLine
 10
5.6602702362204722
 20
-3.1290998425196848
 30
0
 11
5.6483499212598423
 21
-3.1181264173228347
 31
0
  0
LINE
  5
CA
330
22
100
AcDbEntity
  8
Edge.Cuts
  6
CONTINUOUS
100
AcDbLine
 10
5.6483499212598423
 20
-3.1181264173228347
 30
0
 11
5.6355641338582672
 21
-3.1081748425196851
 31
0
  0
LINE
  5
CB
330
22
100
AcDbEntity
  8
Edge.Cuts
  6
CONTINUOUS
100
AcDbLine
 10
5.6355641338582672
 20
-3.1081748425196851
 30
0
 11
5.6220001968503936
 21
-3.0993131102362206
 31
0
  0
LINE
  5
CC
330
22
100
AcDbEntity
  8
Edge.Cuts
  6
CONTINUOUS
100
AcDbLine
 10
5.6220001968503936
 20
-3.0993131102362206
 30
0
 11
5.6077508267716532
 21
-3.0916017322834644
 31
0
  0
LINE
  5
CD
330
22
100
AcDbEntity
  8
Edge.Cuts
  6
CONTINUOUS
100
AcDbLine
 10
5.6077508267716532
 20
-3.0916017322834644
 30
0
 11
5.5929133070866142
 21
-3.0850933858267715
 31
0
  0
LINE
  5
CE
330
22
100
AcDbEntity
  8
Edge.Cuts
  6
CONTINUOUS
100
AcDbLine
 10
5.5929133070866142
 20
-3.0850933858267715
 30
0
 11
5.577589015748031
 21
-3.0798325590551179
 31
0
  0
LINE
  5
CF
330
22
100
AcDbEntity
  8
Edge.Cuts
  6
CONTINUOUS
100
AcDbLine
 10
5.577589015748031
 20
-3.0798325590551179
 30
0
 11
5.561882637795275
 21
-3.0758551574803148
 31
0
  0
LINE
  5
D0
330
22
100
AcDbEntity
  8
Edge.Cuts
  6
CONTINUOUS
100
AcDbLine
 10
5.561882637795275
 20
-3.0758551574803148
 30
0
 11
5.5459014566929135
 21
-3.0731883858267715
 31
0
  0
LINE
  5
D1
330
22
100
AcDbEntity
  8
Edge.Cuts
  6
CONTINUOUS
100
AcDbLine
 10
5.5459014566929135
 20
-3.0731883858267715
 30
0
 11
5.529754645669291
 21
-3.0718503937007875
 31
0
  0
LINE
  5
D2
330
22
100
AcDbEntity
  8
Edge.Cuts
  6
CONTINUOUS
100
AcDbLine
 10
5.529754645669291
 20
-3.0718503937007875
 30
0
 11
5.5216535433070861
 21
-3.0718503937007875
 31
0
  0
LINE
  5
D3
330
22
100
AcDbEntity
  8
Edge.Cuts
  6
CONTINUOUS
100
AcDbLine
 10
5.5216535433070861
 20
-3.0718503937007875
 30
0
 11
4.2322834645669287
 21
-3.0718503937007875
 31
0
  0
ENDSEC
  0
SECTION
  2
OBJECTS
  0
DICTIONARY
  5
28
330
0
100
AcDbDictionary
281
1
  3
ACAD_GROUP
350
D4
  3
ACAD_LAYOUT
350
29
  3
ACAD_PLOTSTYLENAME
350
11
  0
DICTIONARY
  5
D4
330
28
100
AcDbDictionary
281
1
  0
ACDBDICTIONARYWDFLT
  5
11
330
28
100
AcDbDictionary
281
1
  3
Normal
350
10
100
AcDbDictionaryWithDefault
340
10
  0
ACDBPLACEHOLDER
  5
10
330
11
  0
DICTIONARY
  5
29
330
28
100
AcDbDictionary
281
1
  3
Model
350
25
  3
Layout1
350
26
  3
Layout2
350
27
  0
LAYOUT
  5
25
330
29
100
AcDbPlotSettings
  1

  2
none_device
  4
A3
  6

 40
0.0
 41
0.0
 42
0.0
 43
0.0
 44
420.0
 45
297.0
 46
0.0
 47
0.0
 48
0.0
 49
0.0
140
0.0
141
0.0
142
1.0
143
1.0
 70
1024
 72
1
 73
0
 74
5
  7

 75
16
 76
0
 77
2
 78
300
147
1.0
148
0.0
149
0.0
100
AcDbLayout
  1
Model
 70
1
 71
0
 10
0.0
 20
0.0
 11
420.0
 21
297.0
 12
0.0
 22
0.0
 32
0.0
 14
1e+20
 24
1e+20
 34
1e+20
 15
-1e+20
 25
-1e+20
 35
-1e+20
146
0.0
 13
0.0
 23
0.0
 33
0.0
 16
1.0
 26
0.0
 36
0.0
 17
0.0
 27
1.0
 37
0.0
 76
0
330
22
  0
LAYOUT
  5
26
330
29
100
AcDbPlotSettings
  1

  2
none_device
  4
A3
  6

 40
0.0
 41
0.0
 42
0.0
 43
0.0
 44
420.0
 45
297.0
 46
0.0
 47
0.0
 48
0.0
 49
0.0
140
0.0
141
0.0
142
1.0
143
1.0
 70
0
 72
1
 73
0
 74
5
  7

 75
16
 76
0
 77
2
 78
300
147
1.0
148
0.0
149
0.0
100
AcDbLayout
  1
Layout1
 70
1
 71
1
 10
0.0
 20
0.0
 11
420.0
 21
297.0
 12
0.0
 22
0.0
 32
0.0
 14
1e+20
 24
1e+20
 34
1e+20
 15
-1e+20
 25
-1e+20
 35
-1e+20
146
0.0
 13
0.0
 23
0.0
 33
0.0
 16
1.0
 26
0.0
 36
0.0
 17
0.0
 27
1.0
 37
0.0
 76
0
330
23
  0
LAYOUT
  5
27
330
29
100
AcDbPlotSettings
  1

  2
none_device
  4
A3
  6

 40
0.0
 41
0.0
 42
0.0
 43
0.0
 44
420.0
 45
297.0
 46
0.0
 47
0.0
 48
0.0
 49
0.0
140
0.0
141
0.0
142
1.0
143
1.0
 70
0
 72
1
 73
0
 74
5
  7

 75
16
 76
0
 77
2
 78
300
147
1.0
148
0.0
149
0.0
100
AcDbLayout
  1
Layout2
 70
1
 71
2
 10
0.0
 20
0.0
 11
420.0
 21
297.0
 12
0.0
 22
0.0
 32
0.0
 14
1e+20
 24
1e+20
 34
1e+20
 15
-1e+20
 25
-1e+20
 35
-1e+20
146
0.0
 13
0.0
 23
0.0
 33
0.0
 16
1.0
 26
0.0
 36
0.0
 17
0.0
 27
1.0
 37
0.0
 76
0
330
24
  0
ENDSEC
  0
EOF
