G04 #@! TF.GenerationSoftware,KiCad,Pcbnew,10.0.5*
G04 #@! TF.CreationDate,2026-08-13T16:50:30+08:00*
G04 #@! TF.ProjectId,Driver PCB,44726976-6572-4205-9043-422e6b696361,rev?*
G04 #@! TF.SameCoordinates,Original*
G04 #@! TF.FileFunction,Legend,Top*
G04 #@! TF.FilePolarity,Positive*
%FSLAX46Y46*%
G04 Gerber Fmt 4.6, Leading zero omitted, Abs format (unit mm)*
G04 Created by KiCad (PCBNEW 10.0.5) date 2026-08-13 16:50:30*
%MOMM*%
%LPD*%
G01*
G04 APERTURE LIST*
%ADD10C,0.150000*%
%ADD11C,0.120000*%
G04 APERTURE END LIST*
D10*
X139938095Y-79204819D02*
X139938095Y-78204819D01*
X139938095Y-78681009D02*
X140509523Y-78681009D01*
X140509523Y-79204819D02*
X140509523Y-78204819D01*
X140938095Y-78300057D02*
X140985714Y-78252438D01*
X140985714Y-78252438D02*
X141080952Y-78204819D01*
X141080952Y-78204819D02*
X141319047Y-78204819D01*
X141319047Y-78204819D02*
X141414285Y-78252438D01*
X141414285Y-78252438D02*
X141461904Y-78300057D01*
X141461904Y-78300057D02*
X141509523Y-78395295D01*
X141509523Y-78395295D02*
X141509523Y-78490533D01*
X141509523Y-78490533D02*
X141461904Y-78633390D01*
X141461904Y-78633390D02*
X140890476Y-79204819D01*
X140890476Y-79204819D02*
X141509523Y-79204819D01*
X115430463Y-100027911D02*
X115531478Y-99455492D01*
X115026402Y-99623850D02*
X115733509Y-98916744D01*
X115733509Y-98916744D02*
X116002883Y-99186118D01*
X116002883Y-99186118D02*
X116036555Y-99287133D01*
X116036555Y-99287133D02*
X116036555Y-99354476D01*
X116036555Y-99354476D02*
X116002883Y-99455492D01*
X116002883Y-99455492D02*
X115901868Y-99556507D01*
X115901868Y-99556507D02*
X115800852Y-99590179D01*
X115800852Y-99590179D02*
X115733509Y-99590179D01*
X115733509Y-99590179D02*
X115632494Y-99556507D01*
X115632494Y-99556507D02*
X115363120Y-99287133D01*
X116373272Y-99556507D02*
X116811005Y-99994240D01*
X116811005Y-99994240D02*
X116305929Y-100027911D01*
X116305929Y-100027911D02*
X116406944Y-100128927D01*
X116406944Y-100128927D02*
X116440616Y-100229942D01*
X116440616Y-100229942D02*
X116440616Y-100297285D01*
X116440616Y-100297285D02*
X116406944Y-100398301D01*
X116406944Y-100398301D02*
X116238585Y-100566659D01*
X116238585Y-100566659D02*
X116137570Y-100600331D01*
X116137570Y-100600331D02*
X116070226Y-100600331D01*
X116070226Y-100600331D02*
X115969211Y-100566659D01*
X115969211Y-100566659D02*
X115767181Y-100364629D01*
X115767181Y-100364629D02*
X115733509Y-100263614D01*
X115733509Y-100263614D02*
X115733509Y-100196270D01*
X116073674Y-86115299D02*
X115501255Y-86014284D01*
X115669613Y-86519360D02*
X114962507Y-85812253D01*
X114962507Y-85812253D02*
X115231881Y-85542879D01*
X115231881Y-85542879D02*
X115332896Y-85509207D01*
X115332896Y-85509207D02*
X115400239Y-85509207D01*
X115400239Y-85509207D02*
X115501255Y-85542879D01*
X115501255Y-85542879D02*
X115602270Y-85643894D01*
X115602270Y-85643894D02*
X115635942Y-85744910D01*
X115635942Y-85744910D02*
X115635942Y-85812253D01*
X115635942Y-85812253D02*
X115602270Y-85913268D01*
X115602270Y-85913268D02*
X115332896Y-86182642D01*
X116747109Y-85441864D02*
X116343048Y-85845925D01*
X116545079Y-85643894D02*
X115837972Y-84936788D01*
X115837972Y-84936788D02*
X115871644Y-85105146D01*
X115871644Y-85105146D02*
X115871644Y-85239833D01*
X115871644Y-85239833D02*
X115837972Y-85340849D01*
X132083333Y-93084819D02*
X131750000Y-92608628D01*
X131511905Y-93084819D02*
X131511905Y-92084819D01*
X131511905Y-92084819D02*
X131892857Y-92084819D01*
X131892857Y-92084819D02*
X131988095Y-92132438D01*
X131988095Y-92132438D02*
X132035714Y-92180057D01*
X132035714Y-92180057D02*
X132083333Y-92275295D01*
X132083333Y-92275295D02*
X132083333Y-92418152D01*
X132083333Y-92418152D02*
X132035714Y-92513390D01*
X132035714Y-92513390D02*
X131988095Y-92561009D01*
X131988095Y-92561009D02*
X131892857Y-92608628D01*
X131892857Y-92608628D02*
X131511905Y-92608628D01*
X132988095Y-92084819D02*
X132511905Y-92084819D01*
X132511905Y-92084819D02*
X132464286Y-92561009D01*
X132464286Y-92561009D02*
X132511905Y-92513390D01*
X132511905Y-92513390D02*
X132607143Y-92465771D01*
X132607143Y-92465771D02*
X132845238Y-92465771D01*
X132845238Y-92465771D02*
X132940476Y-92513390D01*
X132940476Y-92513390D02*
X132988095Y-92561009D01*
X132988095Y-92561009D02*
X133035714Y-92656247D01*
X133035714Y-92656247D02*
X133035714Y-92894342D01*
X133035714Y-92894342D02*
X132988095Y-92989580D01*
X132988095Y-92989580D02*
X132940476Y-93037200D01*
X132940476Y-93037200D02*
X132845238Y-93084819D01*
X132845238Y-93084819D02*
X132607143Y-93084819D01*
X132607143Y-93084819D02*
X132511905Y-93037200D01*
X132511905Y-93037200D02*
X132464286Y-92989580D01*
X140166666Y-87034819D02*
X140166666Y-87749104D01*
X140166666Y-87749104D02*
X140119047Y-87891961D01*
X140119047Y-87891961D02*
X140023809Y-87987200D01*
X140023809Y-87987200D02*
X139880952Y-88034819D01*
X139880952Y-88034819D02*
X139785714Y-88034819D01*
X140595238Y-87130057D02*
X140642857Y-87082438D01*
X140642857Y-87082438D02*
X140738095Y-87034819D01*
X140738095Y-87034819D02*
X140976190Y-87034819D01*
X140976190Y-87034819D02*
X141071428Y-87082438D01*
X141071428Y-87082438D02*
X141119047Y-87130057D01*
X141119047Y-87130057D02*
X141166666Y-87225295D01*
X141166666Y-87225295D02*
X141166666Y-87320533D01*
X141166666Y-87320533D02*
X141119047Y-87463390D01*
X141119047Y-87463390D02*
X140547619Y-88034819D01*
X140547619Y-88034819D02*
X141166666Y-88034819D01*
X139938095Y-103404819D02*
X139938095Y-102404819D01*
X139938095Y-102881009D02*
X140509523Y-102881009D01*
X140509523Y-103404819D02*
X140509523Y-102404819D01*
X141414285Y-102738152D02*
X141414285Y-103404819D01*
X141176190Y-102357200D02*
X140938095Y-103071485D01*
X140938095Y-103071485D02*
X141557142Y-103071485D01*
X122350057Y-101595238D02*
X122302438Y-101690476D01*
X122302438Y-101690476D02*
X122207200Y-101785714D01*
X122207200Y-101785714D02*
X122064342Y-101928571D01*
X122064342Y-101928571D02*
X122016723Y-102023809D01*
X122016723Y-102023809D02*
X122016723Y-102119047D01*
X122254819Y-102071428D02*
X122207200Y-102166666D01*
X122207200Y-102166666D02*
X122111961Y-102261904D01*
X122111961Y-102261904D02*
X121921485Y-102309523D01*
X121921485Y-102309523D02*
X121588152Y-102309523D01*
X121588152Y-102309523D02*
X121397676Y-102261904D01*
X121397676Y-102261904D02*
X121302438Y-102166666D01*
X121302438Y-102166666D02*
X121254819Y-102071428D01*
X121254819Y-102071428D02*
X121254819Y-101880952D01*
X121254819Y-101880952D02*
X121302438Y-101785714D01*
X121302438Y-101785714D02*
X121397676Y-101690476D01*
X121397676Y-101690476D02*
X121588152Y-101642857D01*
X121588152Y-101642857D02*
X121921485Y-101642857D01*
X121921485Y-101642857D02*
X122111961Y-101690476D01*
X122111961Y-101690476D02*
X122207200Y-101785714D01*
X122207200Y-101785714D02*
X122254819Y-101880952D01*
X122254819Y-101880952D02*
X122254819Y-102071428D01*
X121254819Y-101309523D02*
X121254819Y-100690476D01*
X121254819Y-100690476D02*
X121635771Y-101023809D01*
X121635771Y-101023809D02*
X121635771Y-100880952D01*
X121635771Y-100880952D02*
X121683390Y-100785714D01*
X121683390Y-100785714D02*
X121731009Y-100738095D01*
X121731009Y-100738095D02*
X121826247Y-100690476D01*
X121826247Y-100690476D02*
X122064342Y-100690476D01*
X122064342Y-100690476D02*
X122159580Y-100738095D01*
X122159580Y-100738095D02*
X122207200Y-100785714D01*
X122207200Y-100785714D02*
X122254819Y-100880952D01*
X122254819Y-100880952D02*
X122254819Y-101166666D01*
X122254819Y-101166666D02*
X122207200Y-101261904D01*
X122207200Y-101261904D02*
X122159580Y-101309523D01*
X123513157Y-98857571D02*
X123470300Y-98814714D01*
X123470300Y-98814714D02*
X123427442Y-98686142D01*
X123427442Y-98686142D02*
X123427442Y-98600428D01*
X123427442Y-98600428D02*
X123470300Y-98471857D01*
X123470300Y-98471857D02*
X123556014Y-98386142D01*
X123556014Y-98386142D02*
X123641728Y-98343285D01*
X123641728Y-98343285D02*
X123813157Y-98300428D01*
X123813157Y-98300428D02*
X123941728Y-98300428D01*
X123941728Y-98300428D02*
X124113157Y-98343285D01*
X124113157Y-98343285D02*
X124198871Y-98386142D01*
X124198871Y-98386142D02*
X124284585Y-98471857D01*
X124284585Y-98471857D02*
X124327442Y-98600428D01*
X124327442Y-98600428D02*
X124327442Y-98686142D01*
X124327442Y-98686142D02*
X124284585Y-98814714D01*
X124284585Y-98814714D02*
X124241728Y-98857571D01*
X123898871Y-101564285D02*
X123856014Y-101692857D01*
X123856014Y-101692857D02*
X123813157Y-101735714D01*
X123813157Y-101735714D02*
X123727442Y-101778571D01*
X123727442Y-101778571D02*
X123598871Y-101778571D01*
X123598871Y-101778571D02*
X123513157Y-101735714D01*
X123513157Y-101735714D02*
X123470300Y-101692857D01*
X123470300Y-101692857D02*
X123427442Y-101607142D01*
X123427442Y-101607142D02*
X123427442Y-101264285D01*
X123427442Y-101264285D02*
X124327442Y-101264285D01*
X124327442Y-101264285D02*
X124327442Y-101564285D01*
X124327442Y-101564285D02*
X124284585Y-101650000D01*
X124284585Y-101650000D02*
X124241728Y-101692857D01*
X124241728Y-101692857D02*
X124156014Y-101735714D01*
X124156014Y-101735714D02*
X124070300Y-101735714D01*
X124070300Y-101735714D02*
X123984585Y-101692857D01*
X123984585Y-101692857D02*
X123941728Y-101650000D01*
X123941728Y-101650000D02*
X123898871Y-101564285D01*
X123898871Y-101564285D02*
X123898871Y-101264285D01*
X123898871Y-104228142D02*
X123898871Y-104528142D01*
X123427442Y-104656714D02*
X123427442Y-104228142D01*
X123427442Y-104228142D02*
X124327442Y-104228142D01*
X124327442Y-104228142D02*
X124327442Y-104656714D01*
X122350057Y-83595238D02*
X122302438Y-83690476D01*
X122302438Y-83690476D02*
X122207200Y-83785714D01*
X122207200Y-83785714D02*
X122064342Y-83928571D01*
X122064342Y-83928571D02*
X122016723Y-84023809D01*
X122016723Y-84023809D02*
X122016723Y-84119047D01*
X122254819Y-84071428D02*
X122207200Y-84166666D01*
X122207200Y-84166666D02*
X122111961Y-84261904D01*
X122111961Y-84261904D02*
X121921485Y-84309523D01*
X121921485Y-84309523D02*
X121588152Y-84309523D01*
X121588152Y-84309523D02*
X121397676Y-84261904D01*
X121397676Y-84261904D02*
X121302438Y-84166666D01*
X121302438Y-84166666D02*
X121254819Y-84071428D01*
X121254819Y-84071428D02*
X121254819Y-83880952D01*
X121254819Y-83880952D02*
X121302438Y-83785714D01*
X121302438Y-83785714D02*
X121397676Y-83690476D01*
X121397676Y-83690476D02*
X121588152Y-83642857D01*
X121588152Y-83642857D02*
X121921485Y-83642857D01*
X121921485Y-83642857D02*
X122111961Y-83690476D01*
X122111961Y-83690476D02*
X122207200Y-83785714D01*
X122207200Y-83785714D02*
X122254819Y-83880952D01*
X122254819Y-83880952D02*
X122254819Y-84071428D01*
X122254819Y-82690476D02*
X122254819Y-83261904D01*
X122254819Y-82976190D02*
X121254819Y-82976190D01*
X121254819Y-82976190D02*
X121397676Y-83071428D01*
X121397676Y-83071428D02*
X121492914Y-83166666D01*
X121492914Y-83166666D02*
X121540533Y-83261904D01*
X123513157Y-80857571D02*
X123470300Y-80814714D01*
X123470300Y-80814714D02*
X123427442Y-80686142D01*
X123427442Y-80686142D02*
X123427442Y-80600428D01*
X123427442Y-80600428D02*
X123470300Y-80471857D01*
X123470300Y-80471857D02*
X123556014Y-80386142D01*
X123556014Y-80386142D02*
X123641728Y-80343285D01*
X123641728Y-80343285D02*
X123813157Y-80300428D01*
X123813157Y-80300428D02*
X123941728Y-80300428D01*
X123941728Y-80300428D02*
X124113157Y-80343285D01*
X124113157Y-80343285D02*
X124198871Y-80386142D01*
X124198871Y-80386142D02*
X124284585Y-80471857D01*
X124284585Y-80471857D02*
X124327442Y-80600428D01*
X124327442Y-80600428D02*
X124327442Y-80686142D01*
X124327442Y-80686142D02*
X124284585Y-80814714D01*
X124284585Y-80814714D02*
X124241728Y-80857571D01*
X123898871Y-83564285D02*
X123856014Y-83692857D01*
X123856014Y-83692857D02*
X123813157Y-83735714D01*
X123813157Y-83735714D02*
X123727442Y-83778571D01*
X123727442Y-83778571D02*
X123598871Y-83778571D01*
X123598871Y-83778571D02*
X123513157Y-83735714D01*
X123513157Y-83735714D02*
X123470300Y-83692857D01*
X123470300Y-83692857D02*
X123427442Y-83607142D01*
X123427442Y-83607142D02*
X123427442Y-83264285D01*
X123427442Y-83264285D02*
X124327442Y-83264285D01*
X124327442Y-83264285D02*
X124327442Y-83564285D01*
X124327442Y-83564285D02*
X124284585Y-83650000D01*
X124284585Y-83650000D02*
X124241728Y-83692857D01*
X124241728Y-83692857D02*
X124156014Y-83735714D01*
X124156014Y-83735714D02*
X124070300Y-83735714D01*
X124070300Y-83735714D02*
X123984585Y-83692857D01*
X123984585Y-83692857D02*
X123941728Y-83650000D01*
X123941728Y-83650000D02*
X123898871Y-83564285D01*
X123898871Y-83564285D02*
X123898871Y-83264285D01*
X123898871Y-86228142D02*
X123898871Y-86528142D01*
X123427442Y-86656714D02*
X123427442Y-86228142D01*
X123427442Y-86228142D02*
X124327442Y-86228142D01*
X124327442Y-86228142D02*
X124327442Y-86656714D01*
X106438095Y-79204819D02*
X106438095Y-78204819D01*
X106438095Y-78681009D02*
X107009523Y-78681009D01*
X107009523Y-79204819D02*
X107009523Y-78204819D01*
X108009523Y-79204819D02*
X107438095Y-79204819D01*
X107723809Y-79204819D02*
X107723809Y-78204819D01*
X107723809Y-78204819D02*
X107628571Y-78347676D01*
X107628571Y-78347676D02*
X107533333Y-78442914D01*
X107533333Y-78442914D02*
X107438095Y-78490533D01*
X132083333Y-84084819D02*
X131750000Y-83608628D01*
X131511905Y-84084819D02*
X131511905Y-83084819D01*
X131511905Y-83084819D02*
X131892857Y-83084819D01*
X131892857Y-83084819D02*
X131988095Y-83132438D01*
X131988095Y-83132438D02*
X132035714Y-83180057D01*
X132035714Y-83180057D02*
X132083333Y-83275295D01*
X132083333Y-83275295D02*
X132083333Y-83418152D01*
X132083333Y-83418152D02*
X132035714Y-83513390D01*
X132035714Y-83513390D02*
X131988095Y-83561009D01*
X131988095Y-83561009D02*
X131892857Y-83608628D01*
X131892857Y-83608628D02*
X131511905Y-83608628D01*
X132940476Y-83084819D02*
X132750000Y-83084819D01*
X132750000Y-83084819D02*
X132654762Y-83132438D01*
X132654762Y-83132438D02*
X132607143Y-83180057D01*
X132607143Y-83180057D02*
X132511905Y-83322914D01*
X132511905Y-83322914D02*
X132464286Y-83513390D01*
X132464286Y-83513390D02*
X132464286Y-83894342D01*
X132464286Y-83894342D02*
X132511905Y-83989580D01*
X132511905Y-83989580D02*
X132559524Y-84037200D01*
X132559524Y-84037200D02*
X132654762Y-84084819D01*
X132654762Y-84084819D02*
X132845238Y-84084819D01*
X132845238Y-84084819D02*
X132940476Y-84037200D01*
X132940476Y-84037200D02*
X132988095Y-83989580D01*
X132988095Y-83989580D02*
X133035714Y-83894342D01*
X133035714Y-83894342D02*
X133035714Y-83656247D01*
X133035714Y-83656247D02*
X132988095Y-83561009D01*
X132988095Y-83561009D02*
X132940476Y-83513390D01*
X132940476Y-83513390D02*
X132845238Y-83465771D01*
X132845238Y-83465771D02*
X132654762Y-83465771D01*
X132654762Y-83465771D02*
X132559524Y-83513390D01*
X132559524Y-83513390D02*
X132511905Y-83561009D01*
X132511905Y-83561009D02*
X132464286Y-83656247D01*
X132083333Y-102084819D02*
X131750000Y-101608628D01*
X131511905Y-102084819D02*
X131511905Y-101084819D01*
X131511905Y-101084819D02*
X131892857Y-101084819D01*
X131892857Y-101084819D02*
X131988095Y-101132438D01*
X131988095Y-101132438D02*
X132035714Y-101180057D01*
X132035714Y-101180057D02*
X132083333Y-101275295D01*
X132083333Y-101275295D02*
X132083333Y-101418152D01*
X132083333Y-101418152D02*
X132035714Y-101513390D01*
X132035714Y-101513390D02*
X131988095Y-101561009D01*
X131988095Y-101561009D02*
X131892857Y-101608628D01*
X131892857Y-101608628D02*
X131511905Y-101608628D01*
X132940476Y-101418152D02*
X132940476Y-102084819D01*
X132702381Y-101037200D02*
X132464286Y-101751485D01*
X132464286Y-101751485D02*
X133083333Y-101751485D01*
X122350057Y-92635238D02*
X122302438Y-92730476D01*
X122302438Y-92730476D02*
X122207200Y-92825714D01*
X122207200Y-92825714D02*
X122064342Y-92968571D01*
X122064342Y-92968571D02*
X122016723Y-93063809D01*
X122016723Y-93063809D02*
X122016723Y-93159047D01*
X122254819Y-93111428D02*
X122207200Y-93206666D01*
X122207200Y-93206666D02*
X122111961Y-93301904D01*
X122111961Y-93301904D02*
X121921485Y-93349523D01*
X121921485Y-93349523D02*
X121588152Y-93349523D01*
X121588152Y-93349523D02*
X121397676Y-93301904D01*
X121397676Y-93301904D02*
X121302438Y-93206666D01*
X121302438Y-93206666D02*
X121254819Y-93111428D01*
X121254819Y-93111428D02*
X121254819Y-92920952D01*
X121254819Y-92920952D02*
X121302438Y-92825714D01*
X121302438Y-92825714D02*
X121397676Y-92730476D01*
X121397676Y-92730476D02*
X121588152Y-92682857D01*
X121588152Y-92682857D02*
X121921485Y-92682857D01*
X121921485Y-92682857D02*
X122111961Y-92730476D01*
X122111961Y-92730476D02*
X122207200Y-92825714D01*
X122207200Y-92825714D02*
X122254819Y-92920952D01*
X122254819Y-92920952D02*
X122254819Y-93111428D01*
X121350057Y-92301904D02*
X121302438Y-92254285D01*
X121302438Y-92254285D02*
X121254819Y-92159047D01*
X121254819Y-92159047D02*
X121254819Y-91920952D01*
X121254819Y-91920952D02*
X121302438Y-91825714D01*
X121302438Y-91825714D02*
X121350057Y-91778095D01*
X121350057Y-91778095D02*
X121445295Y-91730476D01*
X121445295Y-91730476D02*
X121540533Y-91730476D01*
X121540533Y-91730476D02*
X121683390Y-91778095D01*
X121683390Y-91778095D02*
X122254819Y-92349523D01*
X122254819Y-92349523D02*
X122254819Y-91730476D01*
X123513157Y-89897571D02*
X123470300Y-89854714D01*
X123470300Y-89854714D02*
X123427442Y-89726142D01*
X123427442Y-89726142D02*
X123427442Y-89640428D01*
X123427442Y-89640428D02*
X123470300Y-89511857D01*
X123470300Y-89511857D02*
X123556014Y-89426142D01*
X123556014Y-89426142D02*
X123641728Y-89383285D01*
X123641728Y-89383285D02*
X123813157Y-89340428D01*
X123813157Y-89340428D02*
X123941728Y-89340428D01*
X123941728Y-89340428D02*
X124113157Y-89383285D01*
X124113157Y-89383285D02*
X124198871Y-89426142D01*
X124198871Y-89426142D02*
X124284585Y-89511857D01*
X124284585Y-89511857D02*
X124327442Y-89640428D01*
X124327442Y-89640428D02*
X124327442Y-89726142D01*
X124327442Y-89726142D02*
X124284585Y-89854714D01*
X124284585Y-89854714D02*
X124241728Y-89897571D01*
X123898871Y-92604285D02*
X123856014Y-92732857D01*
X123856014Y-92732857D02*
X123813157Y-92775714D01*
X123813157Y-92775714D02*
X123727442Y-92818571D01*
X123727442Y-92818571D02*
X123598871Y-92818571D01*
X123598871Y-92818571D02*
X123513157Y-92775714D01*
X123513157Y-92775714D02*
X123470300Y-92732857D01*
X123470300Y-92732857D02*
X123427442Y-92647142D01*
X123427442Y-92647142D02*
X123427442Y-92304285D01*
X123427442Y-92304285D02*
X124327442Y-92304285D01*
X124327442Y-92304285D02*
X124327442Y-92604285D01*
X124327442Y-92604285D02*
X124284585Y-92690000D01*
X124284585Y-92690000D02*
X124241728Y-92732857D01*
X124241728Y-92732857D02*
X124156014Y-92775714D01*
X124156014Y-92775714D02*
X124070300Y-92775714D01*
X124070300Y-92775714D02*
X123984585Y-92732857D01*
X123984585Y-92732857D02*
X123941728Y-92690000D01*
X123941728Y-92690000D02*
X123898871Y-92604285D01*
X123898871Y-92604285D02*
X123898871Y-92304285D01*
X123898871Y-95268142D02*
X123898871Y-95568142D01*
X123427442Y-95696714D02*
X123427442Y-95268142D01*
X123427442Y-95268142D02*
X124327442Y-95268142D01*
X124327442Y-95268142D02*
X124327442Y-95696714D01*
X106438095Y-103404819D02*
X106438095Y-102404819D01*
X106438095Y-102881009D02*
X107009523Y-102881009D01*
X107009523Y-103404819D02*
X107009523Y-102404819D01*
X107390476Y-102404819D02*
X108009523Y-102404819D01*
X108009523Y-102404819D02*
X107676190Y-102785771D01*
X107676190Y-102785771D02*
X107819047Y-102785771D01*
X107819047Y-102785771D02*
X107914285Y-102833390D01*
X107914285Y-102833390D02*
X107961904Y-102881009D01*
X107961904Y-102881009D02*
X108009523Y-102976247D01*
X108009523Y-102976247D02*
X108009523Y-103214342D01*
X108009523Y-103214342D02*
X107961904Y-103309580D01*
X107961904Y-103309580D02*
X107914285Y-103357200D01*
X107914285Y-103357200D02*
X107819047Y-103404819D01*
X107819047Y-103404819D02*
X107533333Y-103404819D01*
X107533333Y-103404819D02*
X107438095Y-103357200D01*
X107438095Y-103357200D02*
X107390476Y-103309580D01*
X114027410Y-90584819D02*
X113694077Y-90108628D01*
X113455982Y-90584819D02*
X113455982Y-89584819D01*
X113455982Y-89584819D02*
X113836934Y-89584819D01*
X113836934Y-89584819D02*
X113932172Y-89632438D01*
X113932172Y-89632438D02*
X113979791Y-89680057D01*
X113979791Y-89680057D02*
X114027410Y-89775295D01*
X114027410Y-89775295D02*
X114027410Y-89918152D01*
X114027410Y-89918152D02*
X113979791Y-90013390D01*
X113979791Y-90013390D02*
X113932172Y-90061009D01*
X113932172Y-90061009D02*
X113836934Y-90108628D01*
X113836934Y-90108628D02*
X113455982Y-90108628D01*
X114408363Y-89680057D02*
X114455982Y-89632438D01*
X114455982Y-89632438D02*
X114551220Y-89584819D01*
X114551220Y-89584819D02*
X114789315Y-89584819D01*
X114789315Y-89584819D02*
X114884553Y-89632438D01*
X114884553Y-89632438D02*
X114932172Y-89680057D01*
X114932172Y-89680057D02*
X114979791Y-89775295D01*
X114979791Y-89775295D02*
X114979791Y-89870533D01*
X114979791Y-89870533D02*
X114932172Y-90013390D01*
X114932172Y-90013390D02*
X114360744Y-90584819D01*
X114360744Y-90584819D02*
X114979791Y-90584819D01*
X106666666Y-87034819D02*
X106666666Y-87749104D01*
X106666666Y-87749104D02*
X106619047Y-87891961D01*
X106619047Y-87891961D02*
X106523809Y-87987200D01*
X106523809Y-87987200D02*
X106380952Y-88034819D01*
X106380952Y-88034819D02*
X106285714Y-88034819D01*
X107666666Y-88034819D02*
X107095238Y-88034819D01*
X107380952Y-88034819D02*
X107380952Y-87034819D01*
X107380952Y-87034819D02*
X107285714Y-87177676D01*
X107285714Y-87177676D02*
X107190476Y-87272914D01*
X107190476Y-87272914D02*
X107095238Y-87320533D01*
X120523333Y-105584819D02*
X120190000Y-105108628D01*
X119951905Y-105584819D02*
X119951905Y-104584819D01*
X119951905Y-104584819D02*
X120332857Y-104584819D01*
X120332857Y-104584819D02*
X120428095Y-104632438D01*
X120428095Y-104632438D02*
X120475714Y-104680057D01*
X120475714Y-104680057D02*
X120523333Y-104775295D01*
X120523333Y-104775295D02*
X120523333Y-104918152D01*
X120523333Y-104918152D02*
X120475714Y-105013390D01*
X120475714Y-105013390D02*
X120428095Y-105061009D01*
X120428095Y-105061009D02*
X120332857Y-105108628D01*
X120332857Y-105108628D02*
X119951905Y-105108628D01*
X120856667Y-104584819D02*
X121523333Y-104584819D01*
X121523333Y-104584819D02*
X121094762Y-105584819D01*
D11*
X110913101Y-100156497D02*
X115537580Y-104780975D01*
X111146447Y-99923152D02*
X110913101Y-100156497D01*
X112617229Y-98452370D02*
X112850574Y-98219024D01*
X112850574Y-98219024D02*
X117475052Y-102843503D01*
X115537580Y-104780975D02*
X115770925Y-104547630D01*
X117475052Y-102843503D02*
X117241707Y-103076848D01*
X110913102Y-85343503D02*
X111146447Y-85576848D01*
X112850574Y-87280975D02*
X112617229Y-87047630D01*
X115537580Y-80719024D02*
X110913102Y-85343503D01*
X115770925Y-80952370D02*
X115537580Y-80719024D01*
X117241707Y-82423152D02*
X117475053Y-82656497D01*
X117475053Y-82656497D02*
X112850574Y-87280975D01*
X128980000Y-93630000D02*
X135520000Y-93630000D01*
X128980000Y-93960000D02*
X128980000Y-93630000D01*
X128980000Y-96040000D02*
X128980000Y-96370000D01*
X128980000Y-96370000D02*
X135520000Y-96370000D01*
X135520000Y-93630000D02*
X135520000Y-93960000D01*
X135520000Y-96370000D02*
X135520000Y-96040000D01*
X139120000Y-88580000D02*
X140500000Y-88580000D01*
X139120000Y-89960000D02*
X139120000Y-88580000D01*
X139120000Y-91230000D02*
X139120000Y-101500000D01*
X139120000Y-91230000D02*
X141880000Y-91230000D01*
X139120000Y-101500000D02*
X141880000Y-101500000D01*
X141880000Y-91230000D02*
X141880000Y-101500000D01*
X127210000Y-103300000D02*
X127210000Y-99700000D01*
X122760000Y-101500000D02*
G75*
G02*
X124261193Y-99143600I2600000J0D01*
G01*
X124261193Y-103856400D02*
G75*
G02*
X122760000Y-101500000I1098807J2356400D01*
G01*
X126482795Y-99175816D02*
G75*
G02*
X127210000Y-99700000I-1122795J-2324184D01*
G01*
X127210000Y-103300000D02*
G75*
G02*
X126482795Y-103824184I-1850000J1800000D01*
G01*
X127210000Y-85300000D02*
X127210000Y-81700000D01*
X122760000Y-83500000D02*
G75*
G02*
X124261193Y-81143600I2600000J0D01*
G01*
X124261193Y-85856400D02*
G75*
G02*
X122760000Y-83500000I1098807J2356400D01*
G01*
X126482795Y-81175816D02*
G75*
G02*
X127210000Y-81700000I-1122795J-2324184D01*
G01*
X127210000Y-85300000D02*
G75*
G02*
X126482795Y-85824184I-1850000J1800000D01*
G01*
X128980000Y-84630000D02*
X135520000Y-84630000D01*
X128980000Y-84960000D02*
X128980000Y-84630000D01*
X128980000Y-87040000D02*
X128980000Y-87370000D01*
X128980000Y-87370000D02*
X135520000Y-87370000D01*
X135520000Y-84630000D02*
X135520000Y-84960000D01*
X135520000Y-87370000D02*
X135520000Y-87040000D01*
X128980000Y-102630000D02*
X135520000Y-102630000D01*
X128980000Y-102960000D02*
X128980000Y-102630000D01*
X128980000Y-105040000D02*
X128980000Y-105370000D01*
X128980000Y-105370000D02*
X135520000Y-105370000D01*
X135520000Y-102630000D02*
X135520000Y-102960000D01*
X135520000Y-105370000D02*
X135520000Y-105040000D01*
X127210000Y-94340000D02*
X127210000Y-90740000D01*
X122760000Y-92540000D02*
G75*
G02*
X124261193Y-90183600I2600000J0D01*
G01*
X124261193Y-94896400D02*
G75*
G02*
X122760000Y-92540000I1098807J2356400D01*
G01*
X126482795Y-90215816D02*
G75*
G02*
X127210000Y-90740000I-1122795J-2324184D01*
G01*
X127210000Y-94340000D02*
G75*
G02*
X126482795Y-94864184I-1850000J1800000D01*
G01*
X110924077Y-91130000D02*
X117464077Y-91130000D01*
X110924077Y-91460000D02*
X110924077Y-91130000D01*
X110924077Y-93540000D02*
X110924077Y-93870000D01*
X110924077Y-93870000D02*
X117464077Y-93870000D01*
X117464077Y-91130000D02*
X117464077Y-91460000D01*
X117464077Y-93870000D02*
X117464077Y-93540000D01*
X105620000Y-88580000D02*
X107000000Y-88580000D01*
X105620000Y-89960000D02*
X105620000Y-88580000D01*
X105620000Y-91230000D02*
X105620000Y-101500000D01*
X105620000Y-91230000D02*
X108380000Y-91230000D01*
X105620000Y-101500000D02*
X108380000Y-101500000D01*
X108380000Y-91230000D02*
X108380000Y-101500000D01*
M02*
